M48
; DRILL file {KiCad 9.0.7} date 2026-02-04T17:23:28-0600
; FORMAT={-:-/ absolute / metric / decimal}
; #@! TF.CreationDate,2026-02-04T17:23:28-06:00
; #@! TF.GenerationSoftware,Kicad,Pcbnew,9.0.7
; #@! TF.FileFunction,MixedPlating,1,2
FMAT,2
METRIC
; #@! TA.AperFunction,Plated,PTH,ComponentDrill
T1C0.200
; #@! TA.AperFunction,Plated,PTH,ViaDrill
T2C0.300
; #@! TA.AperFunction,Plated,PTH,ViaDrill
T3C0.400
; #@! TA.AperFunction,Plated,PTH,ComponentDrill
T4C0.800
; #@! TA.AperFunction,Plated,PTH,ComponentDrill
T5C1.000
; #@! TA.AperFunction,Plated,PTH,ComponentDrill
T6C1.020
; #@! TA.AperFunction,Plated,PTH,ComponentDrill
T7C1.100
; #@! TA.AperFunction,Plated,PTH,ComponentDrill
T8C1.780
; #@! TA.AperFunction,Plated,PTH,ComponentDrill
T9C2.700
; #@! TA.AperFunction,Plated,PTH,ComponentDrill
T10C3.200
; #@! TA.AperFunction,NonPlated,NPTH,ComponentDrill
T11C1.020
%
G90
G05
T1
X103.287Y-83.105
X103.287Y-84.405
X103.287Y-85.705
X104.587Y-83.105
X104.587Y-84.405
X104.587Y-85.705
T2
X99.975Y-82.405
X101.203Y-87.201
X103.051Y-104.729
X106.008Y-88.849
X108.189Y-70.483
X111.189Y-90.874
X111.875Y-104.426
X112.805Y-88.739
X112.934Y-103.118
X113.253Y-101.334
X121.737Y-104.671
X132.843Y-102.53
X137.957Y-71.009
X143.311Y-57.76
X144.623Y-70.145
X146.665Y-101.617
X146.862Y-99.958
X146.961Y-84.958
X147.052Y-87.916
X148.446Y-57.651
X148.561Y-70.219
X150.644Y-103.455
X154.159Y-102.108
X157.404Y-71.358
X157.432Y-102.794
T3
X99.516Y-84.641
X101.042Y-60.816
X101.047Y-81.36
X102.626Y-99.747
X106.699Y-99.883
X108.014Y-95.936
X109.907Y-60.772
X153.472Y-64.252
T4
X98.195Y-92.225
X98.195Y-94.765
X105.815Y-92.225
X105.815Y-94.765
X150.5Y-82.69
X150.5Y-85.23
X150.5Y-87.77
X150.5Y-90.31
X150.62Y-95.5
X155.5Y-95.5
X158.12Y-82.69
X158.12Y-85.23
X158.12Y-87.77
X158.12Y-90.31
T5
X104.209Y-56.568
X104.209Y-59.108
X106.749Y-56.568
X106.749Y-59.108
X109.289Y-56.568
X109.289Y-59.108
X111.829Y-56.568
X111.829Y-59.108
X114.369Y-56.568
X114.369Y-59.108
X116.909Y-56.568
X116.909Y-59.108
X119.45Y-56.568
X119.45Y-59.108
X121.989Y-56.568
X121.989Y-59.108
X124.529Y-56.568
X124.529Y-59.108
X125.19Y-65.5
X127.069Y-56.568
X127.069Y-59.108
X127.73Y-65.5
X129.609Y-56.568
X129.609Y-59.108
X130.27Y-65.5
X132.149Y-56.568
X132.149Y-59.108
X132.81Y-65.5
X134.689Y-56.568
X134.689Y-59.108
X137.23Y-56.568
X137.23Y-59.108
X138.5Y-64.0
X138.5Y-66.54
X139.769Y-56.568
X139.769Y-59.108
X142.309Y-56.568
X142.309Y-59.108
X142.5Y-63.0
X142.5Y-65.54
X142.5Y-68.08
X144.85Y-56.568
X144.85Y-59.108
X147.389Y-56.568
X147.389Y-59.108
X149.929Y-56.568
X149.929Y-59.108
X152.469Y-56.568
X152.469Y-59.108
X153.5Y-71.42
X153.5Y-73.96
X153.5Y-76.5
X156.04Y-71.42
X156.04Y-73.96
X156.04Y-76.5
T6
X101.5Y-73.06
X101.5Y-76.06
X104.5Y-73.06
X104.5Y-76.06
X107.5Y-73.06
X107.5Y-76.06
T7
X135.42Y-107.5
X137.96Y-107.5
X140.5Y-107.5
T8
X107.04Y-64.6
X107.04Y-68.0
X116.96Y-64.6
X116.96Y-68.0
T9
X99.28Y-57.5
X99.28Y-106.5
X157.28Y-57.5
X157.28Y-106.5
T10
X116.28Y-74.0
X116.28Y-98.0
X140.28Y-74.0
X140.28Y-98.0
T11
X98.5Y-77.0
X110.5Y-77.0
M30
