%TF.GenerationSoftware,KiCad,Pcbnew,9.0.7*%
%TF.CreationDate,2026-02-04T17:23:19-06:00*%
%TF.ProjectId,power-hat,706f7765-722d-4686-9174-2e6b69636164,rev?*%
%TF.SameCoordinates,Original*%
%TF.FileFunction,Soldermask,Bot*%
%TF.FilePolarity,Negative*%
%FSLAX46Y46*%
G04 Gerber Fmt 4.6, Leading zero omitted, Abs format (unit mm)*
G04 Created by KiCad (PCBNEW 9.0.7) date 2026-02-04 17:23:19*
%MOMM*%
%LPD*%
G01*
G04 APERTURE LIST*
G04 Aperture macros list*
%AMRoundRect*
0 Rectangle with rounded corners*
0 $1 Rounding radius*
0 $2 $3 $4 $5 $6 $7 $8 $9 X,Y pos of 4 corners*
0 Add a 4 corners polygon primitive as box body*
4,1,4,$2,$3,$4,$5,$6,$7,$8,$9,$2,$3,0*
0 Add four circle primitives for the rounded corners*
1,1,$1+$1,$2,$3*
1,1,$1+$1,$4,$5*
1,1,$1+$1,$6,$7*
1,1,$1+$1,$8,$9*
0 Add four rect primitives between the rounded corners*
20,1,$1+$1,$2,$3,$4,$5,0*
20,1,$1+$1,$4,$5,$6,$7,0*
20,1,$1+$1,$6,$7,$8,$9,0*
20,1,$1+$1,$8,$9,$2,$3,0*%
G04 Aperture macros list end*
%ADD10C,5.400000*%
%ADD11R,1.700000X1.700000*%
%ADD12C,1.700000*%
%ADD13C,6.400000*%
%ADD14C,1.500000*%
%ADD15C,2.780000*%
%ADD16R,1.905000X2.000000*%
%ADD17O,1.905000X2.000000*%
%ADD18RoundRect,0.250000X-0.550000X-0.550000X0.550000X-0.550000X0.550000X0.550000X-0.550000X0.550000X0*%
%ADD19C,1.600000*%
%ADD20C,1.020000*%
%ADD21RoundRect,0.250001X-0.499999X-0.499999X0.499999X-0.499999X0.499999X0.499999X-0.499999X0.499999X0*%
%ADD22RoundRect,0.250000X-0.650000X1.000000X-0.650000X-1.000000X0.650000X-1.000000X0.650000X1.000000X0*%
%ADD23RoundRect,0.250000X-0.262500X-0.450000X0.262500X-0.450000X0.262500X0.450000X-0.262500X0.450000X0*%
%ADD24RoundRect,0.250000X-0.250000X-0.475000X0.250000X-0.475000X0.250000X0.475000X-0.250000X0.475000X0*%
%ADD25RoundRect,0.250000X-0.325000X-0.650000X0.325000X-0.650000X0.325000X0.650000X-0.325000X0.650000X0*%
%ADD26RoundRect,0.250000X-1.000000X-0.900000X1.000000X-0.900000X1.000000X0.900000X-1.000000X0.900000X0*%
%ADD27RoundRect,0.150000X-0.587500X-0.150000X0.587500X-0.150000X0.587500X0.150000X-0.587500X0.150000X0*%
G04 APERTURE END LIST*
D10*
%TO.C,H1*%
X99280000Y-57500000D03*
%TD*%
%TO.C,H2*%
X157280000Y-57500000D03*
%TD*%
D11*
%TO.C,J3*%
X153500000Y-71420000D03*
D12*
X156040000Y-71420000D03*
X153500000Y-73960000D03*
X156040000Y-73960000D03*
X153500000Y-76500000D03*
X156040000Y-76500000D03*
%TD*%
D10*
%TO.C,H3*%
X99280000Y-106500000D03*
%TD*%
D11*
%TO.C,JP1*%
X138500000Y-64000000D03*
D12*
X138500000Y-66540000D03*
%TD*%
D10*
%TO.C,H4*%
X157280000Y-106500000D03*
%TD*%
D13*
%TO.C,FH1*%
X116280000Y-74000000D03*
%TD*%
D14*
%TO.C,Y1*%
X150620000Y-95500000D03*
X155500000Y-95500000D03*
%TD*%
D13*
%TO.C,FH2*%
X140280000Y-74000000D03*
%TD*%
D15*
%TO.C,F1*%
X107040000Y-64600000D03*
X107040000Y-68000000D03*
X116960000Y-64600000D03*
X116960000Y-68000000D03*
%TD*%
D11*
%TO.C,J2*%
X104209500Y-56567700D03*
D12*
X104209500Y-59107700D03*
X106749500Y-56567700D03*
X106749500Y-59107700D03*
X109289500Y-56567700D03*
X109289500Y-59107700D03*
X111829500Y-56567700D03*
X111829500Y-59107700D03*
X114369500Y-56567700D03*
X114369500Y-59107700D03*
X116909500Y-56567700D03*
X116909500Y-59107700D03*
X119449500Y-56567700D03*
X119449500Y-59107700D03*
X121989500Y-56567700D03*
X121989500Y-59107700D03*
X124529500Y-56567700D03*
X124529500Y-59107700D03*
X127069500Y-56567700D03*
X127069500Y-59107700D03*
X129609500Y-56567700D03*
X129609500Y-59107700D03*
X132149500Y-56567700D03*
X132149500Y-59107700D03*
X134689500Y-56567700D03*
X134689500Y-59107700D03*
X137229500Y-56567700D03*
X137229500Y-59107700D03*
X139769500Y-56567700D03*
X139769500Y-59107700D03*
X142309500Y-56567700D03*
X142309500Y-59107700D03*
X144849500Y-56567700D03*
X144849500Y-59107700D03*
X147389500Y-56567700D03*
X147389500Y-59107700D03*
X149929500Y-56567700D03*
X149929500Y-59107700D03*
X152469500Y-56567700D03*
X152469500Y-59107700D03*
%TD*%
D13*
%TO.C,FH3*%
X116280000Y-98000000D03*
%TD*%
%TO.C,FH4*%
X140280000Y-98000000D03*
%TD*%
D11*
%TO.C,JP2*%
X142500000Y-63000000D03*
D12*
X142500000Y-65540000D03*
X142500000Y-68080000D03*
%TD*%
D16*
%TO.C,Q1*%
X135420000Y-107500000D03*
D17*
X137960000Y-107500000D03*
X140500000Y-107500000D03*
%TD*%
D11*
%TO.C,J4*%
X132810000Y-65500000D03*
D12*
X130270000Y-65500000D03*
X127730000Y-65500000D03*
X125190000Y-65500000D03*
%TD*%
D18*
%TO.C,U3*%
X150500000Y-82690000D03*
D19*
X150500000Y-85230000D03*
X150500000Y-87770000D03*
X150500000Y-90310000D03*
X158120000Y-90310000D03*
X158120000Y-87770000D03*
X158120000Y-85230000D03*
X158120000Y-82690000D03*
%TD*%
D20*
%TO.C,J1*%
X98500000Y-77000000D03*
X110500000Y-77000000D03*
D21*
X101500000Y-73060000D03*
D14*
X104500000Y-73060000D03*
X107500000Y-73060000D03*
X101500000Y-76060000D03*
X104500000Y-76060000D03*
X107500000Y-76060000D03*
%TD*%
D18*
%TO.C,U2*%
X98195000Y-92225000D03*
D19*
X98195000Y-94765000D03*
X105815000Y-94765000D03*
X105815000Y-92225000D03*
%TD*%
D22*
%TO.C,D2*%
X109500000Y-89500000D03*
X109500000Y-93500000D03*
%TD*%
D23*
%TO.C,R2*%
X147780000Y-106912500D03*
X147780000Y-105087500D03*
%TD*%
%TO.C,R3*%
X110867500Y-106000000D03*
X112692500Y-106000000D03*
%TD*%
D24*
%TO.C,C1*%
X102830000Y-106000000D03*
X104730000Y-106000000D03*
%TD*%
D25*
%TO.C,C9*%
X98000000Y-62500000D03*
X100950000Y-62500000D03*
%TD*%
D24*
%TO.C,C4*%
X148830000Y-68000000D03*
X150730000Y-68000000D03*
%TD*%
%TO.C,C_BOOT1*%
X102830000Y-102000000D03*
X104730000Y-102000000D03*
%TD*%
D23*
%TO.C,R1*%
X147780000Y-102912500D03*
X147780000Y-101087500D03*
%TD*%
D26*
%TO.C,D1*%
X97630000Y-66000000D03*
X101930000Y-66000000D03*
%TD*%
D23*
%TO.C,R5*%
X143780000Y-106912500D03*
X143780000Y-105087500D03*
%TD*%
D24*
%TO.C,C5*%
X150830000Y-102000000D03*
X152730000Y-102000000D03*
%TD*%
D25*
%TO.C,C2*%
X106305000Y-106000000D03*
X109255000Y-106000000D03*
%TD*%
D23*
%TO.C,R7*%
X159000000Y-102825000D03*
X159000000Y-101000000D03*
%TD*%
%TO.C,R9*%
X126867500Y-104000000D03*
X128692500Y-104000000D03*
%TD*%
D27*
%TO.C,Q3*%
X134842500Y-103050000D03*
X134842500Y-104950000D03*
X136717500Y-104000000D03*
%TD*%
D23*
%TO.C,R10*%
X138867500Y-104000000D03*
X140692500Y-104000000D03*
%TD*%
%TO.C,R_RT1*%
X98867500Y-102000000D03*
X100692500Y-102000000D03*
%TD*%
D24*
%TO.C,C3*%
X144830000Y-68000000D03*
X146730000Y-68000000D03*
%TD*%
D23*
%TO.C,R6*%
X155780000Y-102912500D03*
X155780000Y-101087500D03*
%TD*%
%TO.C,R4*%
X143780000Y-102912500D03*
X143780000Y-101087500D03*
%TD*%
D25*
%TO.C,C8*%
X106305000Y-102000000D03*
X109255000Y-102000000D03*
%TD*%
D27*
%TO.C,Q2*%
X130842500Y-103050000D03*
X130842500Y-104950000D03*
X132717500Y-104000000D03*
%TD*%
D24*
%TO.C,C6*%
X150830000Y-106000000D03*
X152730000Y-106000000D03*
%TD*%
%TO.C,C7*%
X115000000Y-104000000D03*
X116900000Y-104000000D03*
%TD*%
D23*
%TO.C,R8*%
X122867500Y-104000000D03*
X124692500Y-104000000D03*
%TD*%
D24*
%TO.C,C_COMP1*%
X118830000Y-104000000D03*
X120730000Y-104000000D03*
%TD*%
D23*
%TO.C,R_COMP1*%
X119087500Y-101500000D03*
X120912500Y-101500000D03*
%TD*%
M02*
