%TF.GenerationSoftware,KiCad,Pcbnew,9.0.7*%
%TF.CreationDate,2026-02-04T17:23:19-06:00*%
%TF.ProjectId,power-hat,706f7765-722d-4686-9174-2e6b69636164,rev?*%
%TF.SameCoordinates,Original*%
%TF.FileFunction,Copper,L2,Bot*%
%TF.FilePolarity,Positive*%
%FSLAX46Y46*%
G04 Gerber Fmt 4.6, Leading zero omitted, Abs format (unit mm)*
G04 Created by KiCad (PCBNEW 9.0.7) date 2026-02-04 17:23:19*
%MOMM*%
%LPD*%
G01*
G04 APERTURE LIST*
G04 Aperture macros list*
%AMRoundRect*
0 Rectangle with rounded corners*
0 $1 Rounding radius*
0 $2 $3 $4 $5 $6 $7 $8 $9 X,Y pos of 4 corners*
0 Add a 4 corners polygon primitive as box body*
4,1,4,$2,$3,$4,$5,$6,$7,$8,$9,$2,$3,0*
0 Add four circle primitives for the rounded corners*
1,1,$1+$1,$2,$3*
1,1,$1+$1,$4,$5*
1,1,$1+$1,$6,$7*
1,1,$1+$1,$8,$9*
0 Add four rect primitives between the rounded corners*
20,1,$1+$1,$2,$3,$4,$5,0*
20,1,$1+$1,$4,$5,$6,$7,0*
20,1,$1+$1,$6,$7,$8,$9,0*
20,1,$1+$1,$8,$9,$2,$3,0*%
G04 Aperture macros list end*
%TA.AperFunction,HeatsinkPad*%
%ADD10C,0.500000*%
%TD*%
%TA.AperFunction,HeatsinkPad*%
%ADD11R,1.800000X3.100000*%
%TD*%
%TA.AperFunction,ComponentPad*%
%ADD12C,5.400000*%
%TD*%
%TA.AperFunction,ComponentPad*%
%ADD13R,1.700000X1.700000*%
%TD*%
%TA.AperFunction,ComponentPad*%
%ADD14C,1.700000*%
%TD*%
%TA.AperFunction,ComponentPad*%
%ADD15C,6.400000*%
%TD*%
%TA.AperFunction,ComponentPad*%
%ADD16C,1.500000*%
%TD*%
%TA.AperFunction,ComponentPad*%
%ADD17C,2.780000*%
%TD*%
%TA.AperFunction,ComponentPad*%
%ADD18R,1.905000X2.000000*%
%TD*%
%TA.AperFunction,ComponentPad*%
%ADD19O,1.905000X2.000000*%
%TD*%
%TA.AperFunction,ComponentPad*%
%ADD20RoundRect,0.250000X-0.550000X-0.550000X0.550000X-0.550000X0.550000X0.550000X-0.550000X0.550000X0*%
%TD*%
%TA.AperFunction,ComponentPad*%
%ADD21C,1.600000*%
%TD*%
%TA.AperFunction,ComponentPad*%
%ADD22RoundRect,0.250001X-0.499999X-0.499999X0.499999X-0.499999X0.499999X0.499999X-0.499999X0.499999X0*%
%TD*%
%TA.AperFunction,SMDPad,CuDef*%
%ADD23RoundRect,0.250000X-0.650000X1.000000X-0.650000X-1.000000X0.650000X-1.000000X0.650000X1.000000X0*%
%TD*%
%TA.AperFunction,SMDPad,CuDef*%
%ADD24RoundRect,0.250000X-0.262500X-0.450000X0.262500X-0.450000X0.262500X0.450000X-0.262500X0.450000X0*%
%TD*%
%TA.AperFunction,SMDPad,CuDef*%
%ADD25RoundRect,0.250000X-0.250000X-0.475000X0.250000X-0.475000X0.250000X0.475000X-0.250000X0.475000X0*%
%TD*%
%TA.AperFunction,SMDPad,CuDef*%
%ADD26RoundRect,0.250000X-0.325000X-0.650000X0.325000X-0.650000X0.325000X0.650000X-0.325000X0.650000X0*%
%TD*%
%TA.AperFunction,SMDPad,CuDef*%
%ADD27RoundRect,0.250000X-1.000000X-0.900000X1.000000X-0.900000X1.000000X0.900000X-1.000000X0.900000X0*%
%TD*%
%TA.AperFunction,SMDPad,CuDef*%
%ADD28RoundRect,0.150000X-0.587500X-0.150000X0.587500X-0.150000X0.587500X0.150000X-0.587500X0.150000X0*%
%TD*%
%TA.AperFunction,ViaPad*%
%ADD29C,0.800000*%
%TD*%
%TA.AperFunction,ViaPad*%
%ADD30C,0.600000*%
%TD*%
%TA.AperFunction,Conductor*%
%ADD31C,0.600000*%
%TD*%
%TA.AperFunction,Conductor*%
%ADD32C,0.200000*%
%TD*%
G04 APERTURE END LIST*
D10*
%TO.P,U1,9,GND*%
%TO.N,GND*%
X103287500Y-83105000D03*
X103287500Y-84405000D03*
X103287500Y-85705000D03*
D11*
X103937500Y-84405000D03*
D10*
X104587500Y-83105000D03*
X104587500Y-84405000D03*
X104587500Y-85705000D03*
%TD*%
D12*
%TO.P,H1,1*%
%TO.N,N/C*%
X99280000Y-57500000D03*
%TD*%
%TO.P,H2,1*%
%TO.N,N/C*%
X157280000Y-57500000D03*
%TD*%
D13*
%TO.P,J3,1,Pin_1*%
%TO.N,unconnected-(J3-Pin_1-Pad1)*%
X153500000Y-71420000D03*
D14*
%TO.P,J3,2,Pin_2*%
%TO.N,unconnected-(J3-Pin_2-Pad2)*%
X156040000Y-71420000D03*
%TO.P,J3,3,Pin_3*%
%TO.N,unconnected-(J3-Pin_3-Pad3)*%
X153500000Y-73960000D03*
%TO.P,J3,4,Pin_4*%
%TO.N,unconnected-(J3-Pin_4-Pad4)*%
X156040000Y-73960000D03*
%TO.P,J3,5,Pin_5*%
%TO.N,unconnected-(J3-Pin_5-Pad5)*%
X153500000Y-76500000D03*
%TO.P,J3,6,Pin_6*%
%TO.N,unconnected-(J3-Pin_6-Pad6)*%
X156040000Y-76500000D03*
%TD*%
D12*
%TO.P,H3,1*%
%TO.N,N/C*%
X99280000Y-106500000D03*
%TD*%
D13*
%TO.P,JP1,1,Pin_1*%
%TO.N,unconnected-(JP1-Pin_1-Pad1)*%
X138500000Y-64000000D03*
D14*
%TO.P,JP1,2,Pin_2*%
%TO.N,unconnected-(JP1-Pin_2-Pad2)*%
X138500000Y-66540000D03*
%TD*%
D12*
%TO.P,H4,1*%
%TO.N,N/C*%
X157280000Y-106500000D03*
%TD*%
D15*
%TO.P,FH1,1*%
%TO.N,N/C*%
X116280000Y-74000000D03*
%TD*%
D16*
%TO.P,Y1,1,1*%
%TO.N,XTAL1*%
X150620000Y-95500000D03*
%TO.P,Y1,2,2*%
%TO.N,XTAL2*%
X155500000Y-95500000D03*
%TD*%
D15*
%TO.P,FH2,1*%
%TO.N,N/C*%
X140280000Y-74000000D03*
%TD*%
D17*
%TO.P,F1,1*%
%TO.N,12V_IGN*%
X107040000Y-64600000D03*
X107040000Y-68000000D03*
%TO.P,F1,2*%
%TO.N,12V_FUSED*%
X116960000Y-64600000D03*
X116960000Y-68000000D03*
%TD*%
D13*
%TO.P,J2,1,Pin_1*%
%TO.N,12V_FUSED*%
X104209500Y-56567700D03*
D14*
%TO.P,J2,2,Pin_2*%
%TO.N,+5V*%
X104209500Y-59107700D03*
%TO.P,J2,3,Pin_3*%
%TO.N,unconnected-(J2-Pin_3-Pad3)*%
X106749500Y-56567700D03*
%TO.P,J2,4,Pin_4*%
%TO.N,+5V*%
X106749500Y-59107700D03*
%TO.P,J2,5,Pin_5*%
%TO.N,unconnected-(J2-Pin_5-Pad5)*%
X109289500Y-56567700D03*
%TO.P,J2,6,Pin_6*%
%TO.N,GND*%
X109289500Y-59107700D03*
%TO.P,J2,7,Pin_7*%
%TO.N,unconnected-(J2-Pin_7-Pad7)*%
X111829500Y-56567700D03*
%TO.P,J2,8,Pin_8*%
%TO.N,unconnected-(J2-Pin_8-Pad8)*%
X111829500Y-59107700D03*
%TO.P,J2,9,Pin_9*%
%TO.N,GND*%
X114369500Y-56567700D03*
%TO.P,J2,10,Pin_10*%
%TO.N,unconnected-(J2-Pin_10-Pad10)*%
X114369500Y-59107700D03*
%TO.P,J2,11,Pin_11*%
%TO.N,unconnected-(J2-Pin_11-Pad11)*%
X116909500Y-56567700D03*
%TO.P,J2,12,Pin_12*%
%TO.N,unconnected-(J2-Pin_12-Pad12)*%
X116909500Y-59107700D03*
%TO.P,J2,13,Pin_13*%
%TO.N,unconnected-(J2-Pin_13-Pad13)*%
X119449500Y-56567700D03*
%TO.P,J2,14,Pin_14*%
%TO.N,GND*%
X119449500Y-59107700D03*
%TO.P,J2,15,Pin_15*%
%TO.N,SHUTDOWN_REQ*%
X121989500Y-56567700D03*
%TO.P,J2,16,Pin_16*%
%TO.N,unconnected-(J2-Pin_16-Pad16)*%
X121989500Y-59107700D03*
%TO.P,J2,17,Pin_17*%
%TO.N,+3.3V*%
X124529500Y-56567700D03*
%TO.P,J2,18,Pin_18*%
%TO.N,unconnected-(J2-Pin_18-Pad18)*%
X124529500Y-59107700D03*
%TO.P,J2,19,Pin_19*%
%TO.N,unconnected-(J2-Pin_19-Pad19)*%
X127069500Y-56567700D03*
%TO.P,J2,20,Pin_20*%
%TO.N,GND*%
X127069500Y-59107700D03*
%TO.P,J2,21,Pin_21*%
%TO.N,unconnected-(J2-Pin_21-Pad21)*%
X129609500Y-56567700D03*
%TO.P,J2,22,Pin_22*%
%TO.N,unconnected-(J2-Pin_22-Pad22)*%
X129609500Y-59107700D03*
%TO.P,J2,23,Pin_23*%
%TO.N,unconnected-(J2-Pin_23-Pad23)*%
X132149500Y-56567700D03*
%TO.P,J2,24,Pin_24*%
%TO.N,unconnected-(J2-Pin_24-Pad24)*%
X132149500Y-59107700D03*
%TO.P,J2,25,Pin_25*%
%TO.N,GND*%
X134689500Y-56567700D03*
%TO.P,J2,26,Pin_26*%
%TO.N,unconnected-(J2-Pin_26-Pad26)*%
X134689500Y-59107700D03*
%TO.P,J2,27,Pin_27*%
%TO.N,unconnected-(J2-Pin_27-Pad27)*%
X137229500Y-56567700D03*
%TO.P,J2,28,Pin_28*%
%TO.N,unconnected-(J2-Pin_28-Pad28)*%
X137229500Y-59107700D03*
%TO.P,J2,29,Pin_29*%
%TO.N,unconnected-(J2-Pin_29-Pad29)*%
X139769500Y-56567700D03*
%TO.P,J2,30,Pin_30*%
%TO.N,GND*%
X139769500Y-59107700D03*
%TO.P,J2,31,Pin_31*%
%TO.N,unconnected-(J2-Pin_31-Pad31)*%
X142309500Y-56567700D03*
%TO.P,J2,32,Pin_32*%
%TO.N,FAN_PWM*%
X142309500Y-59107700D03*
%TO.P,J2,33,Pin_33*%
%TO.N,FAN_TACH*%
X144849500Y-56567700D03*
%TO.P,J2,34,Pin_34*%
%TO.N,GND*%
X144849500Y-59107700D03*
%TO.P,J2,35,Pin_35*%
%TO.N,unconnected-(J2-Pin_35-Pad35)*%
X147389500Y-56567700D03*
%TO.P,J2,36,Pin_36*%
%TO.N,unconnected-(J2-Pin_36-Pad36)*%
X147389500Y-59107700D03*
%TO.P,J2,37,Pin_37*%
%TO.N,unconnected-(J2-Pin_37-Pad37)*%
X149929500Y-56567700D03*
%TO.P,J2,38,Pin_38*%
%TO.N,unconnected-(J2-Pin_38-Pad38)*%
X149929500Y-59107700D03*
%TO.P,J2,39,Pin_39*%
%TO.N,GND*%
X152469500Y-56567700D03*
%TO.P,J2,40,Pin_40*%
%TO.N,unconnected-(J2-Pin_40-Pad40)*%
X152469500Y-59107700D03*
%TD*%
D15*
%TO.P,FH3,1*%
%TO.N,N/C*%
X116280000Y-98000000D03*
%TD*%
%TO.P,FH4,1*%
%TO.N,N/C*%
X140280000Y-98000000D03*
%TD*%
D13*
%TO.P,JP2,1,Pin_1*%
%TO.N,unconnected-(JP2-Pin_1-Pad1)*%
X142500000Y-63000000D03*
D14*
%TO.P,JP2,2,Pin_2*%
%TO.N,unconnected-(JP2-Pin_2-Pad2)*%
X142500000Y-65540000D03*
%TO.P,JP2,3,Pin_3*%
%TO.N,unconnected-(JP2-Pin_3-Pad3)*%
X142500000Y-68080000D03*
%TD*%
D18*
%TO.P,Q1,1,G*%
%TO.N,/Q1_GATE*%
X135420000Y-107500000D03*
D19*
%TO.P,Q1,2,D*%
%TO.N,12V_SWITCHED*%
X137960000Y-107500000D03*
%TO.P,Q1,3,S*%
X140500000Y-107500000D03*
%TD*%
D13*
%TO.P,J4,1,Pin_1*%
%TO.N,GND*%
X132810000Y-65500000D03*
D14*
%TO.P,J4,2,Pin_2*%
%TO.N,FAN+*%
X130270000Y-65500000D03*
%TO.P,J4,3,Pin_3*%
%TO.N,FAN_TACH*%
X127730000Y-65500000D03*
%TO.P,J4,4,Pin_4*%
%TO.N,FAN_PWM*%
X125190000Y-65500000D03*
%TD*%
D20*
%TO.P,U3,1,~{RESET}/PB5*%
%TO.N,RESET*%
X150500000Y-82690000D03*
D21*
%TO.P,U3,2,XTAL1/PB3*%
%TO.N,GATE_CTRL*%
X150500000Y-85230000D03*
%TO.P,U3,3,XTAL2/PB4*%
%TO.N,SHUTDOWN_REQ*%
X150500000Y-87770000D03*
%TO.P,U3,4,GND*%
%TO.N,GND*%
X150500000Y-90310000D03*
%TO.P,U3,5,AREF/PB0*%
%TO.N,HEARTBEAT_LED*%
X158120000Y-90310000D03*
%TO.P,U3,6,PB1*%
%TO.N,TIMER_LED*%
X158120000Y-87770000D03*
%TO.P,U3,7,PB2*%
%TO.N,IGN_DETECT*%
X158120000Y-85230000D03*
%TO.P,U3,8,VCC*%
%TO.N,+3.3V*%
X158120000Y-82690000D03*
%TD*%
D22*
%TO.P,J1,1,Pin_1*%
%TO.N,12V_IGN*%
X101500000Y-73060000D03*
D16*
%TO.P,J1,2,Pin_2*%
X104500000Y-73060000D03*
%TO.P,J1,3,Pin_3*%
%TO.N,12V_ACC*%
X107500000Y-73060000D03*
%TO.P,J1,4,Pin_4*%
%TO.N,GND*%
X101500000Y-76060000D03*
%TO.P,J1,5,Pin_5*%
X104500000Y-76060000D03*
%TO.P,J1,6,Pin_6*%
X107500000Y-76060000D03*
%TD*%
D20*
%TO.P,U2,1*%
%TO.N,GND*%
X98195000Y-92225000D03*
D21*
%TO.P,U2,2*%
X98195000Y-94765000D03*
%TO.P,U2,3*%
X105815000Y-94765000D03*
%TO.P,U2,4*%
%TO.N,IGN_DETECT*%
X105815000Y-92225000D03*
%TD*%
D23*
%TO.P,D2,1,K*%
%TO.N,12V_FUSED*%
X109500000Y-89500000D03*
%TO.P,D2,2,A*%
%TO.N,12V_IGN*%
X109500000Y-93500000D03*
%TD*%
D24*
%TO.P,R2,1*%
%TO.N,/Q1_GATE*%
X147780000Y-106912500D03*
%TO.P,R2,2*%
%TO.N,GATE_CTRL*%
X147780000Y-105087500D03*
%TD*%
%TO.P,R3,1*%
%TO.N,+5V*%
X110867500Y-106000000D03*
%TO.P,R3,2*%
%TO.N,/U1_FB*%
X112692500Y-106000000D03*
%TD*%
D25*
%TO.P,C1,1*%
%TO.N,+3.3V*%
X102830000Y-106000000D03*
%TO.P,C1,2*%
%TO.N,GND*%
X104730000Y-106000000D03*
%TD*%
D26*
%TO.P,C9,1*%
%TO.N,12V_FUSED*%
X98000000Y-62500000D03*
%TO.P,C9,2*%
%TO.N,GND*%
X100950000Y-62500000D03*
%TD*%
D25*
%TO.P,C4,1*%
%TO.N,+3.3V*%
X148830000Y-68000000D03*
%TO.P,C4,2*%
%TO.N,GND*%
X150730000Y-68000000D03*
%TD*%
%TO.P,C_BOOT1,1*%
%TO.N,/U1_SW*%
X102830000Y-102000000D03*
%TO.P,C_BOOT1,2*%
%TO.N,/U1_BOOT*%
X104730000Y-102000000D03*
%TD*%
D24*
%TO.P,R1,1*%
%TO.N,GND*%
X147780000Y-102912500D03*
%TO.P,R1,2*%
%TO.N,/U1_FB*%
X147780000Y-101087500D03*
%TD*%
D27*
%TO.P,D1,1,A1*%
%TO.N,12V_FUSED*%
X97630000Y-66000000D03*
%TO.P,D1,2,A2*%
%TO.N,GND*%
X101930000Y-66000000D03*
%TD*%
D24*
%TO.P,R5,1*%
%TO.N,/Q1_GATE*%
X143780000Y-106912500D03*
%TO.P,R5,2*%
%TO.N,GATE_CTRL*%
X143780000Y-105087500D03*
%TD*%
D25*
%TO.P,C5,1*%
%TO.N,+3.3V*%
X150830000Y-102000000D03*
%TO.P,C5,2*%
%TO.N,GND*%
X152730000Y-102000000D03*
%TD*%
D26*
%TO.P,C2,1*%
%TO.N,+5V*%
X106305000Y-106000000D03*
%TO.P,C2,2*%
%TO.N,GND*%
X109255000Y-106000000D03*
%TD*%
D24*
%TO.P,R7,1*%
%TO.N,+3.3V*%
X159000000Y-102825000D03*
%TO.P,R7,2*%
%TO.N,RESET*%
X159000000Y-101000000D03*
%TD*%
%TO.P,R9,1*%
%TO.N,GATE_CTRL*%
X126867500Y-104000000D03*
%TO.P,R9,2*%
%TO.N,Q2_GATE*%
X128692500Y-104000000D03*
%TD*%
D28*
%TO.P,Q3,1,G*%
%TO.N,FAN_PWM*%
X134842500Y-103050000D03*
%TO.P,Q3,2,S*%
%TO.N,GND*%
X134842500Y-104950000D03*
%TO.P,Q3,3,D*%
%TO.N,FAN-*%
X136717500Y-104000000D03*
%TD*%
D24*
%TO.P,R10,1*%
%TO.N,FAN_PWM*%
X138867500Y-104000000D03*
%TO.P,R10,2*%
%TO.N,GND*%
X140692500Y-104000000D03*
%TD*%
%TO.P,R_RT1,1*%
%TO.N,/RT_CLK*%
X98867500Y-102000000D03*
%TO.P,R_RT1,2*%
%TO.N,GND*%
X100692500Y-102000000D03*
%TD*%
D25*
%TO.P,C3,1*%
%TO.N,IGN_DETECT*%
X144830000Y-68000000D03*
%TO.P,C3,2*%
%TO.N,GND*%
X146730000Y-68000000D03*
%TD*%
D24*
%TO.P,R6,1*%
%TO.N,12V_IGN*%
X155780000Y-102912500D03*
%TO.P,R6,2*%
%TO.N,GND*%
X155780000Y-101087500D03*
%TD*%
%TO.P,R4,1*%
%TO.N,12V_ACC*%
X143780000Y-102912500D03*
%TO.P,R4,2*%
%TO.N,R6_OUT*%
X143780000Y-101087500D03*
%TD*%
D26*
%TO.P,C8,1*%
%TO.N,+5V*%
X106305000Y-102000000D03*
%TO.P,C8,2*%
%TO.N,U1-FB*%
X109255000Y-102000000D03*
%TD*%
D28*
%TO.P,Q2,1,G*%
%TO.N,GATE_CTRL*%
X130842500Y-103050000D03*
%TO.P,Q2,2,S*%
%TO.N,GND*%
X130842500Y-104950000D03*
%TO.P,Q2,3,D*%
X132717500Y-104000000D03*
%TD*%
D25*
%TO.P,C6,1*%
%TO.N,+3.3V*%
X150830000Y-106000000D03*
%TO.P,C6,2*%
%TO.N,GND*%
X152730000Y-106000000D03*
%TD*%
%TO.P,C7,1*%
%TO.N,XTAL1*%
X115000000Y-104000000D03*
%TO.P,C7,2*%
%TO.N,GND*%
X116900000Y-104000000D03*
%TD*%
D24*
%TO.P,R8,1*%
%TO.N,+3.3V*%
X122867500Y-104000000D03*
%TO.P,R8,2*%
%TO.N,GATE_CTRL*%
X124692500Y-104000000D03*
%TD*%
D25*
%TO.P,C_COMP1,1*%
%TO.N,/COMP_RC*%
X118830000Y-104000000D03*
%TO.P,C_COMP1,2*%
%TO.N,GND*%
X120730000Y-104000000D03*
%TD*%
D24*
%TO.P,R_COMP1,1*%
%TO.N,/U1_COMP*%
X119087500Y-101500000D03*
%TO.P,R_COMP1,2*%
%TO.N,/COMP_RC*%
X120912500Y-101500000D03*
%TD*%
D29*
%TO.N,GND*%
X153472200Y-64252500D03*
D30*
%TO.N,+3.3V*%
X121737000Y-104670800D03*
X150643600Y-103455100D03*
X157431600Y-102794200D03*
X103050700Y-104729100D03*
X148446300Y-57651000D03*
D29*
%TO.N,+5V*%
X108014100Y-95936100D03*
X109907400Y-60771600D03*
X106699200Y-99882800D03*
D30*
%TO.N,IGN_DETECT*%
X108188600Y-70483100D03*
X144622900Y-70144800D03*
%TO.N,XTAL1*%
X113253500Y-101333600D03*
X148561400Y-70219200D03*
%TO.N,XTAL2*%
X157403900Y-71357600D03*
D29*
%TO.N,12V_FUSED*%
X101041700Y-60815500D03*
X99516500Y-84641200D03*
D30*
%TO.N,/U1_BOOT*%
X99975500Y-82405300D03*
D29*
%TO.N,/U1_SW*%
X102626400Y-99747300D03*
X101047200Y-81360200D03*
D30*
%TO.N,12V_ACC*%
X137957300Y-71009300D03*
%TO.N,SHUTDOWN_REQ*%
X146961300Y-84957800D03*
X143311300Y-57759700D03*
%TO.N,GATE_CTRL*%
X146664700Y-101617000D03*
X147051600Y-87915700D03*
X132842500Y-102530500D03*
%TO.N,/U1_FB*%
X111875000Y-104425800D03*
X146862400Y-99957700D03*
%TO.N,/U1_COMP*%
X112805400Y-88739300D03*
%TO.N,/RT_CLK*%
X101203400Y-87201400D03*
%TO.N,12V_IGN*%
X111189500Y-90873600D03*
X106007800Y-88848900D03*
X154159500Y-102107800D03*
X112934100Y-103118500D03*
%TD*%
D31*
%TO.N,GND*%
X139769500Y-59107700D02*
X141143600Y-60481800D01*
X133667500Y-104950000D02*
X132717500Y-104000000D01*
X107111100Y-96063500D02*
X107111200Y-96063600D01*
X114369500Y-56567700D02*
X115720500Y-55216700D01*
X107112400Y-96309500D02*
X107780000Y-96977100D01*
X113304600Y-107253000D02*
X114545200Y-106012400D01*
X130311600Y-105480900D02*
X130842500Y-104950000D01*
X152730000Y-102000000D02*
X152730000Y-92540000D01*
X120299100Y-104430900D02*
X121349000Y-105480900D01*
X102669800Y-55405400D02*
X102858500Y-55216700D01*
X107780000Y-96977100D02*
X107780000Y-102629200D01*
X150730000Y-68000000D02*
X153472200Y-65257800D01*
X98195000Y-92225000D02*
X98195000Y-94765000D01*
X104500000Y-76060000D02*
X104587500Y-76147500D01*
X118127700Y-105227700D02*
X116900000Y-104000000D01*
X108106100Y-107402700D02*
X105575200Y-107402700D01*
X104474100Y-93424100D02*
X105815000Y-94765000D01*
X133338500Y-55216700D02*
X134689500Y-56567700D01*
X109255000Y-106253800D02*
X109255000Y-106000000D01*
X132110100Y-64148300D02*
X132810000Y-64148300D01*
X104474100Y-85818400D02*
X104474100Y-93424100D01*
X100692500Y-102000000D02*
X100692500Y-97262500D01*
X107111200Y-96063600D02*
X107111200Y-96167000D01*
X109289500Y-59107700D02*
X109005700Y-59391500D01*
X141143600Y-60481800D02*
X143475400Y-60481800D01*
X107780000Y-102629200D02*
X108774900Y-103624100D01*
X103937500Y-84405000D02*
X104587500Y-84405000D01*
X102858500Y-55216700D02*
X113018500Y-55216700D01*
X139443000Y-105249500D02*
X135142000Y-105249500D01*
X101930000Y-66000000D02*
X103112400Y-67182400D01*
X152469500Y-56567700D02*
X153857200Y-57955400D01*
X102669800Y-60780200D02*
X102669800Y-55405400D01*
X103112400Y-74672400D02*
X104500000Y-76060000D01*
X151449200Y-107280800D02*
X150294600Y-107280800D01*
X101930000Y-66000000D02*
X101930000Y-63480000D01*
X112676700Y-104144000D02*
X114545200Y-106012400D01*
X132810000Y-65500000D02*
X132810000Y-64148300D01*
X109255000Y-106253800D02*
X108106100Y-107402700D01*
X127069500Y-59107700D02*
X132110100Y-64148300D01*
X134842500Y-104950000D02*
X133667500Y-104950000D01*
X108774900Y-103624100D02*
X112207100Y-103624100D01*
X112676700Y-104093700D02*
X112676700Y-104144000D01*
X107111200Y-96167000D02*
X107112400Y-96168200D01*
X121349000Y-105480900D02*
X130311600Y-105480900D01*
X135142000Y-105249500D02*
X134842500Y-104950000D01*
X131792500Y-104000000D02*
X130842500Y-104950000D01*
X152730000Y-106000000D02*
X151449200Y-107280800D01*
X109005700Y-74554300D02*
X107500000Y-76060000D01*
X153642500Y-101087500D02*
X152730000Y-102000000D01*
X110254200Y-107253000D02*
X113304600Y-107253000D01*
X152730000Y-102000000D02*
X152730000Y-106000000D01*
X104587500Y-85705000D02*
X104474100Y-85818400D01*
X109005700Y-59391500D02*
X109005700Y-74554300D01*
X143475400Y-60481800D02*
X144849500Y-59107700D01*
X150730000Y-69184400D02*
X150730000Y-68000000D01*
X100692500Y-97262500D02*
X98195000Y-94765000D01*
X105575200Y-107402700D02*
X104730000Y-106557500D01*
X148795200Y-105781400D02*
X148795200Y-103927700D01*
X109255000Y-106253800D02*
X110254200Y-107253000D01*
X120730000Y-104000000D02*
X120299100Y-104430900D01*
X115720500Y-55216700D02*
X133338500Y-55216700D01*
X144849500Y-66119500D02*
X146730000Y-68000000D01*
X140692500Y-104000000D02*
X139443000Y-105249500D01*
X104587500Y-85705000D02*
X104587500Y-84405000D01*
X107111100Y-96061100D02*
X107111100Y-96063500D01*
X153472200Y-65257800D02*
X153472200Y-64252500D01*
X105815000Y-94765000D02*
X107111100Y-96061100D01*
X153857200Y-57955400D02*
X153857200Y-63867500D01*
X114545200Y-106012500D02*
X114545200Y-106012400D01*
X107112400Y-96168200D02*
X107112400Y-96309500D01*
X155780000Y-101087500D02*
X153642500Y-101087500D01*
X100950000Y-62500000D02*
X102669800Y-60780200D01*
X116900000Y-104000000D02*
X114887500Y-106012500D01*
X112207100Y-103624100D02*
X112676700Y-104093700D01*
X103287500Y-85705000D02*
X103287500Y-84405000D01*
X120299100Y-104430900D02*
X119502300Y-105227700D01*
X114887500Y-106012500D02*
X114545200Y-106012500D01*
X144849500Y-59107700D02*
X144849500Y-66119500D01*
X113018500Y-55216700D02*
X114369500Y-56567700D01*
X149183900Y-88993900D02*
X149183900Y-70730500D01*
X132717500Y-104000000D02*
X131792500Y-104000000D01*
X152730000Y-92540000D02*
X150500000Y-90310000D01*
X153857200Y-63867500D02*
X153472200Y-64252500D01*
X149183900Y-70730500D02*
X150730000Y-69184400D01*
X119502300Y-105227700D02*
X118127700Y-105227700D01*
X104587500Y-76147500D02*
X104587500Y-83105000D01*
X101930000Y-63480000D02*
X100950000Y-62500000D01*
X150294600Y-107280800D02*
X148795200Y-105781400D01*
X104587500Y-83105000D02*
X104587500Y-84405000D01*
X103112400Y-67182400D02*
X103112400Y-74672400D01*
X150500000Y-90310000D02*
X149183900Y-88993900D01*
X148795200Y-103927700D02*
X147780000Y-102912500D01*
X104730000Y-106557500D02*
X104730000Y-106000000D01*
D32*
%TO.N,+3.3V*%
X159834600Y-101959600D02*
X159834600Y-84404600D01*
X122407800Y-104000000D02*
X121737000Y-104670800D01*
X159000000Y-102794200D02*
X157431600Y-102794200D01*
X150830000Y-103455100D02*
X150643600Y-103455100D01*
X147959700Y-68870300D02*
X148830000Y-68000000D01*
X148659500Y-67829500D02*
X148830000Y-68000000D01*
X148659500Y-57864200D02*
X148659500Y-67829500D01*
X150830000Y-102000000D02*
X147959700Y-99129700D01*
X159000000Y-102825000D02*
X159000000Y-102794200D01*
X148446300Y-57651000D02*
X148659500Y-57864200D01*
X159834600Y-84404600D02*
X158120000Y-82690000D01*
X159000000Y-102794200D02*
X159834600Y-101959600D01*
X102830000Y-104949800D02*
X102830000Y-106000000D01*
X122867500Y-104000000D02*
X122407800Y-104000000D01*
X147959700Y-99129700D02*
X147959700Y-68870300D01*
X103050700Y-104729100D02*
X102830000Y-104949800D01*
X150830000Y-102000000D02*
X150830000Y-103455100D01*
X150830000Y-103455100D02*
X150830000Y-106000000D01*
D31*
%TO.N,+5V*%
X109929200Y-104562900D02*
X110867500Y-105501200D01*
X109907400Y-75747600D02*
X109907400Y-60771600D01*
X106305000Y-106000000D02*
X106305000Y-104562900D01*
X106305000Y-104562900D02*
X109929200Y-104562900D01*
X106305000Y-102000000D02*
X106305000Y-100277000D01*
X106305000Y-104562900D02*
X106305000Y-102000000D01*
X110867500Y-105501200D02*
X110867500Y-106000000D01*
X108014100Y-77640900D02*
X109907400Y-75747600D01*
X106305000Y-100277000D02*
X106699200Y-99882800D01*
X108014100Y-95936100D02*
X108014100Y-77640900D01*
D32*
%TO.N,IGN_DETECT*%
X105815000Y-92225000D02*
X106650600Y-91389400D01*
X144830000Y-69937700D02*
X144830000Y-68000000D01*
X106429000Y-78050200D02*
X106429000Y-72242700D01*
X106650600Y-78271800D02*
X106429000Y-78050200D01*
X144622900Y-70144800D02*
X144830000Y-69937700D01*
X106650600Y-91389400D02*
X106650600Y-78271800D01*
X106429000Y-72242700D02*
X108188600Y-70483100D01*
%TO.N,XTAL1*%
X115000000Y-104000000D02*
X113455400Y-102455400D01*
X113455400Y-102453300D02*
X113253500Y-102251400D01*
X148561400Y-93441400D02*
X150620000Y-95500000D01*
X113455400Y-102455400D02*
X113455400Y-102453300D01*
X113253500Y-102251400D02*
X113253500Y-101333600D01*
X148561400Y-70219200D02*
X148561400Y-93441400D01*
%TO.N,XTAL2*%
X157403900Y-71357600D02*
X157403900Y-77665400D01*
X155500000Y-79569300D02*
X155500000Y-95500000D01*
X157403900Y-77665400D02*
X155500000Y-79569300D01*
D31*
%TO.N,12V_FUSED*%
X109500000Y-89500000D02*
X111771500Y-87228500D01*
X97630000Y-66000000D02*
X97199500Y-66430500D01*
X97630000Y-62870000D02*
X98000000Y-62500000D01*
X97199500Y-66430500D02*
X97199500Y-82324200D01*
X97630000Y-66000000D02*
X97630000Y-62870000D01*
X97199500Y-82324200D02*
X99516500Y-84641200D01*
X99684500Y-60815500D02*
X101041700Y-60815500D01*
X111771500Y-87228500D02*
X111771500Y-73188500D01*
X116960000Y-68000000D02*
X116960000Y-64600000D01*
X111771500Y-73188500D02*
X116960000Y-68000000D01*
X98000000Y-62500000D02*
X99684500Y-60815500D01*
D32*
%TO.N,/U1_BOOT*%
X99975500Y-81431900D02*
X100751200Y-80656200D01*
X102390000Y-81651300D02*
X102390000Y-85808800D01*
X103629700Y-87048500D02*
X103629700Y-100899700D01*
X100751200Y-80656200D02*
X101394900Y-80656200D01*
X103629700Y-100899700D02*
X104730000Y-102000000D01*
X102390000Y-85808800D02*
X103629700Y-87048500D01*
X101394900Y-80656200D02*
X102390000Y-81651300D01*
X99975500Y-82405300D02*
X99975500Y-81431900D01*
D31*
%TO.N,/U1_SW*%
X101047200Y-85796200D02*
X102626400Y-87375400D01*
X101047200Y-81360200D02*
X101047200Y-85796200D01*
X102626400Y-87375400D02*
X102626400Y-99747300D01*
X102830000Y-99950900D02*
X102830000Y-102000000D01*
X102626400Y-99747300D02*
X102830000Y-99950900D01*
D32*
%TO.N,/COMP_RC*%
X118830000Y-103582500D02*
X118830000Y-104000000D01*
X120912500Y-101500000D02*
X118830000Y-103582500D01*
%TO.N,12V_ACC*%
X143805500Y-99619100D02*
X143805500Y-72510200D01*
X144595200Y-100408700D02*
X143805600Y-99619100D01*
X141748100Y-70452800D02*
X138513800Y-70452800D01*
X138513800Y-70452800D02*
X137957300Y-71009300D01*
X144595200Y-102097300D02*
X144595200Y-100408700D01*
X143780000Y-102912500D02*
X144595200Y-102097300D01*
X143805500Y-72510200D02*
X141748100Y-70452800D01*
X143805600Y-99619100D02*
X143805500Y-99619100D01*
%TO.N,SHUTDOWN_REQ*%
X147545400Y-60892300D02*
X146237800Y-59584700D01*
X146237800Y-58770300D02*
X145227200Y-57759700D01*
X145227200Y-57759700D02*
X143311300Y-57759700D01*
X146237800Y-59584700D02*
X146237800Y-58770300D01*
X146961300Y-84957800D02*
X147545400Y-84373700D01*
X147545400Y-84373700D02*
X147545400Y-60892300D01*
%TO.N,/Q1_GATE*%
X136674200Y-107500000D02*
X136674200Y-106951300D01*
X135420000Y-107500000D02*
X136674200Y-107500000D01*
X147780000Y-106912500D02*
X143780000Y-106912500D01*
X143059200Y-106191700D02*
X143780000Y-106912500D01*
X136674200Y-106951300D02*
X137433800Y-106191700D01*
X137433800Y-106191700D02*
X143059200Y-106191700D01*
%TO.N,GATE_CTRL*%
X146486800Y-101617000D02*
X146664700Y-101617000D01*
X146000400Y-105087500D02*
X146000400Y-101439100D01*
X146182800Y-88784500D02*
X147051600Y-87915700D01*
X130757200Y-102964700D02*
X130842500Y-103050000D01*
X124692500Y-104000000D02*
X126867500Y-104000000D01*
X146664700Y-101617000D02*
X146486800Y-101617000D01*
X147780000Y-105087500D02*
X146000400Y-105087500D01*
X131362000Y-102530500D02*
X130842500Y-103050000D01*
X146182800Y-101439100D02*
X146486800Y-101439100D01*
X126867500Y-104000000D02*
X127902800Y-102964700D01*
X146000400Y-105087500D02*
X143780000Y-105087500D01*
X146000400Y-101439100D02*
X146182800Y-101439100D01*
X146182800Y-101439100D02*
X146182800Y-88784500D01*
X127902800Y-102964700D02*
X130757200Y-102964700D01*
X132842500Y-102530500D02*
X131362000Y-102530500D01*
X146486800Y-101439100D02*
X146664700Y-101617000D01*
%TO.N,FAN_PWM*%
X144996900Y-103189600D02*
X144996900Y-72502700D01*
X137917500Y-103050000D02*
X134842500Y-103050000D01*
X138867500Y-104000000D02*
X139872900Y-102994600D01*
X139872900Y-102994600D02*
X142240100Y-102994600D01*
X142240100Y-102994600D02*
X143160700Y-103915200D01*
X143971800Y-71477600D02*
X143807000Y-71312800D01*
X141701700Y-64377300D02*
X138617800Y-61293400D01*
X144271300Y-103915200D02*
X144996900Y-103189600D01*
X143807000Y-65198500D02*
X142985800Y-64377300D01*
X141157800Y-57956000D02*
X142309500Y-59107700D01*
X138617800Y-61293400D02*
X138617800Y-58630700D01*
X144996900Y-72502700D02*
X143971800Y-71477600D01*
X138617800Y-58630700D02*
X139292500Y-57956000D01*
X138867500Y-104000000D02*
X137917500Y-103050000D01*
X139292500Y-57956000D02*
X141157800Y-57956000D01*
X142985800Y-64377300D02*
X141701700Y-64377300D01*
X143160700Y-103915200D02*
X144271300Y-103915200D01*
X143971800Y-71477600D02*
X143807000Y-71312800D01*
X143807000Y-71312800D02*
X143807000Y-65198500D01*
%TO.N,/U1_FB*%
X112692500Y-106000000D02*
X111875000Y-105182500D01*
X111875000Y-105182500D02*
X111875000Y-104425800D01*
X146862400Y-99957700D02*
X147780000Y-100875300D01*
X147780000Y-100875300D02*
X147780000Y-101087500D01*
%TO.N,RESET*%
X150500000Y-82690000D02*
X154139000Y-86329000D01*
X154139000Y-86329000D02*
X154139000Y-96139000D01*
X154139000Y-96139000D02*
X159000000Y-101000000D01*
%TO.N,/U1_COMP*%
X114882500Y-101570200D02*
X119017300Y-101570200D01*
X112805400Y-88739300D02*
X112713700Y-88831000D01*
X112713700Y-99401400D02*
X114882500Y-101570200D01*
X119017300Y-101570200D02*
X119087500Y-101500000D01*
X112713700Y-88831000D02*
X112713700Y-99401400D01*
%TO.N,/RT_CLK*%
X101553100Y-87551100D02*
X101203400Y-87201400D01*
X99896200Y-103028700D02*
X101172000Y-103028700D01*
X98867500Y-102000000D02*
X99896200Y-103028700D01*
X101553100Y-102647600D02*
X101553100Y-87551100D01*
X101172000Y-103028700D02*
X101553100Y-102647600D01*
%TO.N,12V_IGN*%
X109500000Y-93500000D02*
X109500000Y-99684400D01*
X104500000Y-73060000D02*
X106007800Y-74567800D01*
X111189500Y-91383300D02*
X111189500Y-91810500D01*
X104500000Y-70540000D02*
X104500000Y-73060000D01*
X112934100Y-103118500D02*
X112947800Y-103132200D01*
X111189500Y-91810500D02*
X109500000Y-93500000D01*
X111189500Y-90873600D02*
X111189500Y-91342000D01*
X111189500Y-91342000D02*
X111189500Y-91383300D01*
X154076300Y-102191000D02*
X154159500Y-102107800D01*
X106007800Y-74567800D02*
X106007800Y-88848900D01*
X107040000Y-64600000D02*
X107040000Y-68000000D01*
X107040000Y-68000000D02*
X104500000Y-70540000D01*
X155780000Y-102912500D02*
X154964200Y-102912500D01*
X109500000Y-99684400D02*
X112934100Y-103118500D01*
X154159500Y-102107800D02*
X154076300Y-102191000D01*
X112947800Y-103132200D02*
X112934100Y-103118500D01*
X154964200Y-102912500D02*
X154159500Y-102107800D01*
%TD*%
M02*
