%TF.GenerationSoftware,KiCad,Pcbnew,9.0.7*%
%TF.CreationDate,2026-02-04T17:23:19-06:00*%
%TF.ProjectId,power-hat,706f7765-722d-4686-9174-2e6b69636164,rev?*%
%TF.SameCoordinates,Original*%
%TF.FileFunction,Copper,L1,Top*%
%TF.FilePolarity,Positive*%
%FSLAX46Y46*%
G04 Gerber Fmt 4.6, Leading zero omitted, Abs format (unit mm)*
G04 Created by KiCad (PCBNEW 9.0.7) date 2026-02-04 17:23:19*
%MOMM*%
%LPD*%
G01*
G04 APERTURE LIST*
G04 Aperture macros list*
%AMRoundRect*
0 Rectangle with rounded corners*
0 $1 Rounding radius*
0 $2 $3 $4 $5 $6 $7 $8 $9 X,Y pos of 4 corners*
0 Add a 4 corners polygon primitive as box body*
4,1,4,$2,$3,$4,$5,$6,$7,$8,$9,$2,$3,0*
0 Add four circle primitives for the rounded corners*
1,1,$1+$1,$2,$3*
1,1,$1+$1,$4,$5*
1,1,$1+$1,$6,$7*
1,1,$1+$1,$8,$9*
0 Add four rect primitives between the rounded corners*
20,1,$1+$1,$2,$3,$4,$5,0*
20,1,$1+$1,$4,$5,$6,$7,0*
20,1,$1+$1,$6,$7,$8,$9,0*
20,1,$1+$1,$8,$9,$2,$3,0*%
G04 Aperture macros list end*
%TA.AperFunction,SMDPad,CuDef*%
%ADD10RoundRect,0.150000X-0.737500X-0.150000X0.737500X-0.150000X0.737500X0.150000X-0.737500X0.150000X0*%
%TD*%
%TA.AperFunction,HeatsinkPad*%
%ADD11C,0.500000*%
%TD*%
%TA.AperFunction,HeatsinkPad*%
%ADD12R,2.950000X4.900000*%
%TD*%
%TA.AperFunction,ComponentPad*%
%ADD13C,5.400000*%
%TD*%
%TA.AperFunction,ComponentPad*%
%ADD14R,1.700000X1.700000*%
%TD*%
%TA.AperFunction,ComponentPad*%
%ADD15C,1.700000*%
%TD*%
%TA.AperFunction,SMDPad,CuDef*%
%ADD16R,2.350000X5.100000*%
%TD*%
%TA.AperFunction,SMDPad,CuDef*%
%ADD17RoundRect,0.250000X-0.250000X-0.475000X0.250000X-0.475000X0.250000X0.475000X-0.250000X0.475000X0*%
%TD*%
%TA.AperFunction,ComponentPad*%
%ADD18C,6.400000*%
%TD*%
%TA.AperFunction,ComponentPad*%
%ADD19C,1.500000*%
%TD*%
%TA.AperFunction,ComponentPad*%
%ADD20C,2.780000*%
%TD*%
%TA.AperFunction,ComponentPad*%
%ADD21R,1.905000X2.000000*%
%TD*%
%TA.AperFunction,ComponentPad*%
%ADD22O,1.905000X2.000000*%
%TD*%
%TA.AperFunction,ComponentPad*%
%ADD23RoundRect,0.250000X-0.550000X-0.550000X0.550000X-0.550000X0.550000X0.550000X-0.550000X0.550000X0*%
%TD*%
%TA.AperFunction,ComponentPad*%
%ADD24C,1.600000*%
%TD*%
%TA.AperFunction,ComponentPad*%
%ADD25RoundRect,0.250001X-0.499999X-0.499999X0.499999X-0.499999X0.499999X0.499999X-0.499999X0.499999X0*%
%TD*%
%TA.AperFunction,ViaPad*%
%ADD26C,0.800000*%
%TD*%
%TA.AperFunction,ViaPad*%
%ADD27C,0.600000*%
%TD*%
%TA.AperFunction,Conductor*%
%ADD28C,0.600000*%
%TD*%
%TA.AperFunction,Conductor*%
%ADD29C,0.200000*%
%TD*%
G04 APERTURE END LIST*
D10*
%TO.P,U1,1,BOOT*%
%TO.N,/U1_BOOT*%
X101375000Y-82500000D03*
%TO.P,U1,2,VIN*%
%TO.N,12V_FUSED*%
X101375000Y-83770000D03*
%TO.P,U1,3,EN*%
%TO.N,12V_IGN*%
X101375000Y-85040000D03*
%TO.P,U1,4,RT/CLK*%
%TO.N,/RT_CLK*%
X101375000Y-86310000D03*
%TO.P,U1,5,FB*%
%TO.N,/U1_FB*%
X106500000Y-86310000D03*
%TO.P,U1,6,COMP*%
%TO.N,/U1_COMP*%
X106500000Y-85040000D03*
%TO.P,U1,7,GND*%
%TO.N,GND*%
X106500000Y-83770000D03*
%TO.P,U1,8,SW*%
%TO.N,/U1_SW*%
X106500000Y-82500000D03*
D11*
%TO.P,U1,9,GND*%
%TO.N,GND*%
X103287500Y-83105000D03*
X103287500Y-84405000D03*
X103287500Y-85705000D03*
D12*
X103937500Y-84405000D03*
D11*
X104587500Y-83105000D03*
X104587500Y-84405000D03*
X104587500Y-85705000D03*
%TD*%
D13*
%TO.P,H1,1*%
%TO.N,N/C*%
X99280000Y-57500000D03*
%TD*%
%TO.P,H2,1*%
%TO.N,N/C*%
X157280000Y-57500000D03*
%TD*%
D14*
%TO.P,J3,1,Pin_1*%
%TO.N,unconnected-(J3-Pin_1-Pad1)*%
X153500000Y-71420000D03*
D15*
%TO.P,J3,2,Pin_2*%
%TO.N,unconnected-(J3-Pin_2-Pad2)*%
X156040000Y-71420000D03*
%TO.P,J3,3,Pin_3*%
%TO.N,unconnected-(J3-Pin_3-Pad3)*%
X153500000Y-73960000D03*
%TO.P,J3,4,Pin_4*%
%TO.N,unconnected-(J3-Pin_4-Pad4)*%
X156040000Y-73960000D03*
%TO.P,J3,5,Pin_5*%
%TO.N,unconnected-(J3-Pin_5-Pad5)*%
X153500000Y-76500000D03*
%TO.P,J3,6,Pin_6*%
%TO.N,unconnected-(J3-Pin_6-Pad6)*%
X156040000Y-76500000D03*
%TD*%
D16*
%TO.P,L1,1,1*%
%TO.N,/U1_SW*%
X104425000Y-101500000D03*
%TO.P,L1,2,2*%
%TO.N,+5V*%
X108575000Y-101500000D03*
%TD*%
D13*
%TO.P,H3,1*%
%TO.N,N/C*%
X99280000Y-106500000D03*
%TD*%
D14*
%TO.P,JP1,1,Pin_1*%
%TO.N,unconnected-(JP1-Pin_1-Pad1)*%
X138500000Y-64000000D03*
D15*
%TO.P,JP1,2,Pin_2*%
%TO.N,unconnected-(JP1-Pin_2-Pad2)*%
X138500000Y-66540000D03*
%TD*%
D17*
%TO.P,C11,1*%
%TO.N,XTAL2*%
X156830000Y-66500000D03*
%TO.P,C11,2*%
%TO.N,GND*%
X158730000Y-66500000D03*
%TD*%
D13*
%TO.P,H4,1*%
%TO.N,N/C*%
X157280000Y-106500000D03*
%TD*%
D18*
%TO.P,FH1,1*%
%TO.N,N/C*%
X116280000Y-74000000D03*
%TD*%
D17*
%TO.P,C10,1*%
%TO.N,XTAL1*%
X152830000Y-66500000D03*
%TO.P,C10,2*%
%TO.N,GND*%
X154730000Y-66500000D03*
%TD*%
D19*
%TO.P,Y1,1,1*%
%TO.N,XTAL1*%
X150620000Y-95500000D03*
%TO.P,Y1,2,2*%
%TO.N,XTAL2*%
X155500000Y-95500000D03*
%TD*%
D18*
%TO.P,FH2,1*%
%TO.N,N/C*%
X140280000Y-74000000D03*
%TD*%
D20*
%TO.P,F1,1*%
%TO.N,12V_IGN*%
X107040000Y-64600000D03*
X107040000Y-68000000D03*
%TO.P,F1,2*%
%TO.N,12V_FUSED*%
X116960000Y-64600000D03*
X116960000Y-68000000D03*
%TD*%
D14*
%TO.P,J2,1,Pin_1*%
%TO.N,12V_FUSED*%
X104209500Y-56567700D03*
D15*
%TO.P,J2,2,Pin_2*%
%TO.N,+5V*%
X104209500Y-59107700D03*
%TO.P,J2,3,Pin_3*%
%TO.N,unconnected-(J2-Pin_3-Pad3)*%
X106749500Y-56567700D03*
%TO.P,J2,4,Pin_4*%
%TO.N,+5V*%
X106749500Y-59107700D03*
%TO.P,J2,5,Pin_5*%
%TO.N,unconnected-(J2-Pin_5-Pad5)*%
X109289500Y-56567700D03*
%TO.P,J2,6,Pin_6*%
%TO.N,GND*%
X109289500Y-59107700D03*
%TO.P,J2,7,Pin_7*%
%TO.N,unconnected-(J2-Pin_7-Pad7)*%
X111829500Y-56567700D03*
%TO.P,J2,8,Pin_8*%
%TO.N,unconnected-(J2-Pin_8-Pad8)*%
X111829500Y-59107700D03*
%TO.P,J2,9,Pin_9*%
%TO.N,GND*%
X114369500Y-56567700D03*
%TO.P,J2,10,Pin_10*%
%TO.N,unconnected-(J2-Pin_10-Pad10)*%
X114369500Y-59107700D03*
%TO.P,J2,11,Pin_11*%
%TO.N,unconnected-(J2-Pin_11-Pad11)*%
X116909500Y-56567700D03*
%TO.P,J2,12,Pin_12*%
%TO.N,unconnected-(J2-Pin_12-Pad12)*%
X116909500Y-59107700D03*
%TO.P,J2,13,Pin_13*%
%TO.N,unconnected-(J2-Pin_13-Pad13)*%
X119449500Y-56567700D03*
%TO.P,J2,14,Pin_14*%
%TO.N,GND*%
X119449500Y-59107700D03*
%TO.P,J2,15,Pin_15*%
%TO.N,SHUTDOWN_REQ*%
X121989500Y-56567700D03*
%TO.P,J2,16,Pin_16*%
%TO.N,unconnected-(J2-Pin_16-Pad16)*%
X121989500Y-59107700D03*
%TO.P,J2,17,Pin_17*%
%TO.N,+3.3V*%
X124529500Y-56567700D03*
%TO.P,J2,18,Pin_18*%
%TO.N,unconnected-(J2-Pin_18-Pad18)*%
X124529500Y-59107700D03*
%TO.P,J2,19,Pin_19*%
%TO.N,unconnected-(J2-Pin_19-Pad19)*%
X127069500Y-56567700D03*
%TO.P,J2,20,Pin_20*%
%TO.N,GND*%
X127069500Y-59107700D03*
%TO.P,J2,21,Pin_21*%
%TO.N,unconnected-(J2-Pin_21-Pad21)*%
X129609500Y-56567700D03*
%TO.P,J2,22,Pin_22*%
%TO.N,unconnected-(J2-Pin_22-Pad22)*%
X129609500Y-59107700D03*
%TO.P,J2,23,Pin_23*%
%TO.N,unconnected-(J2-Pin_23-Pad23)*%
X132149500Y-56567700D03*
%TO.P,J2,24,Pin_24*%
%TO.N,unconnected-(J2-Pin_24-Pad24)*%
X132149500Y-59107700D03*
%TO.P,J2,25,Pin_25*%
%TO.N,GND*%
X134689500Y-56567700D03*
%TO.P,J2,26,Pin_26*%
%TO.N,unconnected-(J2-Pin_26-Pad26)*%
X134689500Y-59107700D03*
%TO.P,J2,27,Pin_27*%
%TO.N,unconnected-(J2-Pin_27-Pad27)*%
X137229500Y-56567700D03*
%TO.P,J2,28,Pin_28*%
%TO.N,unconnected-(J2-Pin_28-Pad28)*%
X137229500Y-59107700D03*
%TO.P,J2,29,Pin_29*%
%TO.N,unconnected-(J2-Pin_29-Pad29)*%
X139769500Y-56567700D03*
%TO.P,J2,30,Pin_30*%
%TO.N,GND*%
X139769500Y-59107700D03*
%TO.P,J2,31,Pin_31*%
%TO.N,unconnected-(J2-Pin_31-Pad31)*%
X142309500Y-56567700D03*
%TO.P,J2,32,Pin_32*%
%TO.N,FAN_PWM*%
X142309500Y-59107700D03*
%TO.P,J2,33,Pin_33*%
%TO.N,FAN_TACH*%
X144849500Y-56567700D03*
%TO.P,J2,34,Pin_34*%
%TO.N,GND*%
X144849500Y-59107700D03*
%TO.P,J2,35,Pin_35*%
%TO.N,unconnected-(J2-Pin_35-Pad35)*%
X147389500Y-56567700D03*
%TO.P,J2,36,Pin_36*%
%TO.N,unconnected-(J2-Pin_36-Pad36)*%
X147389500Y-59107700D03*
%TO.P,J2,37,Pin_37*%
%TO.N,unconnected-(J2-Pin_37-Pad37)*%
X149929500Y-56567700D03*
%TO.P,J2,38,Pin_38*%
%TO.N,unconnected-(J2-Pin_38-Pad38)*%
X149929500Y-59107700D03*
%TO.P,J2,39,Pin_39*%
%TO.N,GND*%
X152469500Y-56567700D03*
%TO.P,J2,40,Pin_40*%
%TO.N,unconnected-(J2-Pin_40-Pad40)*%
X152469500Y-59107700D03*
%TD*%
D18*
%TO.P,FH3,1*%
%TO.N,N/C*%
X116280000Y-98000000D03*
%TD*%
%TO.P,FH4,1*%
%TO.N,N/C*%
X140280000Y-98000000D03*
%TD*%
D14*
%TO.P,JP2,1,Pin_1*%
%TO.N,unconnected-(JP2-Pin_1-Pad1)*%
X142500000Y-63000000D03*
D15*
%TO.P,JP2,2,Pin_2*%
%TO.N,unconnected-(JP2-Pin_2-Pad2)*%
X142500000Y-65540000D03*
%TO.P,JP2,3,Pin_3*%
%TO.N,unconnected-(JP2-Pin_3-Pad3)*%
X142500000Y-68080000D03*
%TD*%
D21*
%TO.P,Q1,1,G*%
%TO.N,/Q1_GATE*%
X135420000Y-107500000D03*
D22*
%TO.P,Q1,2,D*%
%TO.N,12V_SWITCHED*%
X137960000Y-107500000D03*
%TO.P,Q1,3,S*%
X140500000Y-107500000D03*
%TD*%
D14*
%TO.P,J4,1,Pin_1*%
%TO.N,GND*%
X132810000Y-65500000D03*
D15*
%TO.P,J4,2,Pin_2*%
%TO.N,FAN+*%
X130270000Y-65500000D03*
%TO.P,J4,3,Pin_3*%
%TO.N,FAN_TACH*%
X127730000Y-65500000D03*
%TO.P,J4,4,Pin_4*%
%TO.N,FAN_PWM*%
X125190000Y-65500000D03*
%TD*%
D23*
%TO.P,U3,1,~{RESET}/PB5*%
%TO.N,RESET*%
X150500000Y-82690000D03*
D24*
%TO.P,U3,2,XTAL1/PB3*%
%TO.N,GATE_CTRL*%
X150500000Y-85230000D03*
%TO.P,U3,3,XTAL2/PB4*%
%TO.N,SHUTDOWN_REQ*%
X150500000Y-87770000D03*
%TO.P,U3,4,GND*%
%TO.N,GND*%
X150500000Y-90310000D03*
%TO.P,U3,5,AREF/PB0*%
%TO.N,HEARTBEAT_LED*%
X158120000Y-90310000D03*
%TO.P,U3,6,PB1*%
%TO.N,TIMER_LED*%
X158120000Y-87770000D03*
%TO.P,U3,7,PB2*%
%TO.N,IGN_DETECT*%
X158120000Y-85230000D03*
%TO.P,U3,8,VCC*%
%TO.N,+3.3V*%
X158120000Y-82690000D03*
%TD*%
D25*
%TO.P,J1,1,Pin_1*%
%TO.N,12V_IGN*%
X101500000Y-73060000D03*
D19*
%TO.P,J1,2,Pin_2*%
X104500000Y-73060000D03*
%TO.P,J1,3,Pin_3*%
%TO.N,12V_ACC*%
X107500000Y-73060000D03*
%TO.P,J1,4,Pin_4*%
%TO.N,GND*%
X101500000Y-76060000D03*
%TO.P,J1,5,Pin_5*%
X104500000Y-76060000D03*
%TO.P,J1,6,Pin_6*%
X107500000Y-76060000D03*
%TD*%
D23*
%TO.P,U2,1*%
%TO.N,GND*%
X98195000Y-92225000D03*
D24*
%TO.P,U2,2*%
X98195000Y-94765000D03*
%TO.P,U2,3*%
X105815000Y-94765000D03*
%TO.P,U2,4*%
%TO.N,IGN_DETECT*%
X105815000Y-92225000D03*
%TD*%
D26*
%TO.N,GND*%
X153472200Y-64252500D03*
D27*
%TO.N,+3.3V*%
X121737000Y-104670800D03*
X150643600Y-103455100D03*
X157431600Y-102794200D03*
X103050700Y-104729100D03*
X148446300Y-57651000D03*
D26*
%TO.N,+5V*%
X108014100Y-95936100D03*
X109907400Y-60771600D03*
X106699200Y-99882800D03*
D27*
%TO.N,IGN_DETECT*%
X108188600Y-70483100D03*
X144622900Y-70144800D03*
%TO.N,XTAL1*%
X113253500Y-101333600D03*
X148561400Y-70219200D03*
%TO.N,XTAL2*%
X157403900Y-71357600D03*
D26*
%TO.N,12V_FUSED*%
X101041700Y-60815500D03*
X99516500Y-84641200D03*
D27*
%TO.N,/U1_BOOT*%
X99975500Y-82405300D03*
D26*
%TO.N,/U1_SW*%
X102626400Y-99747300D03*
X101047200Y-81360200D03*
D27*
%TO.N,12V_ACC*%
X137957300Y-71009300D03*
%TO.N,SHUTDOWN_REQ*%
X146961300Y-84957800D03*
X143311300Y-57759700D03*
%TO.N,GATE_CTRL*%
X146664700Y-101617000D03*
X147051600Y-87915700D03*
X132842500Y-102530500D03*
%TO.N,/U1_FB*%
X111875000Y-104425800D03*
X146862400Y-99957700D03*
%TO.N,/U1_COMP*%
X112805400Y-88739300D03*
%TO.N,/RT_CLK*%
X101203400Y-87201400D03*
%TO.N,12V_IGN*%
X111189500Y-90873600D03*
X106007800Y-88848900D03*
X154159500Y-102107800D03*
X112934100Y-103118500D03*
%TD*%
D28*
%TO.N,GND*%
X101500000Y-76060000D02*
X104500000Y-76060000D01*
X157457000Y-65227000D02*
X154730000Y-65227000D01*
X104587500Y-84405000D02*
X105222500Y-83770000D01*
X107500000Y-76060000D02*
X104500000Y-76060000D01*
X104587500Y-84405000D02*
X103937500Y-84405000D01*
X154730000Y-65227000D02*
X154446700Y-65227000D01*
X103287500Y-84405000D02*
X103937500Y-84405000D01*
X154446700Y-65227000D02*
X153472200Y-64252500D01*
X119449500Y-59107700D02*
X119449500Y-60465400D01*
X109569100Y-59107700D02*
X109289500Y-59107700D01*
X105815000Y-94765000D02*
X98195000Y-94765000D01*
X153472200Y-64252500D02*
X149994300Y-64252500D01*
X139769500Y-59107700D02*
X138411800Y-60465400D01*
X105222500Y-83770000D02*
X106500000Y-83770000D01*
X127069500Y-60465400D02*
X119449500Y-60465400D01*
X110926800Y-60465400D02*
X109569100Y-59107700D01*
X138411800Y-60465400D02*
X127069500Y-60465400D01*
X158730000Y-66500000D02*
X157457000Y-65227000D01*
X103287500Y-83105000D02*
X104587500Y-83105000D01*
X149994300Y-64252500D02*
X144849500Y-59107700D01*
X127069500Y-59107700D02*
X127069500Y-60465400D01*
X154730000Y-65227000D02*
X154730000Y-66500000D01*
X119449500Y-60465400D02*
X110926800Y-60465400D01*
D29*
%TO.N,+3.3V*%
X148541200Y-56057700D02*
X148541200Y-57556100D01*
X112480800Y-104670900D02*
X112480800Y-104670800D01*
X112124200Y-105027500D02*
X112480800Y-104670900D01*
X147885700Y-55402200D02*
X148541200Y-56057700D01*
X124529500Y-56567700D02*
X125440800Y-56567700D01*
X121737000Y-104670800D02*
X149427900Y-104670800D01*
X151304500Y-102794200D02*
X150643600Y-103455100D01*
X149427900Y-104670800D02*
X150643600Y-103455100D01*
X103349100Y-105027500D02*
X112124200Y-105027500D01*
X157431600Y-102794200D02*
X151304500Y-102794200D01*
X148541200Y-57556100D02*
X148446300Y-57651000D01*
X103050700Y-104729100D02*
X103349100Y-105027500D01*
X126606300Y-55402200D02*
X147885700Y-55402200D01*
X112480800Y-104670800D02*
X121737000Y-104670800D01*
X125440800Y-56567700D02*
X126606300Y-55402200D01*
D28*
%TO.N,+5V*%
X108413400Y-60771600D02*
X106749500Y-59107700D01*
X108014100Y-95936100D02*
X106699200Y-97251000D01*
X106699200Y-97251000D02*
X106699200Y-99882800D01*
X109907400Y-60771600D02*
X108413400Y-60771600D01*
X106749500Y-59107700D02*
X104209500Y-59107700D01*
X106898300Y-100081900D02*
X106699200Y-99882800D01*
X108575000Y-101500000D02*
X106898300Y-101500000D01*
X106898300Y-101500000D02*
X106898300Y-100081900D01*
D29*
%TO.N,IGN_DETECT*%
X144622900Y-70144800D02*
X144559500Y-70081400D01*
X113616500Y-70481600D02*
X108190100Y-70481600D01*
X158120000Y-85230000D02*
X144622900Y-71732900D01*
X114016700Y-70081400D02*
X113781300Y-70316800D01*
X108190100Y-70481600D02*
X108188600Y-70483100D01*
X113781300Y-70316800D02*
X113616500Y-70481600D01*
X113781300Y-70316800D02*
X113616500Y-70481600D01*
X144559500Y-70081400D02*
X114016700Y-70081400D01*
X144622900Y-71732900D02*
X144622900Y-70144800D01*
%TO.N,XTAL1*%
X149110800Y-70219200D02*
X148561400Y-70219200D01*
X152830000Y-66500000D02*
X149110800Y-70219200D01*
X141705100Y-101527100D02*
X113447000Y-101527100D01*
X113447000Y-101527100D02*
X113253500Y-101333600D01*
X150620000Y-95500000D02*
X147732200Y-95500000D01*
X147732200Y-95500000D02*
X141705100Y-101527100D01*
%TO.N,XTAL2*%
X157403900Y-67073900D02*
X157403900Y-71357600D01*
X156830000Y-66500000D02*
X157403900Y-67073900D01*
D28*
%TO.N,12V_FUSED*%
X102846000Y-57931200D02*
X102846000Y-59670500D01*
X100387700Y-83770000D02*
X101375000Y-83770000D01*
X104936400Y-61760900D02*
X114120900Y-61760900D01*
X101041700Y-60815500D02*
X101701000Y-60815500D01*
X99516500Y-84641200D02*
X100387700Y-83770000D01*
X114120900Y-61760900D02*
X116960000Y-64600000D01*
X104209500Y-56567700D02*
X102846000Y-57931200D01*
X102846000Y-59670500D02*
X104936400Y-61760900D01*
X101701000Y-60815500D02*
X102846000Y-59670500D01*
D29*
%TO.N,/U1_BOOT*%
X100070200Y-82500000D02*
X99975500Y-82405300D01*
X101375000Y-82500000D02*
X100070200Y-82500000D01*
D28*
%TO.N,/U1_SW*%
X102748300Y-99869200D02*
X102748300Y-101500000D01*
X104425000Y-101500000D02*
X102748300Y-101500000D01*
X102626400Y-99747300D02*
X102748300Y-99869200D01*
X106500000Y-82238700D02*
X105621500Y-81360200D01*
X106500000Y-82500000D02*
X106500000Y-82238700D01*
X105621500Y-81360200D02*
X101047200Y-81360200D01*
D29*
%TO.N,12V_ACC*%
X114383200Y-70483100D02*
X111806300Y-73060000D01*
X137957300Y-71009300D02*
X137431100Y-70483100D01*
X137431100Y-70483100D02*
X114383200Y-70483100D01*
X111806300Y-73060000D02*
X107500000Y-73060000D01*
%TO.N,FAN_TACH*%
X143579500Y-59498500D02*
X143579500Y-58342400D01*
X127730000Y-65500000D02*
X131674700Y-61555300D01*
X141522700Y-61555300D02*
X143579500Y-59498500D01*
X144849500Y-57072400D02*
X144849500Y-56567700D01*
X131674700Y-61555300D02*
X141522700Y-61555300D01*
X143579500Y-58342400D02*
X144849500Y-57072400D01*
%TO.N,SHUTDOWN_REQ*%
X147797400Y-84121700D02*
X146961300Y-84957800D01*
X150973400Y-84121700D02*
X147797400Y-84121700D01*
X151639100Y-86630900D02*
X151639100Y-84787400D01*
X123181500Y-57759700D02*
X121989500Y-56567700D01*
X143311300Y-57759700D02*
X123181500Y-57759700D01*
X151639100Y-84787400D02*
X150973400Y-84121700D01*
X150500000Y-87770000D02*
X151639100Y-86630900D01*
%TO.N,12V_SWITCHED*%
X137960000Y-107500000D02*
X140500000Y-107500000D01*
%TO.N,GATE_CTRL*%
X146664700Y-101617000D02*
X146486800Y-101617000D01*
X149737300Y-85230000D02*
X147051600Y-87915700D01*
X145751200Y-102530500D02*
X132842500Y-102530500D01*
X146486800Y-101617000D02*
X146664700Y-101617000D01*
X146664700Y-101617000D02*
X145751200Y-102530500D01*
X150500000Y-85230000D02*
X149737300Y-85230000D01*
%TO.N,FAN_PWM*%
X142309500Y-59107700D02*
X140303100Y-61114100D01*
X140303100Y-61114100D02*
X129575900Y-61114100D01*
X129575900Y-61114100D02*
X125190000Y-65500000D01*
%TO.N,/U1_FB*%
X113247700Y-101942600D02*
X113119000Y-102071300D01*
X113119000Y-102071300D02*
X112845150Y-102345150D01*
X112845150Y-102345150D02*
X111875000Y-103315300D01*
X112000000Y-101500000D02*
X112000000Y-90834157D01*
X132579600Y-101942600D02*
X113247700Y-101942600D01*
X146862400Y-99957700D02*
X144891300Y-101928800D01*
X132593400Y-101928800D02*
X132579600Y-101942600D01*
X112845150Y-102345150D02*
X112000000Y-101500000D01*
X144891300Y-101928800D02*
X132593400Y-101928800D01*
X111875000Y-103315300D02*
X111875000Y-104425800D01*
X107475843Y-86310000D02*
X106500000Y-86310000D01*
X112000000Y-90834157D02*
X107475843Y-86310000D01*
%TO.N,/U1_COMP*%
X106500000Y-85040000D02*
X109106100Y-85040000D01*
X109106100Y-85040000D02*
X112805400Y-88739300D01*
%TO.N,/RT_CLK*%
X101203400Y-87201400D02*
X101375000Y-87029800D01*
X101375000Y-87029800D02*
X101375000Y-86310000D01*
%TO.N,12V_IGN*%
X101989700Y-88848900D02*
X100137600Y-86996800D01*
X101098800Y-85040000D02*
X101375000Y-85040000D01*
X154076300Y-102191000D02*
X154159500Y-102107800D01*
X101500000Y-73060000D02*
X104500000Y-73060000D01*
X146837500Y-102218700D02*
X154048600Y-102218700D01*
X112947800Y-103132200D02*
X112934100Y-103118500D01*
X112934100Y-103118500D02*
X112947800Y-103132200D01*
X106007800Y-88848900D02*
X101989700Y-88848900D01*
X154159500Y-102107800D02*
X154076300Y-102191000D01*
X145924000Y-103132200D02*
X146837500Y-102218700D01*
X111189500Y-90873600D02*
X108032500Y-90873600D01*
X100137600Y-86996800D02*
X100137600Y-86001200D01*
X100137600Y-86001200D02*
X101098800Y-85040000D01*
X154048600Y-102218700D02*
X154159500Y-102107800D01*
X112934100Y-103118500D02*
X112947800Y-103132200D01*
X112947800Y-103132200D02*
X145924000Y-103132200D01*
X108032500Y-90873600D02*
X106007800Y-88848900D01*
%TD*%
M02*
