%TF.GenerationSoftware,KiCad,Pcbnew,9.0.7*%
%TF.CreationDate,2026-02-04T14:04:16-06:00*%
%TF.ProjectId,dac_amp,6461635f-616d-4702-9e6b-696361645f70,rev?*%
%TF.SameCoordinates,Original*%
%TF.FileFunction,Copper,L2,Bot*%
%TF.FilePolarity,Positive*%
%FSLAX46Y46*%
G04 Gerber Fmt 4.6, Leading zero omitted, Abs format (unit mm)*
G04 Created by KiCad (PCBNEW 9.0.7) date 2026-02-04 14:04:16*
%MOMM*%
%LPD*%
G01*
G04 APERTURE LIST*
G04 Aperture macros list*
%AMRoundRect*
0 Rectangle with rounded corners*
0 $1 Rounding radius*
0 $2 $3 $4 $5 $6 $7 $8 $9 X,Y pos of 4 corners*
0 Add a 4 corners polygon primitive as box body*
4,1,4,$2,$3,$4,$5,$6,$7,$8,$9,$2,$3,0*
0 Add four circle primitives for the rounded corners*
1,1,$1+$1,$2,$3*
1,1,$1+$1,$4,$5*
1,1,$1+$1,$6,$7*
1,1,$1+$1,$8,$9*
0 Add four rect primitives between the rounded corners*
20,1,$1+$1,$2,$3,$4,$5,0*
20,1,$1+$1,$4,$5,$6,$7,0*
20,1,$1+$1,$6,$7,$8,$9,0*
20,1,$1+$1,$8,$9,$2,$3,0*%
G04 Aperture macros list end*
%TA.AperFunction,ComponentPad*%
%ADD10C,0.600000*%
%TD*%
%TA.AperFunction,SMDPad,CuDef*%
%ADD11R,5.200000X11.000000*%
%TD*%
%TA.AperFunction,ComponentPad*%
%ADD12RoundRect,0.249999X0.790001X1.550001X-0.790001X1.550001X-0.790001X-1.550001X0.790001X-1.550001X0*%
%TD*%
%TA.AperFunction,ComponentPad*%
%ADD13O,2.080000X3.600000*%
%TD*%
%TA.AperFunction,ComponentPad*%
%ADD14R,1.700000X1.700000*%
%TD*%
%TA.AperFunction,ComponentPad*%
%ADD15C,1.700000*%
%TD*%
%TA.AperFunction,ComponentPad*%
%ADD16RoundRect,0.249999X-1.550001X0.790001X-1.550001X-0.790001X1.550001X-0.790001X1.550001X0.790001X0*%
%TD*%
%TA.AperFunction,ComponentPad*%
%ADD17O,3.600000X2.080000*%
%TD*%
%TA.AperFunction,ComponentPad*%
%ADD18C,2.700000*%
%TD*%
%TA.AperFunction,SMDPad,CuDef*%
%ADD19RoundRect,0.375000X0.625000X0.375000X-0.625000X0.375000X-0.625000X-0.375000X0.625000X-0.375000X0*%
%TD*%
%TA.AperFunction,SMDPad,CuDef*%
%ADD20RoundRect,0.500000X0.500000X1.400000X-0.500000X1.400000X-0.500000X-1.400000X0.500000X-1.400000X0*%
%TD*%
%TA.AperFunction,SMDPad,CuDef*%
%ADD21RoundRect,0.250000X0.250000X0.475000X-0.250000X0.475000X-0.250000X-0.475000X0.250000X-0.475000X0*%
%TD*%
%TA.AperFunction,ViaPad*%
%ADD22C,0.600000*%
%TD*%
%TA.AperFunction,Conductor*%
%ADD23C,0.800000*%
%TD*%
%TA.AperFunction,Conductor*%
%ADD24C,0.250000*%
%TD*%
%TA.AperFunction,Conductor*%
%ADD25C,0.400000*%
%TD*%
G04 APERTURE END LIST*
D10*
%TO.P,U4,33,EP*%
%TO.N,GND*%
X128000000Y-73600000D03*
X128000000Y-72300000D03*
X128000000Y-71000000D03*
X128000000Y-69700000D03*
X128000000Y-68400000D03*
X128000000Y-67100000D03*
X128000000Y-65800000D03*
X128000000Y-64500000D03*
X128000000Y-63200000D03*
X126500000Y-73600000D03*
X126500000Y-72300000D03*
X126500000Y-71000000D03*
X126500000Y-69700000D03*
X126500000Y-68400000D03*
X126500000Y-67100000D03*
X126500000Y-65800000D03*
X126500000Y-64500000D03*
X126500000Y-63200000D03*
D11*
X125750000Y-68400000D03*
D10*
X125000000Y-73600000D03*
X125000000Y-72300000D03*
X125000000Y-71000000D03*
X125000000Y-69700000D03*
X125000000Y-68400000D03*
X125000000Y-67100000D03*
X125000000Y-65800000D03*
X125000000Y-64500000D03*
X125000000Y-63200000D03*
X123500000Y-73600000D03*
X123500000Y-72300000D03*
X123500000Y-71000000D03*
X123500000Y-69700000D03*
X123500000Y-68400000D03*
X123500000Y-67100000D03*
X123500000Y-65800000D03*
X123500000Y-64500000D03*
X123500000Y-63200000D03*
%TD*%
D12*
%TO.P,J5,1,Pin_1*%
%TO.N,Net-(J5-Pin_1)*%
X119545000Y-86277500D03*
D13*
%TO.P,J5,2,Pin_2*%
%TO.N,Net-(J5-Pin_2)*%
X114465000Y-86277500D03*
%TD*%
D12*
%TO.P,J6,1,Pin_1*%
%TO.N,Net-(J6-Pin_1)*%
X134545000Y-86277500D03*
D13*
%TO.P,J6,2,Pin_2*%
%TO.N,Net-(J6-Pin_2)*%
X129465000Y-86277500D03*
%TD*%
D14*
%TO.P,J7,1,Pin_1*%
%TO.N,unconnected-(J7-Pin_1-Pad1)*%
X109765321Y-36909266D03*
D15*
%TO.P,J7,2,Pin_2*%
%TO.N,unconnected-(J7-Pin_2-Pad2)*%
X109765321Y-39449266D03*
%TO.P,J7,3,Pin_3*%
%TO.N,I2C_SDA*%
X112305321Y-36909266D03*
%TO.P,J7,4,Pin_4*%
%TO.N,unconnected-(J7-Pin_4-Pad4)*%
X112305321Y-39449266D03*
%TO.P,J7,5,Pin_5*%
%TO.N,I2C_SCL*%
X114845321Y-36909266D03*
%TO.P,J7,6,Pin_6*%
%TO.N,unconnected-(J7-Pin_6-Pad6)*%
X114845321Y-39449266D03*
%TO.P,J7,7,Pin_7*%
%TO.N,unconnected-(J7-Pin_7-Pad7)*%
X117385321Y-36909266D03*
%TO.P,J7,8,Pin_8*%
%TO.N,unconnected-(J7-Pin_8-Pad8)*%
X117385321Y-39449266D03*
%TO.P,J7,9,Pin_9*%
%TO.N,unconnected-(J7-Pin_9-Pad9)*%
X119925321Y-36909266D03*
%TO.P,J7,10,Pin_10*%
%TO.N,unconnected-(J7-Pin_10-Pad10)*%
X119925321Y-39449266D03*
%TO.P,J7,11,Pin_11*%
%TO.N,unconnected-(J7-Pin_11-Pad11)*%
X122465321Y-36909266D03*
%TO.P,J7,12,Pin_12*%
%TO.N,I2S_BCK*%
X122465321Y-39449266D03*
%TO.P,J7,13,Pin_13*%
%TO.N,unconnected-(J7-Pin_13-Pad13)*%
X125005321Y-36909266D03*
%TO.P,J7,14,Pin_14*%
%TO.N,unconnected-(J7-Pin_14-Pad14)*%
X125005321Y-39449266D03*
%TO.P,J7,15,Pin_15*%
%TO.N,unconnected-(J7-Pin_15-Pad15)*%
X127545321Y-36909266D03*
%TO.P,J7,16,Pin_16*%
%TO.N,unconnected-(J7-Pin_16-Pad16)*%
X127545321Y-39449266D03*
%TO.P,J7,17,Pin_17*%
%TO.N,unconnected-(J7-Pin_17-Pad17)*%
X130085321Y-36909266D03*
%TO.P,J7,18,Pin_18*%
%TO.N,unconnected-(J7-Pin_18-Pad18)*%
X130085321Y-39449266D03*
%TO.P,J7,19,Pin_19*%
%TO.N,unconnected-(J7-Pin_19-Pad19)*%
X132625321Y-36909266D03*
%TO.P,J7,20,Pin_20*%
%TO.N,unconnected-(J7-Pin_20-Pad20)*%
X132625321Y-39449266D03*
%TO.P,J7,21,Pin_21*%
%TO.N,unconnected-(J7-Pin_21-Pad21)*%
X135165321Y-36909266D03*
%TO.P,J7,22,Pin_22*%
%TO.N,unconnected-(J7-Pin_22-Pad22)*%
X135165321Y-39449266D03*
%TO.P,J7,23,Pin_23*%
%TO.N,unconnected-(J7-Pin_23-Pad23)*%
X137705321Y-36909266D03*
%TO.P,J7,24,Pin_24*%
%TO.N,unconnected-(J7-Pin_24-Pad24)*%
X137705321Y-39449266D03*
%TO.P,J7,25,Pin_25*%
%TO.N,unconnected-(J7-Pin_25-Pad25)*%
X140245321Y-36909266D03*
%TO.P,J7,26,Pin_26*%
%TO.N,unconnected-(J7-Pin_26-Pad26)*%
X140245321Y-39449266D03*
%TO.P,J7,27,Pin_27*%
%TO.N,unconnected-(J7-Pin_27-Pad27)*%
X142785321Y-36909266D03*
%TO.P,J7,28,Pin_28*%
%TO.N,unconnected-(J7-Pin_28-Pad28)*%
X142785321Y-39449266D03*
%TO.P,J7,29,Pin_29*%
%TO.N,unconnected-(J7-Pin_29-Pad29)*%
X145325321Y-36909266D03*
%TO.P,J7,30,Pin_30*%
%TO.N,unconnected-(J7-Pin_30-Pad30)*%
X145325321Y-39449266D03*
%TO.P,J7,31,Pin_31*%
%TO.N,unconnected-(J7-Pin_31-Pad31)*%
X147865321Y-36909266D03*
%TO.P,J7,32,Pin_32*%
%TO.N,unconnected-(J7-Pin_32-Pad32)*%
X147865321Y-39449266D03*
%TO.P,J7,33,Pin_33*%
%TO.N,unconnected-(J7-Pin_33-Pad33)*%
X150405321Y-36909266D03*
%TO.P,J7,34,Pin_34*%
%TO.N,GND*%
X150405321Y-39449266D03*
%TO.P,J7,35,Pin_35*%
%TO.N,I2S_LRCK*%
X152945321Y-36909266D03*
%TO.P,J7,36,Pin_36*%
%TO.N,unconnected-(J7-Pin_36-Pad36)*%
X152945321Y-39449266D03*
%TO.P,J7,37,Pin_37*%
%TO.N,unconnected-(J7-Pin_37-Pad37)*%
X155485321Y-36909266D03*
%TO.P,J7,38,Pin_38*%
%TO.N,unconnected-(J7-Pin_38-Pad38)*%
X155485321Y-39449266D03*
%TO.P,J7,39,Pin_39*%
%TO.N,unconnected-(J7-Pin_39-Pad39)*%
X158025321Y-36909266D03*
%TO.P,J7,40,Pin_40*%
%TO.N,I2S_DOUT*%
X158025321Y-39449266D03*
%TD*%
D16*
%TO.P,J4,1,Pin_1*%
%TO.N,Net-(J4-Pin_1)*%
X162500000Y-48955000D03*
D17*
%TO.P,J4,2,Pin_2*%
%TO.N,Net-(J4-Pin_2)*%
X162500000Y-54035000D03*
%TD*%
D18*
%TO.P,H1,1*%
%TO.N,N/C*%
X104875000Y-38067500D03*
%TD*%
%TO.P,H2,1*%
%TO.N,N/C*%
X162875000Y-38067500D03*
%TD*%
%TO.P,H3,1*%
%TO.N,N/C*%
X104875000Y-87067500D03*
%TD*%
%TO.P,H4,1*%
%TO.N,N/C*%
X162875000Y-87067500D03*
%TD*%
D14*
%TO.P,J1,1,Pin_1*%
%TO.N,unconnected-(J1-Pin_1-Pad1)*%
X105000000Y-46460000D03*
D15*
%TO.P,J1,2,Pin_2*%
%TO.N,unconnected-(J1-Pin_2-Pad2)*%
X105000000Y-49000000D03*
%TO.P,J1,3,Pin_3*%
%TO.N,I2S_BCK*%
X105000000Y-51540000D03*
%TO.P,J1,4,Pin_4*%
%TO.N,unconnected-(J1-Pin_4-Pad4)*%
X105000000Y-54080000D03*
%TO.P,J1,5,Pin_5*%
%TO.N,unconnected-(J1-Pin_5-Pad5)*%
X105000000Y-56620000D03*
%TO.P,J1,6,Pin_6*%
%TO.N,unconnected-(J1-Pin_6-Pad6)*%
X105000000Y-59160000D03*
%TD*%
D10*
%TO.P,U3,33,EP*%
%TO.N,GND*%
X143500000Y-49200000D03*
X143500000Y-50500000D03*
X143500000Y-51800000D03*
X143500000Y-53100000D03*
X143500000Y-54400000D03*
X143500000Y-55700000D03*
X143500000Y-57000000D03*
X143500000Y-58300000D03*
X143500000Y-59600000D03*
X145000000Y-49200000D03*
X145000000Y-50500000D03*
X145000000Y-51800000D03*
X145000000Y-53100000D03*
X145000000Y-54400000D03*
X145000000Y-55700000D03*
X145000000Y-57000000D03*
X145000000Y-58300000D03*
X145000000Y-59600000D03*
D11*
X145750000Y-54400000D03*
D10*
X146500000Y-49200000D03*
X146500000Y-50500000D03*
X146500000Y-51800000D03*
X146500000Y-53100000D03*
X146500000Y-54400000D03*
X146500000Y-55700000D03*
X146500000Y-57000000D03*
X146500000Y-58300000D03*
X146500000Y-59600000D03*
X148000000Y-49200000D03*
X148000000Y-50500000D03*
X148000000Y-51800000D03*
X148000000Y-53100000D03*
X148000000Y-54400000D03*
X148000000Y-55700000D03*
X148000000Y-57000000D03*
X148000000Y-58300000D03*
X148000000Y-59600000D03*
%TD*%
D16*
%TO.P,J3,1,Pin_1*%
%TO.N,Net-(J3-Pin_1)*%
X162500000Y-64455000D03*
D17*
%TO.P,J3,2,Pin_2*%
%TO.N,Net-(J3-Pin_2)*%
X162500000Y-69535000D03*
%TD*%
D12*
%TO.P,J2,1,Pin_1*%
%TO.N,+12V*%
X150045000Y-86277500D03*
D13*
%TO.P,J2,2,Pin_2*%
%TO.N,GND*%
X144965000Y-86277500D03*
%TD*%
D19*
%TO.P,U2,1,GND*%
%TO.N,GND*%
X144700000Y-76700000D03*
%TO.P,U2,2,VO*%
%TO.N,+3.3V*%
X144700000Y-79000000D03*
D20*
X138400000Y-79000000D03*
D19*
%TO.P,U2,3,VI*%
%TO.N,+12V*%
X144700000Y-81300000D03*
%TD*%
D21*
%TO.P,C1,1*%
%TO.N,+12V*%
X140000000Y-67500000D03*
%TO.P,C1,2*%
%TO.N,GND*%
X138100000Y-67500000D03*
%TD*%
%TO.P,C3,1*%
%TO.N,+3.3V*%
X140000000Y-73500000D03*
%TO.P,C3,2*%
%TO.N,GND*%
X138100000Y-73500000D03*
%TD*%
%TO.P,C2,1*%
%TO.N,+3.3V*%
X140000000Y-70500000D03*
%TO.P,C2,2*%
%TO.N,GND*%
X138100000Y-70500000D03*
%TD*%
D22*
%TO.N,+12V*%
X139000000Y-49500000D03*
X139463152Y-63463152D03*
X133500000Y-73000000D03*
X141500000Y-65500000D03*
%TO.N,GND*%
X123502800Y-59381500D03*
X138100000Y-72000000D03*
%TO.N,+3.3V*%
X137000000Y-59609500D03*
%TO.N,I2S_BCK*%
X106526200Y-47224500D03*
X117176300Y-51581000D03*
%TO.N,Net-(J3-Pin_2)*%
X159067200Y-56651600D03*
%TO.N,Net-(J4-Pin_2)*%
X159819500Y-51166900D03*
%TO.N,Net-(J5-Pin_1)*%
X120278600Y-67802100D03*
%TO.N,Net-(J5-Pin_2)*%
X114611700Y-71441100D03*
%TO.N,I2C_SDA*%
X111189300Y-53828300D03*
%TO.N,I2S_LRCK*%
X116165691Y-38440688D03*
X115507500Y-52870100D03*
%TO.N,I2C_SCL*%
X114753300Y-53693700D03*
%TO.N,Net-(U1-OUTL-)*%
X132393900Y-71439600D03*
X133062200Y-52089100D03*
X129899700Y-53897800D03*
%TO.N,Net-(U1-OUTR+)*%
X129578300Y-50346300D03*
X135357600Y-68483200D03*
X128260200Y-51420200D03*
X135357600Y-52757400D03*
%TO.N,Net-(U1-OUTL+)*%
X140651600Y-51598400D03*
X140651600Y-54361300D03*
X137619700Y-66261200D03*
%TO.N,Net-(U1-OUTR-)*%
X131590500Y-68452100D03*
X129256800Y-52032100D03*
%TD*%
D23*
%TO.N,+12V*%
X146892100Y-79966400D02*
X146892100Y-76373200D01*
X144700000Y-81300000D02*
X144945500Y-81545500D01*
X144945500Y-81545500D02*
X145313000Y-81545500D01*
X141500000Y-66000000D02*
X140000000Y-67500000D01*
X143189400Y-72670500D02*
X142677100Y-72670500D01*
X134500000Y-71500000D02*
X134000000Y-71000000D01*
X138500000Y-49000000D02*
X139000000Y-49500000D01*
X145313000Y-81545500D02*
X146892100Y-79966400D01*
X134000000Y-52500000D02*
X137500000Y-49000000D01*
X139463152Y-49963152D02*
X139463152Y-63463152D01*
X140000000Y-67500000D02*
X142677100Y-70177100D01*
X134500000Y-72000000D02*
X133500000Y-73000000D01*
X141500000Y-65500000D02*
X141500000Y-66000000D01*
X142677100Y-70177100D02*
X142677100Y-72670500D01*
X134500000Y-71500000D02*
X134500000Y-72000000D01*
X145313000Y-81545500D02*
X150045000Y-86277500D01*
X137500000Y-49000000D02*
X138500000Y-49000000D01*
X134000000Y-71000000D02*
X134000000Y-52500000D01*
X146892100Y-76373200D02*
X143189400Y-72670500D01*
X139000000Y-49500000D02*
X139463152Y-49963152D01*
D24*
%TO.N,GND*%
X143500000Y-49200000D02*
X145000000Y-49200000D01*
X126500000Y-64500000D02*
X126500000Y-63200000D01*
X123500000Y-68400000D02*
X123500000Y-69700000D01*
X140447400Y-69405500D02*
X141403000Y-70361100D01*
X145750000Y-54400000D02*
X145000000Y-54400000D01*
X145000000Y-58520900D02*
X145000000Y-57000000D01*
X143500000Y-54400000D02*
X143500000Y-55700000D01*
X145000000Y-53100000D02*
X145000000Y-54400000D01*
X126500000Y-65800000D02*
X126500000Y-64500000D01*
X123500000Y-67100000D02*
X123500000Y-68400000D01*
X141403000Y-73489700D02*
X144613300Y-76700000D01*
X143500000Y-53100000D02*
X143500000Y-54400000D01*
X126500000Y-73600000D02*
X126500000Y-72300000D01*
X123500000Y-71000000D02*
X123500000Y-69700000D01*
X125000000Y-68400000D02*
X125000000Y-67100000D01*
X146500000Y-49200000D02*
X148000000Y-49200000D01*
X143277500Y-85956700D02*
X143277500Y-80650100D01*
X143500000Y-58300000D02*
X143500000Y-59600000D01*
X146500000Y-53100000D02*
X146500000Y-54400000D01*
X148000000Y-54400000D02*
X148000000Y-55700000D01*
X143277500Y-80650100D02*
X143812900Y-80114700D01*
X126500000Y-65800000D02*
X126500000Y-67100000D01*
X139194500Y-69405500D02*
X140447400Y-69405500D01*
X128000000Y-67100000D02*
X128000000Y-65800000D01*
X148000000Y-49200000D02*
X150200000Y-47000000D01*
X145000000Y-55700000D02*
X145000000Y-57000000D01*
X138100000Y-67500000D02*
X143500000Y-62100000D01*
X123500000Y-73600000D02*
X123500000Y-72300000D01*
X148000000Y-53100000D02*
X148000000Y-54400000D01*
X128000000Y-72389900D02*
X128000000Y-72300000D01*
X145618800Y-80114700D02*
X146072400Y-79661100D01*
X123500000Y-63200000D02*
X123500000Y-64500000D01*
X123502800Y-59381500D02*
X123500000Y-59384300D01*
X148000000Y-49200000D02*
X148000000Y-50500000D01*
X146500000Y-55700000D02*
X146500000Y-57000000D01*
X145000000Y-49200000D02*
X146500000Y-49200000D01*
X144965000Y-86277500D02*
X143598300Y-86277500D01*
X145000000Y-54400000D02*
X145000000Y-55700000D01*
X138100000Y-72000000D02*
X138100000Y-70500000D01*
X141403000Y-70361100D02*
X141403000Y-73489700D01*
X138100000Y-70500000D02*
X138100000Y-67500000D01*
X146072400Y-79661100D02*
X146072400Y-78072400D01*
X148000000Y-57000000D02*
X148000000Y-55700000D01*
X128000000Y-65800000D02*
X128000000Y-64500000D01*
X150200000Y-47000000D02*
X150200000Y-39540000D01*
X144613300Y-76700000D02*
X144700000Y-76700000D01*
X123500000Y-64500000D02*
X123500000Y-65800000D01*
X125000000Y-69700000D02*
X125000000Y-71000000D01*
X143500000Y-51800000D02*
X143500000Y-53100000D01*
X125000000Y-65800000D02*
X125000000Y-64500000D01*
X128000000Y-71000000D02*
X128000000Y-69700000D01*
X143500000Y-55700000D02*
X143500000Y-57000000D01*
X146500000Y-53100000D02*
X146500000Y-51800000D01*
X143598300Y-86277500D02*
X143277500Y-85956700D01*
X146072400Y-78072400D02*
X144700000Y-76700000D01*
X123500000Y-65800000D02*
X123500000Y-67100000D01*
X128000000Y-73600000D02*
X128000000Y-72389900D01*
X145000000Y-51800000D02*
X145000000Y-53100000D01*
X145000000Y-50500000D02*
X145000000Y-51800000D01*
X126500000Y-69700000D02*
X126500000Y-68400000D01*
X143812900Y-80114700D02*
X145618800Y-80114700D01*
X138100000Y-73500000D02*
X138100000Y-72000000D01*
X143500000Y-57000000D02*
X143500000Y-58300000D01*
X148000000Y-50500000D02*
X148000000Y-51800000D01*
X123500000Y-59384300D02*
X123500000Y-63200000D01*
X148000000Y-59600000D02*
X148000000Y-58300000D01*
X125750000Y-68400000D02*
X125000000Y-68400000D01*
X125000000Y-73600000D02*
X125000000Y-72300000D01*
X125000000Y-69700000D02*
X125000000Y-68400000D01*
X146500000Y-58300000D02*
X146500000Y-57000000D01*
X146500000Y-49200000D02*
X146500000Y-50500000D01*
X125000000Y-64500000D02*
X125000000Y-63200000D01*
X143500000Y-50500000D02*
X143500000Y-49200000D01*
X128000000Y-72389900D02*
X128000000Y-71000000D01*
X126500000Y-68400000D02*
X126500000Y-67100000D01*
X128000000Y-68400000D02*
X128000000Y-67100000D01*
X148000000Y-58300000D02*
X148000000Y-57000000D01*
X128000000Y-63200000D02*
X128000000Y-64500000D01*
X126500000Y-71000000D02*
X126500000Y-72300000D01*
X145000000Y-49200000D02*
X145000000Y-50500000D01*
X128000000Y-69700000D02*
X128000000Y-68400000D01*
X145000000Y-58520900D02*
X145000000Y-59600000D01*
X138100000Y-70500000D02*
X139194500Y-69405500D01*
X145000000Y-58300000D02*
X145000000Y-58520900D01*
X143500000Y-62100000D02*
X143500000Y-59600000D01*
X146500000Y-59600000D02*
X146500000Y-58300000D01*
X125000000Y-65800000D02*
X125000000Y-67100000D01*
X125000000Y-72300000D02*
X125000000Y-71000000D01*
X126500000Y-71000000D02*
X126500000Y-69700000D01*
D25*
%TO.N,+3.3V*%
X138400000Y-75100000D02*
X137976700Y-75100000D01*
X136865800Y-73989100D02*
X136865800Y-59743700D01*
X144700000Y-79000000D02*
X140000000Y-74300000D01*
X140000000Y-73500000D02*
X140000000Y-70500000D01*
X136865800Y-59743700D02*
X137000000Y-59609500D01*
X140000000Y-74300000D02*
X140000000Y-73500000D01*
X137976700Y-75100000D02*
X136865800Y-73989100D01*
X138400000Y-75100000D02*
X140000000Y-73500000D01*
X138400000Y-79000000D02*
X138400000Y-75100000D01*
D24*
%TO.N,I2S_BCK*%
X117176300Y-44623700D02*
X122260000Y-39540000D01*
X106526200Y-50013800D02*
X106526200Y-47224500D01*
X105000000Y-51540000D02*
X106526200Y-50013800D01*
X117176300Y-51581000D02*
X117176300Y-44623700D01*
%TO.N,Net-(J3-Pin_2)*%
X159067200Y-64735500D02*
X162500000Y-68168300D01*
X159067200Y-56651600D02*
X159067200Y-64735500D01*
X162500000Y-69535000D02*
X162500000Y-68168300D01*
%TO.N,Net-(J4-Pin_2)*%
X161320900Y-52668300D02*
X159819500Y-51166900D01*
X162500000Y-52668300D02*
X161320900Y-52668300D01*
X162500000Y-54035000D02*
X162500000Y-52668300D01*
%TO.N,Net-(J5-Pin_1)*%
X120278600Y-85543900D02*
X120278600Y-67802100D01*
X119545000Y-86277500D02*
X120278600Y-85543900D01*
%TO.N,Net-(J5-Pin_2)*%
X114465000Y-86277500D02*
X114465000Y-71587800D01*
X114465000Y-71587800D02*
X114611700Y-71441100D01*
%TO.N,I2C_SDA*%
X111189300Y-53828300D02*
X110920100Y-53559100D01*
X112305321Y-36909266D02*
X110941321Y-38273266D01*
X110941321Y-53580321D02*
X111189300Y-53828300D01*
X110941321Y-38273266D02*
X110941321Y-53580321D01*
%TO.N,I2S_LRCK*%
X116165691Y-52211909D02*
X115507500Y-52870100D01*
X116165691Y-38440688D02*
X116165691Y-52211909D01*
%TO.N,I2C_SCL*%
X114845321Y-36909266D02*
X113500000Y-38254587D01*
X113500000Y-38254587D02*
X113500000Y-51500000D01*
X114753300Y-52753300D02*
X113500000Y-51500000D01*
X114753300Y-53693700D02*
X114753300Y-52753300D01*
%TO.N,Net-(U1-OUTL-)*%
X130073500Y-53897800D02*
X129899700Y-53897800D01*
X130663500Y-54487800D02*
X133062200Y-52089100D01*
X130663500Y-54487800D02*
X130073500Y-53897800D01*
X132393900Y-71439600D02*
X132393900Y-56218200D01*
X132393900Y-56218200D02*
X130663500Y-54487800D01*
%TO.N,Net-(U1-OUTR+)*%
X129578300Y-50346300D02*
X129334100Y-50346300D01*
X135357600Y-68483200D02*
X135357600Y-52757400D01*
X129334100Y-50346300D02*
X128260200Y-51420200D01*
%TO.N,Net-(U1-OUTL+)*%
X140651600Y-54361300D02*
X140651600Y-63848400D01*
X140651600Y-54361300D02*
X140651600Y-51598400D01*
X138238800Y-66261200D02*
X137619700Y-66261200D01*
X140651600Y-63848400D02*
X138238800Y-66261200D01*
%TO.N,Net-(U1-OUTR-)*%
X129256800Y-66118400D02*
X129256800Y-52032100D01*
X131590500Y-68452100D02*
X129256800Y-66118400D01*
%TD*%
M02*
