%TF.GenerationSoftware,KiCad,Pcbnew,9.0.7*%
%TF.CreationDate,2026-02-04T14:04:17-06:00*%
%TF.ProjectId,dac_amp,6461635f-616d-4702-9e6b-696361645f70,rev?*%
%TF.SameCoordinates,Original*%
%TF.FileFunction,Paste,Top*%
%TF.FilePolarity,Positive*%
%FSLAX46Y46*%
G04 Gerber Fmt 4.6, Leading zero omitted, Abs format (unit mm)*
G04 Created by KiCad (PCBNEW 9.0.7) date 2026-02-04 14:04:17*
%MOMM*%
%LPD*%
G01*
G04 APERTURE LIST*
G04 Aperture macros list*
%AMRoundRect*
0 Rectangle with rounded corners*
0 $1 Rounding radius*
0 $2 $3 $4 $5 $6 $7 $8 $9 X,Y pos of 4 corners*
0 Add a 4 corners polygon primitive as box body*
4,1,4,$2,$3,$4,$5,$6,$7,$8,$9,$2,$3,0*
0 Add four circle primitives for the rounded corners*
1,1,$1+$1,$2,$3*
1,1,$1+$1,$4,$5*
1,1,$1+$1,$6,$7*
1,1,$1+$1,$8,$9*
0 Add four rect primitives between the rounded corners*
20,1,$1+$1,$2,$3,$4,$5,0*
20,1,$1+$1,$4,$5,$6,$7,0*
20,1,$1+$1,$6,$7,$8,$9,0*
20,1,$1+$1,$8,$9,$2,$3,0*%
G04 Aperture macros list end*
%ADD10R,0.930000X0.550000*%
%ADD11R,0.930000X1.000000*%
%ADD12R,1.200000X0.550000*%
%ADD13R,1.200000X1.000000*%
%ADD14R,1.200000X0.400000*%
%ADD15RoundRect,0.137500X-0.600000X-0.137500X0.600000X-0.137500X0.600000X0.137500X-0.600000X0.137500X0*%
%ADD16RoundRect,0.137500X-0.137500X-0.600000X0.137500X-0.600000X0.137500X0.600000X-0.137500X0.600000X0*%
G04 APERTURE END LIST*
D10*
%TO.C,U4*%
X127115000Y-70125000D03*
D11*
X127115000Y-69050000D03*
X127115000Y-67750000D03*
D10*
X127115000Y-66675000D03*
D12*
X125750000Y-70125000D03*
D13*
X125750000Y-69050000D03*
X125750000Y-67750000D03*
D12*
X125750000Y-66675000D03*
D10*
X124385000Y-70125000D03*
D11*
X124385000Y-69050000D03*
X124385000Y-67750000D03*
D10*
X124385000Y-66675000D03*
D14*
X129400000Y-73275000D03*
X129400000Y-72625000D03*
X129400000Y-71975000D03*
X129400000Y-71325000D03*
X129400000Y-70675000D03*
X129400000Y-70025000D03*
X129400000Y-69375000D03*
X129400000Y-68725000D03*
X129400000Y-68075000D03*
X129400000Y-67425000D03*
X129400000Y-66775000D03*
X129400000Y-66125000D03*
X129400000Y-65475000D03*
X129400000Y-64825000D03*
X129400000Y-64175000D03*
X129400000Y-63525000D03*
X122100000Y-63525000D03*
X122100000Y-64175000D03*
X122100000Y-64825000D03*
X122100000Y-65475000D03*
X122100000Y-66125000D03*
X122100000Y-66775000D03*
X122100000Y-67425000D03*
X122100000Y-68075000D03*
X122100000Y-68725000D03*
X122100000Y-69375000D03*
X122100000Y-70025000D03*
X122100000Y-70675000D03*
X122100000Y-71325000D03*
X122100000Y-71975000D03*
X122100000Y-72625000D03*
X122100000Y-73275000D03*
%TD*%
D15*
%TO.C,U1*%
X112675000Y-50200000D03*
X112675000Y-51000000D03*
X112675000Y-51800000D03*
X112675000Y-52600000D03*
X112675000Y-53400000D03*
X112675000Y-54200000D03*
X112675000Y-55000000D03*
X112675000Y-55800000D03*
D16*
X114037500Y-57162500D03*
X114837500Y-57162500D03*
X115637500Y-57162500D03*
X116437500Y-57162500D03*
X117237500Y-57162500D03*
X118037500Y-57162500D03*
X118837500Y-57162500D03*
X119637500Y-57162500D03*
D15*
X121000000Y-55800000D03*
X121000000Y-55000000D03*
X121000000Y-54200000D03*
X121000000Y-53400000D03*
X121000000Y-52600000D03*
X121000000Y-51800000D03*
X121000000Y-51000000D03*
X121000000Y-50200000D03*
D16*
X119637500Y-48837500D03*
X118837500Y-48837500D03*
X118037500Y-48837500D03*
X117237500Y-48837500D03*
X116437500Y-48837500D03*
X115637500Y-48837500D03*
X114837500Y-48837500D03*
X114037500Y-48837500D03*
%TD*%
D10*
%TO.C,U3*%
X144385000Y-52675000D03*
D11*
X144385000Y-53750000D03*
X144385000Y-55050000D03*
D10*
X144385000Y-56125000D03*
D12*
X145750000Y-52675000D03*
D13*
X145750000Y-53750000D03*
X145750000Y-55050000D03*
D12*
X145750000Y-56125000D03*
D10*
X147115000Y-52675000D03*
D11*
X147115000Y-53750000D03*
X147115000Y-55050000D03*
D10*
X147115000Y-56125000D03*
D14*
X142100000Y-49525000D03*
X142100000Y-50175000D03*
X142100000Y-50825000D03*
X142100000Y-51475000D03*
X142100000Y-52125000D03*
X142100000Y-52775000D03*
X142100000Y-53425000D03*
X142100000Y-54075000D03*
X142100000Y-54725000D03*
X142100000Y-55375000D03*
X142100000Y-56025000D03*
X142100000Y-56675000D03*
X142100000Y-57325000D03*
X142100000Y-57975000D03*
X142100000Y-58625000D03*
X142100000Y-59275000D03*
X149400000Y-59275000D03*
X149400000Y-58625000D03*
X149400000Y-57975000D03*
X149400000Y-57325000D03*
X149400000Y-56675000D03*
X149400000Y-56025000D03*
X149400000Y-55375000D03*
X149400000Y-54725000D03*
X149400000Y-54075000D03*
X149400000Y-53425000D03*
X149400000Y-52775000D03*
X149400000Y-52125000D03*
X149400000Y-51475000D03*
X149400000Y-50825000D03*
X149400000Y-50175000D03*
X149400000Y-49525000D03*
%TD*%
M02*
