%TF.GenerationSoftware,KiCad,Pcbnew,9.0.7*%
%TF.CreationDate,2026-02-04T14:04:16-06:00*%
%TF.ProjectId,dac_amp,6461635f-616d-4702-9e6b-696361645f70,rev?*%
%TF.SameCoordinates,Original*%
%TF.FileFunction,Copper,L1,Top*%
%TF.FilePolarity,Positive*%
%FSLAX46Y46*%
G04 Gerber Fmt 4.6, Leading zero omitted, Abs format (unit mm)*
G04 Created by KiCad (PCBNEW 9.0.7) date 2026-02-04 14:04:16*
%MOMM*%
%LPD*%
G01*
G04 APERTURE LIST*
G04 Aperture macros list*
%AMRoundRect*
0 Rectangle with rounded corners*
0 $1 Rounding radius*
0 $2 $3 $4 $5 $6 $7 $8 $9 X,Y pos of 4 corners*
0 Add a 4 corners polygon primitive as box body*
4,1,4,$2,$3,$4,$5,$6,$7,$8,$9,$2,$3,0*
0 Add four circle primitives for the rounded corners*
1,1,$1+$1,$2,$3*
1,1,$1+$1,$4,$5*
1,1,$1+$1,$6,$7*
1,1,$1+$1,$8,$9*
0 Add four rect primitives between the rounded corners*
20,1,$1+$1,$2,$3,$4,$5,0*
20,1,$1+$1,$4,$5,$6,$7,0*
20,1,$1+$1,$6,$7,$8,$9,0*
20,1,$1+$1,$8,$9,$2,$3,0*%
G04 Aperture macros list end*
%TA.AperFunction,SMDPad,CuDef*%
%ADD10R,1.200000X0.400000*%
%TD*%
%TA.AperFunction,ComponentPad*%
%ADD11C,0.600000*%
%TD*%
%TA.AperFunction,SMDPad,CuDef*%
%ADD12R,5.200000X11.000000*%
%TD*%
%TA.AperFunction,SMDPad,CuDef*%
%ADD13RoundRect,0.137500X-0.600000X-0.137500X0.600000X-0.137500X0.600000X0.137500X-0.600000X0.137500X0*%
%TD*%
%TA.AperFunction,SMDPad,CuDef*%
%ADD14RoundRect,0.137500X-0.137500X-0.600000X0.137500X-0.600000X0.137500X0.600000X-0.137500X0.600000X0*%
%TD*%
%TA.AperFunction,ComponentPad*%
%ADD15RoundRect,0.249999X0.790001X1.550001X-0.790001X1.550001X-0.790001X-1.550001X0.790001X-1.550001X0*%
%TD*%
%TA.AperFunction,ComponentPad*%
%ADD16O,2.080000X3.600000*%
%TD*%
%TA.AperFunction,ComponentPad*%
%ADD17R,1.700000X1.700000*%
%TD*%
%TA.AperFunction,ComponentPad*%
%ADD18C,1.700000*%
%TD*%
%TA.AperFunction,ComponentPad*%
%ADD19RoundRect,0.249999X-1.550001X0.790001X-1.550001X-0.790001X1.550001X-0.790001X1.550001X0.790001X0*%
%TD*%
%TA.AperFunction,ComponentPad*%
%ADD20O,3.600000X2.080000*%
%TD*%
%TA.AperFunction,ComponentPad*%
%ADD21C,2.700000*%
%TD*%
%TA.AperFunction,ViaPad*%
%ADD22C,0.600000*%
%TD*%
%TA.AperFunction,Conductor*%
%ADD23C,0.250000*%
%TD*%
%TA.AperFunction,Conductor*%
%ADD24C,0.800000*%
%TD*%
%TA.AperFunction,Conductor*%
%ADD25C,0.400000*%
%TD*%
G04 APERTURE END LIST*
D10*
%TO.P,U4,1,PVCC*%
%TO.N,+12V*%
X129400000Y-73275000D03*
%TO.P,U4,2,PGND*%
%TO.N,GND*%
X129400000Y-72625000D03*
%TO.P,U4,3*%
%TO.N,N/C*%
X129400000Y-71975000D03*
%TO.P,U4,4,INL+*%
%TO.N,Net-(U1-OUTL+)*%
X129400000Y-71325000D03*
%TO.P,U4,5,INL-*%
%TO.N,Net-(U1-OUTL-)*%
X129400000Y-70675000D03*
%TO.P,U4,6,INR+*%
%TO.N,Net-(U1-OUTR+)*%
X129400000Y-70025000D03*
%TO.P,U4,7,INR-*%
%TO.N,Net-(U1-OUTR-)*%
X129400000Y-69375000D03*
%TO.P,U4,8*%
%TO.N,N/C*%
X129400000Y-68725000D03*
%TO.P,U4,9*%
X129400000Y-68075000D03*
%TO.P,U4,10*%
X129400000Y-67425000D03*
%TO.P,U4,11*%
X129400000Y-66775000D03*
%TO.P,U4,12*%
X129400000Y-66125000D03*
%TO.P,U4,13*%
X129400000Y-65475000D03*
%TO.P,U4,14*%
X129400000Y-64825000D03*
%TO.P,U4,15*%
X129400000Y-64175000D03*
%TO.P,U4,16,~{SD}*%
%TO.N,+3.3V*%
X129400000Y-63525000D03*
%TO.P,U4,17,MUTE*%
%TO.N,GND*%
X122100000Y-63525000D03*
%TO.P,U4,18,GAIN0*%
X122100000Y-64175000D03*
%TO.P,U4,19,GAIN1*%
X122100000Y-64825000D03*
%TO.P,U4,20*%
%TO.N,N/C*%
X122100000Y-65475000D03*
%TO.P,U4,21*%
X122100000Y-66125000D03*
%TO.P,U4,22*%
X122100000Y-66775000D03*
%TO.P,U4,23*%
X122100000Y-67425000D03*
%TO.P,U4,24,OUTL+*%
%TO.N,Net-(J5-Pin_1)*%
X122100000Y-68075000D03*
%TO.P,U4,25,OUTL-*%
%TO.N,Net-(J5-Pin_2)*%
X122100000Y-68725000D03*
%TO.P,U4,26*%
%TO.N,N/C*%
X122100000Y-69375000D03*
%TO.P,U4,27*%
X122100000Y-70025000D03*
%TO.P,U4,28,OUTR+*%
%TO.N,Net-(J6-Pin_1)*%
X122100000Y-70675000D03*
%TO.P,U4,29,OUTR-*%
%TO.N,Net-(J6-Pin_2)*%
X122100000Y-71325000D03*
%TO.P,U4,30*%
%TO.N,N/C*%
X122100000Y-71975000D03*
%TO.P,U4,31*%
X122100000Y-72625000D03*
%TO.P,U4,32*%
X122100000Y-73275000D03*
D11*
%TO.P,U4,33,EP*%
%TO.N,GND*%
X128000000Y-73600000D03*
X128000000Y-72300000D03*
X128000000Y-71000000D03*
X128000000Y-69700000D03*
X128000000Y-68400000D03*
X128000000Y-67100000D03*
X128000000Y-65800000D03*
X128000000Y-64500000D03*
X128000000Y-63200000D03*
X126500000Y-73600000D03*
X126500000Y-72300000D03*
X126500000Y-71000000D03*
X126500000Y-69700000D03*
X126500000Y-68400000D03*
X126500000Y-67100000D03*
X126500000Y-65800000D03*
X126500000Y-64500000D03*
X126500000Y-63200000D03*
D12*
X125750000Y-68400000D03*
D11*
X125000000Y-73600000D03*
X125000000Y-72300000D03*
X125000000Y-71000000D03*
X125000000Y-69700000D03*
X125000000Y-68400000D03*
X125000000Y-67100000D03*
X125000000Y-65800000D03*
X125000000Y-64500000D03*
X125000000Y-63200000D03*
X123500000Y-73600000D03*
X123500000Y-72300000D03*
X123500000Y-71000000D03*
X123500000Y-69700000D03*
X123500000Y-68400000D03*
X123500000Y-67100000D03*
X123500000Y-65800000D03*
X123500000Y-64500000D03*
X123500000Y-63200000D03*
%TD*%
D13*
%TO.P,U1,1,DVDD*%
%TO.N,+3.3V*%
X112675000Y-50200000D03*
%TO.P,U1,2,DGND*%
%TO.N,GND*%
X112675000Y-51000000D03*
%TO.P,U1,3,BCK*%
%TO.N,I2S_BCK*%
X112675000Y-51800000D03*
%TO.P,U1,4,LRCK*%
%TO.N,I2S_LRCK*%
X112675000Y-52600000D03*
%TO.P,U1,5,DIN*%
%TO.N,I2S_DOUT*%
X112675000Y-53400000D03*
%TO.P,U1,6,SCL*%
%TO.N,I2C_SCL*%
X112675000Y-54200000D03*
%TO.P,U1,7,SDA*%
%TO.N,I2C_SDA*%
X112675000Y-55000000D03*
%TO.P,U1,8*%
%TO.N,N/C*%
X112675000Y-55800000D03*
D14*
%TO.P,U1,9*%
X114037500Y-57162500D03*
%TO.P,U1,10*%
X114837500Y-57162500D03*
%TO.P,U1,11*%
X115637500Y-57162500D03*
%TO.P,U1,12*%
X116437500Y-57162500D03*
%TO.P,U1,13*%
X117237500Y-57162500D03*
%TO.P,U1,14,AVDD*%
%TO.N,+3.3V*%
X118037500Y-57162500D03*
%TO.P,U1,15,AGND*%
%TO.N,GND*%
X118837500Y-57162500D03*
%TO.P,U1,16*%
%TO.N,N/C*%
X119637500Y-57162500D03*
D13*
%TO.P,U1,17*%
X121000000Y-55800000D03*
%TO.P,U1,18*%
X121000000Y-55000000D03*
%TO.P,U1,19*%
X121000000Y-54200000D03*
%TO.P,U1,20*%
X121000000Y-53400000D03*
%TO.P,U1,21,OUTL+*%
%TO.N,Net-(U1-OUTL+)*%
X121000000Y-52600000D03*
%TO.P,U1,22,OUTL-*%
%TO.N,Net-(U1-OUTL-)*%
X121000000Y-51800000D03*
%TO.P,U1,23,OUTR+*%
%TO.N,Net-(U1-OUTR+)*%
X121000000Y-51000000D03*
%TO.P,U1,24,OUTR-*%
%TO.N,Net-(U1-OUTR-)*%
X121000000Y-50200000D03*
D14*
%TO.P,U1,25*%
%TO.N,N/C*%
X119637500Y-48837500D03*
%TO.P,U1,26*%
X118837500Y-48837500D03*
%TO.P,U1,27,XSMT*%
%TO.N,+3.3V*%
X118037500Y-48837500D03*
%TO.P,U1,28,MUTE*%
X117237500Y-48837500D03*
%TO.P,U1,29*%
%TO.N,N/C*%
X116437500Y-48837500D03*
%TO.P,U1,30*%
X115637500Y-48837500D03*
%TO.P,U1,31*%
X114837500Y-48837500D03*
%TO.P,U1,32*%
X114037500Y-48837500D03*
%TD*%
D15*
%TO.P,J5,1,Pin_1*%
%TO.N,Net-(J5-Pin_1)*%
X119545000Y-86277500D03*
D16*
%TO.P,J5,2,Pin_2*%
%TO.N,Net-(J5-Pin_2)*%
X114465000Y-86277500D03*
%TD*%
D15*
%TO.P,J6,1,Pin_1*%
%TO.N,Net-(J6-Pin_1)*%
X134545000Y-86277500D03*
D16*
%TO.P,J6,2,Pin_2*%
%TO.N,Net-(J6-Pin_2)*%
X129465000Y-86277500D03*
%TD*%
D17*
%TO.P,J7,1,Pin_1*%
%TO.N,unconnected-(J7-Pin_1-Pad1)*%
X109765321Y-36909266D03*
D18*
%TO.P,J7,2,Pin_2*%
%TO.N,unconnected-(J7-Pin_2-Pad2)*%
X109765321Y-39449266D03*
%TO.P,J7,3,Pin_3*%
%TO.N,I2C_SDA*%
X112305321Y-36909266D03*
%TO.P,J7,4,Pin_4*%
%TO.N,unconnected-(J7-Pin_4-Pad4)*%
X112305321Y-39449266D03*
%TO.P,J7,5,Pin_5*%
%TO.N,I2C_SCL*%
X114845321Y-36909266D03*
%TO.P,J7,6,Pin_6*%
%TO.N,unconnected-(J7-Pin_6-Pad6)*%
X114845321Y-39449266D03*
%TO.P,J7,7,Pin_7*%
%TO.N,unconnected-(J7-Pin_7-Pad7)*%
X117385321Y-36909266D03*
%TO.P,J7,8,Pin_8*%
%TO.N,unconnected-(J7-Pin_8-Pad8)*%
X117385321Y-39449266D03*
%TO.P,J7,9,Pin_9*%
%TO.N,unconnected-(J7-Pin_9-Pad9)*%
X119925321Y-36909266D03*
%TO.P,J7,10,Pin_10*%
%TO.N,unconnected-(J7-Pin_10-Pad10)*%
X119925321Y-39449266D03*
%TO.P,J7,11,Pin_11*%
%TO.N,unconnected-(J7-Pin_11-Pad11)*%
X122465321Y-36909266D03*
%TO.P,J7,12,Pin_12*%
%TO.N,I2S_BCK*%
X122465321Y-39449266D03*
%TO.P,J7,13,Pin_13*%
%TO.N,unconnected-(J7-Pin_13-Pad13)*%
X125005321Y-36909266D03*
%TO.P,J7,14,Pin_14*%
%TO.N,unconnected-(J7-Pin_14-Pad14)*%
X125005321Y-39449266D03*
%TO.P,J7,15,Pin_15*%
%TO.N,unconnected-(J7-Pin_15-Pad15)*%
X127545321Y-36909266D03*
%TO.P,J7,16,Pin_16*%
%TO.N,unconnected-(J7-Pin_16-Pad16)*%
X127545321Y-39449266D03*
%TO.P,J7,17,Pin_17*%
%TO.N,unconnected-(J7-Pin_17-Pad17)*%
X130085321Y-36909266D03*
%TO.P,J7,18,Pin_18*%
%TO.N,unconnected-(J7-Pin_18-Pad18)*%
X130085321Y-39449266D03*
%TO.P,J7,19,Pin_19*%
%TO.N,unconnected-(J7-Pin_19-Pad19)*%
X132625321Y-36909266D03*
%TO.P,J7,20,Pin_20*%
%TO.N,unconnected-(J7-Pin_20-Pad20)*%
X132625321Y-39449266D03*
%TO.P,J7,21,Pin_21*%
%TO.N,unconnected-(J7-Pin_21-Pad21)*%
X135165321Y-36909266D03*
%TO.P,J7,22,Pin_22*%
%TO.N,unconnected-(J7-Pin_22-Pad22)*%
X135165321Y-39449266D03*
%TO.P,J7,23,Pin_23*%
%TO.N,unconnected-(J7-Pin_23-Pad23)*%
X137705321Y-36909266D03*
%TO.P,J7,24,Pin_24*%
%TO.N,unconnected-(J7-Pin_24-Pad24)*%
X137705321Y-39449266D03*
%TO.P,J7,25,Pin_25*%
%TO.N,unconnected-(J7-Pin_25-Pad25)*%
X140245321Y-36909266D03*
%TO.P,J7,26,Pin_26*%
%TO.N,unconnected-(J7-Pin_26-Pad26)*%
X140245321Y-39449266D03*
%TO.P,J7,27,Pin_27*%
%TO.N,unconnected-(J7-Pin_27-Pad27)*%
X142785321Y-36909266D03*
%TO.P,J7,28,Pin_28*%
%TO.N,unconnected-(J7-Pin_28-Pad28)*%
X142785321Y-39449266D03*
%TO.P,J7,29,Pin_29*%
%TO.N,unconnected-(J7-Pin_29-Pad29)*%
X145325321Y-36909266D03*
%TO.P,J7,30,Pin_30*%
%TO.N,unconnected-(J7-Pin_30-Pad30)*%
X145325321Y-39449266D03*
%TO.P,J7,31,Pin_31*%
%TO.N,unconnected-(J7-Pin_31-Pad31)*%
X147865321Y-36909266D03*
%TO.P,J7,32,Pin_32*%
%TO.N,unconnected-(J7-Pin_32-Pad32)*%
X147865321Y-39449266D03*
%TO.P,J7,33,Pin_33*%
%TO.N,unconnected-(J7-Pin_33-Pad33)*%
X150405321Y-36909266D03*
%TO.P,J7,34,Pin_34*%
%TO.N,GND*%
X150405321Y-39449266D03*
%TO.P,J7,35,Pin_35*%
%TO.N,I2S_LRCK*%
X152945321Y-36909266D03*
%TO.P,J7,36,Pin_36*%
%TO.N,unconnected-(J7-Pin_36-Pad36)*%
X152945321Y-39449266D03*
%TO.P,J7,37,Pin_37*%
%TO.N,unconnected-(J7-Pin_37-Pad37)*%
X155485321Y-36909266D03*
%TO.P,J7,38,Pin_38*%
%TO.N,unconnected-(J7-Pin_38-Pad38)*%
X155485321Y-39449266D03*
%TO.P,J7,39,Pin_39*%
%TO.N,unconnected-(J7-Pin_39-Pad39)*%
X158025321Y-36909266D03*
%TO.P,J7,40,Pin_40*%
%TO.N,I2S_DOUT*%
X158025321Y-39449266D03*
%TD*%
D19*
%TO.P,J4,1,Pin_1*%
%TO.N,Net-(J4-Pin_1)*%
X162500000Y-48955000D03*
D20*
%TO.P,J4,2,Pin_2*%
%TO.N,Net-(J4-Pin_2)*%
X162500000Y-54035000D03*
%TD*%
D21*
%TO.P,H1,1*%
%TO.N,N/C*%
X104875000Y-38067500D03*
%TD*%
%TO.P,H2,1*%
%TO.N,N/C*%
X162875000Y-38067500D03*
%TD*%
%TO.P,H3,1*%
%TO.N,N/C*%
X104875000Y-87067500D03*
%TD*%
%TO.P,H4,1*%
%TO.N,N/C*%
X162875000Y-87067500D03*
%TD*%
D17*
%TO.P,J1,1,Pin_1*%
%TO.N,unconnected-(J1-Pin_1-Pad1)*%
X105000000Y-46460000D03*
D18*
%TO.P,J1,2,Pin_2*%
%TO.N,unconnected-(J1-Pin_2-Pad2)*%
X105000000Y-49000000D03*
%TO.P,J1,3,Pin_3*%
%TO.N,I2S_BCK*%
X105000000Y-51540000D03*
%TO.P,J1,4,Pin_4*%
%TO.N,unconnected-(J1-Pin_4-Pad4)*%
X105000000Y-54080000D03*
%TO.P,J1,5,Pin_5*%
%TO.N,unconnected-(J1-Pin_5-Pad5)*%
X105000000Y-56620000D03*
%TO.P,J1,6,Pin_6*%
%TO.N,unconnected-(J1-Pin_6-Pad6)*%
X105000000Y-59160000D03*
%TD*%
D10*
%TO.P,U3,1,PVCC*%
%TO.N,+12V*%
X142100000Y-49525000D03*
%TO.P,U3,2,PGND*%
%TO.N,GND*%
X142100000Y-50175000D03*
%TO.P,U3,3*%
%TO.N,N/C*%
X142100000Y-50825000D03*
%TO.P,U3,4,INL+*%
%TO.N,Net-(U1-OUTL+)*%
X142100000Y-51475000D03*
%TO.P,U3,5,INL-*%
%TO.N,Net-(U1-OUTL-)*%
X142100000Y-52125000D03*
%TO.P,U3,6,INR+*%
%TO.N,Net-(U1-OUTR+)*%
X142100000Y-52775000D03*
%TO.P,U3,7,INR-*%
%TO.N,Net-(U1-OUTR-)*%
X142100000Y-53425000D03*
%TO.P,U3,8*%
%TO.N,N/C*%
X142100000Y-54075000D03*
%TO.P,U3,9*%
X142100000Y-54725000D03*
%TO.P,U3,10*%
X142100000Y-55375000D03*
%TO.P,U3,11*%
X142100000Y-56025000D03*
%TO.P,U3,12*%
X142100000Y-56675000D03*
%TO.P,U3,13*%
X142100000Y-57325000D03*
%TO.P,U3,14*%
X142100000Y-57975000D03*
%TO.P,U3,15*%
X142100000Y-58625000D03*
%TO.P,U3,16,~{SD}*%
%TO.N,+3.3V*%
X142100000Y-59275000D03*
%TO.P,U3,17,MUTE*%
%TO.N,GND*%
X149400000Y-59275000D03*
%TO.P,U3,18,GAIN0*%
X149400000Y-58625000D03*
%TO.P,U3,19,GAIN1*%
X149400000Y-57975000D03*
%TO.P,U3,20*%
%TO.N,N/C*%
X149400000Y-57325000D03*
%TO.P,U3,21*%
X149400000Y-56675000D03*
%TO.P,U3,22*%
X149400000Y-56025000D03*
%TO.P,U3,23*%
X149400000Y-55375000D03*
%TO.P,U3,24,OUTL+*%
%TO.N,Net-(J3-Pin_1)*%
X149400000Y-54725000D03*
%TO.P,U3,25,OUTL-*%
%TO.N,Net-(J3-Pin_2)*%
X149400000Y-54075000D03*
%TO.P,U3,26*%
%TO.N,N/C*%
X149400000Y-53425000D03*
%TO.P,U3,27*%
X149400000Y-52775000D03*
%TO.P,U3,28,OUTR+*%
%TO.N,Net-(J4-Pin_1)*%
X149400000Y-52125000D03*
%TO.P,U3,29,OUTR-*%
%TO.N,Net-(J4-Pin_2)*%
X149400000Y-51475000D03*
%TO.P,U3,30*%
%TO.N,N/C*%
X149400000Y-50825000D03*
%TO.P,U3,31*%
X149400000Y-50175000D03*
%TO.P,U3,32*%
X149400000Y-49525000D03*
D11*
%TO.P,U3,33,EP*%
%TO.N,GND*%
X143500000Y-49200000D03*
X143500000Y-50500000D03*
X143500000Y-51800000D03*
X143500000Y-53100000D03*
X143500000Y-54400000D03*
X143500000Y-55700000D03*
X143500000Y-57000000D03*
X143500000Y-58300000D03*
X143500000Y-59600000D03*
X145000000Y-49200000D03*
X145000000Y-50500000D03*
X145000000Y-51800000D03*
X145000000Y-53100000D03*
X145000000Y-54400000D03*
X145000000Y-55700000D03*
X145000000Y-57000000D03*
X145000000Y-58300000D03*
X145000000Y-59600000D03*
D12*
X145750000Y-54400000D03*
D11*
X146500000Y-49200000D03*
X146500000Y-50500000D03*
X146500000Y-51800000D03*
X146500000Y-53100000D03*
X146500000Y-54400000D03*
X146500000Y-55700000D03*
X146500000Y-57000000D03*
X146500000Y-58300000D03*
X146500000Y-59600000D03*
X148000000Y-49200000D03*
X148000000Y-50500000D03*
X148000000Y-51800000D03*
X148000000Y-53100000D03*
X148000000Y-54400000D03*
X148000000Y-55700000D03*
X148000000Y-57000000D03*
X148000000Y-58300000D03*
X148000000Y-59600000D03*
%TD*%
D19*
%TO.P,J3,1,Pin_1*%
%TO.N,Net-(J3-Pin_1)*%
X162500000Y-64455000D03*
D20*
%TO.P,J3,2,Pin_2*%
%TO.N,Net-(J3-Pin_2)*%
X162500000Y-69535000D03*
%TD*%
D15*
%TO.P,J2,1,Pin_1*%
%TO.N,+12V*%
X150045000Y-86277500D03*
D16*
%TO.P,J2,2,Pin_2*%
%TO.N,GND*%
X144965000Y-86277500D03*
%TD*%
D22*
%TO.N,+12V*%
X139000000Y-49500000D03*
X139463152Y-63463152D03*
X133500000Y-73000000D03*
X141500000Y-65500000D03*
%TO.N,GND*%
X123502800Y-59381500D03*
X138100000Y-72000000D03*
%TO.N,+3.3V*%
X137000000Y-59609500D03*
%TO.N,I2S_BCK*%
X106526200Y-47224500D03*
X117176300Y-51581000D03*
%TO.N,Net-(J3-Pin_2)*%
X159067200Y-56651600D03*
%TO.N,Net-(J4-Pin_2)*%
X159819500Y-51166900D03*
%TO.N,Net-(J5-Pin_1)*%
X120278600Y-67802100D03*
%TO.N,Net-(J5-Pin_2)*%
X114611700Y-71441100D03*
%TO.N,I2C_SDA*%
X111189300Y-53828300D03*
%TO.N,I2S_LRCK*%
X116165691Y-38440688D03*
X115507500Y-52870100D03*
%TO.N,I2C_SCL*%
X114753300Y-53693700D03*
%TO.N,Net-(U1-OUTL-)*%
X132393900Y-71439600D03*
X133062200Y-52089100D03*
X129899700Y-53897800D03*
%TO.N,Net-(U1-OUTR+)*%
X129578300Y-50346300D03*
X135357600Y-68483200D03*
X128260200Y-51420200D03*
X135357600Y-52757400D03*
%TO.N,Net-(U1-OUTL+)*%
X140651600Y-51598400D03*
X140651600Y-54361300D03*
X137619700Y-66261200D03*
%TO.N,Net-(U1-OUTR-)*%
X131590500Y-68452100D03*
X129256800Y-52032100D03*
%TD*%
D23*
%TO.N,+12V*%
X142025000Y-49525000D02*
X142000000Y-49500000D01*
X133225000Y-73275000D02*
X133500000Y-73000000D01*
X142100000Y-49525000D02*
X142025000Y-49525000D01*
D24*
X139463152Y-63463152D02*
X141500000Y-65500000D01*
D23*
X129400000Y-73275000D02*
X133225000Y-73275000D01*
X142000000Y-49500000D02*
X139000000Y-49500000D01*
%TO.N,GND*%
X146100000Y-57000000D02*
X146500000Y-57000000D01*
X147800000Y-58300000D02*
X146500000Y-57000000D01*
X149400000Y-57975000D02*
X148325000Y-57975000D01*
X149400000Y-59275000D02*
X148325000Y-59275000D01*
X145000000Y-55900000D02*
X145000000Y-55700000D01*
X142100000Y-50175000D02*
X143175000Y-50175000D01*
X129400000Y-72625000D02*
X128473300Y-72625000D01*
X146500000Y-54400000D02*
X145750000Y-54400000D01*
X122100000Y-64175000D02*
X123175000Y-64175000D01*
X136248300Y-73851700D02*
X138100000Y-72000000D01*
X122100000Y-63525000D02*
X121173300Y-63525000D01*
X128423300Y-73600000D02*
X128423300Y-73631000D01*
X111575600Y-49892800D02*
X111575600Y-50501900D01*
X135121600Y-50175000D02*
X132671100Y-47724500D01*
X132671100Y-47724500D02*
X113743900Y-47724500D01*
X121173300Y-63525000D02*
X121173300Y-64175000D01*
X121173300Y-64825000D02*
X121173300Y-64418700D01*
X145612500Y-56512500D02*
X145000000Y-55900000D01*
X148325000Y-58625000D02*
X148000000Y-58300000D01*
X112073700Y-51000000D02*
X112675000Y-51000000D01*
X123175000Y-64175000D02*
X123500000Y-64500000D01*
X122100000Y-64825000D02*
X121173300Y-64825000D01*
X145000000Y-54400000D02*
X145750000Y-54400000D01*
X128644000Y-73851700D02*
X136248300Y-73851700D01*
X121417000Y-64175000D02*
X122100000Y-64175000D01*
X121417000Y-64175000D02*
X121173300Y-64175000D01*
X118837500Y-57162500D02*
X118837500Y-57801100D01*
X113743900Y-47724500D02*
X111575600Y-49892800D01*
X123500000Y-72300000D02*
X125000000Y-72300000D01*
X123500000Y-63200000D02*
X125000000Y-63200000D01*
X142100000Y-50175000D02*
X135121600Y-50175000D01*
X148000000Y-58300000D02*
X147800000Y-58300000D01*
X143175000Y-50175000D02*
X143500000Y-50500000D01*
X149400000Y-58625000D02*
X148325000Y-58625000D01*
X145612500Y-56512500D02*
X146100000Y-57000000D01*
X128423300Y-73631000D02*
X128644000Y-73851700D01*
X128473300Y-72625000D02*
X128423300Y-72675000D01*
X120417900Y-59381500D02*
X123502800Y-59381500D01*
X121173300Y-64418700D02*
X121417000Y-64175000D01*
X126500000Y-68400000D02*
X125750000Y-68400000D01*
X111575600Y-50501900D02*
X112073700Y-51000000D01*
X148325000Y-59275000D02*
X148000000Y-59600000D01*
X128423300Y-72675000D02*
X128423300Y-73600000D01*
X118837500Y-57801100D02*
X120417900Y-59381500D01*
X125000000Y-68400000D02*
X125750000Y-68400000D01*
X128423300Y-73600000D02*
X128000000Y-73600000D01*
X148325000Y-57975000D02*
X148000000Y-58300000D01*
X145612500Y-56512500D02*
X143500000Y-54400000D01*
X128000000Y-63200000D02*
X126500000Y-63200000D01*
D25*
%TO.N,+3.3V*%
X118037500Y-57162500D02*
X118037500Y-51449900D01*
X116787600Y-50200000D02*
X112675000Y-50200000D01*
X133130000Y-59609500D02*
X129400000Y-63339500D01*
X118037500Y-51449900D02*
X116787600Y-50200000D01*
X138667700Y-59609500D02*
X139002200Y-59275000D01*
X137000000Y-59609500D02*
X133130000Y-59609500D01*
X117237500Y-48837500D02*
X117237500Y-49750100D01*
X121005000Y-60832500D02*
X126893000Y-60832500D01*
X117237500Y-49750100D02*
X116787600Y-50200000D01*
X118037500Y-57865000D02*
X121005000Y-60832500D01*
X117237500Y-48837500D02*
X118037500Y-48837500D01*
X118037500Y-57162500D02*
X118037500Y-57865000D01*
X138667700Y-59609500D02*
X137000000Y-59609500D01*
X139002200Y-59275000D02*
X142100000Y-59275000D01*
X129400000Y-63339500D02*
X129400000Y-63525000D01*
X126893000Y-60832500D02*
X129400000Y-63339500D01*
D23*
%TO.N,I2S_BCK*%
X112675000Y-51800000D02*
X116957300Y-51800000D01*
X116957300Y-51800000D02*
X117176300Y-51581000D01*
X122260000Y-39540000D02*
X114978900Y-46821100D01*
X106929600Y-46821100D02*
X106526200Y-47224500D01*
X114978900Y-46821100D02*
X106929600Y-46821100D01*
%TO.N,Net-(J3-Pin_1)*%
X162500000Y-64455000D02*
X152770000Y-54725000D01*
X152770000Y-54725000D02*
X149400000Y-54725000D01*
%TO.N,Net-(J3-Pin_2)*%
X156490600Y-54075000D02*
X159067200Y-56651600D01*
X149400000Y-54075000D02*
X156490600Y-54075000D01*
%TO.N,Net-(J4-Pin_2)*%
X159819500Y-51166900D02*
X159511400Y-51475000D01*
X159511400Y-51475000D02*
X149400000Y-51475000D01*
%TO.N,Net-(J4-Pin_1)*%
X159747700Y-52125000D02*
X162500000Y-49372700D01*
X162500000Y-49372700D02*
X162500000Y-48955000D01*
X149400000Y-52125000D02*
X159747700Y-52125000D01*
%TO.N,Net-(J5-Pin_1)*%
X120278600Y-67802100D02*
X120551500Y-68075000D01*
X120551500Y-68075000D02*
X122100000Y-68075000D01*
%TO.N,Net-(J5-Pin_2)*%
X114611700Y-71441100D02*
X117327800Y-68725000D01*
X117327800Y-68725000D02*
X122100000Y-68725000D01*
%TO.N,Net-(J6-Pin_1)*%
X120986200Y-74451900D02*
X121173300Y-74639000D01*
X121173300Y-74639000D02*
X121173300Y-80678700D01*
X122100000Y-70675000D02*
X121173300Y-70675000D01*
X121173300Y-80678700D02*
X128898800Y-88404200D01*
X128898800Y-88404200D02*
X132418300Y-88404200D01*
X121173300Y-70675000D02*
X120721600Y-71126700D01*
X132418300Y-88404200D02*
X134545000Y-86277500D01*
X120986200Y-74451900D02*
X121173300Y-74639000D01*
X120721600Y-74187300D02*
X120986200Y-74451900D01*
X120721600Y-71126700D02*
X120721600Y-74187300D01*
%TO.N,Net-(J6-Pin_2)*%
X121173300Y-73775000D02*
X129465000Y-82066700D01*
X121173300Y-71325000D02*
X121173300Y-73775000D01*
X129465000Y-82066700D02*
X129465000Y-86277500D01*
X122100000Y-71325000D02*
X121173300Y-71325000D01*
%TO.N,I2C_SDA*%
X111987600Y-55000000D02*
X111189400Y-54201800D01*
X111189400Y-54201800D02*
X111189400Y-53828300D01*
X111189400Y-53828300D02*
X111189300Y-53828300D01*
X112675000Y-55000000D02*
X111987600Y-55000000D01*
%TO.N,I2S_LRCK*%
X151734587Y-38120000D02*
X116486379Y-38120000D01*
X115507500Y-52870100D02*
X115237400Y-52600000D01*
X115237400Y-52600000D02*
X112675000Y-52600000D01*
X116486379Y-38120000D02*
X116165691Y-38440688D01*
X152945321Y-36909266D02*
X151734587Y-38120000D01*
%TO.N,I2C_SCL*%
X114753300Y-53693700D02*
X114247000Y-54200000D01*
X114247000Y-54200000D02*
X112675000Y-54200000D01*
%TO.N,I2S_DOUT*%
X150087200Y-47272800D02*
X113556800Y-47272800D01*
X113556800Y-47272800D02*
X111123900Y-49705700D01*
X112074600Y-53400000D02*
X112675000Y-53400000D01*
X111123900Y-52449300D02*
X112074600Y-53400000D01*
X111123900Y-49705700D02*
X111123900Y-52449300D01*
X157820000Y-39540000D02*
X150087200Y-47272800D01*
%TO.N,Net-(U1-OUTL-)*%
X121000000Y-51800000D02*
X127437900Y-51800000D01*
X129535700Y-53897800D02*
X129899700Y-53897800D01*
X127437900Y-51800000D02*
X129535700Y-53897800D01*
X131629300Y-70675000D02*
X129400000Y-70675000D01*
X135821000Y-52225200D02*
X135684900Y-52089100D01*
X135684900Y-52089100D02*
X133062200Y-52089100D01*
X142100000Y-52125000D02*
X141173300Y-52125000D01*
X141073100Y-52225200D02*
X135821000Y-52225200D01*
X141173300Y-52125000D02*
X141073100Y-52225200D01*
X132393900Y-71439600D02*
X131629300Y-70675000D01*
%TO.N,Net-(U1-OUTR+)*%
X127840000Y-51000000D02*
X121000000Y-51000000D01*
X133815800Y-70025000D02*
X135357600Y-68483200D01*
X135357600Y-52757400D02*
X141155700Y-52757400D01*
X131989400Y-52757400D02*
X129578300Y-50346300D01*
X142100000Y-52775000D02*
X141173300Y-52775000D01*
X129400000Y-70025000D02*
X133815800Y-70025000D01*
X128260200Y-51420200D02*
X127840000Y-51000000D01*
X141155700Y-52757400D02*
X141173300Y-52775000D01*
X135357600Y-52757400D02*
X131989400Y-52757400D01*
%TO.N,Net-(U1-OUTL+)*%
X140482500Y-54530400D02*
X140651600Y-54361300D01*
X121621900Y-52600000D02*
X123552300Y-54530400D01*
X137619700Y-67128900D02*
X132645800Y-72102800D01*
X137619700Y-66261200D02*
X137619700Y-67128900D01*
X140775000Y-51475000D02*
X142100000Y-51475000D01*
X132030400Y-72102800D02*
X131252600Y-71325000D01*
X140651600Y-51598400D02*
X140775000Y-51475000D01*
X123552300Y-54530400D02*
X140482500Y-54530400D01*
X132645800Y-72102800D02*
X132030400Y-72102800D01*
X121000000Y-52600000D02*
X121621900Y-52600000D01*
X131252600Y-71325000D02*
X129400000Y-71325000D01*
%TO.N,Net-(U1-OUTR-)*%
X129256800Y-52032100D02*
X130649700Y-53425000D01*
X130649700Y-53425000D02*
X142100000Y-53425000D01*
X129256800Y-52032100D02*
X129256800Y-51530500D01*
X127926300Y-50200000D02*
X121000000Y-50200000D01*
X129256800Y-51530500D02*
X127926300Y-50200000D01*
X131590500Y-68452100D02*
X130667600Y-69375000D01*
X130667600Y-69375000D02*
X129400000Y-69375000D01*
%TD*%
M02*
