%TF.GenerationSoftware,KiCad,Pcbnew,9.0.7*%
%TF.CreationDate,2026-02-04T14:04:17-06:00*%
%TF.ProjectId,dac_amp,6461635f-616d-4702-9e6b-696361645f70,rev?*%
%TF.SameCoordinates,Original*%
%TF.FileFunction,Soldermask,Bot*%
%TF.FilePolarity,Negative*%
%FSLAX46Y46*%
G04 Gerber Fmt 4.6, Leading zero omitted, Abs format (unit mm)*
G04 Created by KiCad (PCBNEW 9.0.7) date 2026-02-04 14:04:17*
%MOMM*%
%LPD*%
G01*
G04 APERTURE LIST*
G04 Aperture macros list*
%AMRoundRect*
0 Rectangle with rounded corners*
0 $1 Rounding radius*
0 $2 $3 $4 $5 $6 $7 $8 $9 X,Y pos of 4 corners*
0 Add a 4 corners polygon primitive as box body*
4,1,4,$2,$3,$4,$5,$6,$7,$8,$9,$2,$3,0*
0 Add four circle primitives for the rounded corners*
1,1,$1+$1,$2,$3*
1,1,$1+$1,$4,$5*
1,1,$1+$1,$6,$7*
1,1,$1+$1,$8,$9*
0 Add four rect primitives between the rounded corners*
20,1,$1+$1,$2,$3,$4,$5,0*
20,1,$1+$1,$4,$5,$6,$7,0*
20,1,$1+$1,$6,$7,$8,$9,0*
20,1,$1+$1,$8,$9,$2,$3,0*%
G04 Aperture macros list end*
%ADD10RoundRect,0.249999X0.790001X1.550001X-0.790001X1.550001X-0.790001X-1.550001X0.790001X-1.550001X0*%
%ADD11O,2.080000X3.600000*%
%ADD12R,1.700000X1.700000*%
%ADD13C,1.700000*%
%ADD14RoundRect,0.249999X-1.550001X0.790001X-1.550001X-0.790001X1.550001X-0.790001X1.550001X0.790001X0*%
%ADD15O,3.600000X2.080000*%
%ADD16C,2.700000*%
%ADD17RoundRect,0.375000X0.625000X0.375000X-0.625000X0.375000X-0.625000X-0.375000X0.625000X-0.375000X0*%
%ADD18RoundRect,0.500000X0.500000X1.400000X-0.500000X1.400000X-0.500000X-1.400000X0.500000X-1.400000X0*%
%ADD19RoundRect,0.250000X0.250000X0.475000X-0.250000X0.475000X-0.250000X-0.475000X0.250000X-0.475000X0*%
G04 APERTURE END LIST*
D10*
%TO.C,J5*%
X119545000Y-86277500D03*
D11*
X114465000Y-86277500D03*
%TD*%
D10*
%TO.C,J6*%
X134545000Y-86277500D03*
D11*
X129465000Y-86277500D03*
%TD*%
D12*
%TO.C,J7*%
X109765321Y-36909266D03*
D13*
X109765321Y-39449266D03*
X112305321Y-36909266D03*
X112305321Y-39449266D03*
X114845321Y-36909266D03*
X114845321Y-39449266D03*
X117385321Y-36909266D03*
X117385321Y-39449266D03*
X119925321Y-36909266D03*
X119925321Y-39449266D03*
X122465321Y-36909266D03*
X122465321Y-39449266D03*
X125005321Y-36909266D03*
X125005321Y-39449266D03*
X127545321Y-36909266D03*
X127545321Y-39449266D03*
X130085321Y-36909266D03*
X130085321Y-39449266D03*
X132625321Y-36909266D03*
X132625321Y-39449266D03*
X135165321Y-36909266D03*
X135165321Y-39449266D03*
X137705321Y-36909266D03*
X137705321Y-39449266D03*
X140245321Y-36909266D03*
X140245321Y-39449266D03*
X142785321Y-36909266D03*
X142785321Y-39449266D03*
X145325321Y-36909266D03*
X145325321Y-39449266D03*
X147865321Y-36909266D03*
X147865321Y-39449266D03*
X150405321Y-36909266D03*
X150405321Y-39449266D03*
X152945321Y-36909266D03*
X152945321Y-39449266D03*
X155485321Y-36909266D03*
X155485321Y-39449266D03*
X158025321Y-36909266D03*
X158025321Y-39449266D03*
%TD*%
D14*
%TO.C,J4*%
X162500000Y-48955000D03*
D15*
X162500000Y-54035000D03*
%TD*%
D16*
%TO.C,H1*%
X104875000Y-38067500D03*
%TD*%
%TO.C,H2*%
X162875000Y-38067500D03*
%TD*%
%TO.C,H3*%
X104875000Y-87067500D03*
%TD*%
%TO.C,H4*%
X162875000Y-87067500D03*
%TD*%
D12*
%TO.C,J1*%
X105000000Y-46460000D03*
D13*
X105000000Y-49000000D03*
X105000000Y-51540000D03*
X105000000Y-54080000D03*
X105000000Y-56620000D03*
X105000000Y-59160000D03*
%TD*%
D14*
%TO.C,J3*%
X162500000Y-64455000D03*
D15*
X162500000Y-69535000D03*
%TD*%
D10*
%TO.C,J2*%
X150045000Y-86277500D03*
D11*
X144965000Y-86277500D03*
%TD*%
D17*
%TO.C,U2*%
X144700000Y-76700000D03*
X144700000Y-79000000D03*
D18*
X138400000Y-79000000D03*
D17*
X144700000Y-81300000D03*
%TD*%
D19*
%TO.C,C1*%
X140000000Y-67500000D03*
X138100000Y-67500000D03*
%TD*%
%TO.C,C3*%
X140000000Y-73500000D03*
X138100000Y-73500000D03*
%TD*%
%TO.C,C2*%
X140000000Y-70500000D03*
X138100000Y-70500000D03*
%TD*%
M02*
