%TF.GenerationSoftware,KiCad,Pcbnew,9.0.7*%
%TF.CreationDate,2026-02-04T14:04:17-06:00*%
%TF.ProjectId,dac_amp,6461635f-616d-4702-9e6b-696361645f70,rev?*%
%TF.SameCoordinates,Original*%
%TF.FileFunction,Legend,Top*%
%TF.FilePolarity,Positive*%
%FSLAX46Y46*%
G04 Gerber Fmt 4.6, Leading zero omitted, Abs format (unit mm)*
G04 Created by KiCad (PCBNEW 9.0.7) date 2026-02-04 14:04:17*
%MOMM*%
%LPD*%
G01*
G04 APERTURE LIST*
%ADD10C,0.150000*%
%ADD11C,0.120000*%
G04 APERTURE END LIST*
D10*
X124988095Y-74404819D02*
X124988095Y-75214342D01*
X124988095Y-75214342D02*
X125035714Y-75309580D01*
X125035714Y-75309580D02*
X125083333Y-75357200D01*
X125083333Y-75357200D02*
X125178571Y-75404819D01*
X125178571Y-75404819D02*
X125369047Y-75404819D01*
X125369047Y-75404819D02*
X125464285Y-75357200D01*
X125464285Y-75357200D02*
X125511904Y-75309580D01*
X125511904Y-75309580D02*
X125559523Y-75214342D01*
X125559523Y-75214342D02*
X125559523Y-74404819D01*
X126464285Y-74738152D02*
X126464285Y-75404819D01*
X126226190Y-74357200D02*
X125988095Y-75071485D01*
X125988095Y-75071485D02*
X126607142Y-75071485D01*
X116075595Y-46604819D02*
X116075595Y-47414342D01*
X116075595Y-47414342D02*
X116123214Y-47509580D01*
X116123214Y-47509580D02*
X116170833Y-47557200D01*
X116170833Y-47557200D02*
X116266071Y-47604819D01*
X116266071Y-47604819D02*
X116456547Y-47604819D01*
X116456547Y-47604819D02*
X116551785Y-47557200D01*
X116551785Y-47557200D02*
X116599404Y-47509580D01*
X116599404Y-47509580D02*
X116647023Y-47414342D01*
X116647023Y-47414342D02*
X116647023Y-46604819D01*
X117647023Y-47604819D02*
X117075595Y-47604819D01*
X117361309Y-47604819D02*
X117361309Y-46604819D01*
X117361309Y-46604819D02*
X117266071Y-46747676D01*
X117266071Y-46747676D02*
X117170833Y-46842914D01*
X117170833Y-46842914D02*
X117075595Y-46890533D01*
X116671666Y-88932319D02*
X116671666Y-89646604D01*
X116671666Y-89646604D02*
X116624047Y-89789461D01*
X116624047Y-89789461D02*
X116528809Y-89884700D01*
X116528809Y-89884700D02*
X116385952Y-89932319D01*
X116385952Y-89932319D02*
X116290714Y-89932319D01*
X117624047Y-88932319D02*
X117147857Y-88932319D01*
X117147857Y-88932319D02*
X117100238Y-89408509D01*
X117100238Y-89408509D02*
X117147857Y-89360890D01*
X117147857Y-89360890D02*
X117243095Y-89313271D01*
X117243095Y-89313271D02*
X117481190Y-89313271D01*
X117481190Y-89313271D02*
X117576428Y-89360890D01*
X117576428Y-89360890D02*
X117624047Y-89408509D01*
X117624047Y-89408509D02*
X117671666Y-89503747D01*
X117671666Y-89503747D02*
X117671666Y-89741842D01*
X117671666Y-89741842D02*
X117624047Y-89837080D01*
X117624047Y-89837080D02*
X117576428Y-89884700D01*
X117576428Y-89884700D02*
X117481190Y-89932319D01*
X117481190Y-89932319D02*
X117243095Y-89932319D01*
X117243095Y-89932319D02*
X117147857Y-89884700D01*
X117147857Y-89884700D02*
X117100238Y-89837080D01*
X131671666Y-88932319D02*
X131671666Y-89646604D01*
X131671666Y-89646604D02*
X131624047Y-89789461D01*
X131624047Y-89789461D02*
X131528809Y-89884700D01*
X131528809Y-89884700D02*
X131385952Y-89932319D01*
X131385952Y-89932319D02*
X131290714Y-89932319D01*
X132576428Y-88932319D02*
X132385952Y-88932319D01*
X132385952Y-88932319D02*
X132290714Y-88979938D01*
X132290714Y-88979938D02*
X132243095Y-89027557D01*
X132243095Y-89027557D02*
X132147857Y-89170414D01*
X132147857Y-89170414D02*
X132100238Y-89360890D01*
X132100238Y-89360890D02*
X132100238Y-89741842D01*
X132100238Y-89741842D02*
X132147857Y-89837080D01*
X132147857Y-89837080D02*
X132195476Y-89884700D01*
X132195476Y-89884700D02*
X132290714Y-89932319D01*
X132290714Y-89932319D02*
X132481190Y-89932319D01*
X132481190Y-89932319D02*
X132576428Y-89884700D01*
X132576428Y-89884700D02*
X132624047Y-89837080D01*
X132624047Y-89837080D02*
X132671666Y-89741842D01*
X132671666Y-89741842D02*
X132671666Y-89503747D01*
X132671666Y-89503747D02*
X132624047Y-89408509D01*
X132624047Y-89408509D02*
X132576428Y-89360890D01*
X132576428Y-89360890D02*
X132481190Y-89313271D01*
X132481190Y-89313271D02*
X132290714Y-89313271D01*
X132290714Y-89313271D02*
X132195476Y-89360890D01*
X132195476Y-89360890D02*
X132147857Y-89408509D01*
X132147857Y-89408509D02*
X132100238Y-89503747D01*
X106450140Y-38512599D02*
X107164425Y-38512599D01*
X107164425Y-38512599D02*
X107307282Y-38560218D01*
X107307282Y-38560218D02*
X107402521Y-38655456D01*
X107402521Y-38655456D02*
X107450140Y-38798313D01*
X107450140Y-38798313D02*
X107450140Y-38893551D01*
X106450140Y-38131646D02*
X106450140Y-37464980D01*
X106450140Y-37464980D02*
X107450140Y-37893551D01*
X165154819Y-51828333D02*
X165869104Y-51828333D01*
X165869104Y-51828333D02*
X166011961Y-51875952D01*
X166011961Y-51875952D02*
X166107200Y-51971190D01*
X166107200Y-51971190D02*
X166154819Y-52114047D01*
X166154819Y-52114047D02*
X166154819Y-52209285D01*
X165488152Y-50923571D02*
X166154819Y-50923571D01*
X165107200Y-51161666D02*
X165821485Y-51399761D01*
X165821485Y-51399761D02*
X165821485Y-50780714D01*
X104113095Y-35322319D02*
X104113095Y-34322319D01*
X104113095Y-34798509D02*
X104684523Y-34798509D01*
X104684523Y-35322319D02*
X104684523Y-34322319D01*
X105684523Y-35322319D02*
X105113095Y-35322319D01*
X105398809Y-35322319D02*
X105398809Y-34322319D01*
X105398809Y-34322319D02*
X105303571Y-34465176D01*
X105303571Y-34465176D02*
X105208333Y-34560414D01*
X105208333Y-34560414D02*
X105113095Y-34608033D01*
X162113095Y-35322319D02*
X162113095Y-34322319D01*
X162113095Y-34798509D02*
X162684523Y-34798509D01*
X162684523Y-35322319D02*
X162684523Y-34322319D01*
X163113095Y-34417557D02*
X163160714Y-34369938D01*
X163160714Y-34369938D02*
X163255952Y-34322319D01*
X163255952Y-34322319D02*
X163494047Y-34322319D01*
X163494047Y-34322319D02*
X163589285Y-34369938D01*
X163589285Y-34369938D02*
X163636904Y-34417557D01*
X163636904Y-34417557D02*
X163684523Y-34512795D01*
X163684523Y-34512795D02*
X163684523Y-34608033D01*
X163684523Y-34608033D02*
X163636904Y-34750890D01*
X163636904Y-34750890D02*
X163065476Y-35322319D01*
X163065476Y-35322319D02*
X163684523Y-35322319D01*
X104113095Y-84322319D02*
X104113095Y-83322319D01*
X104113095Y-83798509D02*
X104684523Y-83798509D01*
X104684523Y-84322319D02*
X104684523Y-83322319D01*
X105065476Y-83322319D02*
X105684523Y-83322319D01*
X105684523Y-83322319D02*
X105351190Y-83703271D01*
X105351190Y-83703271D02*
X105494047Y-83703271D01*
X105494047Y-83703271D02*
X105589285Y-83750890D01*
X105589285Y-83750890D02*
X105636904Y-83798509D01*
X105636904Y-83798509D02*
X105684523Y-83893747D01*
X105684523Y-83893747D02*
X105684523Y-84131842D01*
X105684523Y-84131842D02*
X105636904Y-84227080D01*
X105636904Y-84227080D02*
X105589285Y-84274700D01*
X105589285Y-84274700D02*
X105494047Y-84322319D01*
X105494047Y-84322319D02*
X105208333Y-84322319D01*
X105208333Y-84322319D02*
X105113095Y-84274700D01*
X105113095Y-84274700D02*
X105065476Y-84227080D01*
X162113095Y-84322319D02*
X162113095Y-83322319D01*
X162113095Y-83798509D02*
X162684523Y-83798509D01*
X162684523Y-84322319D02*
X162684523Y-83322319D01*
X163589285Y-83655652D02*
X163589285Y-84322319D01*
X163351190Y-83274700D02*
X163113095Y-83988985D01*
X163113095Y-83988985D02*
X163732142Y-83988985D01*
X104666666Y-43534819D02*
X104666666Y-44249104D01*
X104666666Y-44249104D02*
X104619047Y-44391961D01*
X104619047Y-44391961D02*
X104523809Y-44487200D01*
X104523809Y-44487200D02*
X104380952Y-44534819D01*
X104380952Y-44534819D02*
X104285714Y-44534819D01*
X105666666Y-44534819D02*
X105095238Y-44534819D01*
X105380952Y-44534819D02*
X105380952Y-43534819D01*
X105380952Y-43534819D02*
X105285714Y-43677676D01*
X105285714Y-43677676D02*
X105190476Y-43772914D01*
X105190476Y-43772914D02*
X105095238Y-43820533D01*
X144988095Y-47304819D02*
X144988095Y-48114342D01*
X144988095Y-48114342D02*
X145035714Y-48209580D01*
X145035714Y-48209580D02*
X145083333Y-48257200D01*
X145083333Y-48257200D02*
X145178571Y-48304819D01*
X145178571Y-48304819D02*
X145369047Y-48304819D01*
X145369047Y-48304819D02*
X145464285Y-48257200D01*
X145464285Y-48257200D02*
X145511904Y-48209580D01*
X145511904Y-48209580D02*
X145559523Y-48114342D01*
X145559523Y-48114342D02*
X145559523Y-47304819D01*
X145940476Y-47304819D02*
X146559523Y-47304819D01*
X146559523Y-47304819D02*
X146226190Y-47685771D01*
X146226190Y-47685771D02*
X146369047Y-47685771D01*
X146369047Y-47685771D02*
X146464285Y-47733390D01*
X146464285Y-47733390D02*
X146511904Y-47781009D01*
X146511904Y-47781009D02*
X146559523Y-47876247D01*
X146559523Y-47876247D02*
X146559523Y-48114342D01*
X146559523Y-48114342D02*
X146511904Y-48209580D01*
X146511904Y-48209580D02*
X146464285Y-48257200D01*
X146464285Y-48257200D02*
X146369047Y-48304819D01*
X146369047Y-48304819D02*
X146083333Y-48304819D01*
X146083333Y-48304819D02*
X145988095Y-48257200D01*
X145988095Y-48257200D02*
X145940476Y-48209580D01*
X165154819Y-67328333D02*
X165869104Y-67328333D01*
X165869104Y-67328333D02*
X166011961Y-67375952D01*
X166011961Y-67375952D02*
X166107200Y-67471190D01*
X166107200Y-67471190D02*
X166154819Y-67614047D01*
X166154819Y-67614047D02*
X166154819Y-67709285D01*
X165154819Y-66947380D02*
X165154819Y-66328333D01*
X165154819Y-66328333D02*
X165535771Y-66661666D01*
X165535771Y-66661666D02*
X165535771Y-66518809D01*
X165535771Y-66518809D02*
X165583390Y-66423571D01*
X165583390Y-66423571D02*
X165631009Y-66375952D01*
X165631009Y-66375952D02*
X165726247Y-66328333D01*
X165726247Y-66328333D02*
X165964342Y-66328333D01*
X165964342Y-66328333D02*
X166059580Y-66375952D01*
X166059580Y-66375952D02*
X166107200Y-66423571D01*
X166107200Y-66423571D02*
X166154819Y-66518809D01*
X166154819Y-66518809D02*
X166154819Y-66804523D01*
X166154819Y-66804523D02*
X166107200Y-66899761D01*
X166107200Y-66899761D02*
X166059580Y-66947380D01*
X147171666Y-88932319D02*
X147171666Y-89646604D01*
X147171666Y-89646604D02*
X147124047Y-89789461D01*
X147124047Y-89789461D02*
X147028809Y-89884700D01*
X147028809Y-89884700D02*
X146885952Y-89932319D01*
X146885952Y-89932319D02*
X146790714Y-89932319D01*
X147600238Y-89027557D02*
X147647857Y-88979938D01*
X147647857Y-88979938D02*
X147743095Y-88932319D01*
X147743095Y-88932319D02*
X147981190Y-88932319D01*
X147981190Y-88932319D02*
X148076428Y-88979938D01*
X148076428Y-88979938D02*
X148124047Y-89027557D01*
X148124047Y-89027557D02*
X148171666Y-89122795D01*
X148171666Y-89122795D02*
X148171666Y-89218033D01*
X148171666Y-89218033D02*
X148124047Y-89360890D01*
X148124047Y-89360890D02*
X147552619Y-89932319D01*
X147552619Y-89932319D02*
X148171666Y-89932319D01*
%TO.C,U4*%
X122575000Y-62775000D02*
X122575000Y-63100000D01*
X122575000Y-74025000D02*
X122575000Y-73700000D01*
X128925000Y-62775000D02*
X122575000Y-62775000D01*
X128925000Y-63100000D02*
X128925000Y-62775000D01*
X128925000Y-73800000D02*
X128925000Y-74025000D01*
X128925000Y-74025000D02*
X122575000Y-74025000D01*
D11*
X129640000Y-74080000D02*
X129160000Y-74080000D01*
X129400000Y-73750000D01*
X129640000Y-74080000D01*
G36*
X129640000Y-74080000D02*
G01*
X129160000Y-74080000D01*
X129400000Y-73750000D01*
X129640000Y-74080000D01*
G37*
%TO.C,U1*%
X113227500Y-49390000D02*
X113502500Y-49390000D01*
X113227500Y-49665000D02*
X113227500Y-49390000D01*
X113227500Y-56610000D02*
X113227500Y-56335000D01*
X113502500Y-56610000D02*
X113227500Y-56610000D01*
X120172500Y-49390000D02*
X120447500Y-49390000D01*
X120447500Y-49390000D02*
X120447500Y-49665000D01*
X120447500Y-56335000D02*
X120447500Y-56610000D01*
X120447500Y-56610000D02*
X120172500Y-56610000D01*
X112587500Y-49660000D02*
X112247500Y-49190000D01*
X112927500Y-49190000D01*
X112587500Y-49660000D01*
G36*
X112587500Y-49660000D02*
G01*
X112247500Y-49190000D01*
X112927500Y-49190000D01*
X112587500Y-49660000D01*
G37*
%TO.C,J5*%
X113465000Y-76167500D02*
X113715000Y-77667500D01*
X113715000Y-77667500D02*
X115215000Y-77667500D01*
X115215000Y-77667500D02*
X115465000Y-76167500D01*
X115465000Y-76167500D02*
X113465000Y-76167500D01*
X118545000Y-76167500D02*
X118795000Y-77667500D01*
X118795000Y-77667500D02*
X120295000Y-77667500D01*
X119245000Y-89187500D02*
X119545000Y-88587500D01*
X119545000Y-88587500D02*
X119845000Y-89187500D01*
X119845000Y-89187500D02*
X119245000Y-89187500D01*
X120295000Y-77667500D02*
X120545000Y-76167500D01*
X120545000Y-76167500D02*
X118545000Y-76167500D01*
X123195000Y-79467500D02*
X110815000Y-79467500D01*
X110815000Y-77667500D01*
X123195000Y-77667500D01*
X123195000Y-79467500D01*
X123195000Y-88387500D02*
X110815000Y-88387500D01*
X110815000Y-76167500D01*
X123195000Y-76167500D01*
X123195000Y-88387500D01*
%TO.C,J6*%
X128465000Y-76167500D02*
X128715000Y-77667500D01*
X128715000Y-77667500D02*
X130215000Y-77667500D01*
X130215000Y-77667500D02*
X130465000Y-76167500D01*
X130465000Y-76167500D02*
X128465000Y-76167500D01*
X133545000Y-76167500D02*
X133795000Y-77667500D01*
X133795000Y-77667500D02*
X135295000Y-77667500D01*
X134245000Y-89187500D02*
X134545000Y-88587500D01*
X134545000Y-88587500D02*
X134845000Y-89187500D01*
X134845000Y-89187500D02*
X134245000Y-89187500D01*
X135295000Y-77667500D02*
X135545000Y-76167500D01*
X135545000Y-76167500D02*
X133545000Y-76167500D01*
X138195000Y-79467500D02*
X125815000Y-79467500D01*
X125815000Y-77667500D01*
X138195000Y-77667500D01*
X138195000Y-79467500D01*
X138195000Y-88387500D02*
X125815000Y-88387500D01*
X125815000Y-76167500D01*
X138195000Y-76167500D01*
X138195000Y-88387500D01*
%TO.C,J7*%
X108435321Y-35579266D02*
X109765321Y-35579266D01*
X108435321Y-36909266D02*
X108435321Y-35579266D01*
X108435321Y-38179266D02*
X111035321Y-38179266D01*
X108435321Y-40779266D02*
X108435321Y-38179266D01*
X108435321Y-40779266D02*
X159355321Y-40779266D01*
X111035321Y-35579266D02*
X159355321Y-35579266D01*
X111035321Y-38179266D02*
X111035321Y-35579266D01*
X159355321Y-40779266D02*
X159355321Y-35579266D01*
%TO.C,J4*%
X152390000Y-47955000D02*
X152390000Y-49955000D01*
X152390000Y-49955000D02*
X153890000Y-49705000D01*
X152390000Y-53035000D02*
X152390000Y-55035000D01*
X152390000Y-55035000D02*
X153890000Y-54785000D01*
X153890000Y-48205000D02*
X152390000Y-47955000D01*
X153890000Y-49705000D02*
X153890000Y-48205000D01*
X153890000Y-53285000D02*
X152390000Y-53035000D01*
X153890000Y-54785000D02*
X153890000Y-53285000D01*
X164810000Y-48955000D02*
X165410000Y-48655000D01*
X165410000Y-48655000D02*
X165410000Y-49255000D01*
X165410000Y-49255000D02*
X164810000Y-48955000D01*
X155690000Y-45305000D02*
X153890000Y-45305000D01*
X153890000Y-57685000D01*
X155690000Y-57685000D01*
X155690000Y-45305000D01*
X164610000Y-45305000D02*
X152390000Y-45305000D01*
X152390000Y-57685000D01*
X164610000Y-57685000D01*
X164610000Y-45305000D01*
%TO.C,J1*%
X103620000Y-45080000D02*
X105000000Y-45080000D01*
X103620000Y-46460000D02*
X103620000Y-45080000D01*
X103620000Y-47730000D02*
X103620000Y-60540000D01*
X103620000Y-47730000D02*
X106380000Y-47730000D01*
X103620000Y-60540000D02*
X106380000Y-60540000D01*
X106380000Y-47730000D02*
X106380000Y-60540000D01*
D10*
%TO.C,U3*%
X142575000Y-48775000D02*
X148925000Y-48775000D01*
X142575000Y-49000000D02*
X142575000Y-48775000D01*
X142575000Y-59700000D02*
X142575000Y-60025000D01*
X142575000Y-60025000D02*
X148925000Y-60025000D01*
X148925000Y-48775000D02*
X148925000Y-49100000D01*
X148925000Y-60025000D02*
X148925000Y-59700000D01*
D11*
X142100000Y-49050000D02*
X141860000Y-48720000D01*
X142340000Y-48720000D01*
X142100000Y-49050000D01*
G36*
X142100000Y-49050000D02*
G01*
X141860000Y-48720000D01*
X142340000Y-48720000D01*
X142100000Y-49050000D01*
G37*
%TO.C,J3*%
X152390000Y-63455000D02*
X152390000Y-65455000D01*
X152390000Y-65455000D02*
X153890000Y-65205000D01*
X152390000Y-68535000D02*
X152390000Y-70535000D01*
X152390000Y-70535000D02*
X153890000Y-70285000D01*
X153890000Y-63705000D02*
X152390000Y-63455000D01*
X153890000Y-65205000D02*
X153890000Y-63705000D01*
X153890000Y-68785000D02*
X152390000Y-68535000D01*
X153890000Y-70285000D02*
X153890000Y-68785000D01*
X164810000Y-64455000D02*
X165410000Y-64155000D01*
X165410000Y-64155000D02*
X165410000Y-64755000D01*
X165410000Y-64755000D02*
X164810000Y-64455000D01*
X155690000Y-60805000D02*
X153890000Y-60805000D01*
X153890000Y-73185000D01*
X155690000Y-73185000D01*
X155690000Y-60805000D01*
X164610000Y-60805000D02*
X152390000Y-60805000D01*
X152390000Y-73185000D01*
X164610000Y-73185000D01*
X164610000Y-60805000D01*
%TO.C,J2*%
X143965000Y-76167500D02*
X144215000Y-77667500D01*
X144215000Y-77667500D02*
X145715000Y-77667500D01*
X145715000Y-77667500D02*
X145965000Y-76167500D01*
X145965000Y-76167500D02*
X143965000Y-76167500D01*
X149045000Y-76167500D02*
X149295000Y-77667500D01*
X149295000Y-77667500D02*
X150795000Y-77667500D01*
X149745000Y-89187500D02*
X150045000Y-88587500D01*
X150045000Y-88587500D02*
X150345000Y-89187500D01*
X150345000Y-89187500D02*
X149745000Y-89187500D01*
X150795000Y-77667500D02*
X151045000Y-76167500D01*
X151045000Y-76167500D02*
X149045000Y-76167500D01*
X153695000Y-79467500D02*
X141315000Y-79467500D01*
X141315000Y-77667500D01*
X153695000Y-77667500D01*
X153695000Y-79467500D01*
X153695000Y-88387500D02*
X141315000Y-88387500D01*
X141315000Y-76167500D01*
X153695000Y-76167500D01*
X153695000Y-88387500D01*
%TD*%
M02*
