%TF.GenerationSoftware,KiCad,Pcbnew,9.0.7*%
%TF.CreationDate,2026-02-04T14:04:17-06:00*%
%TF.ProjectId,dac_amp,6461635f-616d-4702-9e6b-696361645f70,rev?*%
%TF.SameCoordinates,Original*%
%TF.FileFunction,Soldermask,Top*%
%TF.FilePolarity,Negative*%
%FSLAX46Y46*%
G04 Gerber Fmt 4.6, Leading zero omitted, Abs format (unit mm)*
G04 Created by KiCad (PCBNEW 9.0.7) date 2026-02-04 14:04:17*
%MOMM*%
%LPD*%
G01*
G04 APERTURE LIST*
G04 Aperture macros list*
%AMRoundRect*
0 Rectangle with rounded corners*
0 $1 Rounding radius*
0 $2 $3 $4 $5 $6 $7 $8 $9 X,Y pos of 4 corners*
0 Add a 4 corners polygon primitive as box body*
4,1,4,$2,$3,$4,$5,$6,$7,$8,$9,$2,$3,0*
0 Add four circle primitives for the rounded corners*
1,1,$1+$1,$2,$3*
1,1,$1+$1,$4,$5*
1,1,$1+$1,$6,$7*
1,1,$1+$1,$8,$9*
0 Add four rect primitives between the rounded corners*
20,1,$1+$1,$2,$3,$4,$5,0*
20,1,$1+$1,$4,$5,$6,$7,0*
20,1,$1+$1,$6,$7,$8,$9,0*
20,1,$1+$1,$8,$9,$2,$3,0*%
G04 Aperture macros list end*
%ADD10R,4.110000X4.360000*%
%ADD11R,1.200000X0.400000*%
%ADD12RoundRect,0.137500X-0.600000X-0.137500X0.600000X-0.137500X0.600000X0.137500X-0.600000X0.137500X0*%
%ADD13RoundRect,0.137500X-0.137500X-0.600000X0.137500X-0.600000X0.137500X0.600000X-0.137500X0.600000X0*%
%ADD14RoundRect,0.249999X0.790001X1.550001X-0.790001X1.550001X-0.790001X-1.550001X0.790001X-1.550001X0*%
%ADD15O,2.080000X3.600000*%
%ADD16R,1.700000X1.700000*%
%ADD17C,1.700000*%
%ADD18RoundRect,0.249999X-1.550001X0.790001X-1.550001X-0.790001X1.550001X-0.790001X1.550001X0.790001X0*%
%ADD19O,3.600000X2.080000*%
%ADD20C,2.700000*%
G04 APERTURE END LIST*
D10*
%TO.C,U4*%
X125750000Y-68400000D03*
D11*
X129400000Y-73275000D03*
X129400000Y-72625000D03*
X129400000Y-71975000D03*
X129400000Y-71325000D03*
X129400000Y-70675000D03*
X129400000Y-70025000D03*
X129400000Y-69375000D03*
X129400000Y-68725000D03*
X129400000Y-68075000D03*
X129400000Y-67425000D03*
X129400000Y-66775000D03*
X129400000Y-66125000D03*
X129400000Y-65475000D03*
X129400000Y-64825000D03*
X129400000Y-64175000D03*
X129400000Y-63525000D03*
X122100000Y-63525000D03*
X122100000Y-64175000D03*
X122100000Y-64825000D03*
X122100000Y-65475000D03*
X122100000Y-66125000D03*
X122100000Y-66775000D03*
X122100000Y-67425000D03*
X122100000Y-68075000D03*
X122100000Y-68725000D03*
X122100000Y-69375000D03*
X122100000Y-70025000D03*
X122100000Y-70675000D03*
X122100000Y-71325000D03*
X122100000Y-71975000D03*
X122100000Y-72625000D03*
X122100000Y-73275000D03*
%TD*%
D12*
%TO.C,U1*%
X112675000Y-50200000D03*
X112675000Y-51000000D03*
X112675000Y-51800000D03*
X112675000Y-52600000D03*
X112675000Y-53400000D03*
X112675000Y-54200000D03*
X112675000Y-55000000D03*
X112675000Y-55800000D03*
D13*
X114037500Y-57162500D03*
X114837500Y-57162500D03*
X115637500Y-57162500D03*
X116437500Y-57162500D03*
X117237500Y-57162500D03*
X118037500Y-57162500D03*
X118837500Y-57162500D03*
X119637500Y-57162500D03*
D12*
X121000000Y-55800000D03*
X121000000Y-55000000D03*
X121000000Y-54200000D03*
X121000000Y-53400000D03*
X121000000Y-52600000D03*
X121000000Y-51800000D03*
X121000000Y-51000000D03*
X121000000Y-50200000D03*
D13*
X119637500Y-48837500D03*
X118837500Y-48837500D03*
X118037500Y-48837500D03*
X117237500Y-48837500D03*
X116437500Y-48837500D03*
X115637500Y-48837500D03*
X114837500Y-48837500D03*
X114037500Y-48837500D03*
%TD*%
D14*
%TO.C,J5*%
X119545000Y-86277500D03*
D15*
X114465000Y-86277500D03*
%TD*%
D14*
%TO.C,J6*%
X134545000Y-86277500D03*
D15*
X129465000Y-86277500D03*
%TD*%
D16*
%TO.C,J7*%
X109765321Y-36909266D03*
D17*
X109765321Y-39449266D03*
X112305321Y-36909266D03*
X112305321Y-39449266D03*
X114845321Y-36909266D03*
X114845321Y-39449266D03*
X117385321Y-36909266D03*
X117385321Y-39449266D03*
X119925321Y-36909266D03*
X119925321Y-39449266D03*
X122465321Y-36909266D03*
X122465321Y-39449266D03*
X125005321Y-36909266D03*
X125005321Y-39449266D03*
X127545321Y-36909266D03*
X127545321Y-39449266D03*
X130085321Y-36909266D03*
X130085321Y-39449266D03*
X132625321Y-36909266D03*
X132625321Y-39449266D03*
X135165321Y-36909266D03*
X135165321Y-39449266D03*
X137705321Y-36909266D03*
X137705321Y-39449266D03*
X140245321Y-36909266D03*
X140245321Y-39449266D03*
X142785321Y-36909266D03*
X142785321Y-39449266D03*
X145325321Y-36909266D03*
X145325321Y-39449266D03*
X147865321Y-36909266D03*
X147865321Y-39449266D03*
X150405321Y-36909266D03*
X150405321Y-39449266D03*
X152945321Y-36909266D03*
X152945321Y-39449266D03*
X155485321Y-36909266D03*
X155485321Y-39449266D03*
X158025321Y-36909266D03*
X158025321Y-39449266D03*
%TD*%
D18*
%TO.C,J4*%
X162500000Y-48955000D03*
D19*
X162500000Y-54035000D03*
%TD*%
D20*
%TO.C,H1*%
X104875000Y-38067500D03*
%TD*%
%TO.C,H2*%
X162875000Y-38067500D03*
%TD*%
%TO.C,H3*%
X104875000Y-87067500D03*
%TD*%
%TO.C,H4*%
X162875000Y-87067500D03*
%TD*%
D16*
%TO.C,J1*%
X105000000Y-46460000D03*
D17*
X105000000Y-49000000D03*
X105000000Y-51540000D03*
X105000000Y-54080000D03*
X105000000Y-56620000D03*
X105000000Y-59160000D03*
%TD*%
D10*
%TO.C,U3*%
X145750000Y-54400000D03*
D11*
X142100000Y-49525000D03*
X142100000Y-50175000D03*
X142100000Y-50825000D03*
X142100000Y-51475000D03*
X142100000Y-52125000D03*
X142100000Y-52775000D03*
X142100000Y-53425000D03*
X142100000Y-54075000D03*
X142100000Y-54725000D03*
X142100000Y-55375000D03*
X142100000Y-56025000D03*
X142100000Y-56675000D03*
X142100000Y-57325000D03*
X142100000Y-57975000D03*
X142100000Y-58625000D03*
X142100000Y-59275000D03*
X149400000Y-59275000D03*
X149400000Y-58625000D03*
X149400000Y-57975000D03*
X149400000Y-57325000D03*
X149400000Y-56675000D03*
X149400000Y-56025000D03*
X149400000Y-55375000D03*
X149400000Y-54725000D03*
X149400000Y-54075000D03*
X149400000Y-53425000D03*
X149400000Y-52775000D03*
X149400000Y-52125000D03*
X149400000Y-51475000D03*
X149400000Y-50825000D03*
X149400000Y-50175000D03*
X149400000Y-49525000D03*
%TD*%
D18*
%TO.C,J3*%
X162500000Y-64455000D03*
D19*
X162500000Y-69535000D03*
%TD*%
D14*
%TO.C,J2*%
X150045000Y-86277500D03*
D15*
X144965000Y-86277500D03*
%TD*%
M02*
