%TF.GenerationSoftware,KiCad,Pcbnew,9.0.7*%
%TF.CreationDate,2026-02-05T23:33:27-06:00*%
%TF.ProjectId,dac_amp,6461635f-616d-4702-9e6b-696361645f70,rev?*%
%TF.SameCoordinates,Original*%
%TF.FileFunction,Copper,L2,Bot*%
%TF.FilePolarity,Positive*%
%FSLAX46Y46*%
G04 Gerber Fmt 4.6, Leading zero omitted, Abs format (unit mm)*
G04 Created by KiCad (PCBNEW 9.0.7) date 2026-02-05 23:33:27*
%MOMM*%
%LPD*%
G01*
G04 APERTURE LIST*
G04 Aperture macros list*
%AMRoundRect*
0 Rectangle with rounded corners*
0 $1 Rounding radius*
0 $2 $3 $4 $5 $6 $7 $8 $9 X,Y pos of 4 corners*
0 Add a 4 corners polygon primitive as box body*
4,1,4,$2,$3,$4,$5,$6,$7,$8,$9,$2,$3,0*
0 Add four circle primitives for the rounded corners*
1,1,$1+$1,$2,$3*
1,1,$1+$1,$4,$5*
1,1,$1+$1,$6,$7*
1,1,$1+$1,$8,$9*
0 Add four rect primitives between the rounded corners*
20,1,$1+$1,$2,$3,$4,$5,0*
20,1,$1+$1,$4,$5,$6,$7,0*
20,1,$1+$1,$6,$7,$8,$9,0*
20,1,$1+$1,$8,$9,$2,$3,0*%
G04 Aperture macros list end*
%TA.AperFunction,SMDPad,CuDef*%
%ADD10RoundRect,0.250000X0.250000X0.475000X-0.250000X0.475000X-0.250000X-0.475000X0.250000X-0.475000X0*%
%TD*%
%TA.AperFunction,SMDPad,CuDef*%
%ADD11RoundRect,0.250000X-0.650000X0.325000X-0.650000X-0.325000X0.650000X-0.325000X0.650000X0.325000X0*%
%TD*%
%TA.AperFunction,ComponentPad*%
%ADD12RoundRect,0.250001X-0.949999X-0.949999X0.949999X-0.949999X0.949999X0.949999X-0.949999X0.949999X0*%
%TD*%
%TA.AperFunction,ComponentPad*%
%ADD13C,2.400000*%
%TD*%
%TA.AperFunction,SMDPad,CuDef*%
%ADD14RoundRect,0.250000X-0.475000X0.250000X-0.475000X-0.250000X0.475000X-0.250000X0.475000X0.250000X0*%
%TD*%
%TA.AperFunction,SMDPad,CuDef*%
%ADD15RoundRect,0.250000X0.475000X-0.250000X0.475000X0.250000X-0.475000X0.250000X-0.475000X-0.250000X0*%
%TD*%
%TA.AperFunction,ComponentPad*%
%ADD16RoundRect,0.250000X0.550000X-0.550000X0.550000X0.550000X-0.550000X0.550000X-0.550000X-0.550000X0*%
%TD*%
%TA.AperFunction,ComponentPad*%
%ADD17C,1.600000*%
%TD*%
%TA.AperFunction,SMDPad,CuDef*%
%ADD18RoundRect,0.250000X-0.250000X-0.475000X0.250000X-0.475000X0.250000X0.475000X-0.250000X0.475000X0*%
%TD*%
%TA.AperFunction,ComponentPad*%
%ADD19R,1.700000X1.700000*%
%TD*%
%TA.AperFunction,ComponentPad*%
%ADD20C,1.700000*%
%TD*%
%TA.AperFunction,SMDPad,CuDef*%
%ADD21RoundRect,0.250000X0.262500X0.450000X-0.262500X0.450000X-0.262500X-0.450000X0.262500X-0.450000X0*%
%TD*%
%TA.AperFunction,ComponentPad*%
%ADD22RoundRect,0.250001X-0.949999X0.949999X-0.949999X-0.949999X0.949999X-0.949999X0.949999X0.949999X0*%
%TD*%
%TA.AperFunction,ComponentPad*%
%ADD23C,2.700000*%
%TD*%
%TA.AperFunction,SMDPad,CuDef*%
%ADD24RoundRect,0.250000X0.325000X0.650000X-0.325000X0.650000X-0.325000X-0.650000X0.325000X-0.650000X0*%
%TD*%
%TA.AperFunction,ComponentPad*%
%ADD25RoundRect,0.249999X-1.550001X0.790001X-1.550001X-0.790001X1.550001X-0.790001X1.550001X0.790001X0*%
%TD*%
%TA.AperFunction,ComponentPad*%
%ADD26O,3.600000X2.080000*%
%TD*%
%TA.AperFunction,SMDPad,CuDef*%
%ADD27RoundRect,0.375000X-0.375000X0.625000X-0.375000X-0.625000X0.375000X-0.625000X0.375000X0.625000X0*%
%TD*%
%TA.AperFunction,SMDPad,CuDef*%
%ADD28RoundRect,0.500000X-1.400000X0.500000X-1.400000X-0.500000X1.400000X-0.500000X1.400000X0.500000X0*%
%TD*%
%TA.AperFunction,ViaPad*%
%ADD29C,0.600000*%
%TD*%
%TA.AperFunction,ViaPad*%
%ADD30C,0.800000*%
%TD*%
%TA.AperFunction,Conductor*%
%ADD31C,0.250000*%
%TD*%
%TA.AperFunction,Conductor*%
%ADD32C,1.000000*%
%TD*%
%TA.AperFunction,Conductor*%
%ADD33C,0.500000*%
%TD*%
%TA.AperFunction,Conductor*%
%ADD34C,0.750000*%
%TD*%
%TA.AperFunction,Conductor*%
%ADD35C,0.600000*%
%TD*%
G04 APERTURE END LIST*
D10*
%TO.P,C9,1*%
%TO.N,/U4_BSPL*%
X142662500Y-70875000D03*
%TO.P,C9,2*%
%TO.N,/U4_BSNL*%
X140762500Y-70875000D03*
%TD*%
D11*
%TO.P,C19,1*%
%TO.N,/+12V*%
X124000000Y-63525000D03*
%TO.P,C19,2*%
%TO.N,GND*%
X124000000Y-66475000D03*
%TD*%
D12*
%TO.P,J3,1,Pin_1*%
%TO.N,/U3_OUTPL*%
X117500000Y-83000000D03*
D13*
%TO.P,J3,2,Pin_2*%
%TO.N,/U3_OUTNL*%
X121000000Y-83000000D03*
%TO.P,J3,3,Pin_3*%
%TO.N,/U3_OUTPR*%
X124500000Y-83000000D03*
%TO.P,J3,4,Pin_4*%
%TO.N,/U3_OUTNR*%
X128000000Y-83000000D03*
%TD*%
D14*
%TO.P,C12,1*%
%TO.N,/+12V*%
X117500000Y-60050000D03*
%TO.P,C12,2*%
%TO.N,GND*%
X117500000Y-61950000D03*
%TD*%
D15*
%TO.P,C6,1*%
%TO.N,+3.3V*%
X131350000Y-44900000D03*
%TO.P,C6,2*%
%TO.N,GND*%
X133250000Y-44900000D03*
%TD*%
D16*
%TO.P,C31,1*%
%TO.N,/+12V*%
X158500000Y-78500000D03*
D17*
%TO.P,C31,2*%
%TO.N,GND*%
X158500000Y-75000000D03*
%TD*%
D18*
%TO.P,C32,1*%
%TO.N,+3.3V*%
X127550000Y-68500000D03*
%TO.P,C32,2*%
%TO.N,GND*%
X129450000Y-68500000D03*
%TD*%
D15*
%TO.P,C4,1*%
%TO.N,+3.3V*%
X131350000Y-50900000D03*
%TO.P,C4,2*%
%TO.N,GND*%
X133250000Y-50900000D03*
%TD*%
D14*
%TO.P,C16,1*%
%TO.N,/+12V*%
X139000000Y-62000000D03*
%TO.P,C16,2*%
%TO.N,GND*%
X139000000Y-63900000D03*
%TD*%
%TO.P,C13,1*%
%TO.N,/+12V*%
X120000000Y-60050000D03*
%TO.P,C13,2*%
%TO.N,GND*%
X120000000Y-61950000D03*
%TD*%
%TO.P,C14,1*%
%TO.N,/+12V*%
X122500000Y-60050000D03*
%TO.P,C14,2*%
%TO.N,GND*%
X122500000Y-61950000D03*
%TD*%
%TO.P,C11,1*%
%TO.N,/+12V*%
X115000000Y-60050000D03*
%TO.P,C11,2*%
%TO.N,GND*%
X115000000Y-61950000D03*
%TD*%
D18*
%TO.P,C7,1*%
%TO.N,/U3_BSPL*%
X116550000Y-69000000D03*
%TO.P,C7,2*%
%TO.N,/U3_BSNL*%
X118450000Y-69000000D03*
%TD*%
D19*
%TO.P,J7,1,Pin_1*%
%TO.N,unconnected-(J7-Pin_1-Pad1)*%
X109980000Y-35460000D03*
D20*
%TO.P,J7,2,Pin_2*%
%TO.N,unconnected-(J7-Pin_2-Pad2)*%
X109980000Y-38000000D03*
%TO.P,J7,3,Pin_3*%
%TO.N,I2C_SDA*%
X112520000Y-35460000D03*
%TO.P,J7,4,Pin_4*%
%TO.N,unconnected-(J7-Pin_4-Pad4)*%
X112520000Y-38000000D03*
%TO.P,J7,5,Pin_5*%
%TO.N,I2C_SCL*%
X115060000Y-35460000D03*
%TO.P,J7,6,Pin_6*%
%TO.N,unconnected-(J7-Pin_6-Pad6)*%
X115060000Y-38000000D03*
%TO.P,J7,7,Pin_7*%
%TO.N,unconnected-(J7-Pin_7-Pad7)*%
X117600000Y-35460000D03*
%TO.P,J7,8,Pin_8*%
%TO.N,unconnected-(J7-Pin_8-Pad8)*%
X117600000Y-38000000D03*
%TO.P,J7,9,Pin_9*%
%TO.N,unconnected-(J7-Pin_9-Pad9)*%
X120140000Y-35460000D03*
%TO.P,J7,10,Pin_10*%
%TO.N,unconnected-(J7-Pin_10-Pad10)*%
X120140000Y-38000000D03*
%TO.P,J7,11,Pin_11*%
%TO.N,unconnected-(J7-Pin_11-Pad11)*%
X122680000Y-35460000D03*
%TO.P,J7,12,Pin_12*%
%TO.N,I2S_BCK*%
X122680000Y-38000000D03*
%TO.P,J7,13,Pin_13*%
%TO.N,unconnected-(J7-Pin_13-Pad13)*%
X125220000Y-35460000D03*
%TO.P,J7,14,Pin_14*%
%TO.N,unconnected-(J7-Pin_14-Pad14)*%
X125220000Y-38000000D03*
%TO.P,J7,15,Pin_15*%
%TO.N,unconnected-(J7-Pin_15-Pad15)*%
X127760000Y-35460000D03*
%TO.P,J7,16,Pin_16*%
%TO.N,unconnected-(J7-Pin_16-Pad16)*%
X127760000Y-38000000D03*
%TO.P,J7,17,Pin_17*%
%TO.N,unconnected-(J7-Pin_17-Pad17)*%
X130300000Y-35460000D03*
%TO.P,J7,18,Pin_18*%
%TO.N,unconnected-(J7-Pin_18-Pad18)*%
X130300000Y-38000000D03*
%TO.P,J7,19,Pin_19*%
%TO.N,unconnected-(J7-Pin_19-Pad19)*%
X132840000Y-35460000D03*
%TO.P,J7,20,Pin_20*%
%TO.N,unconnected-(J7-Pin_20-Pad20)*%
X132840000Y-38000000D03*
%TO.P,J7,21,Pin_21*%
%TO.N,unconnected-(J7-Pin_21-Pad21)*%
X135380000Y-35460000D03*
%TO.P,J7,22,Pin_22*%
%TO.N,unconnected-(J7-Pin_22-Pad22)*%
X135380000Y-38000000D03*
%TO.P,J7,23,Pin_23*%
%TO.N,unconnected-(J7-Pin_23-Pad23)*%
X137920000Y-35460000D03*
%TO.P,J7,24,Pin_24*%
%TO.N,unconnected-(J7-Pin_24-Pad24)*%
X137920000Y-38000000D03*
%TO.P,J7,25,Pin_25*%
%TO.N,unconnected-(J7-Pin_25-Pad25)*%
X140460000Y-35460000D03*
%TO.P,J7,26,Pin_26*%
%TO.N,unconnected-(J7-Pin_26-Pad26)*%
X140460000Y-38000000D03*
%TO.P,J7,27,Pin_27*%
%TO.N,unconnected-(J7-Pin_27-Pad27)*%
X143000000Y-35460000D03*
%TO.P,J7,28,Pin_28*%
%TO.N,unconnected-(J7-Pin_28-Pad28)*%
X143000000Y-38000000D03*
%TO.P,J7,29,Pin_29*%
%TO.N,unconnected-(J7-Pin_29-Pad29)*%
X145540000Y-35460000D03*
%TO.P,J7,30,Pin_30*%
%TO.N,unconnected-(J7-Pin_30-Pad30)*%
X145540000Y-38000000D03*
%TO.P,J7,31,Pin_31*%
%TO.N,unconnected-(J7-Pin_31-Pad31)*%
X148080000Y-35460000D03*
%TO.P,J7,32,Pin_32*%
%TO.N,unconnected-(J7-Pin_32-Pad32)*%
X148080000Y-38000000D03*
%TO.P,J7,33,Pin_33*%
%TO.N,unconnected-(J7-Pin_33-Pad33)*%
X150620000Y-35460000D03*
%TO.P,J7,34,Pin_34*%
%TO.N,GND*%
X150620000Y-38000000D03*
%TO.P,J7,35,Pin_35*%
%TO.N,I2S_LRCK*%
X153160000Y-35460000D03*
%TO.P,J7,36,Pin_36*%
%TO.N,unconnected-(J7-Pin_36-Pad36)*%
X153160000Y-38000000D03*
%TO.P,J7,37,Pin_37*%
%TO.N,unconnected-(J7-Pin_37-Pad37)*%
X155700000Y-35460000D03*
%TO.P,J7,38,Pin_38*%
%TO.N,unconnected-(J7-Pin_38-Pad38)*%
X155700000Y-38000000D03*
%TO.P,J7,39,Pin_39*%
%TO.N,unconnected-(J7-Pin_39-Pad39)*%
X158240000Y-35460000D03*
%TO.P,J7,40,Pin_40*%
%TO.N,I2S_DOUT*%
X158240000Y-38000000D03*
%TD*%
D15*
%TO.P,C5,1*%
%TO.N,+3.3V*%
X131350000Y-47900000D03*
%TO.P,C5,2*%
%TO.N,GND*%
X133250000Y-47900000D03*
%TD*%
D21*
%TO.P,R1,1*%
%TO.N,+3.3V*%
X128000000Y-47500000D03*
%TO.P,R1,2*%
%TO.N,I2C_SCL*%
X126175000Y-47500000D03*
%TD*%
D14*
%TO.P,C17,1*%
%TO.N,/+12V*%
X141000000Y-62050000D03*
%TO.P,C17,2*%
%TO.N,GND*%
X141000000Y-63950000D03*
%TD*%
D10*
%TO.P,C22,1*%
%TO.N,/U4_GVDD*%
X141900000Y-66000000D03*
%TO.P,C22,2*%
%TO.N,GND*%
X140000000Y-66000000D03*
%TD*%
D21*
%TO.P,R2,1*%
%TO.N,+3.3V*%
X128000000Y-51000000D03*
%TO.P,R2,2*%
%TO.N,I2C_SDA*%
X126175000Y-51000000D03*
%TD*%
D22*
%TO.P,J4,1,Pin_1*%
%TO.N,/U4_OUTPL*%
X140500000Y-83000000D03*
D13*
%TO.P,J4,2,Pin_2*%
%TO.N,/U4_OUTNL*%
X144000000Y-83000000D03*
%TO.P,J4,3,Pin_3*%
%TO.N,/U4_OUTPR*%
X147500000Y-83000000D03*
%TO.P,J4,4,Pin_4*%
%TO.N,/U4_OUTNR*%
X151000000Y-83000000D03*
%TD*%
D14*
%TO.P,C18,1*%
%TO.N,/+12V*%
X143000000Y-62100000D03*
%TO.P,C18,2*%
%TO.N,GND*%
X143000000Y-64000000D03*
%TD*%
D18*
%TO.P,C8,1*%
%TO.N,/U3_BSPR*%
X116550000Y-66500000D03*
%TO.P,C8,2*%
%TO.N,/U3_BSNR*%
X118450000Y-66500000D03*
%TD*%
D14*
%TO.P,C15,1*%
%TO.N,/+12V*%
X137000000Y-62000000D03*
%TO.P,C15,2*%
%TO.N,GND*%
X137000000Y-63900000D03*
%TD*%
D23*
%TO.P,H1,1*%
%TO.N,N/C*%
X105100000Y-36520000D03*
%TD*%
%TO.P,H2,1*%
%TO.N,N/C*%
X163100000Y-36520000D03*
%TD*%
%TO.P,H3,1*%
%TO.N,N/C*%
X105100000Y-85520000D03*
%TD*%
%TO.P,H4,1*%
%TO.N,N/C*%
X163100000Y-85520000D03*
%TD*%
D19*
%TO.P,J1,1,Pin_1*%
%TO.N,unconnected-(J1-Pin_1-Pad1)*%
X105500000Y-42960000D03*
D20*
%TO.P,J1,2,Pin_2*%
%TO.N,unconnected-(J1-Pin_2-Pad2)*%
X105500000Y-45500000D03*
%TO.P,J1,3,Pin_3*%
%TO.N,I2S_BCK*%
X105500000Y-48040000D03*
%TO.P,J1,4,Pin_4*%
%TO.N,unconnected-(J1-Pin_4-Pad4)*%
X105500000Y-50580000D03*
%TO.P,J1,5,Pin_5*%
%TO.N,unconnected-(J1-Pin_5-Pad5)*%
X105500000Y-53120000D03*
%TO.P,J1,6,Pin_6*%
%TO.N,unconnected-(J1-Pin_6-Pad6)*%
X105500000Y-55660000D03*
%TD*%
D10*
%TO.P,C10,1*%
%TO.N,/U4_BSPR*%
X147450000Y-72500000D03*
%TO.P,C10,2*%
%TO.N,/U4_BSNR*%
X145550000Y-72500000D03*
%TD*%
D18*
%TO.P,C21,1*%
%TO.N,/U3_GVDD*%
X118050000Y-64000000D03*
%TO.P,C21,2*%
%TO.N,GND*%
X119950000Y-64000000D03*
%TD*%
D24*
%TO.P,C20,1*%
%TO.N,/+12V*%
X150475000Y-64500000D03*
%TO.P,C20,2*%
%TO.N,GND*%
X147525000Y-64500000D03*
%TD*%
D25*
%TO.P,J2,1,Pin_1*%
%TO.N,/+12V*%
X154722500Y-68045000D03*
D26*
%TO.P,J2,2,Pin_2*%
%TO.N,GND*%
X154722500Y-62965000D03*
%TD*%
D27*
%TO.P,U2,1,GND*%
%TO.N,GND*%
X122700000Y-70850000D03*
%TO.P,U2,2,VO*%
%TO.N,+3.3V*%
X125000000Y-70850000D03*
D28*
X125000000Y-77150000D03*
D27*
%TO.P,U2,3,VI*%
%TO.N,/+12V*%
X127300000Y-70850000D03*
%TD*%
D10*
%TO.P,C1,1*%
%TO.N,/+12V*%
X131450000Y-70500000D03*
%TO.P,C1,2*%
%TO.N,GND*%
X129550000Y-70500000D03*
%TD*%
%TO.P,C3,1*%
%TO.N,+3.3V*%
X120450000Y-71500000D03*
%TO.P,C3,2*%
%TO.N,GND*%
X118550000Y-71500000D03*
%TD*%
D18*
%TO.P,C2,1*%
%TO.N,+3.3V*%
X128800000Y-42900000D03*
%TO.P,C2,2*%
%TO.N,GND*%
X130700000Y-42900000D03*
%TD*%
D29*
%TO.N,GND*%
X141000000Y-68500000D03*
X140771839Y-67800194D03*
X142000000Y-68500000D03*
X118838909Y-65123752D03*
X116446635Y-64602735D03*
X139000000Y-68500000D03*
X124323800Y-50921000D03*
X116500000Y-63000000D03*
X119500000Y-66000000D03*
X132538400Y-43049800D03*
X139979306Y-67701127D03*
X139000000Y-67500000D03*
X140000000Y-68500000D03*
%TO.N,+3.3V*%
X136406200Y-60369300D03*
X127319500Y-63106200D03*
X115969600Y-59111000D03*
X129512800Y-46487200D03*
X117575400Y-52126200D03*
%TO.N,I2S_BCK*%
X121653900Y-49168300D03*
X124323800Y-47842000D03*
%TO.N,I2C_SDA*%
X124842300Y-46528400D03*
%TO.N,I2S_LRCK*%
X147994900Y-42391200D03*
%TO.N,I2C_SCL*%
X126098300Y-46187200D03*
D30*
%TO.N,/+12V*%
X131450000Y-71887600D03*
X127999900Y-72754000D03*
X150475000Y-66616800D03*
X123802700Y-67939000D03*
D29*
%TO.N,/U3_BSPL*%
X117084700Y-70264700D03*
%TO.N,/U3_BSNL*%
X115338100Y-66865400D03*
%TO.N,/U3_BSPR*%
X121498900Y-66430700D03*
%TO.N,/U3_BSNR*%
X117017600Y-65260500D03*
%TO.N,/U4_BSNL*%
X137498700Y-71942000D03*
%TO.N,/U4_BSPL*%
X141138100Y-72399400D03*
%TO.N,/U4_BSNR*%
X144522100Y-73232300D03*
%TO.N,/U4_BSPR*%
X144476100Y-71773500D03*
%TO.N,/U3_GVDD*%
X117043800Y-63957800D03*
%TO.N,/U4_GVDD*%
X142832100Y-66884000D03*
%TO.N,/DAC_OUTL+*%
X135840300Y-56863300D03*
X131418100Y-59078400D03*
%TO.N,/DAC_OUTL-*%
X128332500Y-54568100D03*
X127692000Y-55872100D03*
%TO.N,/U3_RINP*%
X124395000Y-59807900D03*
X121537800Y-54729200D03*
%TO.N,/DAC_OUTR+*%
X130161100Y-54654900D03*
X120539100Y-55052100D03*
%TO.N,/DAC_OUTR-*%
X131912200Y-53958700D03*
X131462300Y-58221200D03*
%TO.N,/U4_RINP*%
X143350000Y-61032900D03*
X140750000Y-58760600D03*
%TO.N,/U4_RINN*%
X134435800Y-63787500D03*
X134687900Y-60769200D03*
%TO.N,/U3_OUTNL*%
X114334200Y-70176500D03*
%TO.N,/U3_OUTNR*%
X126466500Y-73080900D03*
%TO.N,/U3_OUTPR*%
X120982700Y-69502200D03*
%TO.N,/U3_OUTPL*%
X116505100Y-70893000D03*
%TO.N,/U4_OUTNR*%
X147107500Y-68916500D03*
%TO.N,/U4_OUTPL*%
X140309500Y-72702400D03*
%TO.N,/U4_OUTPR*%
X143471900Y-71986000D03*
%TD*%
D31*
%TO.N,+3.3V*%
X131350000Y-47900000D02*
X131350000Y-50900000D01*
X129512800Y-46187200D02*
X129512800Y-46487200D01*
X127350000Y-68500000D02*
X125000000Y-70850000D01*
X127319500Y-63106200D02*
X127319500Y-68469500D01*
X136406200Y-60369300D02*
X136467000Y-60308500D01*
X130800000Y-44900000D02*
X129512800Y-46187200D01*
X128800000Y-42900000D02*
X130800000Y-44900000D01*
X115969600Y-53732000D02*
X117575400Y-52126200D01*
X125000000Y-72268900D02*
X125000000Y-77150000D01*
X127319500Y-68469500D02*
X127350000Y-68500000D01*
X128000000Y-51000000D02*
X128000000Y-47500000D01*
X136467000Y-60308500D02*
X136467000Y-56017000D01*
X115969600Y-59111000D02*
X115969600Y-53732000D01*
X121218900Y-72268900D02*
X120450000Y-71500000D01*
X128000000Y-43700000D02*
X128800000Y-42900000D01*
X131350000Y-44900000D02*
X131350000Y-47900000D01*
X127550000Y-68500000D02*
X127350000Y-68500000D01*
X125000000Y-70850000D02*
X125000000Y-72268900D01*
X130800000Y-44900000D02*
X131350000Y-44900000D01*
X125000000Y-72268900D02*
X121218900Y-72268900D01*
X136467000Y-56017000D02*
X131350000Y-50900000D01*
X128000000Y-47500000D02*
X128000000Y-43700000D01*
%TO.N,I2S_BCK*%
X124323800Y-47842000D02*
X124305600Y-47860200D01*
X122962000Y-47860200D02*
X122680000Y-47578200D01*
X122680000Y-47578200D02*
X122680000Y-38000000D01*
X121653900Y-49168300D02*
X122962000Y-47860200D01*
X124305600Y-47860200D02*
X122962000Y-47860200D01*
%TO.N,I2C_SDA*%
X125124000Y-49949000D02*
X126175000Y-51000000D01*
X124842300Y-46528400D02*
X125124000Y-46810100D01*
X125124000Y-46810100D02*
X125124000Y-49949000D01*
%TO.N,I2S_LRCK*%
X151925400Y-38460700D02*
X147994900Y-42391200D01*
X151925400Y-36694600D02*
X151925400Y-38460700D01*
X153160000Y-35460000D02*
X151925400Y-36694600D01*
%TO.N,I2C_SCL*%
X126098300Y-46187200D02*
X126175000Y-46263900D01*
X126175000Y-46263900D02*
X126175000Y-47500000D01*
D32*
%TO.N,/+12V*%
X124000000Y-63525000D02*
X122558900Y-63525000D01*
D33*
X142950000Y-62050000D02*
X143000000Y-62100000D01*
X122500000Y-60050000D02*
X121250000Y-60050000D01*
X123423900Y-67939000D02*
X123802700Y-67939000D01*
D32*
X117500000Y-60050000D02*
X115000000Y-60050000D01*
D33*
X121250000Y-60050000D02*
X120000000Y-60050000D01*
D32*
X139000000Y-62000000D02*
X137000000Y-62000000D01*
X120000000Y-60050000D02*
X117500000Y-60050000D01*
X150475000Y-66616800D02*
X150475000Y-64500000D01*
D33*
X127999900Y-71549900D02*
X127300000Y-70850000D01*
D32*
X139000000Y-62000000D02*
X140950000Y-62000000D01*
X134352400Y-59917400D02*
X131450000Y-62819800D01*
D33*
X122558900Y-63525000D02*
X122258900Y-63525000D01*
D32*
X122558900Y-63525000D02*
X122558900Y-67074000D01*
D33*
X135042300Y-59917400D02*
X134352400Y-59917400D01*
D32*
X158500000Y-78500000D02*
X154722500Y-74722500D01*
X121250000Y-62516100D02*
X121250000Y-60050000D01*
X135561900Y-60696800D02*
X135561900Y-60437000D01*
X136865100Y-62000000D02*
X135561900Y-60696800D01*
X127999900Y-72754000D02*
X127999900Y-71549900D01*
D33*
X140950000Y-62000000D02*
X141000000Y-62050000D01*
D32*
X135561900Y-60437000D02*
X135042300Y-59917400D01*
X154722500Y-74722500D02*
X154722500Y-68045000D01*
X131450000Y-62819800D02*
X131450000Y-70500000D01*
D33*
X137000000Y-62000000D02*
X136865100Y-62000000D01*
X131450000Y-71887600D02*
X131450000Y-70500000D01*
X122558900Y-67074000D02*
X123423900Y-67939000D01*
D32*
X122258900Y-63525000D02*
X121250000Y-62516100D01*
X141000000Y-62050000D02*
X142950000Y-62050000D01*
D31*
%TO.N,/U3_BSPL*%
X116550000Y-69000000D02*
X117084700Y-69534700D01*
X117084700Y-69534700D02*
X117084700Y-70264700D01*
%TO.N,/U3_BSNL*%
X115338100Y-66865400D02*
X116224200Y-67751500D01*
X117201500Y-67751500D02*
X118450000Y-69000000D01*
X116224200Y-67751500D02*
X117201500Y-67751500D01*
%TO.N,/U3_BSPR*%
X116550000Y-66500000D02*
X116821900Y-66500000D01*
X120360200Y-67569400D02*
X121498900Y-66430700D01*
X117891300Y-67569400D02*
X120360200Y-67569400D01*
X116821900Y-66500000D02*
X117891300Y-67569400D01*
%TO.N,/U3_BSNR*%
X118450000Y-66500000D02*
X118257100Y-66500000D01*
X118257100Y-66500000D02*
X117017600Y-65260500D01*
%TO.N,/U4_BSNL*%
X137498700Y-71942000D02*
X139695500Y-71942000D01*
X139695500Y-71942000D02*
X140762500Y-70875000D01*
%TO.N,/U4_BSPL*%
X142662500Y-70875000D02*
X141138100Y-72399400D01*
%TO.N,/U4_BSNR*%
X145550000Y-72500000D02*
X144817700Y-73232300D01*
X144817700Y-73232300D02*
X144522100Y-73232300D01*
%TO.N,/U4_BSPR*%
X144476100Y-71773500D02*
X144863000Y-71386600D01*
X146336600Y-71386600D02*
X147450000Y-72500000D01*
X144863000Y-71386600D02*
X146336600Y-71386600D01*
%TO.N,/U3_GVDD*%
X118007800Y-63957800D02*
X118050000Y-64000000D01*
X117043800Y-63957800D02*
X118007800Y-63957800D01*
%TO.N,/U4_GVDD*%
X142784000Y-66884000D02*
X141900000Y-66000000D01*
X142832100Y-66884000D02*
X142784000Y-66884000D01*
%TO.N,/DAC_OUTL+*%
X133625200Y-59078400D02*
X135840300Y-56863300D01*
X131418100Y-59078400D02*
X133625200Y-59078400D01*
%TO.N,/DAC_OUTL-*%
X128332500Y-55231600D02*
X128332500Y-54568100D01*
X127692000Y-55872100D02*
X128332500Y-55231600D01*
%TO.N,/U3_RINP*%
X121537800Y-54729200D02*
X124395000Y-57586400D01*
X124395000Y-57586400D02*
X124395000Y-59807900D01*
%TO.N,/DAC_OUTR+*%
X121439500Y-53941300D02*
X120539100Y-54841700D01*
X120539100Y-54841700D02*
X120539100Y-55052100D01*
X129447500Y-53941300D02*
X121439500Y-53941300D01*
X130161100Y-54654900D02*
X129447500Y-53941300D01*
%TO.N,/DAC_OUTR-*%
X131912200Y-57771300D02*
X131912200Y-53958700D01*
X131462300Y-58221200D02*
X131912200Y-57771300D01*
%TO.N,/U4_RINP*%
X141077700Y-58760600D02*
X140750000Y-58760600D01*
X143350000Y-61032900D02*
X141077700Y-58760600D01*
%TO.N,/U4_RINN*%
X134435800Y-61021300D02*
X134687900Y-60769200D01*
X134435800Y-63787500D02*
X134435800Y-61021300D01*
D34*
%TO.N,/U3_OUTNL*%
X116312900Y-84548000D02*
X119452000Y-84548000D01*
X119452000Y-84548000D02*
X121000000Y-83000000D01*
X114334200Y-82569300D02*
X116312900Y-84548000D01*
X114334200Y-70176500D02*
X114334200Y-82569300D01*
%TO.N,/U3_OUTNR*%
X128000000Y-83000000D02*
X128000000Y-74614400D01*
X128000000Y-74614400D02*
X126466500Y-73080900D01*
D35*
%TO.N,/U3_OUTPR*%
X119599800Y-70788800D02*
X119599800Y-78099800D01*
D31*
X120982700Y-69502200D02*
X120886400Y-69502200D01*
D35*
X120886400Y-69502200D02*
X119599800Y-70788800D01*
D34*
X119599800Y-78099800D02*
X124500000Y-83000000D01*
%TO.N,/U3_OUTPL*%
X116505100Y-82005100D02*
X116505100Y-70893000D01*
D31*
X117500000Y-83000000D02*
X116505100Y-82005100D01*
D34*
%TO.N,/U4_OUTNR*%
X151000000Y-72809000D02*
X151000000Y-83000000D01*
X147107500Y-68916500D02*
X151000000Y-72809000D01*
D31*
%TO.N,/U4_OUTPL*%
X140309500Y-72702400D02*
X140500000Y-72892900D01*
D34*
X140500000Y-72892900D02*
X140500000Y-83000000D01*
%TO.N,/U4_OUTPR*%
X143471900Y-78971900D02*
X147500000Y-83000000D01*
X143471900Y-71986000D02*
X143471900Y-78971900D01*
%TD*%
%TA.AperFunction,Conductor*%
%TO.N,GND*%
G36*
X165817539Y-33520185D02*
G01*
X165863294Y-33572989D01*
X165874500Y-33624500D01*
X165874500Y-88375500D01*
X165854815Y-88442539D01*
X165802011Y-88488294D01*
X165750500Y-88499500D01*
X101999500Y-88499500D01*
X101932461Y-88479815D01*
X101886706Y-88427011D01*
X101875500Y-88375500D01*
X101875500Y-85394038D01*
X103499500Y-85394038D01*
X103499500Y-85645961D01*
X103538910Y-85894785D01*
X103616760Y-86134383D01*
X103731132Y-86358848D01*
X103879201Y-86562649D01*
X103879205Y-86562654D01*
X104057345Y-86740794D01*
X104057350Y-86740798D01*
X104235117Y-86869952D01*
X104261155Y-86888870D01*
X104404184Y-86961747D01*
X104485616Y-87003239D01*
X104485618Y-87003239D01*
X104485621Y-87003241D01*
X104725215Y-87081090D01*
X104974038Y-87120500D01*
X104974039Y-87120500D01*
X105225961Y-87120500D01*
X105225962Y-87120500D01*
X105474785Y-87081090D01*
X105714379Y-87003241D01*
X105938845Y-86888870D01*
X106142656Y-86740793D01*
X106320793Y-86562656D01*
X106468870Y-86358845D01*
X106583241Y-86134379D01*
X106661090Y-85894785D01*
X106700500Y-85645962D01*
X106700500Y-85394038D01*
X161499500Y-85394038D01*
X161499500Y-85645961D01*
X161538910Y-85894785D01*
X161616760Y-86134383D01*
X161731132Y-86358848D01*
X161879201Y-86562649D01*
X161879205Y-86562654D01*
X162057345Y-86740794D01*
X162057350Y-86740798D01*
X162235117Y-86869952D01*
X162261155Y-86888870D01*
X162404184Y-86961747D01*
X162485616Y-87003239D01*
X162485618Y-87003239D01*
X162485621Y-87003241D01*
X162725215Y-87081090D01*
X162974038Y-87120500D01*
X162974039Y-87120500D01*
X163225961Y-87120500D01*
X163225962Y-87120500D01*
X163474785Y-87081090D01*
X163714379Y-87003241D01*
X163938845Y-86888870D01*
X164142656Y-86740793D01*
X164320793Y-86562656D01*
X164468870Y-86358845D01*
X164583241Y-86134379D01*
X164661090Y-85894785D01*
X164700500Y-85645962D01*
X164700500Y-85394038D01*
X164661090Y-85145215D01*
X164583241Y-84905621D01*
X164583239Y-84905618D01*
X164583239Y-84905616D01*
X164541747Y-84824184D01*
X164468870Y-84681155D01*
X164449952Y-84655117D01*
X164320798Y-84477350D01*
X164320794Y-84477345D01*
X164142654Y-84299205D01*
X164142649Y-84299201D01*
X163938848Y-84151132D01*
X163938847Y-84151131D01*
X163938845Y-84151130D01*
X163851012Y-84106377D01*
X163714383Y-84036760D01*
X163474785Y-83958910D01*
X163386570Y-83944938D01*
X163225962Y-83919500D01*
X162974038Y-83919500D01*
X162849626Y-83939205D01*
X162725214Y-83958910D01*
X162485616Y-84036760D01*
X162261151Y-84151132D01*
X162057350Y-84299201D01*
X162057345Y-84299205D01*
X161879205Y-84477345D01*
X161879201Y-84477350D01*
X161731132Y-84681151D01*
X161616760Y-84905616D01*
X161538910Y-85145214D01*
X161499500Y-85394038D01*
X106700500Y-85394038D01*
X106661090Y-85145215D01*
X106583241Y-84905621D01*
X106583239Y-84905618D01*
X106583239Y-84905616D01*
X106541747Y-84824184D01*
X106468870Y-84681155D01*
X106449952Y-84655117D01*
X106320798Y-84477350D01*
X106320794Y-84477345D01*
X106142654Y-84299205D01*
X106142649Y-84299201D01*
X105938848Y-84151132D01*
X105938847Y-84151131D01*
X105938845Y-84151130D01*
X105851012Y-84106377D01*
X105714383Y-84036760D01*
X105474785Y-83958910D01*
X105386570Y-83944938D01*
X105225962Y-83919500D01*
X104974038Y-83919500D01*
X104849626Y-83939205D01*
X104725214Y-83958910D01*
X104485616Y-84036760D01*
X104261151Y-84151132D01*
X104057350Y-84299201D01*
X104057345Y-84299205D01*
X103879205Y-84477345D01*
X103879201Y-84477350D01*
X103731132Y-84681151D01*
X103616760Y-84905616D01*
X103538910Y-85145214D01*
X103499500Y-85394038D01*
X101875500Y-85394038D01*
X101875500Y-70114889D01*
X113708700Y-70114889D01*
X113708700Y-82630910D01*
X113714554Y-82660339D01*
X113720718Y-82691329D01*
X113732737Y-82751752D01*
X113746547Y-82785092D01*
X113749366Y-82791899D01*
X113749368Y-82791904D01*
X113779885Y-82865581D01*
X113779887Y-82865584D01*
X113793424Y-82885843D01*
X113793425Y-82885845D01*
X113848340Y-82968031D01*
X113848341Y-82968032D01*
X113848342Y-82968033D01*
X113935467Y-83055158D01*
X113935468Y-83055158D01*
X113942535Y-83062225D01*
X113942534Y-83062225D01*
X113942537Y-83062227D01*
X115827041Y-84946732D01*
X115827042Y-84946733D01*
X115914166Y-85033857D01*
X115914168Y-85033859D01*
X116016607Y-85102307D01*
X116016611Y-85102309D01*
X116016614Y-85102311D01*
X116130448Y-85149463D01*
X116190871Y-85161481D01*
X116251293Y-85173500D01*
X119513607Y-85173500D01*
X119574029Y-85161481D01*
X119634452Y-85149463D01*
X119667792Y-85135652D01*
X119748286Y-85102312D01*
X119799509Y-85068084D01*
X119850733Y-85033858D01*
X119937858Y-84946733D01*
X119937858Y-84946731D01*
X119948066Y-84936524D01*
X119948068Y-84936521D01*
X120462802Y-84421786D01*
X120524123Y-84388303D01*
X120588797Y-84391537D01*
X120660340Y-84414784D01*
X120773091Y-84432642D01*
X120885838Y-84450500D01*
X120885843Y-84450500D01*
X121114162Y-84450500D01*
X121339660Y-84414784D01*
X121556799Y-84344231D01*
X121760228Y-84240579D01*
X121944937Y-84106379D01*
X122106379Y-83944937D01*
X122240579Y-83760228D01*
X122344231Y-83556799D01*
X122414784Y-83339660D01*
X122434775Y-83213441D01*
X122450500Y-83114162D01*
X122450500Y-82885837D01*
X122414784Y-82660339D01*
X122382049Y-82559592D01*
X122344231Y-82443201D01*
X122344229Y-82443198D01*
X122344229Y-82443196D01*
X122240578Y-82239771D01*
X122202640Y-82187554D01*
X122106379Y-82055063D01*
X121944937Y-81893621D01*
X121760228Y-81759421D01*
X121693201Y-81725269D01*
X121556803Y-81655770D01*
X121339660Y-81585215D01*
X121114162Y-81549500D01*
X121114157Y-81549500D01*
X120885843Y-81549500D01*
X120885838Y-81549500D01*
X120660339Y-81585215D01*
X120443196Y-81655770D01*
X120239771Y-81759421D01*
X120055061Y-81893622D01*
X119893622Y-82055061D01*
X119759421Y-82239771D01*
X119655770Y-82443196D01*
X119585215Y-82660339D01*
X119549500Y-82885837D01*
X119549500Y-83114162D01*
X119585215Y-83339656D01*
X119585216Y-83339661D01*
X119608460Y-83411200D01*
X119610455Y-83481041D01*
X119578210Y-83537198D01*
X119229229Y-83886181D01*
X119202301Y-83900884D01*
X119176483Y-83917477D01*
X119170282Y-83918368D01*
X119167906Y-83919666D01*
X119141548Y-83922500D01*
X119074500Y-83922500D01*
X119007461Y-83902815D01*
X118961706Y-83850011D01*
X118950500Y-83798500D01*
X118950500Y-82002136D01*
X118950500Y-82002128D01*
X118944091Y-81942518D01*
X118893796Y-81807670D01*
X118807546Y-81692454D01*
X118692330Y-81606204D01*
X118692328Y-81606203D01*
X118692327Y-81606202D01*
X118557481Y-81555908D01*
X118557482Y-81555908D01*
X118497882Y-81549501D01*
X118497880Y-81549500D01*
X118497872Y-81549500D01*
X118497864Y-81549500D01*
X117254600Y-81549500D01*
X117187561Y-81529815D01*
X117141806Y-81477011D01*
X117130600Y-81425500D01*
X117130600Y-72024986D01*
X117550001Y-72024986D01*
X117560494Y-72127697D01*
X117615641Y-72294119D01*
X117615643Y-72294124D01*
X117707684Y-72443345D01*
X117831654Y-72567315D01*
X117980875Y-72659356D01*
X117980880Y-72659358D01*
X118147302Y-72714505D01*
X118147309Y-72714506D01*
X118250019Y-72724999D01*
X118299999Y-72724998D01*
X118300000Y-72724998D01*
X118300000Y-71750000D01*
X117550001Y-71750000D01*
X117550001Y-72024986D01*
X117130600Y-72024986D01*
X117130600Y-70917468D01*
X117150285Y-70850429D01*
X117203089Y-70804674D01*
X117222494Y-70797697D01*
X117297185Y-70777684D01*
X117379354Y-70730243D01*
X117447252Y-70713771D01*
X117513279Y-70736623D01*
X117556470Y-70791544D01*
X117563112Y-70861097D01*
X117561894Y-70865764D01*
X117560493Y-70872309D01*
X117550000Y-70975013D01*
X117550000Y-71250000D01*
X118300000Y-71250000D01*
X118300000Y-70275000D01*
X118800000Y-70275000D01*
X118800000Y-72724999D01*
X118849972Y-72724999D01*
X118849983Y-72724998D01*
X118912697Y-72718591D01*
X118981390Y-72731360D01*
X119032275Y-72779240D01*
X119049300Y-72841949D01*
X119049300Y-77769646D01*
X119039861Y-77817098D01*
X118998340Y-77917338D01*
X118998335Y-77917355D01*
X118974300Y-78038188D01*
X118974300Y-78161411D01*
X118998335Y-78282244D01*
X118998340Y-78282261D01*
X119045485Y-78396081D01*
X119045490Y-78396090D01*
X119113939Y-78498527D01*
X119113945Y-78498535D01*
X123078210Y-82462800D01*
X123111695Y-82524123D01*
X123108460Y-82588799D01*
X123085216Y-82660335D01*
X123085216Y-82660338D01*
X123049500Y-82885837D01*
X123049500Y-83114162D01*
X123085215Y-83339660D01*
X123155770Y-83556803D01*
X123259421Y-83760228D01*
X123393621Y-83944937D01*
X123555063Y-84106379D01*
X123739772Y-84240579D01*
X123835884Y-84289550D01*
X123943196Y-84344229D01*
X123943198Y-84344229D01*
X123943201Y-84344231D01*
X124016530Y-84368057D01*
X124160339Y-84414784D01*
X124385838Y-84450500D01*
X124385843Y-84450500D01*
X124614162Y-84450500D01*
X124839660Y-84414784D01*
X125056799Y-84344231D01*
X125260228Y-84240579D01*
X125444937Y-84106379D01*
X125606379Y-83944937D01*
X125740579Y-83760228D01*
X125844231Y-83556799D01*
X125914784Y-83339660D01*
X125934775Y-83213441D01*
X125950500Y-83114162D01*
X125950500Y-82885837D01*
X125914784Y-82660339D01*
X125882049Y-82559592D01*
X125844231Y-82443201D01*
X125844229Y-82443198D01*
X125844229Y-82443196D01*
X125740578Y-82239771D01*
X125702640Y-82187554D01*
X125606379Y-82055063D01*
X125444937Y-81893621D01*
X125260228Y-81759421D01*
X125193201Y-81725269D01*
X125056803Y-81655770D01*
X124839660Y-81585215D01*
X124614162Y-81549500D01*
X124614157Y-81549500D01*
X124385843Y-81549500D01*
X124385838Y-81549500D01*
X124160338Y-81585216D01*
X124160335Y-81585216D01*
X124088799Y-81608460D01*
X124018957Y-81610455D01*
X123962800Y-81578210D01*
X120186619Y-77802029D01*
X120153134Y-77740706D01*
X120150300Y-77714348D01*
X120150300Y-72599499D01*
X120169985Y-72532460D01*
X120222789Y-72486705D01*
X120274296Y-72475499D01*
X120747872Y-72475499D01*
X120795759Y-72470351D01*
X120815197Y-72468262D01*
X120815398Y-72470137D01*
X120875098Y-72473324D01*
X120921551Y-72502589D01*
X120988337Y-72569375D01*
X121073963Y-72618811D01*
X121169464Y-72644400D01*
X121169465Y-72644400D01*
X124500500Y-72644400D01*
X124567539Y-72664085D01*
X124613294Y-72716889D01*
X124624500Y-72768400D01*
X124624500Y-75775500D01*
X124604815Y-75842539D01*
X124552011Y-75888294D01*
X124500500Y-75899500D01*
X123549998Y-75899500D01*
X123549980Y-75899501D01*
X123447203Y-75910000D01*
X123447200Y-75910001D01*
X123280668Y-75965185D01*
X123280663Y-75965187D01*
X123131342Y-76057289D01*
X123007289Y-76181342D01*
X122915187Y-76330663D01*
X122915186Y-76330666D01*
X122860001Y-76497203D01*
X122860001Y-76497204D01*
X122860000Y-76497204D01*
X122849500Y-76599983D01*
X122849500Y-77700001D01*
X122849501Y-77700019D01*
X122860000Y-77802796D01*
X122860001Y-77802799D01*
X122880130Y-77863543D01*
X122915186Y-77969334D01*
X123007288Y-78118656D01*
X123131344Y-78242712D01*
X123280666Y-78334814D01*
X123447203Y-78389999D01*
X123549991Y-78400500D01*
X126450008Y-78400499D01*
X126552797Y-78389999D01*
X126719334Y-78334814D01*
X126868656Y-78242712D01*
X126992712Y-78118656D01*
X127084814Y-77969334D01*
X127132794Y-77824537D01*
X127172567Y-77767094D01*
X127237082Y-77740271D01*
X127305858Y-77752586D01*
X127357058Y-77800129D01*
X127374500Y-77863543D01*
X127374500Y-81614785D01*
X127354815Y-81681824D01*
X127306796Y-81725269D01*
X127239774Y-81759419D01*
X127055061Y-81893622D01*
X126893622Y-82055061D01*
X126759421Y-82239771D01*
X126655770Y-82443196D01*
X126585215Y-82660339D01*
X126549500Y-82885837D01*
X126549500Y-83114162D01*
X126585215Y-83339660D01*
X126655770Y-83556803D01*
X126759421Y-83760228D01*
X126893621Y-83944937D01*
X127055063Y-84106379D01*
X127239772Y-84240579D01*
X127335884Y-84289550D01*
X127443196Y-84344229D01*
X127443198Y-84344229D01*
X127443201Y-84344231D01*
X127516530Y-84368057D01*
X127660339Y-84414784D01*
X127885838Y-84450500D01*
X127885843Y-84450500D01*
X128114162Y-84450500D01*
X128339660Y-84414784D01*
X128556799Y-84344231D01*
X128760228Y-84240579D01*
X128944937Y-84106379D01*
X129106379Y-83944937D01*
X129240579Y-83760228D01*
X129344231Y-83556799D01*
X129414784Y-83339660D01*
X129434775Y-83213441D01*
X129450500Y-83114162D01*
X129450500Y-82885837D01*
X129414784Y-82660339D01*
X129382049Y-82559592D01*
X129344231Y-82443201D01*
X129344229Y-82443198D01*
X129344229Y-82443196D01*
X129240578Y-82239771D01*
X129202640Y-82187554D01*
X129106379Y-82055063D01*
X128944937Y-81893621D01*
X128760228Y-81759421D01*
X128760227Y-81759420D01*
X128760225Y-81759419D01*
X128693204Y-81725269D01*
X128642408Y-81677294D01*
X128625500Y-81614785D01*
X128625500Y-74552793D01*
X128625499Y-74552789D01*
X128601464Y-74431955D01*
X128601463Y-74431948D01*
X128554311Y-74318114D01*
X128554310Y-74318113D01*
X128554307Y-74318107D01*
X128485859Y-74215668D01*
X128485858Y-74215667D01*
X128398733Y-74128542D01*
X128398732Y-74128541D01*
X127986370Y-73716180D01*
X127952886Y-73654858D01*
X127957870Y-73585167D01*
X127999741Y-73529233D01*
X128065206Y-73504816D01*
X128073688Y-73504512D01*
X128073820Y-73504500D01*
X128171362Y-73485096D01*
X128218813Y-73475658D01*
X128355395Y-73419084D01*
X128478316Y-73336951D01*
X128582851Y-73232416D01*
X128664984Y-73109495D01*
X128721558Y-72972913D01*
X128747609Y-72841949D01*
X128750400Y-72827920D01*
X128750400Y-71739372D01*
X128770085Y-71672333D01*
X128822889Y-71626578D01*
X128892047Y-71616634D01*
X128939498Y-71633834D01*
X128980873Y-71659355D01*
X128980880Y-71659358D01*
X129147302Y-71714505D01*
X129147309Y-71714506D01*
X129250019Y-71724999D01*
X129299999Y-71724998D01*
X129300000Y-71724998D01*
X129300000Y-70750000D01*
X128550001Y-70750000D01*
X128550001Y-70782859D01*
X128547134Y-70792620D01*
X128548401Y-70802716D01*
X128537456Y-70825581D01*
X128530316Y-70849898D01*
X128522628Y-70856559D01*
X128518235Y-70865738D01*
X128496664Y-70879057D01*
X128477512Y-70895653D01*
X128467443Y-70897100D01*
X128458785Y-70902447D01*
X128433440Y-70901989D01*
X128408354Y-70905597D01*
X128397239Y-70901336D01*
X128388927Y-70901187D01*
X128357092Y-70885949D01*
X128355590Y-70884945D01*
X128310794Y-70831324D01*
X128300499Y-70781855D01*
X128300499Y-70161849D01*
X128300498Y-70161824D01*
X128299481Y-70148903D01*
X128297709Y-70126373D01*
X128253618Y-69974610D01*
X128201804Y-69886998D01*
X128173172Y-69838583D01*
X128173165Y-69838574D01*
X128061425Y-69726834D01*
X128061416Y-69726827D01*
X127958119Y-69665738D01*
X127910436Y-69614669D01*
X127897932Y-69545927D01*
X127924577Y-69481338D01*
X127977907Y-69442824D01*
X128042331Y-69418796D01*
X128157546Y-69332546D01*
X128243796Y-69217331D01*
X128251180Y-69197532D01*
X128293050Y-69141598D01*
X128358514Y-69117179D01*
X128426787Y-69132029D01*
X128476194Y-69181433D01*
X128485069Y-69201859D01*
X128515641Y-69294119D01*
X128515643Y-69294124D01*
X128607684Y-69443345D01*
X128643432Y-69479093D01*
X128676917Y-69540416D01*
X128671933Y-69610108D01*
X128661290Y-69631870D01*
X128615645Y-69705871D01*
X128615641Y-69705880D01*
X128560494Y-69872302D01*
X128560493Y-69872309D01*
X128550000Y-69975013D01*
X128550000Y-70250000D01*
X129300000Y-70250000D01*
X129300000Y-69855000D01*
X129290023Y-69845023D01*
X129256961Y-69835315D01*
X129211206Y-69782511D01*
X129200000Y-69731000D01*
X129200000Y-68250000D01*
X129700000Y-68250000D01*
X130449999Y-68250000D01*
X130449999Y-67975028D01*
X130449998Y-67975013D01*
X130439505Y-67872302D01*
X130384358Y-67705880D01*
X130384356Y-67705875D01*
X130292315Y-67556654D01*
X130168345Y-67432684D01*
X130019124Y-67340643D01*
X130019119Y-67340641D01*
X129852697Y-67285494D01*
X129852690Y-67285493D01*
X129749986Y-67275000D01*
X129700000Y-67275000D01*
X129700000Y-68250000D01*
X129200000Y-68250000D01*
X129200000Y-67275000D01*
X129199999Y-67274999D01*
X129150029Y-67275000D01*
X129150011Y-67275001D01*
X129047302Y-67285494D01*
X128880880Y-67340641D01*
X128880875Y-67340643D01*
X128731654Y-67432684D01*
X128607684Y-67556654D01*
X128515643Y-67705875D01*
X128515642Y-67705878D01*
X128485069Y-67798141D01*
X128445296Y-67855585D01*
X128380780Y-67882408D01*
X128312004Y-67870093D01*
X128260804Y-67822549D01*
X128251181Y-67802468D01*
X128243798Y-67782673D01*
X128243793Y-67782664D01*
X128157547Y-67667455D01*
X128157544Y-67667452D01*
X128042335Y-67581206D01*
X128042328Y-67581202D01*
X127907482Y-67530908D01*
X127907483Y-67530908D01*
X127847883Y-67524501D01*
X127847881Y-67524500D01*
X127847873Y-67524500D01*
X127847865Y-67524500D01*
X127819000Y-67524500D01*
X127751961Y-67504815D01*
X127706206Y-67452011D01*
X127695000Y-67400500D01*
X127695000Y-63560586D01*
X127714685Y-63493547D01*
X127731319Y-63472905D01*
X127740189Y-63464035D01*
X127760009Y-63444215D01*
X127832484Y-63318685D01*
X127870000Y-63178675D01*
X127870000Y-63033725D01*
X127832484Y-62893715D01*
X127827828Y-62885651D01*
X127760011Y-62768188D01*
X127760006Y-62768182D01*
X127657517Y-62665693D01*
X127657511Y-62665688D01*
X127531988Y-62593217D01*
X127531989Y-62593217D01*
X127520050Y-62590018D01*
X127391975Y-62555700D01*
X127247025Y-62555700D01*
X127118950Y-62590018D01*
X127107011Y-62593217D01*
X126981488Y-62665688D01*
X126981482Y-62665693D01*
X126878993Y-62768182D01*
X126878988Y-62768188D01*
X126806517Y-62893711D01*
X126806516Y-62893715D01*
X126769000Y-63033725D01*
X126769000Y-63178675D01*
X126801011Y-63298141D01*
X126806517Y-63318688D01*
X126878988Y-63444211D01*
X126878993Y-63444217D01*
X126907681Y-63472905D01*
X126941166Y-63534228D01*
X126944000Y-63560586D01*
X126944000Y-67624116D01*
X126924315Y-67691155D01*
X126919267Y-67698427D01*
X126856204Y-67782668D01*
X126856202Y-67782671D01*
X126805908Y-67917517D01*
X126799501Y-67977116D01*
X126799500Y-67977135D01*
X126799500Y-68468099D01*
X126779815Y-68535138D01*
X126763181Y-68555780D01*
X125713811Y-69605150D01*
X125652488Y-69638635D01*
X125591536Y-69636546D01*
X125473627Y-69602291D01*
X125473620Y-69602290D01*
X125438163Y-69599500D01*
X124561849Y-69599500D01*
X124561824Y-69599501D01*
X124526372Y-69602291D01*
X124374614Y-69646380D01*
X124374609Y-69646382D01*
X124238583Y-69726827D01*
X124238574Y-69726834D01*
X124126834Y-69838574D01*
X124126830Y-69838580D01*
X124098039Y-69887263D01*
X124046969Y-69934946D01*
X123978228Y-69947449D01*
X123913638Y-69920803D01*
X123880219Y-69879236D01*
X123816607Y-69750974D01*
X123697367Y-69602633D01*
X123697366Y-69602632D01*
X123549025Y-69483392D01*
X123549022Y-69483390D01*
X123378523Y-69398831D01*
X123193824Y-69352897D01*
X123151097Y-69350000D01*
X122950000Y-69350000D01*
X122950000Y-70726000D01*
X122930315Y-70793039D01*
X122877511Y-70838794D01*
X122826000Y-70850000D01*
X122700000Y-70850000D01*
X122700000Y-70976000D01*
X122680315Y-71043039D01*
X122627511Y-71088794D01*
X122576000Y-71100000D01*
X121450000Y-71100000D01*
X121450000Y-71551096D01*
X121452897Y-71593827D01*
X121470246Y-71663587D01*
X121467322Y-71733395D01*
X121427121Y-71790541D01*
X121362406Y-71816881D01*
X121293725Y-71804052D01*
X121262232Y-71781195D01*
X121236815Y-71755778D01*
X121203332Y-71694455D01*
X121200499Y-71668099D01*
X121200499Y-70977129D01*
X121200498Y-70977123D01*
X121200377Y-70976000D01*
X121194091Y-70917517D01*
X121188470Y-70902447D01*
X121143797Y-70782671D01*
X121143793Y-70782664D01*
X121057547Y-70667455D01*
X121057544Y-70667452D01*
X120942335Y-70581206D01*
X120942330Y-70581203D01*
X120863523Y-70551810D01*
X120807590Y-70509938D01*
X120783173Y-70444474D01*
X120798025Y-70376201D01*
X120819173Y-70347950D01*
X121112619Y-70054504D01*
X121146936Y-70030257D01*
X121157210Y-70025358D01*
X121195185Y-70015184D01*
X121273985Y-69969688D01*
X121278387Y-69967590D01*
X121308247Y-69962793D01*
X121337647Y-69955661D01*
X121342403Y-69957307D01*
X121347372Y-69956509D01*
X121375089Y-69968620D01*
X121403674Y-69978513D01*
X121406784Y-69982468D01*
X121411397Y-69984484D01*
X121428169Y-70009660D01*
X121446865Y-70033434D01*
X121447343Y-70038442D01*
X121450134Y-70042632D01*
X121450631Y-70072880D01*
X121453288Y-70100700D01*
X121453745Y-70100772D01*
X121453465Y-70102552D01*
X121453507Y-70102987D01*
X121453126Y-70104714D01*
X121452898Y-70106168D01*
X121450000Y-70148903D01*
X121450000Y-70600000D01*
X122450000Y-70600000D01*
X122450000Y-69350000D01*
X122248903Y-69350000D01*
X122206175Y-69352897D01*
X122021476Y-69398831D01*
X121850977Y-69483390D01*
X121850974Y-69483392D01*
X121734887Y-69576706D01*
X121670303Y-69603365D01*
X121601559Y-69590874D01*
X121550480Y-69543201D01*
X121533200Y-69480059D01*
X121533200Y-69429727D01*
X121533200Y-69429725D01*
X121495684Y-69289715D01*
X121489380Y-69278797D01*
X121423211Y-69164188D01*
X121423206Y-69164182D01*
X121320717Y-69061693D01*
X121320711Y-69061688D01*
X121195188Y-68989217D01*
X121195189Y-68989217D01*
X121183706Y-68986140D01*
X121055175Y-68951700D01*
X120910225Y-68951700D01*
X120902629Y-68951700D01*
X120902613Y-68951701D01*
X120813926Y-68951701D01*
X120673914Y-68989216D01*
X120548386Y-69061689D01*
X120548383Y-69061691D01*
X119281418Y-70328655D01*
X119220095Y-70362140D01*
X119150403Y-70357156D01*
X119128641Y-70346513D01*
X119119128Y-70340646D01*
X119119119Y-70340641D01*
X118952697Y-70285494D01*
X118952690Y-70285493D01*
X118849986Y-70275000D01*
X118800000Y-70275000D01*
X118300000Y-70275000D01*
X118299999Y-70274999D01*
X118250029Y-70275000D01*
X118250011Y-70275001D01*
X118147302Y-70285494D01*
X117980880Y-70340641D01*
X117980875Y-70340643D01*
X117825509Y-70436475D01*
X117824010Y-70434045D01*
X117771293Y-70455303D01*
X117702653Y-70442250D01*
X117651967Y-70394160D01*
X117635200Y-70331894D01*
X117635200Y-70192227D01*
X117635200Y-70192225D01*
X117597684Y-70052215D01*
X117592151Y-70042632D01*
X117525211Y-69926688D01*
X117525206Y-69926682D01*
X117496519Y-69897995D01*
X117481815Y-69871067D01*
X117465223Y-69845249D01*
X117464331Y-69839048D01*
X117463034Y-69836672D01*
X117460200Y-69810314D01*
X117460200Y-69606631D01*
X117479885Y-69539592D01*
X117493023Y-69528207D01*
X117483877Y-69513976D01*
X117469618Y-69501013D01*
X117457779Y-69473366D01*
X117456523Y-69471411D01*
X117455737Y-69468614D01*
X117435333Y-69392461D01*
X117434610Y-69389762D01*
X117434609Y-69389760D01*
X117411653Y-69350000D01*
X117385175Y-69304138D01*
X117336818Y-69255781D01*
X117303333Y-69194458D01*
X117300499Y-69168100D01*
X117300499Y-68680898D01*
X117320184Y-68613859D01*
X117372988Y-68568104D01*
X117442146Y-68558160D01*
X117505702Y-68587185D01*
X117512180Y-68593217D01*
X117663181Y-68744218D01*
X117696666Y-68805541D01*
X117699500Y-68831899D01*
X117699500Y-69436476D01*
X117694070Y-69454965D01*
X117693612Y-69474234D01*
X117684429Y-69487800D01*
X117679815Y-69503515D01*
X117666676Y-69514899D01*
X117703177Y-69571696D01*
X117704877Y-69578115D01*
X117705909Y-69582485D01*
X117756202Y-69717328D01*
X117756206Y-69717335D01*
X117842452Y-69832544D01*
X117842455Y-69832547D01*
X117957664Y-69918793D01*
X117957671Y-69918797D01*
X118000969Y-69934946D01*
X118092517Y-69969091D01*
X118152127Y-69975500D01*
X118747872Y-69975499D01*
X118807483Y-69969091D01*
X118942331Y-69918796D01*
X119057546Y-69832546D01*
X119143796Y-69717331D01*
X119194091Y-69582483D01*
X119200500Y-69522873D01*
X119200499Y-68477128D01*
X119194091Y-68417517D01*
X119189568Y-68405391D01*
X119143797Y-68282671D01*
X119143793Y-68282664D01*
X119057547Y-68167455D01*
X119051275Y-68161183D01*
X119052415Y-68160042D01*
X119016625Y-68112229D01*
X119011644Y-68042537D01*
X119045132Y-67981215D01*
X119106456Y-67947733D01*
X119132809Y-67944900D01*
X120409635Y-67944900D01*
X120409636Y-67944900D01*
X120457386Y-67932105D01*
X120505138Y-67919310D01*
X120590762Y-67869875D01*
X120660675Y-67799962D01*
X121443118Y-67017519D01*
X121504441Y-66984034D01*
X121510172Y-66982928D01*
X121520415Y-66981200D01*
X121571375Y-66981200D01*
X121657987Y-66957992D01*
X121663773Y-66957016D01*
X121692869Y-66960479D01*
X121722155Y-66961176D01*
X121727155Y-66964560D01*
X121733153Y-66965274D01*
X121755756Y-66983916D01*
X121780018Y-67000337D01*
X121782395Y-67005888D01*
X121787054Y-67009731D01*
X121795989Y-67037632D01*
X121807523Y-67064566D01*
X121808187Y-67075724D01*
X121808363Y-67076272D01*
X121808246Y-67076708D01*
X121808400Y-67079288D01*
X121808400Y-67147918D01*
X121808400Y-67147920D01*
X121808399Y-67147920D01*
X121837240Y-67292907D01*
X121837243Y-67292917D01*
X121893812Y-67429488D01*
X121893819Y-67429501D01*
X121975948Y-67552415D01*
X121975951Y-67552419D01*
X122080480Y-67656948D01*
X122080484Y-67656951D01*
X122203398Y-67739080D01*
X122203411Y-67739087D01*
X122308638Y-67782673D01*
X122339987Y-67795658D01*
X122339991Y-67795658D01*
X122339992Y-67795659D01*
X122484979Y-67824500D01*
X122484982Y-67824500D01*
X122550224Y-67824500D01*
X122617263Y-67844185D01*
X122637905Y-67860819D01*
X123116586Y-68339500D01*
X123230714Y-68405392D01*
X123358008Y-68439500D01*
X123358009Y-68439500D01*
X123365858Y-68441603D01*
X123365640Y-68442416D01*
X123410535Y-68459313D01*
X123494566Y-68515461D01*
X123494575Y-68515466D01*
X123504220Y-68519461D01*
X123612956Y-68564501D01*
X123612960Y-68564501D01*
X123612961Y-68564502D01*
X123738628Y-68589500D01*
X123738631Y-68589500D01*
X123866771Y-68589500D01*
X123951315Y-68572682D01*
X123992444Y-68564501D01*
X124110827Y-68515465D01*
X124217369Y-68444276D01*
X124307976Y-68353669D01*
X124379165Y-68247127D01*
X124428201Y-68128744D01*
X124442320Y-68057764D01*
X124453200Y-68003071D01*
X124453200Y-67874928D01*
X124428202Y-67749261D01*
X124428201Y-67749260D01*
X124428201Y-67749256D01*
X124416683Y-67721451D01*
X124409215Y-67651982D01*
X124440490Y-67589503D01*
X124500579Y-67553851D01*
X124531245Y-67549999D01*
X124699972Y-67549999D01*
X124699986Y-67549998D01*
X124802697Y-67539505D01*
X124969119Y-67484358D01*
X124969124Y-67484356D01*
X125118345Y-67392315D01*
X125242315Y-67268345D01*
X125334356Y-67119124D01*
X125334358Y-67119119D01*
X125389505Y-66952697D01*
X125389506Y-66952690D01*
X125399999Y-66849986D01*
X125400000Y-66849973D01*
X125400000Y-66725000D01*
X124124000Y-66725000D01*
X124056961Y-66705315D01*
X124011206Y-66652511D01*
X124000000Y-66601000D01*
X124000000Y-66475000D01*
X123874000Y-66475000D01*
X123806961Y-66455315D01*
X123761206Y-66402511D01*
X123750000Y-66351000D01*
X123750000Y-66225000D01*
X124250000Y-66225000D01*
X125399999Y-66225000D01*
X125399999Y-66100028D01*
X125399998Y-66100013D01*
X125389505Y-65997302D01*
X125334358Y-65830880D01*
X125334356Y-65830875D01*
X125242315Y-65681654D01*
X125118345Y-65557684D01*
X124969124Y-65465643D01*
X124969119Y-65465641D01*
X124802697Y-65410494D01*
X124802690Y-65410493D01*
X124699986Y-65400000D01*
X124250000Y-65400000D01*
X124250000Y-66225000D01*
X123750000Y-66225000D01*
X123750000Y-65400000D01*
X123433400Y-65400000D01*
X123366361Y-65380315D01*
X123320606Y-65327511D01*
X123309400Y-65276000D01*
X123309400Y-64474499D01*
X123329085Y-64407460D01*
X123381889Y-64361705D01*
X123433400Y-64350499D01*
X124697871Y-64350499D01*
X124697872Y-64350499D01*
X124757483Y-64344091D01*
X124892331Y-64293796D01*
X125007546Y-64207546D01*
X125093796Y-64092331D01*
X125144091Y-63957483D01*
X125150500Y-63897873D01*
X125150499Y-63152128D01*
X125144689Y-63098080D01*
X125144091Y-63092516D01*
X125093797Y-62957671D01*
X125093793Y-62957664D01*
X125007547Y-62842455D01*
X125007544Y-62842452D01*
X124892335Y-62756206D01*
X124892328Y-62756202D01*
X124757482Y-62705908D01*
X124757483Y-62705908D01*
X124697883Y-62699501D01*
X124697881Y-62699500D01*
X124697873Y-62699500D01*
X124697865Y-62699500D01*
X123769887Y-62699500D01*
X123702848Y-62679815D01*
X123657093Y-62627011D01*
X123647149Y-62557853D01*
X123657504Y-62523096D01*
X123659358Y-62519118D01*
X123714505Y-62352697D01*
X123714506Y-62352690D01*
X123724999Y-62249986D01*
X123725000Y-62249973D01*
X123725000Y-62200000D01*
X122124500Y-62200000D01*
X122057461Y-62180315D01*
X122011706Y-62127511D01*
X122000500Y-62076000D01*
X122000500Y-61824000D01*
X122020185Y-61756961D01*
X122072989Y-61711206D01*
X122124500Y-61700000D01*
X123724999Y-61700000D01*
X123724999Y-61650028D01*
X123724998Y-61650013D01*
X123714505Y-61547302D01*
X123659358Y-61380880D01*
X123659356Y-61380875D01*
X123567315Y-61231654D01*
X123443345Y-61107684D01*
X123294124Y-61015643D01*
X123294119Y-61015641D01*
X123201859Y-60985069D01*
X123144414Y-60945296D01*
X123117591Y-60880780D01*
X123129906Y-60812004D01*
X123177449Y-60760804D01*
X123197533Y-60751180D01*
X123217326Y-60743798D01*
X123217331Y-60743796D01*
X123332546Y-60657546D01*
X123418796Y-60542331D01*
X123469091Y-60407483D01*
X123475500Y-60347873D01*
X123475499Y-59752128D01*
X123469091Y-59692517D01*
X123456628Y-59659103D01*
X123418797Y-59557671D01*
X123418793Y-59557664D01*
X123332547Y-59442455D01*
X123332544Y-59442452D01*
X123217335Y-59356206D01*
X123217328Y-59356202D01*
X123082482Y-59305908D01*
X123082483Y-59305908D01*
X123022883Y-59299501D01*
X123022881Y-59299500D01*
X123022873Y-59299500D01*
X123022864Y-59299500D01*
X121977129Y-59299500D01*
X121977123Y-59299501D01*
X121917516Y-59305908D01*
X121782671Y-59356202D01*
X121782669Y-59356203D01*
X121749086Y-59381343D01*
X121683621Y-59405759D01*
X121615348Y-59390906D01*
X121605890Y-59385179D01*
X121605498Y-59384917D01*
X121605493Y-59384914D01*
X121468917Y-59328343D01*
X121468907Y-59328340D01*
X121323920Y-59299500D01*
X121323918Y-59299500D01*
X121176082Y-59299500D01*
X121176080Y-59299500D01*
X121031092Y-59328340D01*
X121031086Y-59328342D01*
X120894508Y-59384914D01*
X120894493Y-59384923D01*
X120894101Y-59385185D01*
X120893864Y-59385259D01*
X120889131Y-59387789D01*
X120888650Y-59386890D01*
X120827421Y-59406056D01*
X120760043Y-59387563D01*
X120750914Y-59381344D01*
X120717331Y-59356204D01*
X120717329Y-59356203D01*
X120717328Y-59356202D01*
X120582482Y-59305908D01*
X120582483Y-59305908D01*
X120522883Y-59299501D01*
X120522881Y-59299500D01*
X120522873Y-59299500D01*
X120522865Y-59299500D01*
X116644100Y-59299500D01*
X116577061Y-59279815D01*
X116531306Y-59227011D01*
X116520100Y-59175500D01*
X116520100Y-59038527D01*
X116520100Y-59038525D01*
X116482584Y-58898515D01*
X116463762Y-58865915D01*
X116410111Y-58772988D01*
X116410106Y-58772982D01*
X116381419Y-58744295D01*
X116347934Y-58682972D01*
X116345100Y-58656614D01*
X116345100Y-54979625D01*
X119988600Y-54979625D01*
X119988600Y-55124575D01*
X120026116Y-55264585D01*
X120026117Y-55264588D01*
X120098588Y-55390111D01*
X120098590Y-55390113D01*
X120098591Y-55390115D01*
X120201085Y-55492609D01*
X120201086Y-55492610D01*
X120201088Y-55492611D01*
X120326611Y-55565082D01*
X120326612Y-55565082D01*
X120326615Y-55565084D01*
X120466625Y-55602600D01*
X120466628Y-55602600D01*
X120611572Y-55602600D01*
X120611575Y-55602600D01*
X120751585Y-55565084D01*
X120877115Y-55492609D01*
X120979609Y-55390115D01*
X121052084Y-55264585D01*
X121052085Y-55264579D01*
X121055192Y-55257081D01*
X121056384Y-55257574D01*
X121088419Y-55205010D01*
X121151263Y-55174475D01*
X121220639Y-55182763D01*
X121233830Y-55189365D01*
X121325315Y-55242184D01*
X121465325Y-55279700D01*
X121505901Y-55279700D01*
X121572940Y-55299385D01*
X121593582Y-55316019D01*
X123983181Y-57705618D01*
X124016666Y-57766941D01*
X124019500Y-57793299D01*
X124019500Y-59353514D01*
X123999815Y-59420553D01*
X123983181Y-59441195D01*
X123954493Y-59469882D01*
X123954488Y-59469888D01*
X123882017Y-59595411D01*
X123882016Y-59595415D01*
X123844500Y-59735425D01*
X123844500Y-59880375D01*
X123882016Y-60020385D01*
X123882017Y-60020388D01*
X123954488Y-60145911D01*
X123954490Y-60145913D01*
X123954491Y-60145915D01*
X124056985Y-60248409D01*
X124056986Y-60248410D01*
X124056988Y-60248411D01*
X124182511Y-60320882D01*
X124182512Y-60320882D01*
X124182515Y-60320884D01*
X124322525Y-60358400D01*
X124322528Y-60358400D01*
X124467472Y-60358400D01*
X124467475Y-60358400D01*
X124607485Y-60320884D01*
X124733015Y-60248409D01*
X124835509Y-60145915D01*
X124907984Y-60020385D01*
X124945500Y-59880375D01*
X124945500Y-59735425D01*
X124907984Y-59595415D01*
X124886192Y-59557671D01*
X124835511Y-59469888D01*
X124835506Y-59469882D01*
X124806819Y-59441195D01*
X124773334Y-59379872D01*
X124770500Y-59353514D01*
X124770500Y-57536967D01*
X124770500Y-57536965D01*
X124744910Y-57441462D01*
X124695475Y-57355838D01*
X124625562Y-57285925D01*
X122124619Y-54784982D01*
X122091134Y-54723659D01*
X122088300Y-54697301D01*
X122088300Y-54656727D01*
X122088300Y-54656725D01*
X122050784Y-54516715D01*
X122042750Y-54502799D01*
X122026278Y-54434899D01*
X122049131Y-54368872D01*
X122104053Y-54325682D01*
X122150138Y-54316800D01*
X127668316Y-54316800D01*
X127735355Y-54336485D01*
X127781110Y-54389289D01*
X127791054Y-54458447D01*
X127788091Y-54472892D01*
X127782000Y-54495623D01*
X127782000Y-54495625D01*
X127782000Y-54640575D01*
X127819516Y-54780585D01*
X127819517Y-54780588D01*
X127891988Y-54906111D01*
X127891993Y-54906117D01*
X127920681Y-54934805D01*
X127935384Y-54961732D01*
X127951977Y-54987551D01*
X127952868Y-54993751D01*
X127954166Y-54996128D01*
X127957000Y-55022486D01*
X127957000Y-55024700D01*
X127937315Y-55091739D01*
X127920681Y-55112381D01*
X127747782Y-55285281D01*
X127686459Y-55318766D01*
X127660101Y-55321600D01*
X127619525Y-55321600D01*
X127490993Y-55356040D01*
X127479511Y-55359117D01*
X127353988Y-55431588D01*
X127353982Y-55431593D01*
X127251493Y-55534082D01*
X127251488Y-55534088D01*
X127179017Y-55659611D01*
X127179016Y-55659615D01*
X127141500Y-55799625D01*
X127141500Y-55944575D01*
X127147661Y-55967567D01*
X127179017Y-56084588D01*
X127251488Y-56210111D01*
X127251490Y-56210113D01*
X127251491Y-56210115D01*
X127353985Y-56312609D01*
X127353986Y-56312610D01*
X127353988Y-56312611D01*
X127479511Y-56385082D01*
X127479512Y-56385082D01*
X127479515Y-56385084D01*
X127619525Y-56422600D01*
X127619528Y-56422600D01*
X127764472Y-56422600D01*
X127764475Y-56422600D01*
X127904485Y-56385084D01*
X128030015Y-56312609D01*
X128132509Y-56210115D01*
X128204984Y-56084585D01*
X128242500Y-55944575D01*
X128242500Y-55903999D01*
X128262185Y-55836960D01*
X128278819Y-55816318D01*
X128435526Y-55659611D01*
X128632975Y-55462163D01*
X128682411Y-55376537D01*
X128708000Y-55281036D01*
X128708000Y-55182164D01*
X128708000Y-55022486D01*
X128727685Y-54955447D01*
X128744319Y-54934805D01*
X128773009Y-54906115D01*
X128845484Y-54780585D01*
X128883000Y-54640575D01*
X128883000Y-54495625D01*
X128876909Y-54472892D01*
X128877504Y-54447898D01*
X128873946Y-54423153D01*
X128878321Y-54413572D01*
X128878572Y-54403042D01*
X128892585Y-54382337D01*
X128902971Y-54359597D01*
X128911832Y-54353902D01*
X128917736Y-54345180D01*
X128940716Y-54335339D01*
X128961749Y-54321823D01*
X128977606Y-54319543D01*
X128981964Y-54317677D01*
X128996684Y-54316800D01*
X129240601Y-54316800D01*
X129307640Y-54336485D01*
X129328282Y-54353119D01*
X129574281Y-54599118D01*
X129607766Y-54660441D01*
X129610600Y-54686799D01*
X129610600Y-54727375D01*
X129635577Y-54820588D01*
X129648117Y-54867388D01*
X129720588Y-54992911D01*
X129720590Y-54992913D01*
X129720591Y-54992915D01*
X129823085Y-55095409D01*
X129823086Y-55095410D01*
X129823088Y-55095411D01*
X129948611Y-55167882D01*
X129948612Y-55167882D01*
X129948615Y-55167884D01*
X130088625Y-55205400D01*
X130088628Y-55205400D01*
X130233572Y-55205400D01*
X130233575Y-55205400D01*
X130373585Y-55167884D01*
X130499115Y-55095409D01*
X130601609Y-54992915D01*
X130674084Y-54867385D01*
X130711600Y-54727375D01*
X130711600Y-54582425D01*
X130674084Y-54442415D01*
X130657431Y-54413572D01*
X130601611Y-54316888D01*
X130601606Y-54316882D01*
X130499117Y-54214393D01*
X130499111Y-54214388D01*
X130373588Y-54141917D01*
X130373589Y-54141917D01*
X130362106Y-54138840D01*
X130233575Y-54104400D01*
X130233572Y-54104400D01*
X130193000Y-54104400D01*
X130125961Y-54084715D01*
X130105319Y-54068081D01*
X129692323Y-53655086D01*
X129678063Y-53640826D01*
X129678062Y-53640825D01*
X129592438Y-53591390D01*
X129544686Y-53578595D01*
X129532599Y-53575356D01*
X129532595Y-53575354D01*
X129496936Y-53565800D01*
X129496935Y-53565800D01*
X121488936Y-53565800D01*
X121390064Y-53565800D01*
X121342312Y-53578595D01*
X121342311Y-53578594D01*
X121294563Y-53591389D01*
X121294562Y-53591389D01*
X121208935Y-53640827D01*
X120745363Y-54104400D01*
X120308538Y-54541225D01*
X120300375Y-54549388D01*
X120274701Y-54569087D01*
X120201085Y-54611590D01*
X120098590Y-54714086D01*
X120098588Y-54714088D01*
X120026117Y-54839611D01*
X120026116Y-54839615D01*
X119988600Y-54979625D01*
X116345100Y-54979625D01*
X116345100Y-53938899D01*
X116364785Y-53871860D01*
X116381419Y-53851218D01*
X117519618Y-52713019D01*
X117580941Y-52679534D01*
X117607299Y-52676700D01*
X117647872Y-52676700D01*
X117647875Y-52676700D01*
X117787885Y-52639184D01*
X117913415Y-52566709D01*
X118015909Y-52464215D01*
X118088384Y-52338685D01*
X118125900Y-52198675D01*
X118125900Y-52053725D01*
X118088384Y-51913715D01*
X118080464Y-51899998D01*
X118015911Y-51788188D01*
X118015906Y-51788182D01*
X117913417Y-51685693D01*
X117913411Y-51685688D01*
X117787888Y-51613217D01*
X117787889Y-51613217D01*
X117776406Y-51610140D01*
X117647875Y-51575700D01*
X117502925Y-51575700D01*
X117374393Y-51610140D01*
X117362911Y-51613217D01*
X117237388Y-51685688D01*
X117237382Y-51685693D01*
X117134893Y-51788182D01*
X117134888Y-51788188D01*
X117062417Y-51913711D01*
X117061765Y-51916146D01*
X117024900Y-52053725D01*
X117024900Y-52053727D01*
X117024900Y-52094301D01*
X117005215Y-52161340D01*
X116988581Y-52181982D01*
X115669126Y-53501436D01*
X115619691Y-53587059D01*
X115619691Y-53587060D01*
X115619690Y-53587062D01*
X115594100Y-53682565D01*
X115594100Y-53682567D01*
X115594100Y-58656614D01*
X115574415Y-58723653D01*
X115557781Y-58744295D01*
X115529093Y-58772982D01*
X115529088Y-58772988D01*
X115456617Y-58898511D01*
X115456616Y-58898515D01*
X115419100Y-59038525D01*
X115419100Y-59038527D01*
X115419100Y-59175500D01*
X115399415Y-59242539D01*
X115346611Y-59288294D01*
X115295100Y-59299500D01*
X114477129Y-59299500D01*
X114477123Y-59299501D01*
X114417516Y-59305908D01*
X114282671Y-59356202D01*
X114282664Y-59356206D01*
X114167455Y-59442452D01*
X114167452Y-59442455D01*
X114081206Y-59557664D01*
X114081202Y-59557671D01*
X114040955Y-59665581D01*
X114030909Y-59692517D01*
X114024500Y-59752127D01*
X114024500Y-59752134D01*
X114024500Y-59752135D01*
X114024500Y-60347870D01*
X114024501Y-60347876D01*
X114030908Y-60407483D01*
X114081202Y-60542328D01*
X114081206Y-60542335D01*
X114167452Y-60657544D01*
X114167455Y-60657547D01*
X114282664Y-60743793D01*
X114282673Y-60743798D01*
X114302468Y-60751181D01*
X114358402Y-60793051D01*
X114382820Y-60858515D01*
X114367969Y-60926788D01*
X114318565Y-60976194D01*
X114298141Y-60985069D01*
X114205878Y-61015642D01*
X114205875Y-61015643D01*
X114056654Y-61107684D01*
X113932684Y-61231654D01*
X113840643Y-61380875D01*
X113840641Y-61380880D01*
X113785494Y-61547302D01*
X113785493Y-61547309D01*
X113775000Y-61650013D01*
X113775000Y-61700000D01*
X120375500Y-61700000D01*
X120442539Y-61719685D01*
X120488294Y-61772489D01*
X120499500Y-61824000D01*
X120499500Y-62076000D01*
X120479815Y-62143039D01*
X120427011Y-62188794D01*
X120375500Y-62200000D01*
X120250000Y-62200000D01*
X120250000Y-62978638D01*
X120230315Y-63045677D01*
X120213681Y-63066319D01*
X120200000Y-63080000D01*
X120200000Y-63750000D01*
X120949999Y-63750000D01*
X120949999Y-63576829D01*
X120969684Y-63509790D01*
X121022488Y-63464035D01*
X121091646Y-63454091D01*
X121155202Y-63483116D01*
X121161680Y-63489148D01*
X121772081Y-64099549D01*
X121805566Y-64160872D01*
X121808400Y-64187230D01*
X121808400Y-65782111D01*
X121788715Y-65849150D01*
X121735911Y-65894905D01*
X121666753Y-65904849D01*
X121652307Y-65901886D01*
X121626254Y-65894905D01*
X121571375Y-65880200D01*
X121426425Y-65880200D01*
X121297893Y-65914640D01*
X121286411Y-65917717D01*
X121160888Y-65990188D01*
X121160882Y-65990193D01*
X121058393Y-66092682D01*
X121058388Y-66092688D01*
X120985917Y-66218211D01*
X120985916Y-66218215D01*
X120948400Y-66358225D01*
X120948400Y-66358227D01*
X120948400Y-66398801D01*
X120928715Y-66465840D01*
X120912081Y-66486482D01*
X120240982Y-67157581D01*
X120179659Y-67191066D01*
X120153301Y-67193900D01*
X119320158Y-67193900D01*
X119253119Y-67174215D01*
X119207364Y-67121411D01*
X119196869Y-67056644D01*
X119200499Y-67022881D01*
X119200500Y-67022873D01*
X119200499Y-65977128D01*
X119195299Y-65928757D01*
X119194091Y-65917516D01*
X119143797Y-65782671D01*
X119143793Y-65782664D01*
X119057547Y-65667455D01*
X119057544Y-65667452D01*
X118942335Y-65581206D01*
X118942328Y-65581202D01*
X118807486Y-65530910D01*
X118807485Y-65530909D01*
X118807483Y-65530909D01*
X118747873Y-65524500D01*
X118747863Y-65524500D01*
X118152129Y-65524500D01*
X118152123Y-65524501D01*
X118092516Y-65530908D01*
X117968000Y-65577350D01*
X117898308Y-65582334D01*
X117836986Y-65548849D01*
X117726394Y-65438257D01*
X117604419Y-65316281D01*
X117570934Y-65254958D01*
X117569599Y-65247820D01*
X117568100Y-65238265D01*
X117568100Y-65188025D01*
X117549081Y-65117047D01*
X117548060Y-65110537D01*
X117551767Y-65082167D01*
X117552449Y-65053561D01*
X117556238Y-65047961D01*
X117557115Y-65041256D01*
X117575574Y-65019392D01*
X117591611Y-64995698D01*
X117597827Y-64993036D01*
X117602189Y-64987870D01*
X117629537Y-64979457D01*
X117655840Y-64968194D01*
X117664544Y-64968688D01*
X117668971Y-64967327D01*
X117676208Y-64969351D01*
X117684635Y-64969830D01*
X117684804Y-64968261D01*
X117692513Y-64969089D01*
X117692517Y-64969091D01*
X117752127Y-64975500D01*
X118347872Y-64975499D01*
X118407483Y-64969091D01*
X118542331Y-64918796D01*
X118657546Y-64832546D01*
X118743796Y-64717331D01*
X118751180Y-64697532D01*
X118793050Y-64641598D01*
X118858514Y-64617179D01*
X118926787Y-64632029D01*
X118976194Y-64681433D01*
X118985069Y-64701859D01*
X119015641Y-64794119D01*
X119015643Y-64794124D01*
X119107684Y-64943345D01*
X119231654Y-65067315D01*
X119380875Y-65159356D01*
X119380880Y-65159358D01*
X119547302Y-65214505D01*
X119547309Y-65214506D01*
X119650019Y-65224999D01*
X120200000Y-65224999D01*
X120249972Y-65224999D01*
X120249986Y-65224998D01*
X120352697Y-65214505D01*
X120519119Y-65159358D01*
X120519124Y-65159356D01*
X120668345Y-65067315D01*
X120792315Y-64943345D01*
X120884356Y-64794124D01*
X120884358Y-64794119D01*
X120939505Y-64627697D01*
X120939506Y-64627690D01*
X120949999Y-64524986D01*
X120950000Y-64524973D01*
X120950000Y-64250000D01*
X120200000Y-64250000D01*
X120200000Y-65224999D01*
X119650019Y-65224999D01*
X119699999Y-65224998D01*
X119700000Y-65224998D01*
X119700000Y-62746362D01*
X119719685Y-62679323D01*
X119736319Y-62658681D01*
X119750000Y-62645000D01*
X119750000Y-62200000D01*
X115250000Y-62200000D01*
X115250000Y-62949999D01*
X115524972Y-62949999D01*
X115524986Y-62949998D01*
X115627697Y-62939505D01*
X115794119Y-62884358D01*
X115794124Y-62884356D01*
X115943345Y-62792315D01*
X116067315Y-62668345D01*
X116144461Y-62543273D01*
X116196409Y-62496549D01*
X116265372Y-62485326D01*
X116329454Y-62513170D01*
X116355539Y-62543273D01*
X116432684Y-62668345D01*
X116556654Y-62792315D01*
X116705875Y-62884356D01*
X116705880Y-62884358D01*
X116872302Y-62939505D01*
X116872309Y-62939506D01*
X116975019Y-62949999D01*
X117360546Y-62949999D01*
X117427585Y-62969683D01*
X117473340Y-63022487D01*
X117483284Y-63091646D01*
X117454259Y-63155201D01*
X117448231Y-63161677D01*
X117442451Y-63167457D01*
X117356206Y-63282664D01*
X117356203Y-63282670D01*
X117331535Y-63348808D01*
X117289663Y-63404741D01*
X117224199Y-63429158D01*
X117183261Y-63425249D01*
X117116275Y-63407300D01*
X116971325Y-63407300D01*
X116842793Y-63441740D01*
X116831311Y-63444817D01*
X116705788Y-63517288D01*
X116705782Y-63517293D01*
X116603293Y-63619782D01*
X116603288Y-63619788D01*
X116530817Y-63745311D01*
X116530816Y-63745315D01*
X116493300Y-63885325D01*
X116493300Y-64030275D01*
X116530816Y-64170285D01*
X116530817Y-64170288D01*
X116603288Y-64295811D01*
X116603290Y-64295813D01*
X116603291Y-64295815D01*
X116705785Y-64398309D01*
X116705786Y-64398310D01*
X116705788Y-64398311D01*
X116831311Y-64470782D01*
X116831313Y-64470783D01*
X116831315Y-64470784D01*
X116887599Y-64485865D01*
X116947258Y-64522228D01*
X116977788Y-64585075D01*
X116969494Y-64654451D01*
X116925009Y-64708329D01*
X116887600Y-64725413D01*
X116805116Y-64747515D01*
X116805111Y-64747517D01*
X116679588Y-64819988D01*
X116679582Y-64819993D01*
X116577093Y-64922482D01*
X116577088Y-64922488D01*
X116504617Y-65048011D01*
X116504616Y-65048015D01*
X116467100Y-65188025D01*
X116467100Y-65188027D01*
X116467100Y-65332974D01*
X116476594Y-65368407D01*
X116474931Y-65438257D01*
X116435768Y-65496119D01*
X116371539Y-65523623D01*
X116356820Y-65524500D01*
X116252130Y-65524500D01*
X116252123Y-65524501D01*
X116192516Y-65530908D01*
X116057671Y-65581202D01*
X116057664Y-65581206D01*
X115942455Y-65667452D01*
X115942452Y-65667455D01*
X115856206Y-65782664D01*
X115856202Y-65782671D01*
X115805908Y-65917517D01*
X115799501Y-65977116D01*
X115799501Y-65977123D01*
X115799500Y-65977135D01*
X115799500Y-66281352D01*
X115779815Y-66348391D01*
X115727011Y-66394146D01*
X115657853Y-66404090D01*
X115613500Y-66388739D01*
X115550588Y-66352417D01*
X115550589Y-66352417D01*
X115535564Y-66348391D01*
X115410575Y-66314900D01*
X115265625Y-66314900D01*
X115140636Y-66348391D01*
X115125611Y-66352417D01*
X115000088Y-66424888D01*
X115000082Y-66424893D01*
X114897593Y-66527382D01*
X114897588Y-66527388D01*
X114825117Y-66652911D01*
X114825116Y-66652915D01*
X114787600Y-66792925D01*
X114787600Y-66937875D01*
X114821547Y-67064566D01*
X114825117Y-67077888D01*
X114897588Y-67203411D01*
X114897590Y-67203413D01*
X114897591Y-67203415D01*
X115000085Y-67305909D01*
X115000086Y-67305910D01*
X115000088Y-67305911D01*
X115125611Y-67378382D01*
X115125612Y-67378382D01*
X115125615Y-67378384D01*
X115265625Y-67415900D01*
X115306201Y-67415900D01*
X115373240Y-67435585D01*
X115393882Y-67452219D01*
X115938103Y-67996441D01*
X115971588Y-68057764D01*
X115966604Y-68127456D01*
X115946218Y-68159194D01*
X115947768Y-68160355D01*
X115856206Y-68282664D01*
X115856202Y-68282671D01*
X115805908Y-68417517D01*
X115799501Y-68477116D01*
X115799501Y-68477123D01*
X115799500Y-68477135D01*
X115799500Y-69522870D01*
X115799501Y-69522876D01*
X115805908Y-69582483D01*
X115856202Y-69717328D01*
X115856206Y-69717335D01*
X115942452Y-69832544D01*
X115942455Y-69832547D01*
X116057664Y-69918793D01*
X116057671Y-69918797D01*
X116100969Y-69934946D01*
X116192517Y-69969091D01*
X116252127Y-69975500D01*
X116430671Y-69975499D01*
X116454660Y-69982542D01*
X116479484Y-69985511D01*
X116487604Y-69992215D01*
X116497710Y-69995183D01*
X116514083Y-70014079D01*
X116533361Y-70029996D01*
X116536567Y-70040027D01*
X116543465Y-70047987D01*
X116547023Y-70072734D01*
X116554636Y-70096548D01*
X116552734Y-70112452D01*
X116553409Y-70117145D01*
X116550446Y-70131592D01*
X116537958Y-70178198D01*
X116501593Y-70237859D01*
X116442374Y-70267722D01*
X116322655Y-70291535D01*
X116322645Y-70291538D01*
X116208816Y-70338687D01*
X116208807Y-70338692D01*
X116106367Y-70407141D01*
X116106363Y-70407144D01*
X116019244Y-70494263D01*
X116019241Y-70494267D01*
X115950792Y-70596707D01*
X115950787Y-70596716D01*
X115903638Y-70710545D01*
X115903635Y-70710555D01*
X115879600Y-70831389D01*
X115879600Y-82066710D01*
X115903635Y-82187544D01*
X115903638Y-82187554D01*
X115950787Y-82301383D01*
X115950792Y-82301392D01*
X116019239Y-82403830D01*
X116021349Y-82406400D01*
X116022033Y-82408010D01*
X116022626Y-82408898D01*
X116022457Y-82409010D01*
X116048666Y-82470709D01*
X116049500Y-82485070D01*
X116049500Y-83100647D01*
X116029815Y-83167686D01*
X115977011Y-83213441D01*
X115907853Y-83223385D01*
X115844297Y-83194360D01*
X115837819Y-83188328D01*
X114996019Y-82346528D01*
X114962534Y-82285205D01*
X114959700Y-82258847D01*
X114959700Y-70114893D01*
X114959699Y-70114889D01*
X114951314Y-70072734D01*
X114935663Y-69994048D01*
X114888511Y-69880214D01*
X114888510Y-69880213D01*
X114888507Y-69880207D01*
X114820058Y-69777767D01*
X114820055Y-69777763D01*
X114732936Y-69690644D01*
X114732932Y-69690641D01*
X114630492Y-69622192D01*
X114630483Y-69622187D01*
X114516654Y-69575038D01*
X114516655Y-69575038D01*
X114516652Y-69575037D01*
X114516648Y-69575036D01*
X114516644Y-69575035D01*
X114395810Y-69551000D01*
X114395806Y-69551000D01*
X114272594Y-69551000D01*
X114272589Y-69551000D01*
X114151755Y-69575035D01*
X114151745Y-69575038D01*
X114037916Y-69622187D01*
X114037907Y-69622192D01*
X113935467Y-69690641D01*
X113935463Y-69690644D01*
X113848344Y-69777763D01*
X113848341Y-69777767D01*
X113779892Y-69880207D01*
X113779887Y-69880216D01*
X113732738Y-69994045D01*
X113732735Y-69994055D01*
X113708700Y-70114889D01*
X101875500Y-70114889D01*
X101875500Y-62249986D01*
X113775001Y-62249986D01*
X113785494Y-62352697D01*
X113840641Y-62519119D01*
X113840643Y-62519124D01*
X113932684Y-62668345D01*
X114056654Y-62792315D01*
X114205875Y-62884356D01*
X114205880Y-62884358D01*
X114372302Y-62939505D01*
X114372309Y-62939506D01*
X114475019Y-62949999D01*
X114749999Y-62949999D01*
X114750000Y-62949998D01*
X114750000Y-62200000D01*
X113775001Y-62200000D01*
X113775001Y-62249986D01*
X101875500Y-62249986D01*
X101875500Y-55573389D01*
X104399500Y-55573389D01*
X104399500Y-55746610D01*
X104424427Y-55903999D01*
X104426598Y-55917701D01*
X104480127Y-56082445D01*
X104558768Y-56236788D01*
X104660586Y-56376928D01*
X104783072Y-56499414D01*
X104923212Y-56601232D01*
X105077555Y-56679873D01*
X105242299Y-56733402D01*
X105413389Y-56760500D01*
X105413390Y-56760500D01*
X105586610Y-56760500D01*
X105586611Y-56760500D01*
X105757701Y-56733402D01*
X105922445Y-56679873D01*
X106076788Y-56601232D01*
X106216928Y-56499414D01*
X106339414Y-56376928D01*
X106441232Y-56236788D01*
X106519873Y-56082445D01*
X106573402Y-55917701D01*
X106600500Y-55746611D01*
X106600500Y-55573389D01*
X106573402Y-55402299D01*
X106519873Y-55237555D01*
X106441232Y-55083212D01*
X106339414Y-54943072D01*
X106216928Y-54820586D01*
X106076788Y-54718768D01*
X105922445Y-54640127D01*
X105757701Y-54586598D01*
X105757699Y-54586597D01*
X105757698Y-54586597D01*
X105626271Y-54565781D01*
X105586611Y-54559500D01*
X105413389Y-54559500D01*
X105373728Y-54565781D01*
X105242302Y-54586597D01*
X105077552Y-54640128D01*
X104923211Y-54718768D01*
X104882065Y-54748663D01*
X104783072Y-54820586D01*
X104783070Y-54820588D01*
X104783069Y-54820588D01*
X104660588Y-54943069D01*
X104660588Y-54943070D01*
X104660586Y-54943072D01*
X104622038Y-54996128D01*
X104558768Y-55083211D01*
X104480128Y-55237552D01*
X104426597Y-55402302D01*
X104399500Y-55573389D01*
X101875500Y-55573389D01*
X101875500Y-53033389D01*
X104399500Y-53033389D01*
X104399500Y-53206611D01*
X104426598Y-53377701D01*
X104472246Y-53518191D01*
X104480128Y-53542447D01*
X104519990Y-53620682D01*
X104558768Y-53696788D01*
X104660586Y-53836928D01*
X104783072Y-53959414D01*
X104923212Y-54061232D01*
X105077555Y-54139873D01*
X105242299Y-54193402D01*
X105413389Y-54220500D01*
X105413390Y-54220500D01*
X105586610Y-54220500D01*
X105586611Y-54220500D01*
X105757701Y-54193402D01*
X105922445Y-54139873D01*
X106076788Y-54061232D01*
X106216928Y-53959414D01*
X106339414Y-53836928D01*
X106441232Y-53696788D01*
X106519873Y-53542445D01*
X106573402Y-53377701D01*
X106600500Y-53206611D01*
X106600500Y-53033389D01*
X106573402Y-52862299D01*
X106519873Y-52697555D01*
X106441232Y-52543212D01*
X106339414Y-52403072D01*
X106216928Y-52280586D01*
X106076788Y-52178768D01*
X105922445Y-52100127D01*
X105757701Y-52046598D01*
X105757699Y-52046597D01*
X105757698Y-52046597D01*
X105626271Y-52025781D01*
X105586611Y-52019500D01*
X105413389Y-52019500D01*
X105373728Y-52025781D01*
X105242302Y-52046597D01*
X105220358Y-52053727D01*
X105095486Y-52094301D01*
X105077552Y-52100128D01*
X104923211Y-52178768D01*
X104895812Y-52198675D01*
X104783072Y-52280586D01*
X104783070Y-52280588D01*
X104783069Y-52280588D01*
X104660588Y-52403069D01*
X104660588Y-52403070D01*
X104660586Y-52403072D01*
X104616859Y-52463256D01*
X104558768Y-52543211D01*
X104480128Y-52697552D01*
X104426597Y-52862302D01*
X104399500Y-53033389D01*
X101875500Y-53033389D01*
X101875500Y-50493389D01*
X104399500Y-50493389D01*
X104399500Y-50666610D01*
X104419524Y-50793041D01*
X104426598Y-50837701D01*
X104480127Y-51002445D01*
X104558768Y-51156788D01*
X104660586Y-51296928D01*
X104783072Y-51419414D01*
X104923212Y-51521232D01*
X105077555Y-51599873D01*
X105242299Y-51653402D01*
X105413389Y-51680500D01*
X105413390Y-51680500D01*
X105586610Y-51680500D01*
X105586611Y-51680500D01*
X105757701Y-51653402D01*
X105922445Y-51599873D01*
X106076788Y-51521232D01*
X106216928Y-51419414D01*
X106339414Y-51296928D01*
X106441232Y-51156788D01*
X106519873Y-51002445D01*
X106573402Y-50837701D01*
X106600500Y-50666611D01*
X106600500Y-50493389D01*
X106573402Y-50322299D01*
X106519873Y-50157555D01*
X106441232Y-50003212D01*
X106339414Y-49863072D01*
X106216928Y-49740586D01*
X106076788Y-49638768D01*
X105922445Y-49560127D01*
X105757701Y-49506598D01*
X105757699Y-49506597D01*
X105757698Y-49506597D01*
X105626271Y-49485781D01*
X105586611Y-49479500D01*
X105413389Y-49479500D01*
X105373728Y-49485781D01*
X105242302Y-49506597D01*
X105077552Y-49560128D01*
X104923211Y-49638768D01*
X104864694Y-49681284D01*
X104783072Y-49740586D01*
X104783070Y-49740588D01*
X104783069Y-49740588D01*
X104660588Y-49863069D01*
X104660588Y-49863070D01*
X104660586Y-49863072D01*
X104626133Y-49910493D01*
X104558768Y-50003211D01*
X104480128Y-50157552D01*
X104426597Y-50322302D01*
X104399500Y-50493389D01*
X101875500Y-50493389D01*
X101875500Y-47953389D01*
X104399500Y-47953389D01*
X104399500Y-48126611D01*
X104407677Y-48178239D01*
X104416424Y-48233469D01*
X104426598Y-48297701D01*
X104480127Y-48462445D01*
X104558768Y-48616788D01*
X104660586Y-48756928D01*
X104783072Y-48879414D01*
X104923212Y-48981232D01*
X105077555Y-49059873D01*
X105242299Y-49113402D01*
X105413389Y-49140500D01*
X105413390Y-49140500D01*
X105586610Y-49140500D01*
X105586611Y-49140500D01*
X105757701Y-49113402D01*
X105811797Y-49095825D01*
X121103400Y-49095825D01*
X121103400Y-49240775D01*
X121140916Y-49380785D01*
X121140917Y-49380788D01*
X121213388Y-49506311D01*
X121213390Y-49506313D01*
X121213391Y-49506315D01*
X121315885Y-49608809D01*
X121315886Y-49608810D01*
X121315888Y-49608811D01*
X121441411Y-49681282D01*
X121441412Y-49681282D01*
X121441415Y-49681284D01*
X121581425Y-49718800D01*
X121581428Y-49718800D01*
X121726372Y-49718800D01*
X121726375Y-49718800D01*
X121866385Y-49681284D01*
X121991915Y-49608809D01*
X122094409Y-49506315D01*
X122166884Y-49380785D01*
X122204400Y-49240775D01*
X122204400Y-49200199D01*
X122224085Y-49133160D01*
X122240719Y-49112518D01*
X123081219Y-48272019D01*
X123142542Y-48238534D01*
X123168900Y-48235700D01*
X123887614Y-48235700D01*
X123954653Y-48255385D01*
X123975295Y-48272019D01*
X123985785Y-48282509D01*
X123985786Y-48282510D01*
X123985788Y-48282511D01*
X124111311Y-48354982D01*
X124111312Y-48354982D01*
X124111315Y-48354984D01*
X124251325Y-48392500D01*
X124251328Y-48392500D01*
X124396272Y-48392500D01*
X124396275Y-48392500D01*
X124536285Y-48354984D01*
X124562499Y-48339848D01*
X124630399Y-48323376D01*
X124696426Y-48346228D01*
X124739617Y-48401149D01*
X124748500Y-48447236D01*
X124748500Y-49998435D01*
X124774090Y-50093938D01*
X124820615Y-50174522D01*
X124823526Y-50179563D01*
X125375681Y-50731718D01*
X125409166Y-50793041D01*
X125412000Y-50819399D01*
X125412000Y-51497870D01*
X125412001Y-51497876D01*
X125418408Y-51557483D01*
X125468702Y-51692328D01*
X125468706Y-51692335D01*
X125554952Y-51807544D01*
X125554955Y-51807547D01*
X125670164Y-51893793D01*
X125670171Y-51893797D01*
X125686797Y-51899998D01*
X125805017Y-51944091D01*
X125864627Y-51950500D01*
X126485372Y-51950499D01*
X126544983Y-51944091D01*
X126679831Y-51893796D01*
X126795046Y-51807546D01*
X126881296Y-51692331D01*
X126931591Y-51557483D01*
X126938000Y-51497873D01*
X126937999Y-50502128D01*
X126931591Y-50442517D01*
X126918594Y-50407671D01*
X126881297Y-50307671D01*
X126881293Y-50307664D01*
X126795047Y-50192455D01*
X126795044Y-50192452D01*
X126679835Y-50106206D01*
X126679828Y-50106202D01*
X126544986Y-50055910D01*
X126544985Y-50055909D01*
X126544983Y-50055909D01*
X126485373Y-50049500D01*
X126485363Y-50049500D01*
X125864629Y-50049500D01*
X125864618Y-50049501D01*
X125825108Y-50053748D01*
X125756349Y-50041340D01*
X125724176Y-50018139D01*
X125535819Y-49829782D01*
X125502334Y-49768459D01*
X125499500Y-49742101D01*
X125499500Y-48508734D01*
X125519185Y-48441695D01*
X125571989Y-48395940D01*
X125641147Y-48385996D01*
X125666833Y-48392552D01*
X125675917Y-48395940D01*
X125805017Y-48444091D01*
X125864627Y-48450500D01*
X126485372Y-48450499D01*
X126544983Y-48444091D01*
X126679831Y-48393796D01*
X126795046Y-48307546D01*
X126881296Y-48192331D01*
X126931591Y-48057483D01*
X126938000Y-47997873D01*
X126937999Y-47002135D01*
X127237000Y-47002135D01*
X127237000Y-47997870D01*
X127237001Y-47997876D01*
X127243408Y-48057483D01*
X127293702Y-48192328D01*
X127293706Y-48192335D01*
X127379952Y-48307544D01*
X127379955Y-48307547D01*
X127495164Y-48393793D01*
X127495169Y-48393796D01*
X127543832Y-48411946D01*
X127599766Y-48453816D01*
X127624184Y-48519280D01*
X127624500Y-48528128D01*
X127624500Y-49971871D01*
X127604815Y-50038910D01*
X127552011Y-50084665D01*
X127543835Y-50088052D01*
X127495167Y-50106204D01*
X127495165Y-50106205D01*
X127379955Y-50192452D01*
X127379952Y-50192455D01*
X127293706Y-50307664D01*
X127293702Y-50307671D01*
X127243408Y-50442517D01*
X127237939Y-50493389D01*
X127237001Y-50502123D01*
X127237000Y-50502135D01*
X127237000Y-51497870D01*
X127237001Y-51497876D01*
X127243408Y-51557483D01*
X127293702Y-51692328D01*
X127293706Y-51692335D01*
X127379952Y-51807544D01*
X127379955Y-51807547D01*
X127495164Y-51893793D01*
X127495171Y-51893797D01*
X127511797Y-51899998D01*
X127630017Y-51944091D01*
X127689627Y-51950500D01*
X128310372Y-51950499D01*
X128369983Y-51944091D01*
X128504831Y-51893796D01*
X128620046Y-51807546D01*
X128706296Y-51692331D01*
X128756591Y-51557483D01*
X128763000Y-51497873D01*
X128762999Y-50502128D01*
X128756591Y-50442517D01*
X128743594Y-50407671D01*
X128706297Y-50307671D01*
X128706293Y-50307664D01*
X128620047Y-50192455D01*
X128620044Y-50192452D01*
X128504834Y-50106205D01*
X128504832Y-50106204D01*
X128456165Y-50088052D01*
X128400232Y-50046180D01*
X128375816Y-49980716D01*
X128375500Y-49971871D01*
X128375500Y-48528128D01*
X128395185Y-48461089D01*
X128447989Y-48415334D01*
X128456153Y-48411951D01*
X128504831Y-48393796D01*
X128620046Y-48307546D01*
X128706296Y-48192331D01*
X128756591Y-48057483D01*
X128763000Y-47997873D01*
X128762999Y-47002128D01*
X128756591Y-46942517D01*
X128744647Y-46910494D01*
X128706297Y-46807671D01*
X128706293Y-46807664D01*
X128620047Y-46692455D01*
X128620044Y-46692452D01*
X128504834Y-46606205D01*
X128504832Y-46606204D01*
X128456165Y-46588052D01*
X128400232Y-46546180D01*
X128375816Y-46480716D01*
X128375500Y-46471871D01*
X128375500Y-43999499D01*
X128395185Y-43932460D01*
X128447989Y-43886705D01*
X128499500Y-43875499D01*
X128502118Y-43875499D01*
X128502127Y-43875500D01*
X129097872Y-43875499D01*
X129157483Y-43869091D01*
X129157482Y-43869091D01*
X129165196Y-43868262D01*
X129165397Y-43870134D01*
X129225109Y-43873328D01*
X129271552Y-43902589D01*
X130181281Y-44812318D01*
X130214766Y-44873641D01*
X130209782Y-44943333D01*
X130181281Y-44987680D01*
X129282238Y-45886725D01*
X129212327Y-45956635D01*
X129212325Y-45956637D01*
X129212325Y-45956638D01*
X129178390Y-46015416D01*
X129154727Y-46056401D01*
X129152455Y-46055089D01*
X129133422Y-46088051D01*
X129072293Y-46149181D01*
X129072291Y-46149185D01*
X128999816Y-46274715D01*
X128962300Y-46414725D01*
X128962300Y-46559675D01*
X128997879Y-46692455D01*
X128999817Y-46699688D01*
X129072288Y-46825211D01*
X129072290Y-46825213D01*
X129072291Y-46825215D01*
X129174785Y-46927709D01*
X129174786Y-46927710D01*
X129174788Y-46927711D01*
X129300311Y-47000182D01*
X129300312Y-47000182D01*
X129300315Y-47000184D01*
X129440325Y-47037700D01*
X129440328Y-47037700D01*
X129585272Y-47037700D01*
X129585275Y-47037700D01*
X129725285Y-47000184D01*
X129850815Y-46927709D01*
X129953309Y-46825215D01*
X130025784Y-46699685D01*
X130063300Y-46559675D01*
X130063300Y-46414725D01*
X130029633Y-46289079D01*
X130031296Y-46219234D01*
X130061725Y-46169311D01*
X130579651Y-45651385D01*
X130640972Y-45617902D01*
X130690879Y-45617325D01*
X130701005Y-45619283D01*
X130767517Y-45644091D01*
X130827127Y-45650500D01*
X130862384Y-45650499D01*
X130874049Y-45652756D01*
X130894954Y-45663551D01*
X130917536Y-45670181D01*
X130925426Y-45679287D01*
X130936130Y-45684814D01*
X130947880Y-45705198D01*
X130963292Y-45722983D01*
X130966419Y-45737358D01*
X130971024Y-45745346D01*
X130970503Y-45756128D01*
X130974500Y-45774499D01*
X130974500Y-47025500D01*
X130954815Y-47092539D01*
X130902011Y-47138294D01*
X130850505Y-47149500D01*
X130827132Y-47149500D01*
X130827123Y-47149501D01*
X130767516Y-47155908D01*
X130632671Y-47206202D01*
X130632664Y-47206206D01*
X130517455Y-47292452D01*
X130517452Y-47292455D01*
X130431206Y-47407664D01*
X130431202Y-47407671D01*
X130380910Y-47542513D01*
X130380909Y-47542517D01*
X130374500Y-47602127D01*
X130374500Y-47602134D01*
X130374500Y-47602135D01*
X130374500Y-48197870D01*
X130374501Y-48197876D01*
X130380908Y-48257483D01*
X130431202Y-48392328D01*
X130431206Y-48392335D01*
X130517452Y-48507544D01*
X130517455Y-48507547D01*
X130632664Y-48593793D01*
X130632671Y-48593797D01*
X130677618Y-48610561D01*
X130767517Y-48644091D01*
X130827127Y-48650500D01*
X130850497Y-48650499D01*
X130917536Y-48670181D01*
X130963292Y-48722983D01*
X130974500Y-48774499D01*
X130974500Y-50025500D01*
X130954815Y-50092539D01*
X130902011Y-50138294D01*
X130850505Y-50149500D01*
X130827132Y-50149500D01*
X130827123Y-50149501D01*
X130767516Y-50155908D01*
X130632671Y-50206202D01*
X130632664Y-50206206D01*
X130517455Y-50292452D01*
X130517452Y-50292455D01*
X130431206Y-50407664D01*
X130431202Y-50407671D01*
X130395970Y-50502135D01*
X130380909Y-50542517D01*
X130374500Y-50602127D01*
X130374500Y-50602134D01*
X130374500Y-50602135D01*
X130374500Y-51197870D01*
X130374501Y-51197876D01*
X130380908Y-51257483D01*
X130431202Y-51392328D01*
X130431206Y-51392335D01*
X130517452Y-51507544D01*
X130517455Y-51507547D01*
X130632664Y-51593793D01*
X130632671Y-51593797D01*
X130648962Y-51599873D01*
X130767517Y-51644091D01*
X130827127Y-51650500D01*
X131518100Y-51650499D01*
X131585139Y-51670183D01*
X131605781Y-51686818D01*
X136021825Y-56102862D01*
X136055310Y-56164185D01*
X136050326Y-56233877D01*
X136008454Y-56289810D01*
X135942990Y-56314227D01*
X135917962Y-56313483D01*
X135912776Y-56312800D01*
X135912775Y-56312800D01*
X135767825Y-56312800D01*
X135639293Y-56347240D01*
X135627811Y-56350317D01*
X135502288Y-56422788D01*
X135502282Y-56422793D01*
X135399793Y-56525282D01*
X135399788Y-56525288D01*
X135327317Y-56650811D01*
X135327316Y-56650815D01*
X135289800Y-56790825D01*
X135289800Y-56790827D01*
X135289800Y-56831401D01*
X135270115Y-56898440D01*
X135253481Y-56919082D01*
X133505982Y-58666581D01*
X133444659Y-58700066D01*
X133418301Y-58702900D01*
X132034627Y-58702900D01*
X131967588Y-58683215D01*
X131921833Y-58630411D01*
X131911889Y-58561253D01*
X131927240Y-58516900D01*
X131975282Y-58433688D01*
X131975283Y-58433686D01*
X131975284Y-58433685D01*
X132012800Y-58293675D01*
X132012800Y-58253099D01*
X132032485Y-58186060D01*
X132049119Y-58165418D01*
X132065812Y-58148725D01*
X132212675Y-58001863D01*
X132262111Y-57916237D01*
X132287700Y-57820736D01*
X132287700Y-57721864D01*
X132287700Y-54413086D01*
X132307385Y-54346047D01*
X132324019Y-54325405D01*
X132332624Y-54316800D01*
X132352709Y-54296715D01*
X132425184Y-54171185D01*
X132462700Y-54031175D01*
X132462700Y-53886225D01*
X132425184Y-53746215D01*
X132396647Y-53696788D01*
X132352711Y-53620688D01*
X132352706Y-53620682D01*
X132250217Y-53518193D01*
X132250211Y-53518188D01*
X132124688Y-53445717D01*
X132124689Y-53445717D01*
X132113206Y-53442640D01*
X131984675Y-53408200D01*
X131839725Y-53408200D01*
X131711193Y-53442640D01*
X131699711Y-53445717D01*
X131574188Y-53518188D01*
X131574182Y-53518193D01*
X131471693Y-53620682D01*
X131471688Y-53620688D01*
X131399217Y-53746211D01*
X131399216Y-53746215D01*
X131361700Y-53886225D01*
X131361700Y-54031175D01*
X131391374Y-54141917D01*
X131399217Y-54171188D01*
X131471688Y-54296711D01*
X131471693Y-54296717D01*
X131500381Y-54325405D01*
X131533866Y-54386728D01*
X131536700Y-54413086D01*
X131536700Y-57546700D01*
X131517015Y-57613739D01*
X131464211Y-57659494D01*
X131412700Y-57670700D01*
X131389825Y-57670700D01*
X131261293Y-57705140D01*
X131249811Y-57708217D01*
X131124288Y-57780688D01*
X131124282Y-57780693D01*
X131021793Y-57883182D01*
X131021788Y-57883188D01*
X130949317Y-58008711D01*
X130949316Y-58008715D01*
X130911800Y-58148725D01*
X130911800Y-58293675D01*
X130949316Y-58433685D01*
X131021791Y-58559215D01*
X131021792Y-58559216D01*
X131024351Y-58563648D01*
X131040824Y-58631549D01*
X131017972Y-58697576D01*
X131004647Y-58713329D01*
X130977588Y-58740388D01*
X130905117Y-58865911D01*
X130905116Y-58865915D01*
X130867600Y-59005925D01*
X130867600Y-59150875D01*
X130904422Y-59288294D01*
X130905117Y-59290888D01*
X130977588Y-59416411D01*
X130977590Y-59416413D01*
X130977591Y-59416415D01*
X131080085Y-59518909D01*
X131080086Y-59518910D01*
X131080088Y-59518911D01*
X131205611Y-59591382D01*
X131205612Y-59591382D01*
X131205615Y-59591384D01*
X131345625Y-59628900D01*
X131345628Y-59628900D01*
X131490572Y-59628900D01*
X131490575Y-59628900D01*
X131630585Y-59591384D01*
X131756115Y-59518909D01*
X131784805Y-59490219D01*
X131846128Y-59456734D01*
X131872486Y-59453900D01*
X133455170Y-59453900D01*
X133522209Y-59473585D01*
X133567964Y-59526389D01*
X133577908Y-59595547D01*
X133548883Y-59659103D01*
X133542851Y-59665581D01*
X130867048Y-62341383D01*
X130859489Y-62352697D01*
X130829305Y-62397872D01*
X130784919Y-62464299D01*
X130784912Y-62464311D01*
X130728343Y-62600882D01*
X130728340Y-62600892D01*
X130699500Y-62745879D01*
X130699500Y-69617440D01*
X130679815Y-69684479D01*
X130627011Y-69730234D01*
X130557853Y-69740178D01*
X130494297Y-69711153D01*
X130469962Y-69682537D01*
X130392319Y-69556659D01*
X130392316Y-69556655D01*
X130356567Y-69520906D01*
X130323082Y-69459583D01*
X130328066Y-69389891D01*
X130338710Y-69368127D01*
X130384355Y-69294126D01*
X130384358Y-69294119D01*
X130439505Y-69127697D01*
X130439506Y-69127690D01*
X130449999Y-69024986D01*
X130450000Y-69024973D01*
X130450000Y-68750000D01*
X129700000Y-68750000D01*
X129700000Y-69145000D01*
X129709976Y-69154976D01*
X129743039Y-69164685D01*
X129788794Y-69217489D01*
X129800000Y-69269000D01*
X129800000Y-71724999D01*
X129849972Y-71724999D01*
X129849986Y-71724998D01*
X129952697Y-71714505D01*
X130119119Y-71659358D01*
X130119124Y-71659356D01*
X130268345Y-71567315D01*
X130392315Y-71443345D01*
X130484356Y-71294124D01*
X130484359Y-71294117D01*
X130514930Y-71201860D01*
X130554702Y-71144415D01*
X130619218Y-71117591D01*
X130687994Y-71129906D01*
X130739194Y-71177448D01*
X130748818Y-71197529D01*
X130756203Y-71217328D01*
X130756204Y-71217331D01*
X130842454Y-71332546D01*
X130843051Y-71332993D01*
X130879063Y-71359952D01*
X130920934Y-71415885D01*
X130925918Y-71485577D01*
X130907855Y-71528108D01*
X130873537Y-71579468D01*
X130873533Y-71579475D01*
X130824499Y-71697855D01*
X130824497Y-71697861D01*
X130799500Y-71823528D01*
X130799500Y-71823531D01*
X130799500Y-71951669D01*
X130799500Y-71951671D01*
X130799499Y-71951671D01*
X130824497Y-72077338D01*
X130824499Y-72077344D01*
X130873533Y-72195724D01*
X130873538Y-72195733D01*
X130944723Y-72302268D01*
X130944726Y-72302272D01*
X131035327Y-72392873D01*
X131035331Y-72392876D01*
X131141866Y-72464061D01*
X131141872Y-72464064D01*
X131141873Y-72464065D01*
X131260256Y-72513101D01*
X131260260Y-72513101D01*
X131260261Y-72513102D01*
X131385928Y-72538100D01*
X131385931Y-72538100D01*
X131514071Y-72538100D01*
X131598615Y-72521282D01*
X131639744Y-72513101D01*
X131758127Y-72464065D01*
X131864669Y-72392876D01*
X131955276Y-72302269D01*
X132026465Y-72195727D01*
X132075501Y-72077344D01*
X132096224Y-71973165D01*
X132100500Y-71951671D01*
X132100500Y-71869525D01*
X136948200Y-71869525D01*
X136948200Y-72014475D01*
X136985049Y-72151995D01*
X136985717Y-72154488D01*
X137058188Y-72280011D01*
X137058190Y-72280013D01*
X137058191Y-72280015D01*
X137160685Y-72382509D01*
X137160686Y-72382510D01*
X137160688Y-72382511D01*
X137286211Y-72454982D01*
X137286212Y-72454982D01*
X137286215Y-72454984D01*
X137426225Y-72492500D01*
X137426228Y-72492500D01*
X137571172Y-72492500D01*
X137571175Y-72492500D01*
X137711185Y-72454984D01*
X137836715Y-72382509D01*
X137865405Y-72353819D01*
X137926728Y-72320334D01*
X137953086Y-72317500D01*
X139682353Y-72317500D01*
X139749392Y-72337185D01*
X139795147Y-72389989D01*
X139805091Y-72459147D01*
X139796918Y-72488943D01*
X139796518Y-72489907D01*
X139790303Y-72513101D01*
X139759000Y-72629925D01*
X139759000Y-72774875D01*
X139796516Y-72914885D01*
X139857887Y-73021183D01*
X139874500Y-73083182D01*
X139874500Y-81425500D01*
X139854815Y-81492539D01*
X139802011Y-81538294D01*
X139750500Y-81549500D01*
X139502128Y-81549500D01*
X139502120Y-81549500D01*
X139502117Y-81549501D01*
X139442518Y-81555908D01*
X139307672Y-81606202D01*
X139307670Y-81606204D01*
X139192454Y-81692454D01*
X139106204Y-81807670D01*
X139106202Y-81807672D01*
X139055908Y-81942518D01*
X139049501Y-82002117D01*
X139049500Y-82002136D01*
X139049500Y-83997863D01*
X139049501Y-83997882D01*
X139055908Y-84057481D01*
X139106202Y-84192327D01*
X139106203Y-84192328D01*
X139106204Y-84192330D01*
X139192454Y-84307546D01*
X139307670Y-84393796D01*
X139307671Y-84393796D01*
X139307672Y-84393797D01*
X139442518Y-84444091D01*
X139442517Y-84444091D01*
X139449445Y-84444835D01*
X139502128Y-84450500D01*
X139502137Y-84450500D01*
X141497863Y-84450500D01*
X141497872Y-84450500D01*
X141557482Y-84444091D01*
X141692330Y-84393796D01*
X141807546Y-84307546D01*
X141893796Y-84192330D01*
X141944091Y-84057482D01*
X141950500Y-83997872D01*
X141950500Y-82885837D01*
X142549500Y-82885837D01*
X142549500Y-83114162D01*
X142585215Y-83339660D01*
X142655770Y-83556803D01*
X142759421Y-83760228D01*
X142893621Y-83944937D01*
X143055063Y-84106379D01*
X143239772Y-84240579D01*
X143335884Y-84289550D01*
X143443196Y-84344229D01*
X143443198Y-84344229D01*
X143443201Y-84344231D01*
X143516530Y-84368057D01*
X143660339Y-84414784D01*
X143885838Y-84450500D01*
X143885843Y-84450500D01*
X144114162Y-84450500D01*
X144339660Y-84414784D01*
X144556799Y-84344231D01*
X144760228Y-84240579D01*
X144944937Y-84106379D01*
X145106379Y-83944937D01*
X145240579Y-83760228D01*
X145344231Y-83556799D01*
X145414784Y-83339660D01*
X145434775Y-83213441D01*
X145450500Y-83114162D01*
X145450500Y-82885837D01*
X145414784Y-82660339D01*
X145382049Y-82559592D01*
X145344231Y-82443201D01*
X145344229Y-82443198D01*
X145344229Y-82443196D01*
X145240578Y-82239771D01*
X145202640Y-82187554D01*
X145106379Y-82055063D01*
X144944937Y-81893621D01*
X144760228Y-81759421D01*
X144693201Y-81725269D01*
X144556803Y-81655770D01*
X144339660Y-81585215D01*
X144114162Y-81549500D01*
X144114157Y-81549500D01*
X143885843Y-81549500D01*
X143885838Y-81549500D01*
X143660339Y-81585215D01*
X143443196Y-81655770D01*
X143239771Y-81759421D01*
X143055061Y-81893622D01*
X142893622Y-82055061D01*
X142759421Y-82239771D01*
X142655770Y-82443196D01*
X142585215Y-82660339D01*
X142549500Y-82885837D01*
X141950500Y-82885837D01*
X141950500Y-82002128D01*
X141944091Y-81942518D01*
X141893796Y-81807670D01*
X141807546Y-81692454D01*
X141692330Y-81606204D01*
X141692328Y-81606203D01*
X141692327Y-81606202D01*
X141557481Y-81555908D01*
X141557482Y-81555908D01*
X141497882Y-81549501D01*
X141497880Y-81549500D01*
X141497872Y-81549500D01*
X141497864Y-81549500D01*
X141249500Y-81549500D01*
X141182461Y-81529815D01*
X141136706Y-81477011D01*
X141125500Y-81425500D01*
X141125500Y-73067843D01*
X141145185Y-73000804D01*
X141197989Y-72955049D01*
X141217392Y-72948073D01*
X141350585Y-72912384D01*
X141476115Y-72839909D01*
X141578609Y-72737415D01*
X141651084Y-72611885D01*
X141688600Y-72471875D01*
X141688600Y-72431298D01*
X141708285Y-72364259D01*
X141724915Y-72343621D01*
X142190948Y-71877587D01*
X142252269Y-71844104D01*
X142297170Y-71844503D01*
X142297304Y-71843261D01*
X142305013Y-71844089D01*
X142305017Y-71844091D01*
X142364627Y-71850500D01*
X142722400Y-71850499D01*
X142789439Y-71870183D01*
X142835194Y-71922987D01*
X142846400Y-71974499D01*
X142846400Y-79033510D01*
X142870435Y-79154344D01*
X142870437Y-79154352D01*
X142884247Y-79187692D01*
X142917588Y-79268186D01*
X142933722Y-79292331D01*
X142938509Y-79299496D01*
X142938512Y-79299501D01*
X142986040Y-79370631D01*
X142986041Y-79370632D01*
X142986042Y-79370633D01*
X143073167Y-79457758D01*
X143073168Y-79457758D01*
X143080235Y-79464825D01*
X143080234Y-79464825D01*
X143080238Y-79464828D01*
X146078210Y-82462801D01*
X146111695Y-82524124D01*
X146108460Y-82588800D01*
X146085216Y-82660338D01*
X146049500Y-82885837D01*
X146049500Y-83114162D01*
X146085215Y-83339660D01*
X146155770Y-83556803D01*
X146259421Y-83760228D01*
X146393621Y-83944937D01*
X146555063Y-84106379D01*
X146739772Y-84240579D01*
X146835884Y-84289550D01*
X146943196Y-84344229D01*
X146943198Y-84344229D01*
X146943201Y-84344231D01*
X147016530Y-84368057D01*
X147160339Y-84414784D01*
X147385838Y-84450500D01*
X147385843Y-84450500D01*
X147614162Y-84450500D01*
X147839660Y-84414784D01*
X148056799Y-84344231D01*
X148260228Y-84240579D01*
X148444937Y-84106379D01*
X148606379Y-83944937D01*
X148740579Y-83760228D01*
X148844231Y-83556799D01*
X148914784Y-83339660D01*
X148934775Y-83213441D01*
X148950500Y-83114162D01*
X148950500Y-82885837D01*
X148914784Y-82660339D01*
X148882049Y-82559592D01*
X148844231Y-82443201D01*
X148844229Y-82443198D01*
X148844229Y-82443196D01*
X148740578Y-82239771D01*
X148702640Y-82187554D01*
X148606379Y-82055063D01*
X148444937Y-81893621D01*
X148260228Y-81759421D01*
X148193201Y-81725269D01*
X148056803Y-81655770D01*
X147839660Y-81585215D01*
X147614162Y-81549500D01*
X147614157Y-81549500D01*
X147385843Y-81549500D01*
X147385838Y-81549500D01*
X147160338Y-81585216D01*
X147088800Y-81608460D01*
X147018958Y-81610455D01*
X146962801Y-81578210D01*
X144133719Y-78749128D01*
X144100234Y-78687805D01*
X144097400Y-78661447D01*
X144097400Y-73837536D01*
X144117085Y-73770497D01*
X144169889Y-73724742D01*
X144239047Y-73714798D01*
X144283399Y-73730148D01*
X144309615Y-73745284D01*
X144449625Y-73782800D01*
X144449628Y-73782800D01*
X144594572Y-73782800D01*
X144594575Y-73782800D01*
X144734585Y-73745284D01*
X144860115Y-73672809D01*
X144924842Y-73608080D01*
X144942323Y-73593548D01*
X144956397Y-73583881D01*
X144962638Y-73582210D01*
X145048262Y-73532775D01*
X145086522Y-73494514D01*
X145095928Y-73488055D01*
X145118719Y-73480598D01*
X145139768Y-73469104D01*
X145153476Y-73469226D01*
X145162334Y-73466328D01*
X145174159Y-73469410D01*
X145184670Y-73469504D01*
X145184804Y-73468261D01*
X145192513Y-73469089D01*
X145192517Y-73469091D01*
X145252127Y-73475500D01*
X145847872Y-73475499D01*
X145907483Y-73469091D01*
X146042331Y-73418796D01*
X146157546Y-73332546D01*
X146243796Y-73217331D01*
X146294091Y-73082483D01*
X146300500Y-73022873D01*
X146300499Y-72180897D01*
X146306737Y-72159651D01*
X146308317Y-72137564D01*
X146316388Y-72126781D01*
X146320183Y-72113859D01*
X146336919Y-72099357D01*
X146350189Y-72081631D01*
X146362807Y-72076924D01*
X146372987Y-72068104D01*
X146394905Y-72064952D01*
X146415653Y-72057214D01*
X146428813Y-72060076D01*
X146442146Y-72058160D01*
X146462289Y-72067359D01*
X146483926Y-72072066D01*
X146501651Y-72085334D01*
X146505702Y-72087185D01*
X146512180Y-72093217D01*
X146663181Y-72244218D01*
X146696666Y-72305541D01*
X146699500Y-72331899D01*
X146699500Y-73022870D01*
X146699501Y-73022876D01*
X146705908Y-73082483D01*
X146756202Y-73217328D01*
X146756206Y-73217335D01*
X146842452Y-73332544D01*
X146842455Y-73332547D01*
X146957664Y-73418793D01*
X146957671Y-73418797D01*
X146958449Y-73419087D01*
X147092517Y-73469091D01*
X147152127Y-73475500D01*
X147747872Y-73475499D01*
X147807483Y-73469091D01*
X147942331Y-73418796D01*
X148057546Y-73332546D01*
X148143796Y-73217331D01*
X148194091Y-73082483D01*
X148200500Y-73022873D01*
X148200499Y-71977128D01*
X148194091Y-71917517D01*
X148173168Y-71861420D01*
X148143797Y-71782671D01*
X148143793Y-71782664D01*
X148057547Y-71667455D01*
X148057544Y-71667452D01*
X147942335Y-71581206D01*
X147942328Y-71581202D01*
X147807486Y-71530910D01*
X147807485Y-71530909D01*
X147807483Y-71530909D01*
X147747873Y-71524500D01*
X147747863Y-71524500D01*
X147152129Y-71524500D01*
X147152123Y-71524501D01*
X147084804Y-71531738D01*
X147084603Y-71529869D01*
X147024865Y-71526662D01*
X146978447Y-71497410D01*
X146567163Y-71086126D01*
X146567162Y-71086125D01*
X146504482Y-71049937D01*
X146481540Y-71036691D01*
X146481539Y-71036690D01*
X146481538Y-71036690D01*
X146419015Y-71019937D01*
X146419013Y-71019936D01*
X146419011Y-71019935D01*
X146386036Y-71011100D01*
X146386035Y-71011100D01*
X144912436Y-71011100D01*
X144813564Y-71011100D01*
X144813563Y-71011100D01*
X144780583Y-71019937D01*
X144780582Y-71019936D01*
X144718066Y-71036688D01*
X144718059Y-71036691D01*
X144632436Y-71086126D01*
X144531882Y-71186681D01*
X144470559Y-71220166D01*
X144444201Y-71223000D01*
X144403625Y-71223000D01*
X144302861Y-71250000D01*
X144263611Y-71260517D01*
X144138088Y-71332988D01*
X144138082Y-71332993D01*
X144035593Y-71435482D01*
X144035588Y-71435488D01*
X144028926Y-71447028D01*
X143978357Y-71495242D01*
X143909749Y-71508462D01*
X143852650Y-71488126D01*
X143768192Y-71431692D01*
X143768183Y-71431687D01*
X143654354Y-71384538D01*
X143654355Y-71384538D01*
X143654352Y-71384537D01*
X143654348Y-71384536D01*
X143654344Y-71384535D01*
X143533510Y-71360500D01*
X143527445Y-71359903D01*
X143527656Y-71357756D01*
X143469961Y-71340815D01*
X143424206Y-71288011D01*
X143413000Y-71236500D01*
X143412999Y-70352129D01*
X143412998Y-70352123D01*
X143412997Y-70352116D01*
X143406591Y-70292517D01*
X143406225Y-70291537D01*
X143356297Y-70157671D01*
X143356293Y-70157664D01*
X143270047Y-70042455D01*
X143270044Y-70042452D01*
X143154835Y-69956206D01*
X143154828Y-69956202D01*
X143019986Y-69905910D01*
X143019985Y-69905909D01*
X143019983Y-69905909D01*
X142960373Y-69899500D01*
X142960363Y-69899500D01*
X142364629Y-69899500D01*
X142364623Y-69899501D01*
X142305016Y-69905908D01*
X142170171Y-69956202D01*
X142170164Y-69956206D01*
X142054955Y-70042452D01*
X142054952Y-70042455D01*
X141968706Y-70157664D01*
X141968702Y-70157671D01*
X141918408Y-70292517D01*
X141912449Y-70347947D01*
X141912001Y-70352123D01*
X141912000Y-70352135D01*
X141912000Y-71043100D01*
X141903355Y-71072540D01*
X141896832Y-71102527D01*
X141893077Y-71107542D01*
X141892315Y-71110139D01*
X141875685Y-71130776D01*
X141789134Y-71217328D01*
X141724680Y-71281782D01*
X141663357Y-71315266D01*
X141593665Y-71310282D01*
X141537732Y-71268410D01*
X141513315Y-71202946D01*
X141512999Y-71194122D01*
X141512999Y-70352128D01*
X141506591Y-70292517D01*
X141506225Y-70291537D01*
X141456297Y-70157671D01*
X141456293Y-70157664D01*
X141370047Y-70042455D01*
X141370044Y-70042452D01*
X141254835Y-69956206D01*
X141254828Y-69956202D01*
X141119986Y-69905910D01*
X141119985Y-69905909D01*
X141119983Y-69905909D01*
X141060373Y-69899500D01*
X141060363Y-69899500D01*
X140464629Y-69899500D01*
X140464623Y-69899501D01*
X140405016Y-69905908D01*
X140270171Y-69956202D01*
X140270164Y-69956206D01*
X140154955Y-70042452D01*
X140154952Y-70042455D01*
X140068706Y-70157664D01*
X140068702Y-70157671D01*
X140018408Y-70292517D01*
X140012449Y-70347947D01*
X140012001Y-70352123D01*
X140012000Y-70352135D01*
X140012000Y-71043099D01*
X139992315Y-71110138D01*
X139975681Y-71130780D01*
X139869962Y-71236500D01*
X139659435Y-71447028D01*
X139576282Y-71530181D01*
X139514959Y-71563666D01*
X139488601Y-71566500D01*
X137953086Y-71566500D01*
X137886047Y-71546815D01*
X137865405Y-71530181D01*
X137836717Y-71501493D01*
X137836711Y-71501488D01*
X137711188Y-71429017D01*
X137711189Y-71429017D01*
X137699706Y-71425940D01*
X137571175Y-71391500D01*
X137426225Y-71391500D01*
X137297693Y-71425940D01*
X137286211Y-71429017D01*
X137160688Y-71501488D01*
X137160682Y-71501493D01*
X137058193Y-71603982D01*
X137058188Y-71603988D01*
X136985717Y-71729511D01*
X136985716Y-71729515D01*
X136948200Y-71869525D01*
X132100500Y-71869525D01*
X132100500Y-71823528D01*
X132075502Y-71697861D01*
X132075501Y-71697860D01*
X132075501Y-71697856D01*
X132032411Y-71593827D01*
X132026466Y-71579475D01*
X132026461Y-71579466D01*
X131992145Y-71528109D01*
X131971267Y-71461432D01*
X131989751Y-71394052D01*
X132020937Y-71359951D01*
X132021001Y-71359903D01*
X132057546Y-71332546D01*
X132143796Y-71217331D01*
X132194091Y-71082483D01*
X132200500Y-71022873D01*
X132200500Y-70500090D01*
X132200500Y-68854888D01*
X146482000Y-68854888D01*
X146482000Y-68978111D01*
X146506035Y-69098944D01*
X146506040Y-69098961D01*
X146553185Y-69212781D01*
X146553190Y-69212790D01*
X146621639Y-69315227D01*
X146621645Y-69315235D01*
X150338181Y-73031771D01*
X150371666Y-73093094D01*
X150374500Y-73119452D01*
X150374500Y-81614785D01*
X150354815Y-81681824D01*
X150306796Y-81725269D01*
X150239774Y-81759419D01*
X150055061Y-81893622D01*
X149893622Y-82055061D01*
X149759421Y-82239771D01*
X149655770Y-82443196D01*
X149585215Y-82660339D01*
X149549500Y-82885837D01*
X149549500Y-83114162D01*
X149585215Y-83339660D01*
X149655770Y-83556803D01*
X149759421Y-83760228D01*
X149893621Y-83944937D01*
X150055063Y-84106379D01*
X150239772Y-84240579D01*
X150335884Y-84289550D01*
X150443196Y-84344229D01*
X150443198Y-84344229D01*
X150443201Y-84344231D01*
X150516530Y-84368057D01*
X150660339Y-84414784D01*
X150885838Y-84450500D01*
X150885843Y-84450500D01*
X151114162Y-84450500D01*
X151339660Y-84414784D01*
X151556799Y-84344231D01*
X151760228Y-84240579D01*
X151944937Y-84106379D01*
X152106379Y-83944937D01*
X152240579Y-83760228D01*
X152344231Y-83556799D01*
X152414784Y-83339660D01*
X152434775Y-83213441D01*
X152450500Y-83114162D01*
X152450500Y-82885837D01*
X152414784Y-82660339D01*
X152382049Y-82559592D01*
X152344231Y-82443201D01*
X152344229Y-82443198D01*
X152344229Y-82443196D01*
X152240578Y-82239771D01*
X152202640Y-82187554D01*
X152106379Y-82055063D01*
X151944937Y-81893621D01*
X151760228Y-81759421D01*
X151760227Y-81759420D01*
X151760225Y-81759419D01*
X151693204Y-81725269D01*
X151642408Y-81677294D01*
X151625500Y-81614785D01*
X151625500Y-72747393D01*
X151625499Y-72747389D01*
X151623560Y-72737639D01*
X151601463Y-72626548D01*
X151554311Y-72512714D01*
X151554310Y-72512713D01*
X151554307Y-72512707D01*
X151485858Y-72410267D01*
X151485855Y-72410263D01*
X151395637Y-72320045D01*
X151395606Y-72320016D01*
X147506235Y-68430645D01*
X147506233Y-68430643D01*
X147486588Y-68417516D01*
X147403790Y-68362190D01*
X147403781Y-68362185D01*
X147289961Y-68315040D01*
X147289944Y-68315035D01*
X147169111Y-68291000D01*
X147169107Y-68291000D01*
X147045893Y-68291000D01*
X147045888Y-68291000D01*
X146925055Y-68315035D01*
X146925038Y-68315040D01*
X146811218Y-68362185D01*
X146811209Y-68362190D01*
X146708772Y-68430639D01*
X146708764Y-68430645D01*
X146621645Y-68517764D01*
X146621639Y-68517772D01*
X146553190Y-68620209D01*
X146553185Y-68620218D01*
X146506040Y-68734038D01*
X146506035Y-68734055D01*
X146482000Y-68854888D01*
X132200500Y-68854888D01*
X132200500Y-66524986D01*
X139000001Y-66524986D01*
X139010494Y-66627697D01*
X139065641Y-66794119D01*
X139065643Y-66794124D01*
X139157684Y-66943345D01*
X139281654Y-67067315D01*
X139430875Y-67159356D01*
X139430880Y-67159358D01*
X139597302Y-67214505D01*
X139597309Y-67214506D01*
X139700019Y-67224999D01*
X139749999Y-67224998D01*
X139750000Y-67224998D01*
X139750000Y-66250000D01*
X139000001Y-66250000D01*
X139000001Y-66524986D01*
X132200500Y-66524986D01*
X132200500Y-65475013D01*
X139000000Y-65475013D01*
X139000000Y-65750000D01*
X139876000Y-65750000D01*
X139943039Y-65769685D01*
X139988794Y-65822489D01*
X140000000Y-65874000D01*
X140000000Y-66000000D01*
X140126000Y-66000000D01*
X140193039Y-66019685D01*
X140238794Y-66072489D01*
X140250000Y-66124000D01*
X140250000Y-67224999D01*
X140299972Y-67224999D01*
X140299986Y-67224998D01*
X140402697Y-67214505D01*
X140569119Y-67159358D01*
X140569124Y-67159356D01*
X140718345Y-67067315D01*
X140842315Y-66943345D01*
X140934356Y-66794124D01*
X140934359Y-66794117D01*
X140964930Y-66701860D01*
X141004702Y-66644415D01*
X141069218Y-66617591D01*
X141137994Y-66629906D01*
X141189194Y-66677448D01*
X141198818Y-66697529D01*
X141206203Y-66717329D01*
X141206206Y-66717335D01*
X141292452Y-66832544D01*
X141292455Y-66832547D01*
X141407664Y-66918793D01*
X141407671Y-66918797D01*
X141452618Y-66935561D01*
X141542517Y-66969091D01*
X141602127Y-66975500D01*
X142191549Y-66975499D01*
X142258588Y-66995183D01*
X142304343Y-67047987D01*
X142311323Y-67067404D01*
X142319115Y-67096483D01*
X142319117Y-67096488D01*
X142391588Y-67222011D01*
X142391590Y-67222013D01*
X142391591Y-67222015D01*
X142494085Y-67324509D01*
X142494086Y-67324510D01*
X142494088Y-67324511D01*
X142619611Y-67396982D01*
X142619612Y-67396982D01*
X142619615Y-67396984D01*
X142759625Y-67434500D01*
X142759628Y-67434500D01*
X142904572Y-67434500D01*
X142904575Y-67434500D01*
X143044585Y-67396984D01*
X143170115Y-67324509D01*
X143272609Y-67222015D01*
X143345084Y-67096485D01*
X143382600Y-66956475D01*
X143382600Y-66811525D01*
X143345084Y-66671515D01*
X143334345Y-66652915D01*
X143272611Y-66545988D01*
X143272606Y-66545982D01*
X143170117Y-66443493D01*
X143170111Y-66443488D01*
X143044588Y-66371017D01*
X143044589Y-66371017D01*
X142996856Y-66358227D01*
X142904575Y-66333500D01*
X142904572Y-66333500D01*
X142815901Y-66333500D01*
X142786460Y-66324855D01*
X142756474Y-66318332D01*
X142751458Y-66314577D01*
X142748862Y-66313815D01*
X142728220Y-66297181D01*
X142686818Y-66255779D01*
X142653333Y-66194456D01*
X142650499Y-66168098D01*
X142650499Y-65477129D01*
X142650498Y-65477123D01*
X142650271Y-65475013D01*
X142644091Y-65417517D01*
X142641471Y-65410493D01*
X142593797Y-65282671D01*
X142593795Y-65282668D01*
X142531899Y-65199986D01*
X146450001Y-65199986D01*
X146460494Y-65302697D01*
X146515641Y-65469119D01*
X146515643Y-65469124D01*
X146607684Y-65618345D01*
X146731654Y-65742315D01*
X146880875Y-65834356D01*
X146880880Y-65834358D01*
X147047302Y-65889505D01*
X147047309Y-65889506D01*
X147150019Y-65899999D01*
X147274999Y-65899999D01*
X147775000Y-65899999D01*
X147899972Y-65899999D01*
X147899986Y-65899998D01*
X148002697Y-65889505D01*
X148169119Y-65834358D01*
X148169124Y-65834356D01*
X148318345Y-65742315D01*
X148442315Y-65618345D01*
X148534356Y-65469124D01*
X148534358Y-65469119D01*
X148589505Y-65302697D01*
X148589506Y-65302690D01*
X148599999Y-65199986D01*
X148600000Y-65199973D01*
X148600000Y-64750000D01*
X147775000Y-64750000D01*
X147775000Y-65899999D01*
X147274999Y-65899999D01*
X147275000Y-65899998D01*
X147275000Y-64750000D01*
X146450001Y-64750000D01*
X146450001Y-65199986D01*
X142531899Y-65199986D01*
X142530644Y-65198309D01*
X142506227Y-65132846D01*
X142521078Y-65064573D01*
X142570483Y-65015167D01*
X142629911Y-64999999D01*
X142749999Y-64999999D01*
X143250000Y-64999999D01*
X143524972Y-64999999D01*
X143524986Y-64999998D01*
X143627697Y-64989505D01*
X143794119Y-64934358D01*
X143794124Y-64934356D01*
X143943345Y-64842315D01*
X144067317Y-64718343D01*
X144119623Y-64633542D01*
X144119623Y-64633541D01*
X144159353Y-64569130D01*
X144159358Y-64569119D01*
X144214505Y-64402697D01*
X144214506Y-64402690D01*
X144224999Y-64299986D01*
X144225000Y-64299973D01*
X144225000Y-64250000D01*
X143250000Y-64250000D01*
X143250000Y-64999999D01*
X142749999Y-64999999D01*
X142750000Y-64999998D01*
X142750000Y-64250000D01*
X141746362Y-64250000D01*
X141679323Y-64230315D01*
X141658681Y-64213681D01*
X141645000Y-64200000D01*
X141250000Y-64200000D01*
X141250000Y-64949999D01*
X141266400Y-64966399D01*
X141277586Y-64969684D01*
X141323341Y-65022488D01*
X141333285Y-65091646D01*
X141312566Y-65144484D01*
X141301240Y-65160876D01*
X141292454Y-65167454D01*
X141206204Y-65282669D01*
X141193428Y-65316922D01*
X141184655Y-65329621D01*
X141169008Y-65342289D01*
X141156945Y-65358404D01*
X141142409Y-65363825D01*
X141130353Y-65373587D01*
X141110342Y-65375785D01*
X141091480Y-65382820D01*
X141076321Y-65379522D01*
X141060901Y-65381216D01*
X141042878Y-65372246D01*
X141023207Y-65367967D01*
X141012238Y-65356997D01*
X140998350Y-65350086D01*
X140988037Y-65332796D01*
X140973803Y-65318561D01*
X140964930Y-65298140D01*
X140934358Y-65205880D01*
X140934356Y-65205875D01*
X140856714Y-65079999D01*
X140837527Y-65069290D01*
X140806961Y-65060315D01*
X140761206Y-65007511D01*
X140750000Y-64956000D01*
X140750000Y-64200000D01*
X139746362Y-64200000D01*
X139679323Y-64180315D01*
X139658681Y-64163681D01*
X139645000Y-64150000D01*
X139250000Y-64150000D01*
X139250000Y-64919948D01*
X139230315Y-64986987D01*
X139201326Y-65012105D01*
X139201780Y-65012559D01*
X139157684Y-65056654D01*
X139065643Y-65205875D01*
X139065641Y-65205880D01*
X139010494Y-65372302D01*
X139010493Y-65372309D01*
X139000000Y-65475013D01*
X132200500Y-65475013D01*
X132200500Y-63182029D01*
X132220185Y-63114990D01*
X132236819Y-63094348D01*
X133848619Y-61482548D01*
X133909942Y-61449063D01*
X133979634Y-61454047D01*
X134035567Y-61495919D01*
X134059984Y-61561383D01*
X134060300Y-61570229D01*
X134060300Y-63333114D01*
X134040615Y-63400153D01*
X134023981Y-63420795D01*
X133995293Y-63449482D01*
X133995288Y-63449488D01*
X133922817Y-63575011D01*
X133922816Y-63575015D01*
X133885300Y-63715025D01*
X133885300Y-63859975D01*
X133922816Y-63999985D01*
X133922817Y-63999988D01*
X133995288Y-64125511D01*
X133995290Y-64125513D01*
X133995291Y-64125515D01*
X134097785Y-64228009D01*
X134097786Y-64228010D01*
X134097788Y-64228011D01*
X134223311Y-64300482D01*
X134223312Y-64300482D01*
X134223315Y-64300484D01*
X134363325Y-64338000D01*
X134363328Y-64338000D01*
X134508272Y-64338000D01*
X134508275Y-64338000D01*
X134648285Y-64300484D01*
X134773815Y-64228009D01*
X134801838Y-64199986D01*
X135775001Y-64199986D01*
X135785494Y-64302697D01*
X135840641Y-64469119D01*
X135840643Y-64469124D01*
X135932684Y-64618345D01*
X136056654Y-64742315D01*
X136205875Y-64834356D01*
X136205880Y-64834358D01*
X136372302Y-64889505D01*
X136372309Y-64889506D01*
X136475019Y-64899999D01*
X136749999Y-64899999D01*
X137250000Y-64899999D01*
X137524972Y-64899999D01*
X137524986Y-64899998D01*
X137627697Y-64889505D01*
X137794119Y-64834358D01*
X137794130Y-64834353D01*
X137934903Y-64747523D01*
X138002295Y-64729082D01*
X138065097Y-64747523D01*
X138205869Y-64834353D01*
X138205880Y-64834358D01*
X138372302Y-64889505D01*
X138372309Y-64889506D01*
X138475019Y-64899999D01*
X138749999Y-64899999D01*
X138750000Y-64899998D01*
X138750000Y-64150000D01*
X137250000Y-64150000D01*
X137250000Y-64899999D01*
X136749999Y-64899999D01*
X136750000Y-64899998D01*
X136750000Y-64150000D01*
X135775001Y-64150000D01*
X135775001Y-64199986D01*
X134801838Y-64199986D01*
X134876309Y-64125515D01*
X134948784Y-63999985D01*
X134986300Y-63859975D01*
X134986300Y-63800013D01*
X146450000Y-63800013D01*
X146450000Y-64250000D01*
X147275000Y-64250000D01*
X147775000Y-64250000D01*
X148599999Y-64250000D01*
X148599999Y-63802135D01*
X149649500Y-63802135D01*
X149649500Y-65197870D01*
X149649501Y-65197876D01*
X149655908Y-65257483D01*
X149706203Y-65392330D01*
X149709329Y-65398054D01*
X149724500Y-65457486D01*
X149724500Y-66690718D01*
X149724500Y-66690720D01*
X149724499Y-66690720D01*
X149753340Y-66835707D01*
X149753343Y-66835717D01*
X149809912Y-66972288D01*
X149809919Y-66972301D01*
X149892048Y-67095215D01*
X149892051Y-67095219D01*
X149996580Y-67199748D01*
X149996584Y-67199751D01*
X150119498Y-67281880D01*
X150119511Y-67281887D01*
X150256082Y-67338456D01*
X150256087Y-67338458D01*
X150256091Y-67338458D01*
X150256092Y-67338459D01*
X150401079Y-67367300D01*
X150401082Y-67367300D01*
X150548920Y-67367300D01*
X150662216Y-67344763D01*
X150693913Y-67338458D01*
X150830495Y-67281884D01*
X150942367Y-67207134D01*
X152672000Y-67207134D01*
X152672000Y-68882865D01*
X152672001Y-68882884D01*
X152678408Y-68942481D01*
X152678410Y-68942488D01*
X152728702Y-69077328D01*
X152728703Y-69077330D01*
X152728704Y-69077331D01*
X152814953Y-69192547D01*
X152917083Y-69269000D01*
X152930169Y-69278796D01*
X152930171Y-69278797D01*
X152998106Y-69304135D01*
X153065016Y-69329091D01*
X153124626Y-69335500D01*
X153848000Y-69335500D01*
X153915039Y-69355185D01*
X153960794Y-69407989D01*
X153972000Y-69459500D01*
X153972000Y-74796418D01*
X153972000Y-74796420D01*
X153971999Y-74796420D01*
X154000840Y-74941407D01*
X154000843Y-74941417D01*
X154057412Y-75077988D01*
X154057421Y-75078004D01*
X154072288Y-75100253D01*
X154072289Y-75100257D01*
X154072290Y-75100257D01*
X154139546Y-75200914D01*
X154139552Y-75200921D01*
X157413181Y-78474549D01*
X157446666Y-78535872D01*
X157449500Y-78562230D01*
X157449500Y-79097870D01*
X157449501Y-79097876D01*
X157455908Y-79157483D01*
X157506202Y-79292328D01*
X157506205Y-79292333D01*
X157592452Y-79407544D01*
X157592455Y-79407547D01*
X157707664Y-79493793D01*
X157707671Y-79493797D01*
X157842517Y-79544091D01*
X157842516Y-79544091D01*
X157849444Y-79544835D01*
X157902127Y-79550500D01*
X159097872Y-79550499D01*
X159157483Y-79544091D01*
X159292331Y-79493796D01*
X159407546Y-79407546D01*
X159493796Y-79292331D01*
X159544091Y-79157483D01*
X159550500Y-79097873D01*
X159550499Y-77902128D01*
X159544091Y-77842517D01*
X159534610Y-77817098D01*
X159493797Y-77707671D01*
X159493793Y-77707664D01*
X159407547Y-77592455D01*
X159407544Y-77592452D01*
X159292335Y-77506206D01*
X159292328Y-77506202D01*
X159157482Y-77455908D01*
X159157483Y-77455908D01*
X159097883Y-77449501D01*
X159097881Y-77449500D01*
X159097873Y-77449500D01*
X159097865Y-77449500D01*
X158562230Y-77449500D01*
X158495191Y-77429815D01*
X158474549Y-77413181D01*
X155959050Y-74897682D01*
X157200000Y-74897682D01*
X157200000Y-75102317D01*
X157232009Y-75304417D01*
X157295244Y-75499031D01*
X157388141Y-75681350D01*
X157388147Y-75681359D01*
X157420523Y-75725921D01*
X157420524Y-75725922D01*
X158100000Y-75046446D01*
X158100000Y-75052661D01*
X158127259Y-75154394D01*
X158179920Y-75245606D01*
X158254394Y-75320080D01*
X158345606Y-75372741D01*
X158447339Y-75400000D01*
X158453553Y-75400000D01*
X157774076Y-76079474D01*
X157818650Y-76111859D01*
X158000968Y-76204755D01*
X158195582Y-76267990D01*
X158397683Y-76300000D01*
X158602317Y-76300000D01*
X158804417Y-76267990D01*
X158999031Y-76204755D01*
X159181349Y-76111859D01*
X159225921Y-76079474D01*
X158546447Y-75400000D01*
X158552661Y-75400000D01*
X158654394Y-75372741D01*
X158745606Y-75320080D01*
X158820080Y-75245606D01*
X158872741Y-75154394D01*
X158900000Y-75052661D01*
X158900000Y-75046447D01*
X159579474Y-75725921D01*
X159611859Y-75681349D01*
X159704755Y-75499031D01*
X159767990Y-75304417D01*
X159800000Y-75102317D01*
X159800000Y-74897682D01*
X159767990Y-74695582D01*
X159704755Y-74500968D01*
X159611859Y-74318650D01*
X159579474Y-74274077D01*
X159579474Y-74274076D01*
X158900000Y-74953551D01*
X158900000Y-74947339D01*
X158872741Y-74845606D01*
X158820080Y-74754394D01*
X158745606Y-74679920D01*
X158654394Y-74627259D01*
X158552661Y-74600000D01*
X158546446Y-74600000D01*
X159225922Y-73920524D01*
X159225921Y-73920523D01*
X159181359Y-73888147D01*
X159181350Y-73888141D01*
X158999031Y-73795244D01*
X158804417Y-73732009D01*
X158602317Y-73700000D01*
X158397683Y-73700000D01*
X158195582Y-73732009D01*
X158000968Y-73795244D01*
X157818644Y-73888143D01*
X157774077Y-73920523D01*
X157774077Y-73920524D01*
X158453554Y-74600000D01*
X158447339Y-74600000D01*
X158345606Y-74627259D01*
X158254394Y-74679920D01*
X158179920Y-74754394D01*
X158127259Y-74845606D01*
X158100000Y-74947339D01*
X158100000Y-74953553D01*
X157420524Y-74274077D01*
X157420523Y-74274077D01*
X157388143Y-74318644D01*
X157295244Y-74500968D01*
X157232009Y-74695582D01*
X157200000Y-74897682D01*
X155959050Y-74897682D01*
X155509319Y-74447951D01*
X155475834Y-74386628D01*
X155473000Y-74360270D01*
X155473000Y-69459500D01*
X155492685Y-69392461D01*
X155545489Y-69346706D01*
X155597000Y-69335500D01*
X156320365Y-69335500D01*
X156320374Y-69335500D01*
X156379984Y-69329091D01*
X156514831Y-69278796D01*
X156630047Y-69192547D01*
X156716296Y-69077331D01*
X156766591Y-68942484D01*
X156773000Y-68882874D01*
X156773000Y-67207126D01*
X156766591Y-67147516D01*
X156742335Y-67082483D01*
X156716297Y-67012671D01*
X156716296Y-67012669D01*
X156694032Y-66982928D01*
X156630047Y-66897453D01*
X156543338Y-66832544D01*
X156514830Y-66811203D01*
X156514828Y-66811202D01*
X156379988Y-66760910D01*
X156379981Y-66760908D01*
X156320384Y-66754501D01*
X156320382Y-66754500D01*
X156320374Y-66754500D01*
X153124626Y-66754500D01*
X153124618Y-66754500D01*
X153124615Y-66754501D01*
X153065018Y-66760908D01*
X153065011Y-66760910D01*
X152930171Y-66811202D01*
X152930169Y-66811203D01*
X152814953Y-66897453D01*
X152728703Y-67012669D01*
X152728702Y-67012671D01*
X152678410Y-67147511D01*
X152678408Y-67147518D01*
X152672001Y-67207115D01*
X152672000Y-67207134D01*
X150942367Y-67207134D01*
X150953416Y-67199751D01*
X150993811Y-67159356D01*
X151037044Y-67116124D01*
X151057948Y-67095219D01*
X151057951Y-67095216D01*
X151140084Y-66972295D01*
X151196658Y-66835713D01*
X151211538Y-66760908D01*
X151225500Y-66690720D01*
X151225500Y-65457486D01*
X151240671Y-65398054D01*
X151243793Y-65392333D01*
X151243796Y-65392331D01*
X151294091Y-65257483D01*
X151300500Y-65197873D01*
X151300499Y-63802128D01*
X151294091Y-63742517D01*
X151291779Y-63736319D01*
X151243797Y-63607671D01*
X151243793Y-63607664D01*
X151157547Y-63492455D01*
X151157544Y-63492452D01*
X151042335Y-63406206D01*
X151042328Y-63406202D01*
X150907486Y-63355910D01*
X150907485Y-63355909D01*
X150907483Y-63355909D01*
X150847873Y-63349500D01*
X150847863Y-63349500D01*
X150102129Y-63349500D01*
X150102123Y-63349501D01*
X150042516Y-63355908D01*
X149907671Y-63406202D01*
X149907664Y-63406206D01*
X149792455Y-63492452D01*
X149792452Y-63492455D01*
X149706206Y-63607664D01*
X149706202Y-63607671D01*
X149655908Y-63742517D01*
X149649501Y-63802116D01*
X149649501Y-63802123D01*
X149649500Y-63802135D01*
X148599999Y-63802135D01*
X148599999Y-63800028D01*
X148599998Y-63800013D01*
X148589505Y-63697302D01*
X148534358Y-63530880D01*
X148534356Y-63530875D01*
X148442315Y-63381654D01*
X148318345Y-63257684D01*
X148169124Y-63165643D01*
X148169119Y-63165641D01*
X148002697Y-63110494D01*
X148002690Y-63110493D01*
X147899986Y-63100000D01*
X147775000Y-63100000D01*
X147775000Y-64250000D01*
X147275000Y-64250000D01*
X147275000Y-63100000D01*
X147150027Y-63100000D01*
X147150012Y-63100001D01*
X147047302Y-63110494D01*
X146880880Y-63165641D01*
X146880875Y-63165643D01*
X146731654Y-63257684D01*
X146607684Y-63381654D01*
X146515643Y-63530875D01*
X146515641Y-63530880D01*
X146460494Y-63697302D01*
X146460493Y-63697309D01*
X146450000Y-63800013D01*
X134986300Y-63800013D01*
X134986300Y-63715025D01*
X134948784Y-63575015D01*
X134940453Y-63560586D01*
X134876311Y-63449488D01*
X134876306Y-63449482D01*
X134847619Y-63420795D01*
X134814134Y-63359472D01*
X134811300Y-63333114D01*
X134811300Y-61401202D01*
X134830985Y-61334163D01*
X134878697Y-61290875D01*
X134890446Y-61284847D01*
X134900385Y-61282184D01*
X134938261Y-61260315D01*
X134941003Y-61258909D01*
X134972416Y-61252918D01*
X135003504Y-61245376D01*
X135006511Y-61246416D01*
X135009636Y-61245821D01*
X135039309Y-61257768D01*
X135069532Y-61268228D01*
X135073385Y-61271487D01*
X135074449Y-61271916D01*
X135075284Y-61273093D01*
X135085287Y-61281555D01*
X135988181Y-62184449D01*
X136021666Y-62245772D01*
X136024500Y-62272126D01*
X136024500Y-62297867D01*
X136024501Y-62297877D01*
X136030908Y-62357483D01*
X136081202Y-62492328D01*
X136081206Y-62492335D01*
X136167452Y-62607544D01*
X136167455Y-62607547D01*
X136282664Y-62693793D01*
X136282673Y-62693798D01*
X136302468Y-62701181D01*
X136358402Y-62743051D01*
X136382820Y-62808515D01*
X136367969Y-62876788D01*
X136318565Y-62926194D01*
X136298141Y-62935069D01*
X136205878Y-62965642D01*
X136205875Y-62965643D01*
X136056654Y-63057684D01*
X135932684Y-63181654D01*
X135840643Y-63330875D01*
X135840641Y-63330880D01*
X135785494Y-63497302D01*
X135785493Y-63497309D01*
X135775000Y-63600013D01*
X135775000Y-63650000D01*
X140253638Y-63650000D01*
X140320677Y-63669685D01*
X140341319Y-63686319D01*
X140355000Y-63700000D01*
X142253638Y-63700000D01*
X142320677Y-63719685D01*
X142341319Y-63736319D01*
X142355000Y-63750000D01*
X144224999Y-63750000D01*
X144224999Y-63700028D01*
X144224998Y-63700013D01*
X144214505Y-63597302D01*
X144159358Y-63430880D01*
X144159356Y-63430875D01*
X144067315Y-63281654D01*
X143943345Y-63157684D01*
X143794124Y-63065643D01*
X143794119Y-63065641D01*
X143701859Y-63035069D01*
X143644414Y-62995296D01*
X143617591Y-62930780D01*
X143629906Y-62862004D01*
X143677449Y-62810804D01*
X143697533Y-62801180D01*
X143699357Y-62800500D01*
X143717331Y-62793796D01*
X143822589Y-62715000D01*
X152442900Y-62715000D01*
X154068379Y-62715000D01*
X154049401Y-62760818D01*
X154022500Y-62896056D01*
X154022500Y-63033944D01*
X154049401Y-63169182D01*
X154068379Y-63215000D01*
X152442900Y-63215000D01*
X152460419Y-63325618D01*
X152535327Y-63556159D01*
X152645374Y-63772136D01*
X152787856Y-63968245D01*
X152959254Y-64139643D01*
X153155363Y-64282125D01*
X153371340Y-64392172D01*
X153601881Y-64467079D01*
X153841300Y-64505000D01*
X154472500Y-64505000D01*
X154472500Y-63619120D01*
X154518318Y-63638099D01*
X154653556Y-63665000D01*
X154791444Y-63665000D01*
X154926682Y-63638099D01*
X154972500Y-63619120D01*
X154972500Y-64505000D01*
X155603700Y-64505000D01*
X155843118Y-64467079D01*
X156073659Y-64392172D01*
X156289636Y-64282125D01*
X156485745Y-64139643D01*
X156657143Y-63968245D01*
X156799625Y-63772136D01*
X156909672Y-63556159D01*
X156984580Y-63325618D01*
X157002100Y-63215000D01*
X155376621Y-63215000D01*
X155395599Y-63169182D01*
X155422500Y-63033944D01*
X155422500Y-62896056D01*
X155395599Y-62760818D01*
X155376621Y-62715000D01*
X157002100Y-62715000D01*
X156984580Y-62604381D01*
X156909672Y-62373840D01*
X156799625Y-62157863D01*
X156657143Y-61961754D01*
X156485745Y-61790356D01*
X156289636Y-61647874D01*
X156073659Y-61537827D01*
X155843118Y-61462920D01*
X155603700Y-61425000D01*
X154972500Y-61425000D01*
X154972500Y-62310879D01*
X154926682Y-62291901D01*
X154791444Y-62265000D01*
X154653556Y-62265000D01*
X154518318Y-62291901D01*
X154472500Y-62310879D01*
X154472500Y-61425000D01*
X153841300Y-61425000D01*
X153601881Y-61462920D01*
X153371340Y-61537827D01*
X153155363Y-61647874D01*
X152959254Y-61790356D01*
X152787856Y-61961754D01*
X152645374Y-62157863D01*
X152535327Y-62373840D01*
X152460419Y-62604381D01*
X152442900Y-62715000D01*
X143822589Y-62715000D01*
X143832546Y-62707546D01*
X143918796Y-62592331D01*
X143969091Y-62457483D01*
X143975500Y-62397873D01*
X143975499Y-61802128D01*
X143969091Y-61742517D01*
X143960575Y-61719685D01*
X143918797Y-61607671D01*
X143918793Y-61607664D01*
X143832547Y-61492455D01*
X143828689Y-61488597D01*
X143795204Y-61427274D01*
X143800188Y-61357582D01*
X143808984Y-61338915D01*
X143827957Y-61306054D01*
X143862984Y-61245385D01*
X143900500Y-61105375D01*
X143900500Y-60960425D01*
X143862984Y-60820415D01*
X143862851Y-60820185D01*
X143790511Y-60694888D01*
X143790506Y-60694882D01*
X143688017Y-60592393D01*
X143688011Y-60592388D01*
X143562488Y-60519917D01*
X143562489Y-60519917D01*
X143551006Y-60516840D01*
X143422475Y-60482400D01*
X143422472Y-60482400D01*
X143381899Y-60482400D01*
X143314860Y-60462715D01*
X143294218Y-60446081D01*
X141308263Y-58460126D01*
X141308262Y-58460125D01*
X141222638Y-58410690D01*
X141222636Y-58410689D01*
X141222635Y-58410689D01*
X141194590Y-58403174D01*
X141139005Y-58371081D01*
X141088017Y-58320093D01*
X141088011Y-58320088D01*
X140962488Y-58247617D01*
X140962489Y-58247617D01*
X140951006Y-58244540D01*
X140822475Y-58210100D01*
X140677525Y-58210100D01*
X140548993Y-58244540D01*
X140537511Y-58247617D01*
X140411988Y-58320088D01*
X140411982Y-58320093D01*
X140309493Y-58422582D01*
X140309488Y-58422588D01*
X140237017Y-58548111D01*
X140237016Y-58548115D01*
X140199500Y-58688125D01*
X140199500Y-58833075D01*
X140208300Y-58865915D01*
X140237017Y-58973088D01*
X140309488Y-59098611D01*
X140309490Y-59098613D01*
X140309491Y-59098615D01*
X140411985Y-59201109D01*
X140411986Y-59201110D01*
X140411988Y-59201111D01*
X140537511Y-59273582D01*
X140537512Y-59273582D01*
X140537515Y-59273584D01*
X140677525Y-59311100D01*
X140677528Y-59311100D01*
X140822473Y-59311100D01*
X140822475Y-59311100D01*
X140962485Y-59273584D01*
X140962488Y-59273582D01*
X140969960Y-59271580D01*
X141039810Y-59273242D01*
X141089736Y-59303673D01*
X142763181Y-60977118D01*
X142774176Y-60997254D01*
X142788970Y-61014793D01*
X142792244Y-61030343D01*
X142796666Y-61038441D01*
X142798462Y-61048786D01*
X142799500Y-61056756D01*
X142799500Y-61105375D01*
X142811817Y-61151344D01*
X142812878Y-61159487D01*
X142808671Y-61186211D01*
X142808028Y-61213256D01*
X142803320Y-61220210D01*
X142802015Y-61228507D01*
X142784027Y-61248715D01*
X142768865Y-61271119D01*
X142761145Y-61274424D01*
X142755562Y-61280698D01*
X142729505Y-61287973D01*
X142704637Y-61298623D01*
X142689916Y-61299500D01*
X141244658Y-61299500D01*
X141197206Y-61290061D01*
X141168917Y-61278343D01*
X141168907Y-61278340D01*
X141023920Y-61249500D01*
X141023918Y-61249500D01*
X139073918Y-61249500D01*
X137227329Y-61249500D01*
X137160290Y-61229815D01*
X137139648Y-61213181D01*
X136827927Y-60901459D01*
X136794442Y-60840136D01*
X136799426Y-60770444D01*
X136827927Y-60726097D01*
X136846709Y-60707315D01*
X136919184Y-60581785D01*
X136956700Y-60441775D01*
X136956700Y-60296825D01*
X136919184Y-60156815D01*
X136859113Y-60052769D01*
X136842500Y-59990769D01*
X136842500Y-55967567D01*
X136842499Y-55967563D01*
X136836340Y-55944574D01*
X136816912Y-55872065D01*
X136816911Y-55872064D01*
X136816911Y-55872063D01*
X136767475Y-55786437D01*
X134546838Y-53565800D01*
X133028199Y-52047161D01*
X132994714Y-51985838D01*
X132999698Y-51916146D01*
X133000000Y-51915676D01*
X133000000Y-51899999D01*
X133500000Y-51899999D01*
X133774972Y-51899999D01*
X133774986Y-51899998D01*
X133877697Y-51889505D01*
X134044119Y-51834358D01*
X134044124Y-51834356D01*
X134193345Y-51742315D01*
X134317315Y-51618345D01*
X134409356Y-51469124D01*
X134409358Y-51469119D01*
X134464505Y-51302697D01*
X134464506Y-51302690D01*
X134474999Y-51199986D01*
X134475000Y-51199973D01*
X134475000Y-51150000D01*
X133500000Y-51150000D01*
X133500000Y-51899999D01*
X133000000Y-51899999D01*
X133000000Y-50650000D01*
X133500000Y-50650000D01*
X134474999Y-50650000D01*
X134474999Y-50600028D01*
X134474998Y-50600013D01*
X134464505Y-50497302D01*
X134409358Y-50330880D01*
X134409356Y-50330875D01*
X134317315Y-50181654D01*
X134193345Y-50057684D01*
X134044124Y-49965643D01*
X134044119Y-49965641D01*
X133877697Y-49910494D01*
X133877690Y-49910493D01*
X133774986Y-49900000D01*
X133500000Y-49900000D01*
X133500000Y-50650000D01*
X133000000Y-50650000D01*
X133000000Y-49900000D01*
X132725029Y-49900000D01*
X132725012Y-49900001D01*
X132622302Y-49910494D01*
X132455880Y-49965641D01*
X132455875Y-49965643D01*
X132306657Y-50057682D01*
X132189816Y-50174522D01*
X132128492Y-50208006D01*
X132058802Y-50203022D01*
X131932482Y-50155908D01*
X131932483Y-50155908D01*
X131872883Y-50149501D01*
X131872881Y-50149500D01*
X131872873Y-50149500D01*
X131872865Y-50149500D01*
X131849500Y-50149500D01*
X131782461Y-50129815D01*
X131736706Y-50077011D01*
X131725500Y-50025500D01*
X131725500Y-48774499D01*
X131745185Y-48707460D01*
X131797989Y-48661705D01*
X131849500Y-48650499D01*
X131872871Y-48650499D01*
X131872872Y-48650499D01*
X131932483Y-48644091D01*
X132002973Y-48617800D01*
X132058803Y-48596977D01*
X132128495Y-48591993D01*
X132189817Y-48625478D01*
X132306654Y-48742315D01*
X132455875Y-48834356D01*
X132455880Y-48834358D01*
X132622302Y-48889505D01*
X132622309Y-48889506D01*
X132725019Y-48899999D01*
X132999999Y-48899999D01*
X133500000Y-48899999D01*
X133774972Y-48899999D01*
X133774986Y-48899998D01*
X133877697Y-48889505D01*
X134044119Y-48834358D01*
X134044124Y-48834356D01*
X134193345Y-48742315D01*
X134317315Y-48618345D01*
X134409356Y-48469124D01*
X134409358Y-48469119D01*
X134464505Y-48302697D01*
X134464506Y-48302690D01*
X134474999Y-48199986D01*
X134475000Y-48199973D01*
X134475000Y-48150000D01*
X133500000Y-48150000D01*
X133500000Y-48899999D01*
X132999999Y-48899999D01*
X133000000Y-48899998D01*
X133000000Y-47650000D01*
X133500000Y-47650000D01*
X134474999Y-47650000D01*
X134474999Y-47600028D01*
X134474998Y-47600013D01*
X134464505Y-47497302D01*
X134409358Y-47330880D01*
X134409356Y-47330875D01*
X134317315Y-47181654D01*
X134193345Y-47057684D01*
X134044124Y-46965643D01*
X134044119Y-46965641D01*
X133877697Y-46910494D01*
X133877690Y-46910493D01*
X133774986Y-46900000D01*
X133500000Y-46900000D01*
X133500000Y-47650000D01*
X133000000Y-47650000D01*
X133000000Y-46900000D01*
X132725029Y-46900000D01*
X132725012Y-46900001D01*
X132622302Y-46910494D01*
X132455880Y-46965641D01*
X132455875Y-46965643D01*
X132306657Y-47057682D01*
X132189816Y-47174522D01*
X132128492Y-47208006D01*
X132058802Y-47203022D01*
X131932482Y-47155908D01*
X131932483Y-47155908D01*
X131872883Y-47149501D01*
X131872881Y-47149500D01*
X131872873Y-47149500D01*
X131872865Y-47149500D01*
X131849500Y-47149500D01*
X131782461Y-47129815D01*
X131736706Y-47077011D01*
X131725500Y-47025500D01*
X131725500Y-45774499D01*
X131745185Y-45707460D01*
X131797989Y-45661705D01*
X131849500Y-45650499D01*
X131872871Y-45650499D01*
X131872872Y-45650499D01*
X131932483Y-45644091D01*
X132001512Y-45618345D01*
X132058803Y-45596977D01*
X132128495Y-45591993D01*
X132189817Y-45625478D01*
X132306654Y-45742315D01*
X132455875Y-45834356D01*
X132455880Y-45834358D01*
X132622302Y-45889505D01*
X132622309Y-45889506D01*
X132725019Y-45899999D01*
X132999999Y-45899999D01*
X133500000Y-45899999D01*
X133774972Y-45899999D01*
X133774986Y-45899998D01*
X133877697Y-45889505D01*
X134044119Y-45834358D01*
X134044124Y-45834356D01*
X134193345Y-45742315D01*
X134317315Y-45618345D01*
X134409356Y-45469124D01*
X134409358Y-45469119D01*
X134464505Y-45302697D01*
X134464506Y-45302690D01*
X134474999Y-45199986D01*
X134475000Y-45199973D01*
X134475000Y-45150000D01*
X133500000Y-45150000D01*
X133500000Y-45899999D01*
X132999999Y-45899999D01*
X133000000Y-45899998D01*
X133000000Y-44650000D01*
X133500000Y-44650000D01*
X134474999Y-44650000D01*
X134474999Y-44600028D01*
X134474998Y-44600013D01*
X134464505Y-44497302D01*
X134409358Y-44330880D01*
X134409356Y-44330875D01*
X134317315Y-44181654D01*
X134193345Y-44057684D01*
X134044124Y-43965643D01*
X134044119Y-43965641D01*
X133877697Y-43910494D01*
X133877690Y-43910493D01*
X133774986Y-43900000D01*
X133500000Y-43900000D01*
X133500000Y-44650000D01*
X133000000Y-44650000D01*
X133000000Y-43900000D01*
X132725029Y-43900000D01*
X132725012Y-43900001D01*
X132622302Y-43910494D01*
X132455880Y-43965641D01*
X132455875Y-43965643D01*
X132306657Y-44057682D01*
X132189816Y-44174522D01*
X132128492Y-44208006D01*
X132058802Y-44203022D01*
X131932482Y-44155908D01*
X131932483Y-44155908D01*
X131872883Y-44149501D01*
X131872881Y-44149500D01*
X131872873Y-44149500D01*
X131872865Y-44149500D01*
X131535522Y-44149500D01*
X131468483Y-44129815D01*
X131422728Y-44077011D01*
X131412784Y-44007853D01*
X131441809Y-43944297D01*
X131447841Y-43937818D01*
X131542317Y-43843342D01*
X131634356Y-43694124D01*
X131634358Y-43694119D01*
X131689505Y-43527697D01*
X131689506Y-43527690D01*
X131699999Y-43424986D01*
X131700000Y-43424973D01*
X131700000Y-43150000D01*
X130824000Y-43150000D01*
X130756961Y-43130315D01*
X130711206Y-43077511D01*
X130700000Y-43026000D01*
X130700000Y-42900000D01*
X130574000Y-42900000D01*
X130506961Y-42880315D01*
X130461206Y-42827511D01*
X130450000Y-42776000D01*
X130450000Y-42650000D01*
X130950000Y-42650000D01*
X131699999Y-42650000D01*
X131699999Y-42375028D01*
X131699998Y-42375013D01*
X131694705Y-42323200D01*
X131694705Y-42323199D01*
X131689505Y-42272303D01*
X131634358Y-42105880D01*
X131634356Y-42105875D01*
X131542315Y-41956654D01*
X131418345Y-41832684D01*
X131269124Y-41740643D01*
X131269119Y-41740641D01*
X131102697Y-41685494D01*
X131102690Y-41685493D01*
X130999986Y-41675000D01*
X130950000Y-41675000D01*
X130950000Y-42650000D01*
X130450000Y-42650000D01*
X130450000Y-41675000D01*
X130449999Y-41674999D01*
X130400029Y-41675000D01*
X130400011Y-41675001D01*
X130297302Y-41685494D01*
X130130880Y-41740641D01*
X130130875Y-41740643D01*
X129981654Y-41832684D01*
X129857684Y-41956654D01*
X129765643Y-42105875D01*
X129765642Y-42105878D01*
X129735069Y-42198141D01*
X129695296Y-42255585D01*
X129630780Y-42282408D01*
X129562004Y-42270093D01*
X129510804Y-42222549D01*
X129501181Y-42202468D01*
X129493798Y-42182673D01*
X129493793Y-42182664D01*
X129407547Y-42067455D01*
X129407544Y-42067452D01*
X129292335Y-41981206D01*
X129292328Y-41981202D01*
X129157486Y-41930910D01*
X129157485Y-41930909D01*
X129157483Y-41930909D01*
X129097873Y-41924500D01*
X129097863Y-41924500D01*
X128502129Y-41924500D01*
X128502123Y-41924501D01*
X128442516Y-41930908D01*
X128307671Y-41981202D01*
X128307664Y-41981206D01*
X128192455Y-42067452D01*
X128192452Y-42067455D01*
X128106206Y-42182664D01*
X128106202Y-42182671D01*
X128055908Y-42317517D01*
X128049501Y-42377116D01*
X128049500Y-42377135D01*
X128049500Y-43068098D01*
X128029815Y-43135137D01*
X128013182Y-43155779D01*
X127769438Y-43399525D01*
X127699525Y-43469438D01*
X127650091Y-43555059D01*
X127650091Y-43555060D01*
X127650090Y-43555062D01*
X127624500Y-43650565D01*
X127624500Y-43650567D01*
X127624500Y-46471871D01*
X127604815Y-46538910D01*
X127552011Y-46584665D01*
X127543835Y-46588052D01*
X127495167Y-46606204D01*
X127495165Y-46606205D01*
X127379955Y-46692452D01*
X127379952Y-46692455D01*
X127293706Y-46807664D01*
X127293702Y-46807671D01*
X127243408Y-46942517D01*
X127240571Y-46968909D01*
X127237001Y-47002123D01*
X127237000Y-47002135D01*
X126937999Y-47002135D01*
X126937999Y-47002128D01*
X126931591Y-46942517D01*
X126919647Y-46910494D01*
X126881297Y-46807671D01*
X126881293Y-46807664D01*
X126795047Y-46692455D01*
X126795044Y-46692452D01*
X126679834Y-46606205D01*
X126662669Y-46599803D01*
X126606736Y-46557931D01*
X126582321Y-46492466D01*
X126597174Y-46424193D01*
X126598589Y-46421672D01*
X126611284Y-46399685D01*
X126648800Y-46259675D01*
X126648800Y-46114725D01*
X126611284Y-45974715D01*
X126600847Y-45956638D01*
X126538811Y-45849188D01*
X126538806Y-45849182D01*
X126436317Y-45746693D01*
X126436311Y-45746688D01*
X126310788Y-45674217D01*
X126310789Y-45674217D01*
X126295726Y-45670181D01*
X126170775Y-45636700D01*
X126025825Y-45636700D01*
X125900874Y-45670181D01*
X125885811Y-45674217D01*
X125760288Y-45746688D01*
X125760282Y-45746693D01*
X125657793Y-45849182D01*
X125657788Y-45849188D01*
X125585317Y-45974711D01*
X125585316Y-45974715D01*
X125547800Y-46114725D01*
X125547800Y-46114727D01*
X125547800Y-46186588D01*
X125528115Y-46253627D01*
X125475311Y-46299382D01*
X125406153Y-46309326D01*
X125342597Y-46280301D01*
X125316413Y-46248589D01*
X125306072Y-46230678D01*
X125282809Y-46190385D01*
X125180315Y-46087891D01*
X125180313Y-46087890D01*
X125180311Y-46087888D01*
X125054788Y-46015417D01*
X125054789Y-46015417D01*
X125043306Y-46012340D01*
X124914775Y-45977900D01*
X124769825Y-45977900D01*
X124641293Y-46012340D01*
X124629811Y-46015417D01*
X124504288Y-46087888D01*
X124504282Y-46087893D01*
X124401793Y-46190382D01*
X124401788Y-46190388D01*
X124329317Y-46315911D01*
X124329316Y-46315915D01*
X124291800Y-46455925D01*
X124291800Y-46600875D01*
X124329316Y-46740885D01*
X124329317Y-46740888D01*
X124401788Y-46866411D01*
X124401790Y-46866413D01*
X124401791Y-46866415D01*
X124504285Y-46968909D01*
X124561834Y-47002135D01*
X124629811Y-47041382D01*
X124629815Y-47041384D01*
X124656595Y-47048559D01*
X124680371Y-47063051D01*
X124705703Y-47074620D01*
X124709792Y-47080984D01*
X124716252Y-47084921D01*
X124728421Y-47109970D01*
X124743477Y-47133398D01*
X124745021Y-47144141D01*
X124746783Y-47147767D01*
X124748500Y-47168333D01*
X124748500Y-47236763D01*
X124728815Y-47303802D01*
X124676011Y-47349557D01*
X124606853Y-47359501D01*
X124562502Y-47344151D01*
X124536290Y-47329018D01*
X124536289Y-47329017D01*
X124514091Y-47323069D01*
X124396275Y-47291500D01*
X124251325Y-47291500D01*
X124133509Y-47323069D01*
X124111311Y-47329017D01*
X123985788Y-47401488D01*
X123985782Y-47401493D01*
X123938895Y-47448381D01*
X123877572Y-47481866D01*
X123851214Y-47484700D01*
X123179500Y-47484700D01*
X123112461Y-47465015D01*
X123066706Y-47412211D01*
X123055500Y-47360700D01*
X123055500Y-39119780D01*
X123075185Y-39052741D01*
X123123206Y-39009295D01*
X123256786Y-38941233D01*
X123256785Y-38941233D01*
X123256788Y-38941232D01*
X123396928Y-38839414D01*
X123519414Y-38716928D01*
X123621232Y-38576788D01*
X123699873Y-38422445D01*
X123753402Y-38257701D01*
X123780500Y-38086611D01*
X123780500Y-37913389D01*
X124119500Y-37913389D01*
X124119500Y-38086611D01*
X124146598Y-38257701D01*
X124200127Y-38422445D01*
X124278768Y-38576788D01*
X124380586Y-38716928D01*
X124503072Y-38839414D01*
X124643212Y-38941232D01*
X124797555Y-39019873D01*
X124962299Y-39073402D01*
X125133389Y-39100500D01*
X125133390Y-39100500D01*
X125306610Y-39100500D01*
X125306611Y-39100500D01*
X125477701Y-39073402D01*
X125642445Y-39019873D01*
X125796788Y-38941232D01*
X125936928Y-38839414D01*
X126059414Y-38716928D01*
X126161232Y-38576788D01*
X126239873Y-38422445D01*
X126293402Y-38257701D01*
X126320500Y-38086611D01*
X126320500Y-37913389D01*
X126659500Y-37913389D01*
X126659500Y-38086611D01*
X126686598Y-38257701D01*
X126740127Y-38422445D01*
X126818768Y-38576788D01*
X126920586Y-38716928D01*
X127043072Y-38839414D01*
X127183212Y-38941232D01*
X127337555Y-39019873D01*
X127502299Y-39073402D01*
X127673389Y-39100500D01*
X127673390Y-39100500D01*
X127846610Y-39100500D01*
X127846611Y-39100500D01*
X128017701Y-39073402D01*
X128182445Y-39019873D01*
X128336788Y-38941232D01*
X128476928Y-38839414D01*
X128599414Y-38716928D01*
X128701232Y-38576788D01*
X128779873Y-38422445D01*
X128833402Y-38257701D01*
X128860500Y-38086611D01*
X128860500Y-37913389D01*
X129199500Y-37913389D01*
X129199500Y-38086611D01*
X129226598Y-38257701D01*
X129280127Y-38422445D01*
X129358768Y-38576788D01*
X129460586Y-38716928D01*
X129583072Y-38839414D01*
X129723212Y-38941232D01*
X129877555Y-39019873D01*
X130042299Y-39073402D01*
X130213389Y-39100500D01*
X130213390Y-39100500D01*
X130386610Y-39100500D01*
X130386611Y-39100500D01*
X130557701Y-39073402D01*
X130722445Y-39019873D01*
X130876788Y-38941232D01*
X131016928Y-38839414D01*
X131139414Y-38716928D01*
X131241232Y-38576788D01*
X131319873Y-38422445D01*
X131373402Y-38257701D01*
X131400500Y-38086611D01*
X131400500Y-37913389D01*
X131739500Y-37913389D01*
X131739500Y-38086611D01*
X131766598Y-38257701D01*
X131820127Y-38422445D01*
X131898768Y-38576788D01*
X132000586Y-38716928D01*
X132123072Y-38839414D01*
X132263212Y-38941232D01*
X132417555Y-39019873D01*
X132582299Y-39073402D01*
X132753389Y-39100500D01*
X132753390Y-39100500D01*
X132926610Y-39100500D01*
X132926611Y-39100500D01*
X133097701Y-39073402D01*
X133262445Y-39019873D01*
X133416788Y-38941232D01*
X133556928Y-38839414D01*
X133679414Y-38716928D01*
X133781232Y-38576788D01*
X133859873Y-38422445D01*
X133913402Y-38257701D01*
X133940500Y-38086611D01*
X133940500Y-37913389D01*
X134279500Y-37913389D01*
X134279500Y-38086611D01*
X134306598Y-38257701D01*
X134360127Y-38422445D01*
X134438768Y-38576788D01*
X134540586Y-38716928D01*
X134663072Y-38839414D01*
X134803212Y-38941232D01*
X134957555Y-39019873D01*
X135122299Y-39073402D01*
X135293389Y-39100500D01*
X135293390Y-39100500D01*
X135466610Y-39100500D01*
X135466611Y-39100500D01*
X135637701Y-39073402D01*
X135802445Y-39019873D01*
X135956788Y-38941232D01*
X136096928Y-38839414D01*
X136219414Y-38716928D01*
X136321232Y-38576788D01*
X136399873Y-38422445D01*
X136453402Y-38257701D01*
X136480500Y-38086611D01*
X136480500Y-37913389D01*
X136819500Y-37913389D01*
X136819500Y-38086611D01*
X136846598Y-38257701D01*
X136900127Y-38422445D01*
X136978768Y-38576788D01*
X137080586Y-38716928D01*
X137203072Y-38839414D01*
X137343212Y-38941232D01*
X137497555Y-39019873D01*
X137662299Y-39073402D01*
X137833389Y-39100500D01*
X137833390Y-39100500D01*
X138006610Y-39100500D01*
X138006611Y-39100500D01*
X138177701Y-39073402D01*
X138342445Y-39019873D01*
X138496788Y-38941232D01*
X138636928Y-38839414D01*
X138759414Y-38716928D01*
X138861232Y-38576788D01*
X138939873Y-38422445D01*
X138993402Y-38257701D01*
X139020500Y-38086611D01*
X139020500Y-37913389D01*
X139359500Y-37913389D01*
X139359500Y-38086611D01*
X139386598Y-38257701D01*
X139440127Y-38422445D01*
X139518768Y-38576788D01*
X139620586Y-38716928D01*
X139743072Y-38839414D01*
X139883212Y-38941232D01*
X140037555Y-39019873D01*
X140202299Y-39073402D01*
X140373389Y-39100500D01*
X140373390Y-39100500D01*
X140546610Y-39100500D01*
X140546611Y-39100500D01*
X140717701Y-39073402D01*
X140882445Y-39019873D01*
X141036788Y-38941232D01*
X141176928Y-38839414D01*
X141299414Y-38716928D01*
X141401232Y-38576788D01*
X141479873Y-38422445D01*
X141533402Y-38257701D01*
X141560500Y-38086611D01*
X141560500Y-37913389D01*
X141899500Y-37913389D01*
X141899500Y-38086611D01*
X141926598Y-38257701D01*
X141980127Y-38422445D01*
X142058768Y-38576788D01*
X142160586Y-38716928D01*
X142283072Y-38839414D01*
X142423212Y-38941232D01*
X142577555Y-39019873D01*
X142742299Y-39073402D01*
X142913389Y-39100500D01*
X142913390Y-39100500D01*
X143086610Y-39100500D01*
X143086611Y-39100500D01*
X143257701Y-39073402D01*
X143422445Y-39019873D01*
X143576788Y-38941232D01*
X143716928Y-38839414D01*
X143839414Y-38716928D01*
X143941232Y-38576788D01*
X144019873Y-38422445D01*
X144073402Y-38257701D01*
X144100500Y-38086611D01*
X144100500Y-37913389D01*
X144439500Y-37913389D01*
X144439500Y-38086611D01*
X144466598Y-38257701D01*
X144520127Y-38422445D01*
X144598768Y-38576788D01*
X144700586Y-38716928D01*
X144823072Y-38839414D01*
X144963212Y-38941232D01*
X145117555Y-39019873D01*
X145282299Y-39073402D01*
X145453389Y-39100500D01*
X145453390Y-39100500D01*
X145626610Y-39100500D01*
X145626611Y-39100500D01*
X145797701Y-39073402D01*
X145962445Y-39019873D01*
X146116788Y-38941232D01*
X146256928Y-38839414D01*
X146379414Y-38716928D01*
X146481232Y-38576788D01*
X146559873Y-38422445D01*
X146613402Y-38257701D01*
X146640500Y-38086611D01*
X146640500Y-37913389D01*
X146979500Y-37913389D01*
X146979500Y-38086611D01*
X147006598Y-38257701D01*
X147060127Y-38422445D01*
X147138768Y-38576788D01*
X147240586Y-38716928D01*
X147363072Y-38839414D01*
X147503212Y-38941232D01*
X147657555Y-39019873D01*
X147822299Y-39073402D01*
X147993389Y-39100500D01*
X147993390Y-39100500D01*
X148166610Y-39100500D01*
X148166611Y-39100500D01*
X148337701Y-39073402D01*
X148502445Y-39019873D01*
X148656788Y-38941232D01*
X148796928Y-38839414D01*
X148919414Y-38716928D01*
X149021232Y-38576788D01*
X149099873Y-38422445D01*
X149100896Y-38419294D01*
X149101610Y-38418250D01*
X149101734Y-38417952D01*
X149101796Y-38417977D01*
X149140327Y-38361618D01*
X149204683Y-38334415D01*
X149273530Y-38346323D01*
X149325011Y-38393562D01*
X149336760Y-38419287D01*
X149368904Y-38518217D01*
X149465375Y-38707550D01*
X149504728Y-38761716D01*
X150137036Y-38129407D01*
X150154075Y-38192993D01*
X150219901Y-38307007D01*
X150312993Y-38400099D01*
X150427007Y-38465925D01*
X150490589Y-38482962D01*
X149858282Y-39115269D01*
X149858282Y-39115270D01*
X149912449Y-39154624D01*
X150101784Y-39251096D01*
X150288366Y-39311719D01*
X150346042Y-39351156D01*
X150373241Y-39415514D01*
X150361327Y-39484361D01*
X150337730Y-39517331D01*
X148050682Y-41804381D01*
X147989359Y-41837866D01*
X147963001Y-41840700D01*
X147922425Y-41840700D01*
X147798030Y-41874032D01*
X147782411Y-41878217D01*
X147656888Y-41950688D01*
X147656882Y-41950693D01*
X147554393Y-42053182D01*
X147554388Y-42053188D01*
X147481917Y-42178711D01*
X147480856Y-42182671D01*
X147444400Y-42318725D01*
X147444400Y-42463675D01*
X147481916Y-42603685D01*
X147481917Y-42603688D01*
X147554388Y-42729211D01*
X147554390Y-42729213D01*
X147554391Y-42729215D01*
X147656885Y-42831709D01*
X147656886Y-42831710D01*
X147656888Y-42831711D01*
X147782411Y-42904182D01*
X147782412Y-42904182D01*
X147782415Y-42904184D01*
X147922425Y-42941700D01*
X147922428Y-42941700D01*
X148067372Y-42941700D01*
X148067375Y-42941700D01*
X148207385Y-42904184D01*
X148332915Y-42831709D01*
X148435409Y-42729215D01*
X148507884Y-42603685D01*
X148545400Y-42463675D01*
X148545400Y-42423099D01*
X148565085Y-42356060D01*
X148581719Y-42335418D01*
X149242138Y-41674999D01*
X152172718Y-38744418D01*
X152234039Y-38710935D01*
X152303731Y-38715919D01*
X152348078Y-38744420D01*
X152443072Y-38839414D01*
X152583212Y-38941232D01*
X152737555Y-39019873D01*
X152902299Y-39073402D01*
X153073389Y-39100500D01*
X153073390Y-39100500D01*
X153246610Y-39100500D01*
X153246611Y-39100500D01*
X153417701Y-39073402D01*
X153582445Y-39019873D01*
X153736788Y-38941232D01*
X153876928Y-38839414D01*
X153999414Y-38716928D01*
X154101232Y-38576788D01*
X154179873Y-38422445D01*
X154233402Y-38257701D01*
X154260500Y-38086611D01*
X154260500Y-37913389D01*
X154599500Y-37913389D01*
X154599500Y-38086611D01*
X154626598Y-38257701D01*
X154680127Y-38422445D01*
X154758768Y-38576788D01*
X154860586Y-38716928D01*
X154983072Y-38839414D01*
X155123212Y-38941232D01*
X155277555Y-39019873D01*
X155442299Y-39073402D01*
X155613389Y-39100500D01*
X155613390Y-39100500D01*
X155786610Y-39100500D01*
X155786611Y-39100500D01*
X155957701Y-39073402D01*
X156122445Y-39019873D01*
X156276788Y-38941232D01*
X156416928Y-38839414D01*
X156539414Y-38716928D01*
X156641232Y-38576788D01*
X156719873Y-38422445D01*
X156773402Y-38257701D01*
X156800500Y-38086611D01*
X156800500Y-37913389D01*
X157139500Y-37913389D01*
X157139500Y-38086611D01*
X157166598Y-38257701D01*
X157220127Y-38422445D01*
X157298768Y-38576788D01*
X157400586Y-38716928D01*
X157523072Y-38839414D01*
X157663212Y-38941232D01*
X157817555Y-39019873D01*
X157982299Y-39073402D01*
X158153389Y-39100500D01*
X158153390Y-39100500D01*
X158326610Y-39100500D01*
X158326611Y-39100500D01*
X158497701Y-39073402D01*
X158662445Y-39019873D01*
X158816788Y-38941232D01*
X158956928Y-38839414D01*
X159079414Y-38716928D01*
X159181232Y-38576788D01*
X159259873Y-38422445D01*
X159313402Y-38257701D01*
X159340500Y-38086611D01*
X159340500Y-37913389D01*
X159313402Y-37742299D01*
X159259873Y-37577555D01*
X159181232Y-37423212D01*
X159079414Y-37283072D01*
X158956928Y-37160586D01*
X158816788Y-37058768D01*
X158662445Y-36980127D01*
X158497701Y-36926598D01*
X158497699Y-36926597D01*
X158497698Y-36926597D01*
X158366271Y-36905781D01*
X158326611Y-36899500D01*
X158153389Y-36899500D01*
X158113728Y-36905781D01*
X157982302Y-36926597D01*
X157817552Y-36980128D01*
X157663211Y-37058768D01*
X157586877Y-37114229D01*
X157523072Y-37160586D01*
X157523070Y-37160588D01*
X157523069Y-37160588D01*
X157400588Y-37283069D01*
X157400588Y-37283070D01*
X157400586Y-37283072D01*
X157356859Y-37343256D01*
X157298768Y-37423211D01*
X157220128Y-37577552D01*
X157166597Y-37742302D01*
X157156349Y-37807007D01*
X157139500Y-37913389D01*
X156800500Y-37913389D01*
X156773402Y-37742299D01*
X156719873Y-37577555D01*
X156641232Y-37423212D01*
X156539414Y-37283072D01*
X156416928Y-37160586D01*
X156276788Y-37058768D01*
X156122445Y-36980127D01*
X155957701Y-36926598D01*
X155957699Y-36926597D01*
X155957698Y-36926597D01*
X155826271Y-36905781D01*
X155786611Y-36899500D01*
X155613389Y-36899500D01*
X155573728Y-36905781D01*
X155442302Y-36926597D01*
X155277552Y-36980128D01*
X155123211Y-37058768D01*
X155046877Y-37114229D01*
X154983072Y-37160586D01*
X154983070Y-37160588D01*
X154983069Y-37160588D01*
X154860588Y-37283069D01*
X154860588Y-37283070D01*
X154860586Y-37283072D01*
X154816859Y-37343256D01*
X154758768Y-37423211D01*
X154680128Y-37577552D01*
X154626597Y-37742302D01*
X154616349Y-37807007D01*
X154599500Y-37913389D01*
X154260500Y-37913389D01*
X154233402Y-37742299D01*
X154179873Y-37577555D01*
X154101232Y-37423212D01*
X153999414Y-37283072D01*
X153876928Y-37160586D01*
X153736788Y-37058768D01*
X153582445Y-36980127D01*
X153417701Y-36926598D01*
X153417699Y-36926597D01*
X153417698Y-36926597D01*
X153286271Y-36905781D01*
X153246611Y-36899500D01*
X153073389Y-36899500D01*
X153033728Y-36905781D01*
X152902302Y-36926597D01*
X152737552Y-36980128D01*
X152583211Y-37058768D01*
X152497786Y-37120834D01*
X152485925Y-37125065D01*
X152476411Y-37133310D01*
X152453645Y-37136583D01*
X152431979Y-37144314D01*
X152419714Y-37141462D01*
X152407253Y-37143254D01*
X152386330Y-37133699D01*
X152363925Y-37128489D01*
X152355149Y-37119459D01*
X152343697Y-37114229D01*
X152331261Y-37094879D01*
X152315230Y-37078383D01*
X152311825Y-37064635D01*
X152305923Y-37055451D01*
X152300900Y-37020516D01*
X152300900Y-36901498D01*
X152320585Y-36834459D01*
X152337215Y-36813821D01*
X152633715Y-36517320D01*
X152695036Y-36483837D01*
X152759710Y-36487071D01*
X152902299Y-36533402D01*
X153073389Y-36560500D01*
X153073390Y-36560500D01*
X153246610Y-36560500D01*
X153246611Y-36560500D01*
X153417701Y-36533402D01*
X153582445Y-36479873D01*
X153736788Y-36401232D01*
X153876928Y-36299414D01*
X153999414Y-36176928D01*
X154101232Y-36036788D01*
X154179873Y-35882445D01*
X154233402Y-35717701D01*
X154260500Y-35546611D01*
X154260500Y-35373389D01*
X154599500Y-35373389D01*
X154599500Y-35546610D01*
X154620809Y-35681155D01*
X154626598Y-35717701D01*
X154680127Y-35882445D01*
X154758768Y-36036788D01*
X154860586Y-36176928D01*
X154983072Y-36299414D01*
X155123212Y-36401232D01*
X155277555Y-36479873D01*
X155442299Y-36533402D01*
X155613389Y-36560500D01*
X155613390Y-36560500D01*
X155786610Y-36560500D01*
X155786611Y-36560500D01*
X155957701Y-36533402D01*
X156122445Y-36479873D01*
X156276788Y-36401232D01*
X156416928Y-36299414D01*
X156539414Y-36176928D01*
X156641232Y-36036788D01*
X156719873Y-35882445D01*
X156773402Y-35717701D01*
X156800500Y-35546611D01*
X156800500Y-35373389D01*
X157139500Y-35373389D01*
X157139500Y-35546610D01*
X157160809Y-35681155D01*
X157166598Y-35717701D01*
X157220127Y-35882445D01*
X157298768Y-36036788D01*
X157400586Y-36176928D01*
X157523072Y-36299414D01*
X157663212Y-36401232D01*
X157817555Y-36479873D01*
X157982299Y-36533402D01*
X158153389Y-36560500D01*
X158153390Y-36560500D01*
X158326610Y-36560500D01*
X158326611Y-36560500D01*
X158497701Y-36533402D01*
X158662445Y-36479873D01*
X158816788Y-36401232D01*
X158826690Y-36394038D01*
X161499500Y-36394038D01*
X161499500Y-36645962D01*
X161515805Y-36748904D01*
X161538910Y-36894785D01*
X161616760Y-37134383D01*
X161669700Y-37238282D01*
X161697294Y-37292439D01*
X161731132Y-37358848D01*
X161879201Y-37562649D01*
X161879205Y-37562654D01*
X162057345Y-37740794D01*
X162057350Y-37740798D01*
X162230444Y-37866557D01*
X162261155Y-37888870D01*
X162404184Y-37961747D01*
X162485616Y-38003239D01*
X162485618Y-38003239D01*
X162485621Y-38003241D01*
X162725215Y-38081090D01*
X162974038Y-38120500D01*
X162974039Y-38120500D01*
X163225961Y-38120500D01*
X163225962Y-38120500D01*
X163474785Y-38081090D01*
X163714379Y-38003241D01*
X163938845Y-37888870D01*
X164142656Y-37740793D01*
X164320793Y-37562656D01*
X164468870Y-37358845D01*
X164583241Y-37134379D01*
X164661090Y-36894785D01*
X164700500Y-36645962D01*
X164700500Y-36394038D01*
X164661090Y-36145215D01*
X164583241Y-35905621D01*
X164583239Y-35905618D01*
X164583239Y-35905616D01*
X164541747Y-35824184D01*
X164468870Y-35681155D01*
X164449952Y-35655117D01*
X164320798Y-35477350D01*
X164320794Y-35477345D01*
X164142654Y-35299205D01*
X164142649Y-35299201D01*
X163938848Y-35151132D01*
X163938847Y-35151131D01*
X163938845Y-35151130D01*
X163868747Y-35115413D01*
X163714383Y-35036760D01*
X163474785Y-34958910D01*
X163225962Y-34919500D01*
X162974038Y-34919500D01*
X162849626Y-34939205D01*
X162725214Y-34958910D01*
X162485616Y-35036760D01*
X162261151Y-35151132D01*
X162057350Y-35299201D01*
X162057345Y-35299205D01*
X161879205Y-35477345D01*
X161879201Y-35477350D01*
X161731132Y-35681151D01*
X161616760Y-35905616D01*
X161574140Y-36036788D01*
X161538910Y-36145215D01*
X161499500Y-36394038D01*
X158826690Y-36394038D01*
X158956928Y-36299414D01*
X159079414Y-36176928D01*
X159181232Y-36036788D01*
X159259873Y-35882445D01*
X159313402Y-35717701D01*
X159340500Y-35546611D01*
X159340500Y-35373389D01*
X159313402Y-35202299D01*
X159259873Y-35037555D01*
X159181232Y-34883212D01*
X159079414Y-34743072D01*
X158956928Y-34620586D01*
X158816788Y-34518768D01*
X158662445Y-34440127D01*
X158497701Y-34386598D01*
X158497699Y-34386597D01*
X158497698Y-34386597D01*
X158366271Y-34365781D01*
X158326611Y-34359500D01*
X158153389Y-34359500D01*
X158113728Y-34365781D01*
X157982302Y-34386597D01*
X157817552Y-34440128D01*
X157663211Y-34518768D01*
X157583256Y-34576859D01*
X157523072Y-34620586D01*
X157523070Y-34620588D01*
X157523069Y-34620588D01*
X157400588Y-34743069D01*
X157400588Y-34743070D01*
X157400586Y-34743072D01*
X157356859Y-34803256D01*
X157298768Y-34883211D01*
X157220128Y-35037552D01*
X157166597Y-35202302D01*
X157139500Y-35373389D01*
X156800500Y-35373389D01*
X156773402Y-35202299D01*
X156719873Y-35037555D01*
X156641232Y-34883212D01*
X156539414Y-34743072D01*
X156416928Y-34620586D01*
X156276788Y-34518768D01*
X156122445Y-34440127D01*
X155957701Y-34386598D01*
X155957699Y-34386597D01*
X155957698Y-34386597D01*
X155826271Y-34365781D01*
X155786611Y-34359500D01*
X155613389Y-34359500D01*
X155573728Y-34365781D01*
X155442302Y-34386597D01*
X155277552Y-34440128D01*
X155123211Y-34518768D01*
X155043256Y-34576859D01*
X154983072Y-34620586D01*
X154983070Y-34620588D01*
X154983069Y-34620588D01*
X154860588Y-34743069D01*
X154860588Y-34743070D01*
X154860586Y-34743072D01*
X154816859Y-34803256D01*
X154758768Y-34883211D01*
X154680128Y-35037552D01*
X154626597Y-35202302D01*
X154599500Y-35373389D01*
X154260500Y-35373389D01*
X154233402Y-35202299D01*
X154179873Y-35037555D01*
X154101232Y-34883212D01*
X153999414Y-34743072D01*
X153876928Y-34620586D01*
X153736788Y-34518768D01*
X153582445Y-34440127D01*
X153417701Y-34386598D01*
X153417699Y-34386597D01*
X153417698Y-34386597D01*
X153286271Y-34365781D01*
X153246611Y-34359500D01*
X153073389Y-34359500D01*
X153033728Y-34365781D01*
X152902302Y-34386597D01*
X152737552Y-34440128D01*
X152583211Y-34518768D01*
X152503256Y-34576859D01*
X152443072Y-34620586D01*
X152443070Y-34620588D01*
X152443069Y-34620588D01*
X152320588Y-34743069D01*
X152320588Y-34743070D01*
X152320586Y-34743072D01*
X152276859Y-34803256D01*
X152218768Y-34883211D01*
X152140128Y-35037552D01*
X152086597Y-35202302D01*
X152059500Y-35373389D01*
X152059500Y-35546610D01*
X152086597Y-35717697D01*
X152132927Y-35860285D01*
X152134922Y-35930126D01*
X152102677Y-35986284D01*
X151694838Y-36394125D01*
X151624926Y-36464036D01*
X151575491Y-36549659D01*
X151575491Y-36549660D01*
X151575490Y-36549662D01*
X151549900Y-36645165D01*
X151549900Y-36645167D01*
X151549900Y-36763556D01*
X151530215Y-36830595D01*
X151477411Y-36876350D01*
X151408253Y-36886294D01*
X151353016Y-36863875D01*
X151327557Y-36845378D01*
X151138217Y-36748904D01*
X151039287Y-36716760D01*
X150981611Y-36677323D01*
X150954413Y-36612964D01*
X150966328Y-36544118D01*
X151013572Y-36492642D01*
X151039290Y-36480897D01*
X151042445Y-36479873D01*
X151196788Y-36401232D01*
X151336928Y-36299414D01*
X151459414Y-36176928D01*
X151561232Y-36036788D01*
X151639873Y-35882445D01*
X151693402Y-35717701D01*
X151720500Y-35546611D01*
X151720500Y-35373389D01*
X151693402Y-35202299D01*
X151639873Y-35037555D01*
X151561232Y-34883212D01*
X151459414Y-34743072D01*
X151336928Y-34620586D01*
X151196788Y-34518768D01*
X151042445Y-34440127D01*
X150877701Y-34386598D01*
X150877699Y-34386597D01*
X150877698Y-34386597D01*
X150746271Y-34365781D01*
X150706611Y-34359500D01*
X150533389Y-34359500D01*
X150493728Y-34365781D01*
X150362302Y-34386597D01*
X150197552Y-34440128D01*
X150043211Y-34518768D01*
X149963256Y-34576859D01*
X149903072Y-34620586D01*
X149903070Y-34620588D01*
X149903069Y-34620588D01*
X149780588Y-34743069D01*
X149780588Y-34743070D01*
X149780586Y-34743072D01*
X149736859Y-34803256D01*
X149678768Y-34883211D01*
X149600128Y-35037552D01*
X149546597Y-35202302D01*
X149519500Y-35373389D01*
X149519500Y-35546610D01*
X149540809Y-35681155D01*
X149546598Y-35717701D01*
X149600127Y-35882445D01*
X149678768Y-36036788D01*
X149780586Y-36176928D01*
X149903072Y-36299414D01*
X150043212Y-36401232D01*
X150197555Y-36479873D01*
X150200708Y-36480897D01*
X150201752Y-36481611D01*
X150202048Y-36481734D01*
X150202022Y-36481795D01*
X150258383Y-36520330D01*
X150285585Y-36584688D01*
X150273674Y-36653535D01*
X150226433Y-36705013D01*
X150200712Y-36716760D01*
X150101783Y-36748904D01*
X149912439Y-36845380D01*
X149858282Y-36884727D01*
X149858282Y-36884728D01*
X150490591Y-37517037D01*
X150427007Y-37534075D01*
X150312993Y-37599901D01*
X150219901Y-37692993D01*
X150154075Y-37807007D01*
X150137037Y-37870591D01*
X149504728Y-37238282D01*
X149504727Y-37238282D01*
X149465380Y-37292439D01*
X149368904Y-37481783D01*
X149336760Y-37580712D01*
X149297322Y-37638388D01*
X149232964Y-37665586D01*
X149164117Y-37653671D01*
X149112642Y-37606427D01*
X149100898Y-37580712D01*
X149099873Y-37577555D01*
X149021232Y-37423212D01*
X148919414Y-37283072D01*
X148796928Y-37160586D01*
X148656788Y-37058768D01*
X148502445Y-36980127D01*
X148337701Y-36926598D01*
X148337699Y-36926597D01*
X148337698Y-36926597D01*
X148206271Y-36905781D01*
X148166611Y-36899500D01*
X147993389Y-36899500D01*
X147953728Y-36905781D01*
X147822302Y-36926597D01*
X147657552Y-36980128D01*
X147503211Y-37058768D01*
X147426877Y-37114229D01*
X147363072Y-37160586D01*
X147363070Y-37160588D01*
X147363069Y-37160588D01*
X147240588Y-37283069D01*
X147240588Y-37283070D01*
X147240586Y-37283072D01*
X147196859Y-37343256D01*
X147138768Y-37423211D01*
X147060128Y-37577552D01*
X147006597Y-37742302D01*
X146996349Y-37807007D01*
X146979500Y-37913389D01*
X146640500Y-37913389D01*
X146613402Y-37742299D01*
X146559873Y-37577555D01*
X146481232Y-37423212D01*
X146379414Y-37283072D01*
X146256928Y-37160586D01*
X146116788Y-37058768D01*
X145962445Y-36980127D01*
X145797701Y-36926598D01*
X145797699Y-36926597D01*
X145797698Y-36926597D01*
X145666271Y-36905781D01*
X145626611Y-36899500D01*
X145453389Y-36899500D01*
X145413728Y-36905781D01*
X145282302Y-36926597D01*
X145117552Y-36980128D01*
X144963211Y-37058768D01*
X144886877Y-37114229D01*
X144823072Y-37160586D01*
X144823070Y-37160588D01*
X144823069Y-37160588D01*
X144700588Y-37283069D01*
X144700588Y-37283070D01*
X144700586Y-37283072D01*
X144656859Y-37343256D01*
X144598768Y-37423211D01*
X144520128Y-37577552D01*
X144466597Y-37742302D01*
X144456349Y-37807007D01*
X144439500Y-37913389D01*
X144100500Y-37913389D01*
X144073402Y-37742299D01*
X144019873Y-37577555D01*
X143941232Y-37423212D01*
X143839414Y-37283072D01*
X143716928Y-37160586D01*
X143576788Y-37058768D01*
X143422445Y-36980127D01*
X143257701Y-36926598D01*
X143257699Y-36926597D01*
X143257698Y-36926597D01*
X143126271Y-36905781D01*
X143086611Y-36899500D01*
X142913389Y-36899500D01*
X142873728Y-36905781D01*
X142742302Y-36926597D01*
X142577552Y-36980128D01*
X142423211Y-37058768D01*
X142346877Y-37114229D01*
X142283072Y-37160586D01*
X142283070Y-37160588D01*
X142283069Y-37160588D01*
X142160588Y-37283069D01*
X142160588Y-37283070D01*
X142160586Y-37283072D01*
X142116859Y-37343256D01*
X142058768Y-37423211D01*
X141980128Y-37577552D01*
X141926597Y-37742302D01*
X141916349Y-37807007D01*
X141899500Y-37913389D01*
X141560500Y-37913389D01*
X141533402Y-37742299D01*
X141479873Y-37577555D01*
X141401232Y-37423212D01*
X141299414Y-37283072D01*
X141176928Y-37160586D01*
X141036788Y-37058768D01*
X140882445Y-36980127D01*
X140717701Y-36926598D01*
X140717699Y-36926597D01*
X140717698Y-36926597D01*
X140586271Y-36905781D01*
X140546611Y-36899500D01*
X140373389Y-36899500D01*
X140333728Y-36905781D01*
X140202302Y-36926597D01*
X140037552Y-36980128D01*
X139883211Y-37058768D01*
X139806877Y-37114229D01*
X139743072Y-37160586D01*
X139743070Y-37160588D01*
X139743069Y-37160588D01*
X139620588Y-37283069D01*
X139620588Y-37283070D01*
X139620586Y-37283072D01*
X139576859Y-37343256D01*
X139518768Y-37423211D01*
X139440128Y-37577552D01*
X139386597Y-37742302D01*
X139376349Y-37807007D01*
X139359500Y-37913389D01*
X139020500Y-37913389D01*
X138993402Y-37742299D01*
X138939873Y-37577555D01*
X138861232Y-37423212D01*
X138759414Y-37283072D01*
X138636928Y-37160586D01*
X138496788Y-37058768D01*
X138342445Y-36980127D01*
X138177701Y-36926598D01*
X138177699Y-36926597D01*
X138177698Y-36926597D01*
X138046271Y-36905781D01*
X138006611Y-36899500D01*
X137833389Y-36899500D01*
X137793728Y-36905781D01*
X137662302Y-36926597D01*
X137497552Y-36980128D01*
X137343211Y-37058768D01*
X137266877Y-37114229D01*
X137203072Y-37160586D01*
X137203070Y-37160588D01*
X137203069Y-37160588D01*
X137080588Y-37283069D01*
X137080588Y-37283070D01*
X137080586Y-37283072D01*
X137036859Y-37343256D01*
X136978768Y-37423211D01*
X136900128Y-37577552D01*
X136846597Y-37742302D01*
X136836349Y-37807007D01*
X136819500Y-37913389D01*
X136480500Y-37913389D01*
X136453402Y-37742299D01*
X136399873Y-37577555D01*
X136321232Y-37423212D01*
X136219414Y-37283072D01*
X136096928Y-37160586D01*
X135956788Y-37058768D01*
X135802445Y-36980127D01*
X135637701Y-36926598D01*
X135637699Y-36926597D01*
X135637698Y-36926597D01*
X135506271Y-36905781D01*
X135466611Y-36899500D01*
X135293389Y-36899500D01*
X135253728Y-36905781D01*
X135122302Y-36926597D01*
X134957552Y-36980128D01*
X134803211Y-37058768D01*
X134726877Y-37114229D01*
X134663072Y-37160586D01*
X134663070Y-37160588D01*
X134663069Y-37160588D01*
X134540588Y-37283069D01*
X134540588Y-37283070D01*
X134540586Y-37283072D01*
X134496859Y-37343256D01*
X134438768Y-37423211D01*
X134360128Y-37577552D01*
X134306597Y-37742302D01*
X134296349Y-37807007D01*
X134279500Y-37913389D01*
X133940500Y-37913389D01*
X133913402Y-37742299D01*
X133859873Y-37577555D01*
X133781232Y-37423212D01*
X133679414Y-37283072D01*
X133556928Y-37160586D01*
X133416788Y-37058768D01*
X133262445Y-36980127D01*
X133097701Y-36926598D01*
X133097699Y-36926597D01*
X133097698Y-36926597D01*
X132966271Y-36905781D01*
X132926611Y-36899500D01*
X132753389Y-36899500D01*
X132713728Y-36905781D01*
X132582302Y-36926597D01*
X132417552Y-36980128D01*
X132263211Y-37058768D01*
X132186877Y-37114229D01*
X132123072Y-37160586D01*
X132123070Y-37160588D01*
X132123069Y-37160588D01*
X132000588Y-37283069D01*
X132000588Y-37283070D01*
X132000586Y-37283072D01*
X131956859Y-37343256D01*
X131898768Y-37423211D01*
X131820128Y-37577552D01*
X131766597Y-37742302D01*
X131756349Y-37807007D01*
X131739500Y-37913389D01*
X131400500Y-37913389D01*
X131373402Y-37742299D01*
X131319873Y-37577555D01*
X131241232Y-37423212D01*
X131139414Y-37283072D01*
X131016928Y-37160586D01*
X130876788Y-37058768D01*
X130722445Y-36980127D01*
X130557701Y-36926598D01*
X130557699Y-36926597D01*
X130557698Y-36926597D01*
X130426271Y-36905781D01*
X130386611Y-36899500D01*
X130213389Y-36899500D01*
X130173728Y-36905781D01*
X130042302Y-36926597D01*
X129877552Y-36980128D01*
X129723211Y-37058768D01*
X129646877Y-37114229D01*
X129583072Y-37160586D01*
X129583070Y-37160588D01*
X129583069Y-37160588D01*
X129460588Y-37283069D01*
X129460588Y-37283070D01*
X129460586Y-37283072D01*
X129416859Y-37343256D01*
X129358768Y-37423211D01*
X129280128Y-37577552D01*
X129226597Y-37742302D01*
X129216349Y-37807007D01*
X129199500Y-37913389D01*
X128860500Y-37913389D01*
X128833402Y-37742299D01*
X128779873Y-37577555D01*
X128701232Y-37423212D01*
X128599414Y-37283072D01*
X128476928Y-37160586D01*
X128336788Y-37058768D01*
X128182445Y-36980127D01*
X128017701Y-36926598D01*
X128017699Y-36926597D01*
X128017698Y-36926597D01*
X127886271Y-36905781D01*
X127846611Y-36899500D01*
X127673389Y-36899500D01*
X127633728Y-36905781D01*
X127502302Y-36926597D01*
X127337552Y-36980128D01*
X127183211Y-37058768D01*
X127106877Y-37114229D01*
X127043072Y-37160586D01*
X127043070Y-37160588D01*
X127043069Y-37160588D01*
X126920588Y-37283069D01*
X126920588Y-37283070D01*
X126920586Y-37283072D01*
X126876859Y-37343256D01*
X126818768Y-37423211D01*
X126740128Y-37577552D01*
X126686597Y-37742302D01*
X126676349Y-37807007D01*
X126659500Y-37913389D01*
X126320500Y-37913389D01*
X126293402Y-37742299D01*
X126239873Y-37577555D01*
X126161232Y-37423212D01*
X126059414Y-37283072D01*
X125936928Y-37160586D01*
X125796788Y-37058768D01*
X125642445Y-36980127D01*
X125477701Y-36926598D01*
X125477699Y-36926597D01*
X125477698Y-36926597D01*
X125346271Y-36905781D01*
X125306611Y-36899500D01*
X125133389Y-36899500D01*
X125093728Y-36905781D01*
X124962302Y-36926597D01*
X124797552Y-36980128D01*
X124643211Y-37058768D01*
X124566877Y-37114229D01*
X124503072Y-37160586D01*
X124503070Y-37160588D01*
X124503069Y-37160588D01*
X124380588Y-37283069D01*
X124380588Y-37283070D01*
X124380586Y-37283072D01*
X124336859Y-37343256D01*
X124278768Y-37423211D01*
X124200128Y-37577552D01*
X124146597Y-37742302D01*
X124136349Y-37807007D01*
X124119500Y-37913389D01*
X123780500Y-37913389D01*
X123753402Y-37742299D01*
X123699873Y-37577555D01*
X123621232Y-37423212D01*
X123519414Y-37283072D01*
X123396928Y-37160586D01*
X123256788Y-37058768D01*
X123102445Y-36980127D01*
X122937701Y-36926598D01*
X122937699Y-36926597D01*
X122937698Y-36926597D01*
X122806271Y-36905781D01*
X122766611Y-36899500D01*
X122593389Y-36899500D01*
X122553728Y-36905781D01*
X122422302Y-36926597D01*
X122257552Y-36980128D01*
X122103211Y-37058768D01*
X122026877Y-37114229D01*
X121963072Y-37160586D01*
X121963070Y-37160588D01*
X121963069Y-37160588D01*
X121840588Y-37283069D01*
X121840588Y-37283070D01*
X121840586Y-37283072D01*
X121796859Y-37343256D01*
X121738768Y-37423211D01*
X121660128Y-37577552D01*
X121606597Y-37742302D01*
X121596349Y-37807007D01*
X121579500Y-37913389D01*
X121579500Y-38086611D01*
X121606598Y-38257701D01*
X121660127Y-38422445D01*
X121738768Y-38576788D01*
X121840586Y-38716928D01*
X121963072Y-38839414D01*
X122068177Y-38915777D01*
X122103213Y-38941233D01*
X122236794Y-39009295D01*
X122287591Y-39057269D01*
X122304500Y-39119780D01*
X122304500Y-47627635D01*
X122309136Y-47644938D01*
X122330090Y-47723138D01*
X122369605Y-47791579D01*
X122386078Y-47859479D01*
X122363226Y-47925506D01*
X122349899Y-47941261D01*
X121709682Y-48581481D01*
X121648359Y-48614966D01*
X121622001Y-48617800D01*
X121581425Y-48617800D01*
X121452893Y-48652240D01*
X121441411Y-48655317D01*
X121315888Y-48727788D01*
X121315882Y-48727793D01*
X121213393Y-48830282D01*
X121213388Y-48830288D01*
X121140917Y-48955811D01*
X121140916Y-48955815D01*
X121103400Y-49095825D01*
X105811797Y-49095825D01*
X105922445Y-49059873D01*
X106076788Y-48981232D01*
X106216928Y-48879414D01*
X106339414Y-48756928D01*
X106441232Y-48616788D01*
X106519873Y-48462445D01*
X106573402Y-48297701D01*
X106600500Y-48126611D01*
X106600500Y-47953389D01*
X106573402Y-47782299D01*
X106519873Y-47617555D01*
X106441232Y-47463212D01*
X106339414Y-47323072D01*
X106216928Y-47200586D01*
X106076788Y-47098768D01*
X106064563Y-47092539D01*
X105922447Y-47020128D01*
X105922446Y-47020127D01*
X105922445Y-47020127D01*
X105757701Y-46966598D01*
X105757699Y-46966597D01*
X105757698Y-46966597D01*
X105626271Y-46945781D01*
X105586611Y-46939500D01*
X105413389Y-46939500D01*
X105373728Y-46945781D01*
X105242302Y-46966597D01*
X105077552Y-47020128D01*
X104923211Y-47098768D01*
X104853384Y-47149501D01*
X104783072Y-47200586D01*
X104783070Y-47200588D01*
X104783069Y-47200588D01*
X104660588Y-47323069D01*
X104660588Y-47323070D01*
X104660586Y-47323072D01*
X104634119Y-47359501D01*
X104558768Y-47463211D01*
X104480128Y-47617552D01*
X104426597Y-47782302D01*
X104414374Y-47859479D01*
X104399500Y-47953389D01*
X101875500Y-47953389D01*
X101875500Y-45413389D01*
X104399500Y-45413389D01*
X104399500Y-45586611D01*
X104400638Y-45593796D01*
X104426348Y-45756128D01*
X104426598Y-45757701D01*
X104480127Y-45922445D01*
X104558768Y-46076788D01*
X104660586Y-46216928D01*
X104783072Y-46339414D01*
X104923212Y-46441232D01*
X105077555Y-46519873D01*
X105242299Y-46573402D01*
X105413389Y-46600500D01*
X105413390Y-46600500D01*
X105586610Y-46600500D01*
X105586611Y-46600500D01*
X105757701Y-46573402D01*
X105922445Y-46519873D01*
X106076788Y-46441232D01*
X106216928Y-46339414D01*
X106339414Y-46216928D01*
X106441232Y-46076788D01*
X106519873Y-45922445D01*
X106573402Y-45757701D01*
X106600500Y-45586611D01*
X106600500Y-45413389D01*
X106573402Y-45242299D01*
X106519873Y-45077555D01*
X106441232Y-44923212D01*
X106339414Y-44783072D01*
X106216928Y-44660586D01*
X106076788Y-44558768D01*
X105922445Y-44480127D01*
X105757701Y-44426598D01*
X105757699Y-44426597D01*
X105757698Y-44426597D01*
X105626271Y-44405781D01*
X105586611Y-44399500D01*
X105413389Y-44399500D01*
X105373728Y-44405781D01*
X105242302Y-44426597D01*
X105077552Y-44480128D01*
X104923211Y-44558768D01*
X104863532Y-44602128D01*
X104783072Y-44660586D01*
X104783070Y-44660588D01*
X104783069Y-44660588D01*
X104660588Y-44783069D01*
X104660588Y-44783070D01*
X104660586Y-44783072D01*
X104616859Y-44843256D01*
X104558768Y-44923211D01*
X104480128Y-45077552D01*
X104426597Y-45242302D01*
X104424193Y-45257483D01*
X104399500Y-45413389D01*
X101875500Y-45413389D01*
X101875500Y-42085321D01*
X104399500Y-42085321D01*
X104399500Y-43834678D01*
X104414032Y-43907735D01*
X104414033Y-43907739D01*
X104414034Y-43907740D01*
X104469399Y-43990601D01*
X104552260Y-44045966D01*
X104552264Y-44045967D01*
X104625321Y-44060499D01*
X104625324Y-44060500D01*
X104625326Y-44060500D01*
X106374676Y-44060500D01*
X106374677Y-44060499D01*
X106447740Y-44045966D01*
X106530601Y-43990601D01*
X106585966Y-43907740D01*
X106600500Y-43834674D01*
X106600500Y-42085326D01*
X106600500Y-42085323D01*
X106600499Y-42085321D01*
X106585967Y-42012264D01*
X106585966Y-42012260D01*
X106530601Y-41929399D01*
X106475235Y-41892405D01*
X106447739Y-41874033D01*
X106447735Y-41874032D01*
X106374677Y-41859500D01*
X106374674Y-41859500D01*
X104625326Y-41859500D01*
X104625323Y-41859500D01*
X104552264Y-41874032D01*
X104552260Y-41874033D01*
X104469399Y-41929399D01*
X104414033Y-42012260D01*
X104414032Y-42012264D01*
X104399500Y-42085321D01*
X101875500Y-42085321D01*
X101875500Y-36394038D01*
X103499500Y-36394038D01*
X103499500Y-36645962D01*
X103515805Y-36748904D01*
X103538910Y-36894785D01*
X103616760Y-37134383D01*
X103669700Y-37238282D01*
X103697294Y-37292439D01*
X103731132Y-37358848D01*
X103879201Y-37562649D01*
X103879205Y-37562654D01*
X104057345Y-37740794D01*
X104057350Y-37740798D01*
X104230444Y-37866557D01*
X104261155Y-37888870D01*
X104404184Y-37961747D01*
X104485616Y-38003239D01*
X104485618Y-38003239D01*
X104485621Y-38003241D01*
X104725215Y-38081090D01*
X104974038Y-38120500D01*
X104974039Y-38120500D01*
X105225961Y-38120500D01*
X105225962Y-38120500D01*
X105474785Y-38081090D01*
X105714379Y-38003241D01*
X105890724Y-37913389D01*
X108879500Y-37913389D01*
X108879500Y-38086611D01*
X108906598Y-38257701D01*
X108960127Y-38422445D01*
X109038768Y-38576788D01*
X109140586Y-38716928D01*
X109263072Y-38839414D01*
X109403212Y-38941232D01*
X109557555Y-39019873D01*
X109722299Y-39073402D01*
X109893389Y-39100500D01*
X109893390Y-39100500D01*
X110066610Y-39100500D01*
X110066611Y-39100500D01*
X110237701Y-39073402D01*
X110402445Y-39019873D01*
X110556788Y-38941232D01*
X110696928Y-38839414D01*
X110819414Y-38716928D01*
X110921232Y-38576788D01*
X110999873Y-38422445D01*
X111053402Y-38257701D01*
X111080500Y-38086611D01*
X111080500Y-37913389D01*
X111419500Y-37913389D01*
X111419500Y-38086611D01*
X111446598Y-38257701D01*
X111500127Y-38422445D01*
X111578768Y-38576788D01*
X111680586Y-38716928D01*
X111803072Y-38839414D01*
X111943212Y-38941232D01*
X112097555Y-39019873D01*
X112262299Y-39073402D01*
X112433389Y-39100500D01*
X112433390Y-39100500D01*
X112606610Y-39100500D01*
X112606611Y-39100500D01*
X112777701Y-39073402D01*
X112942445Y-39019873D01*
X113096788Y-38941232D01*
X113236928Y-38839414D01*
X113359414Y-38716928D01*
X113461232Y-38576788D01*
X113539873Y-38422445D01*
X113593402Y-38257701D01*
X113620500Y-38086611D01*
X113620500Y-37913389D01*
X113959500Y-37913389D01*
X113959500Y-38086611D01*
X113986598Y-38257701D01*
X114040127Y-38422445D01*
X114118768Y-38576788D01*
X114220586Y-38716928D01*
X114343072Y-38839414D01*
X114483212Y-38941232D01*
X114637555Y-39019873D01*
X114802299Y-39073402D01*
X114973389Y-39100500D01*
X114973390Y-39100500D01*
X115146610Y-39100500D01*
X115146611Y-39100500D01*
X115317701Y-39073402D01*
X115482445Y-39019873D01*
X115636788Y-38941232D01*
X115776928Y-38839414D01*
X115899414Y-38716928D01*
X116001232Y-38576788D01*
X116079873Y-38422445D01*
X116133402Y-38257701D01*
X116160500Y-38086611D01*
X116160500Y-37913389D01*
X116499500Y-37913389D01*
X116499500Y-38086611D01*
X116526598Y-38257701D01*
X116580127Y-38422445D01*
X116658768Y-38576788D01*
X116760586Y-38716928D01*
X116883072Y-38839414D01*
X117023212Y-38941232D01*
X117177555Y-39019873D01*
X117342299Y-39073402D01*
X117513389Y-39100500D01*
X117513390Y-39100500D01*
X117686610Y-39100500D01*
X117686611Y-39100500D01*
X117857701Y-39073402D01*
X118022445Y-39019873D01*
X118176788Y-38941232D01*
X118316928Y-38839414D01*
X118439414Y-38716928D01*
X118541232Y-38576788D01*
X118619873Y-38422445D01*
X118673402Y-38257701D01*
X118700500Y-38086611D01*
X118700500Y-37913389D01*
X119039500Y-37913389D01*
X119039500Y-38086611D01*
X119066598Y-38257701D01*
X119120127Y-38422445D01*
X119198768Y-38576788D01*
X119300586Y-38716928D01*
X119423072Y-38839414D01*
X119563212Y-38941232D01*
X119717555Y-39019873D01*
X119882299Y-39073402D01*
X120053389Y-39100500D01*
X120053390Y-39100500D01*
X120226610Y-39100500D01*
X120226611Y-39100500D01*
X120397701Y-39073402D01*
X120562445Y-39019873D01*
X120716788Y-38941232D01*
X120856928Y-38839414D01*
X120979414Y-38716928D01*
X121081232Y-38576788D01*
X121159873Y-38422445D01*
X121213402Y-38257701D01*
X121240500Y-38086611D01*
X121240500Y-37913389D01*
X121213402Y-37742299D01*
X121159873Y-37577555D01*
X121081232Y-37423212D01*
X120979414Y-37283072D01*
X120856928Y-37160586D01*
X120716788Y-37058768D01*
X120562445Y-36980127D01*
X120397701Y-36926598D01*
X120397699Y-36926597D01*
X120397698Y-36926597D01*
X120266271Y-36905781D01*
X120226611Y-36899500D01*
X120053389Y-36899500D01*
X120013728Y-36905781D01*
X119882302Y-36926597D01*
X119717552Y-36980128D01*
X119563211Y-37058768D01*
X119486877Y-37114229D01*
X119423072Y-37160586D01*
X119423070Y-37160588D01*
X119423069Y-37160588D01*
X119300588Y-37283069D01*
X119300588Y-37283070D01*
X119300586Y-37283072D01*
X119256859Y-37343256D01*
X119198768Y-37423211D01*
X119120128Y-37577552D01*
X119066597Y-37742302D01*
X119056349Y-37807007D01*
X119039500Y-37913389D01*
X118700500Y-37913389D01*
X118673402Y-37742299D01*
X118619873Y-37577555D01*
X118541232Y-37423212D01*
X118439414Y-37283072D01*
X118316928Y-37160586D01*
X118176788Y-37058768D01*
X118022445Y-36980127D01*
X117857701Y-36926598D01*
X117857699Y-36926597D01*
X117857698Y-36926597D01*
X117726271Y-36905781D01*
X117686611Y-36899500D01*
X117513389Y-36899500D01*
X117473728Y-36905781D01*
X117342302Y-36926597D01*
X117177552Y-36980128D01*
X117023211Y-37058768D01*
X116946877Y-37114229D01*
X116883072Y-37160586D01*
X116883070Y-37160588D01*
X116883069Y-37160588D01*
X116760588Y-37283069D01*
X116760588Y-37283070D01*
X116760586Y-37283072D01*
X116716859Y-37343256D01*
X116658768Y-37423211D01*
X116580128Y-37577552D01*
X116526597Y-37742302D01*
X116516349Y-37807007D01*
X116499500Y-37913389D01*
X116160500Y-37913389D01*
X116133402Y-37742299D01*
X116079873Y-37577555D01*
X116001232Y-37423212D01*
X115899414Y-37283072D01*
X115776928Y-37160586D01*
X115636788Y-37058768D01*
X115482445Y-36980127D01*
X115317701Y-36926598D01*
X115317699Y-36926597D01*
X115317698Y-36926597D01*
X115186271Y-36905781D01*
X115146611Y-36899500D01*
X114973389Y-36899500D01*
X114933728Y-36905781D01*
X114802302Y-36926597D01*
X114637552Y-36980128D01*
X114483211Y-37058768D01*
X114406877Y-37114229D01*
X114343072Y-37160586D01*
X114343070Y-37160588D01*
X114343069Y-37160588D01*
X114220588Y-37283069D01*
X114220588Y-37283070D01*
X114220586Y-37283072D01*
X114176859Y-37343256D01*
X114118768Y-37423211D01*
X114040128Y-37577552D01*
X113986597Y-37742302D01*
X113976349Y-37807007D01*
X113959500Y-37913389D01*
X113620500Y-37913389D01*
X113593402Y-37742299D01*
X113539873Y-37577555D01*
X113461232Y-37423212D01*
X113359414Y-37283072D01*
X113236928Y-37160586D01*
X113096788Y-37058768D01*
X112942445Y-36980127D01*
X112777701Y-36926598D01*
X112777699Y-36926597D01*
X112777698Y-36926597D01*
X112646271Y-36905781D01*
X112606611Y-36899500D01*
X112433389Y-36899500D01*
X112393728Y-36905781D01*
X112262302Y-36926597D01*
X112097552Y-36980128D01*
X111943211Y-37058768D01*
X111866877Y-37114229D01*
X111803072Y-37160586D01*
X111803070Y-37160588D01*
X111803069Y-37160588D01*
X111680588Y-37283069D01*
X111680588Y-37283070D01*
X111680586Y-37283072D01*
X111636859Y-37343256D01*
X111578768Y-37423211D01*
X111500128Y-37577552D01*
X111446597Y-37742302D01*
X111436349Y-37807007D01*
X111419500Y-37913389D01*
X111080500Y-37913389D01*
X111053402Y-37742299D01*
X110999873Y-37577555D01*
X110921232Y-37423212D01*
X110819414Y-37283072D01*
X110696928Y-37160586D01*
X110556788Y-37058768D01*
X110402445Y-36980127D01*
X110237701Y-36926598D01*
X110237699Y-36926597D01*
X110237698Y-36926597D01*
X110106271Y-36905781D01*
X110066611Y-36899500D01*
X109893389Y-36899500D01*
X109853728Y-36905781D01*
X109722302Y-36926597D01*
X109557552Y-36980128D01*
X109403211Y-37058768D01*
X109326877Y-37114229D01*
X109263072Y-37160586D01*
X109263070Y-37160588D01*
X109263069Y-37160588D01*
X109140588Y-37283069D01*
X109140588Y-37283070D01*
X109140586Y-37283072D01*
X109096859Y-37343256D01*
X109038768Y-37423211D01*
X108960128Y-37577552D01*
X108906597Y-37742302D01*
X108896349Y-37807007D01*
X108879500Y-37913389D01*
X105890724Y-37913389D01*
X105938845Y-37888870D01*
X105984373Y-37855791D01*
X106049881Y-37808199D01*
X106142649Y-37740798D01*
X106142647Y-37740798D01*
X106142656Y-37740793D01*
X106320793Y-37562656D01*
X106468870Y-37358845D01*
X106583241Y-37134379D01*
X106661090Y-36894785D01*
X106700500Y-36645962D01*
X106700500Y-36394038D01*
X106661090Y-36145215D01*
X106583241Y-35905621D01*
X106583239Y-35905618D01*
X106583239Y-35905616D01*
X106541747Y-35824184D01*
X106468870Y-35681155D01*
X106449952Y-35655117D01*
X106320798Y-35477350D01*
X106320794Y-35477345D01*
X106142654Y-35299205D01*
X106142649Y-35299201D01*
X105938848Y-35151132D01*
X105938847Y-35151131D01*
X105938845Y-35151130D01*
X105868747Y-35115413D01*
X105714383Y-35036760D01*
X105474785Y-34958910D01*
X105225962Y-34919500D01*
X104974038Y-34919500D01*
X104849626Y-34939205D01*
X104725214Y-34958910D01*
X104485616Y-35036760D01*
X104261151Y-35151132D01*
X104057350Y-35299201D01*
X104057345Y-35299205D01*
X103879205Y-35477345D01*
X103879201Y-35477350D01*
X103731132Y-35681151D01*
X103616760Y-35905616D01*
X103574140Y-36036788D01*
X103538910Y-36145215D01*
X103499500Y-36394038D01*
X101875500Y-36394038D01*
X101875500Y-34585321D01*
X108879500Y-34585321D01*
X108879500Y-36334678D01*
X108894032Y-36407735D01*
X108894033Y-36407739D01*
X108894034Y-36407740D01*
X108949399Y-36490601D01*
X109029494Y-36544118D01*
X109032260Y-36545966D01*
X109032264Y-36545967D01*
X109105321Y-36560499D01*
X109105324Y-36560500D01*
X109105326Y-36560500D01*
X110854676Y-36560500D01*
X110854677Y-36560499D01*
X110927740Y-36545966D01*
X111010601Y-36490601D01*
X111065966Y-36407740D01*
X111080500Y-36334674D01*
X111080500Y-35373389D01*
X111419500Y-35373389D01*
X111419500Y-35546610D01*
X111440809Y-35681155D01*
X111446598Y-35717701D01*
X111500127Y-35882445D01*
X111578768Y-36036788D01*
X111680586Y-36176928D01*
X111803072Y-36299414D01*
X111943212Y-36401232D01*
X112097555Y-36479873D01*
X112262299Y-36533402D01*
X112433389Y-36560500D01*
X112433390Y-36560500D01*
X112606610Y-36560500D01*
X112606611Y-36560500D01*
X112777701Y-36533402D01*
X112942445Y-36479873D01*
X113096788Y-36401232D01*
X113236928Y-36299414D01*
X113359414Y-36176928D01*
X113461232Y-36036788D01*
X113539873Y-35882445D01*
X113593402Y-35717701D01*
X113620500Y-35546611D01*
X113620500Y-35373389D01*
X113959500Y-35373389D01*
X113959500Y-35546610D01*
X113980809Y-35681155D01*
X113986598Y-35717701D01*
X114040127Y-35882445D01*
X114118768Y-36036788D01*
X114220586Y-36176928D01*
X114343072Y-36299414D01*
X114483212Y-36401232D01*
X114637555Y-36479873D01*
X114802299Y-36533402D01*
X114973389Y-36560500D01*
X114973390Y-36560500D01*
X115146610Y-36560500D01*
X115146611Y-36560500D01*
X115317701Y-36533402D01*
X115482445Y-36479873D01*
X115636788Y-36401232D01*
X115776928Y-36299414D01*
X115899414Y-36176928D01*
X116001232Y-36036788D01*
X116079873Y-35882445D01*
X116133402Y-35717701D01*
X116160500Y-35546611D01*
X116160500Y-35373389D01*
X116499500Y-35373389D01*
X116499500Y-35546610D01*
X116520809Y-35681155D01*
X116526598Y-35717701D01*
X116580127Y-35882445D01*
X116658768Y-36036788D01*
X116760586Y-36176928D01*
X116883072Y-36299414D01*
X117023212Y-36401232D01*
X117177555Y-36479873D01*
X117342299Y-36533402D01*
X117513389Y-36560500D01*
X117513390Y-36560500D01*
X117686610Y-36560500D01*
X117686611Y-36560500D01*
X117857701Y-36533402D01*
X118022445Y-36479873D01*
X118176788Y-36401232D01*
X118316928Y-36299414D01*
X118439414Y-36176928D01*
X118541232Y-36036788D01*
X118619873Y-35882445D01*
X118673402Y-35717701D01*
X118700500Y-35546611D01*
X118700500Y-35373389D01*
X119039500Y-35373389D01*
X119039500Y-35546610D01*
X119060809Y-35681155D01*
X119066598Y-35717701D01*
X119120127Y-35882445D01*
X119198768Y-36036788D01*
X119300586Y-36176928D01*
X119423072Y-36299414D01*
X119563212Y-36401232D01*
X119717555Y-36479873D01*
X119882299Y-36533402D01*
X120053389Y-36560500D01*
X120053390Y-36560500D01*
X120226610Y-36560500D01*
X120226611Y-36560500D01*
X120397701Y-36533402D01*
X120562445Y-36479873D01*
X120716788Y-36401232D01*
X120856928Y-36299414D01*
X120979414Y-36176928D01*
X121081232Y-36036788D01*
X121159873Y-35882445D01*
X121213402Y-35717701D01*
X121240500Y-35546611D01*
X121240500Y-35373389D01*
X121579500Y-35373389D01*
X121579500Y-35546610D01*
X121600809Y-35681155D01*
X121606598Y-35717701D01*
X121660127Y-35882445D01*
X121738768Y-36036788D01*
X121840586Y-36176928D01*
X121963072Y-36299414D01*
X122103212Y-36401232D01*
X122257555Y-36479873D01*
X122422299Y-36533402D01*
X122593389Y-36560500D01*
X122593390Y-36560500D01*
X122766610Y-36560500D01*
X122766611Y-36560500D01*
X122937701Y-36533402D01*
X123102445Y-36479873D01*
X123256788Y-36401232D01*
X123396928Y-36299414D01*
X123519414Y-36176928D01*
X123621232Y-36036788D01*
X123699873Y-35882445D01*
X123753402Y-35717701D01*
X123780500Y-35546611D01*
X123780500Y-35373389D01*
X124119500Y-35373389D01*
X124119500Y-35546610D01*
X124140809Y-35681155D01*
X124146598Y-35717701D01*
X124200127Y-35882445D01*
X124278768Y-36036788D01*
X124380586Y-36176928D01*
X124503072Y-36299414D01*
X124643212Y-36401232D01*
X124797555Y-36479873D01*
X124962299Y-36533402D01*
X125133389Y-36560500D01*
X125133390Y-36560500D01*
X125306610Y-36560500D01*
X125306611Y-36560500D01*
X125477701Y-36533402D01*
X125642445Y-36479873D01*
X125796788Y-36401232D01*
X125936928Y-36299414D01*
X126059414Y-36176928D01*
X126161232Y-36036788D01*
X126239873Y-35882445D01*
X126293402Y-35717701D01*
X126320500Y-35546611D01*
X126320500Y-35373389D01*
X126659500Y-35373389D01*
X126659500Y-35546610D01*
X126680809Y-35681155D01*
X126686598Y-35717701D01*
X126740127Y-35882445D01*
X126818768Y-36036788D01*
X126920586Y-36176928D01*
X127043072Y-36299414D01*
X127183212Y-36401232D01*
X127337555Y-36479873D01*
X127502299Y-36533402D01*
X127673389Y-36560500D01*
X127673390Y-36560500D01*
X127846610Y-36560500D01*
X127846611Y-36560500D01*
X128017701Y-36533402D01*
X128182445Y-36479873D01*
X128336788Y-36401232D01*
X128476928Y-36299414D01*
X128599414Y-36176928D01*
X128701232Y-36036788D01*
X128779873Y-35882445D01*
X128833402Y-35717701D01*
X128860500Y-35546611D01*
X128860500Y-35373389D01*
X129199500Y-35373389D01*
X129199500Y-35546610D01*
X129220809Y-35681155D01*
X129226598Y-35717701D01*
X129280127Y-35882445D01*
X129358768Y-36036788D01*
X129460586Y-36176928D01*
X129583072Y-36299414D01*
X129723212Y-36401232D01*
X129877555Y-36479873D01*
X130042299Y-36533402D01*
X130213389Y-36560500D01*
X130213390Y-36560500D01*
X130386610Y-36560500D01*
X130386611Y-36560500D01*
X130557701Y-36533402D01*
X130722445Y-36479873D01*
X130876788Y-36401232D01*
X131016928Y-36299414D01*
X131139414Y-36176928D01*
X131241232Y-36036788D01*
X131319873Y-35882445D01*
X131373402Y-35717701D01*
X131400500Y-35546611D01*
X131400500Y-35373389D01*
X131739500Y-35373389D01*
X131739500Y-35546610D01*
X131760809Y-35681155D01*
X131766598Y-35717701D01*
X131820127Y-35882445D01*
X131898768Y-36036788D01*
X132000586Y-36176928D01*
X132123072Y-36299414D01*
X132263212Y-36401232D01*
X132417555Y-36479873D01*
X132582299Y-36533402D01*
X132753389Y-36560500D01*
X132753390Y-36560500D01*
X132926610Y-36560500D01*
X132926611Y-36560500D01*
X133097701Y-36533402D01*
X133262445Y-36479873D01*
X133416788Y-36401232D01*
X133556928Y-36299414D01*
X133679414Y-36176928D01*
X133781232Y-36036788D01*
X133859873Y-35882445D01*
X133913402Y-35717701D01*
X133940500Y-35546611D01*
X133940500Y-35373389D01*
X134279500Y-35373389D01*
X134279500Y-35546610D01*
X134300809Y-35681155D01*
X134306598Y-35717701D01*
X134360127Y-35882445D01*
X134438768Y-36036788D01*
X134540586Y-36176928D01*
X134663072Y-36299414D01*
X134803212Y-36401232D01*
X134957555Y-36479873D01*
X135122299Y-36533402D01*
X135293389Y-36560500D01*
X135293390Y-36560500D01*
X135466610Y-36560500D01*
X135466611Y-36560500D01*
X135637701Y-36533402D01*
X135802445Y-36479873D01*
X135956788Y-36401232D01*
X136096928Y-36299414D01*
X136219414Y-36176928D01*
X136321232Y-36036788D01*
X136399873Y-35882445D01*
X136453402Y-35717701D01*
X136480500Y-35546611D01*
X136480500Y-35373389D01*
X136819500Y-35373389D01*
X136819500Y-35546610D01*
X136840809Y-35681155D01*
X136846598Y-35717701D01*
X136900127Y-35882445D01*
X136978768Y-36036788D01*
X137080586Y-36176928D01*
X137203072Y-36299414D01*
X137343212Y-36401232D01*
X137497555Y-36479873D01*
X137662299Y-36533402D01*
X137833389Y-36560500D01*
X137833390Y-36560500D01*
X138006610Y-36560500D01*
X138006611Y-36560500D01*
X138177701Y-36533402D01*
X138342445Y-36479873D01*
X138496788Y-36401232D01*
X138636928Y-36299414D01*
X138759414Y-36176928D01*
X138861232Y-36036788D01*
X138939873Y-35882445D01*
X138993402Y-35717701D01*
X139020500Y-35546611D01*
X139020500Y-35373389D01*
X139359500Y-35373389D01*
X139359500Y-35546610D01*
X139380809Y-35681155D01*
X139386598Y-35717701D01*
X139440127Y-35882445D01*
X139518768Y-36036788D01*
X139620586Y-36176928D01*
X139743072Y-36299414D01*
X139883212Y-36401232D01*
X140037555Y-36479873D01*
X140202299Y-36533402D01*
X140373389Y-36560500D01*
X140373390Y-36560500D01*
X140546610Y-36560500D01*
X140546611Y-36560500D01*
X140717701Y-36533402D01*
X140882445Y-36479873D01*
X141036788Y-36401232D01*
X141176928Y-36299414D01*
X141299414Y-36176928D01*
X141401232Y-36036788D01*
X141479873Y-35882445D01*
X141533402Y-35717701D01*
X141560500Y-35546611D01*
X141560500Y-35373389D01*
X141899500Y-35373389D01*
X141899500Y-35546610D01*
X141920809Y-35681155D01*
X141926598Y-35717701D01*
X141980127Y-35882445D01*
X142058768Y-36036788D01*
X142160586Y-36176928D01*
X142283072Y-36299414D01*
X142423212Y-36401232D01*
X142577555Y-36479873D01*
X142742299Y-36533402D01*
X142913389Y-36560500D01*
X142913390Y-36560500D01*
X143086610Y-36560500D01*
X143086611Y-36560500D01*
X143257701Y-36533402D01*
X143422445Y-36479873D01*
X143576788Y-36401232D01*
X143716928Y-36299414D01*
X143839414Y-36176928D01*
X143941232Y-36036788D01*
X144019873Y-35882445D01*
X144073402Y-35717701D01*
X144100500Y-35546611D01*
X144100500Y-35373389D01*
X144439500Y-35373389D01*
X144439500Y-35546610D01*
X144460809Y-35681155D01*
X144466598Y-35717701D01*
X144520127Y-35882445D01*
X144598768Y-36036788D01*
X144700586Y-36176928D01*
X144823072Y-36299414D01*
X144963212Y-36401232D01*
X145117555Y-36479873D01*
X145282299Y-36533402D01*
X145453389Y-36560500D01*
X145453390Y-36560500D01*
X145626610Y-36560500D01*
X145626611Y-36560500D01*
X145797701Y-36533402D01*
X145962445Y-36479873D01*
X146116788Y-36401232D01*
X146256928Y-36299414D01*
X146379414Y-36176928D01*
X146481232Y-36036788D01*
X146559873Y-35882445D01*
X146613402Y-35717701D01*
X146640500Y-35546611D01*
X146640500Y-35373389D01*
X146979500Y-35373389D01*
X146979500Y-35546610D01*
X147000809Y-35681155D01*
X147006598Y-35717701D01*
X147060127Y-35882445D01*
X147138768Y-36036788D01*
X147240586Y-36176928D01*
X147363072Y-36299414D01*
X147503212Y-36401232D01*
X147657555Y-36479873D01*
X147822299Y-36533402D01*
X147993389Y-36560500D01*
X147993390Y-36560500D01*
X148166610Y-36560500D01*
X148166611Y-36560500D01*
X148337701Y-36533402D01*
X148502445Y-36479873D01*
X148656788Y-36401232D01*
X148796928Y-36299414D01*
X148919414Y-36176928D01*
X149021232Y-36036788D01*
X149099873Y-35882445D01*
X149153402Y-35717701D01*
X149180500Y-35546611D01*
X149180500Y-35373389D01*
X149153402Y-35202299D01*
X149099873Y-35037555D01*
X149021232Y-34883212D01*
X148919414Y-34743072D01*
X148796928Y-34620586D01*
X148656788Y-34518768D01*
X148502445Y-34440127D01*
X148337701Y-34386598D01*
X148337699Y-34386597D01*
X148337698Y-34386597D01*
X148206271Y-34365781D01*
X148166611Y-34359500D01*
X147993389Y-34359500D01*
X147953728Y-34365781D01*
X147822302Y-34386597D01*
X147657552Y-34440128D01*
X147503211Y-34518768D01*
X147423256Y-34576859D01*
X147363072Y-34620586D01*
X147363070Y-34620588D01*
X147363069Y-34620588D01*
X147240588Y-34743069D01*
X147240588Y-34743070D01*
X147240586Y-34743072D01*
X147196859Y-34803256D01*
X147138768Y-34883211D01*
X147060128Y-35037552D01*
X147006597Y-35202302D01*
X146979500Y-35373389D01*
X146640500Y-35373389D01*
X146613402Y-35202299D01*
X146559873Y-35037555D01*
X146481232Y-34883212D01*
X146379414Y-34743072D01*
X146256928Y-34620586D01*
X146116788Y-34518768D01*
X145962445Y-34440127D01*
X145797701Y-34386598D01*
X145797699Y-34386597D01*
X145797698Y-34386597D01*
X145666271Y-34365781D01*
X145626611Y-34359500D01*
X145453389Y-34359500D01*
X145413728Y-34365781D01*
X145282302Y-34386597D01*
X145117552Y-34440128D01*
X144963211Y-34518768D01*
X144883256Y-34576859D01*
X144823072Y-34620586D01*
X144823070Y-34620588D01*
X144823069Y-34620588D01*
X144700588Y-34743069D01*
X144700588Y-34743070D01*
X144700586Y-34743072D01*
X144656859Y-34803256D01*
X144598768Y-34883211D01*
X144520128Y-35037552D01*
X144466597Y-35202302D01*
X144439500Y-35373389D01*
X144100500Y-35373389D01*
X144073402Y-35202299D01*
X144019873Y-35037555D01*
X143941232Y-34883212D01*
X143839414Y-34743072D01*
X143716928Y-34620586D01*
X143576788Y-34518768D01*
X143422445Y-34440127D01*
X143257701Y-34386598D01*
X143257699Y-34386597D01*
X143257698Y-34386597D01*
X143126271Y-34365781D01*
X143086611Y-34359500D01*
X142913389Y-34359500D01*
X142873728Y-34365781D01*
X142742302Y-34386597D01*
X142577552Y-34440128D01*
X142423211Y-34518768D01*
X142343256Y-34576859D01*
X142283072Y-34620586D01*
X142283070Y-34620588D01*
X142283069Y-34620588D01*
X142160588Y-34743069D01*
X142160588Y-34743070D01*
X142160586Y-34743072D01*
X142116859Y-34803256D01*
X142058768Y-34883211D01*
X141980128Y-35037552D01*
X141926597Y-35202302D01*
X141899500Y-35373389D01*
X141560500Y-35373389D01*
X141533402Y-35202299D01*
X141479873Y-35037555D01*
X141401232Y-34883212D01*
X141299414Y-34743072D01*
X141176928Y-34620586D01*
X141036788Y-34518768D01*
X140882445Y-34440127D01*
X140717701Y-34386598D01*
X140717699Y-34386597D01*
X140717698Y-34386597D01*
X140586271Y-34365781D01*
X140546611Y-34359500D01*
X140373389Y-34359500D01*
X140333728Y-34365781D01*
X140202302Y-34386597D01*
X140037552Y-34440128D01*
X139883211Y-34518768D01*
X139803256Y-34576859D01*
X139743072Y-34620586D01*
X139743070Y-34620588D01*
X139743069Y-34620588D01*
X139620588Y-34743069D01*
X139620588Y-34743070D01*
X139620586Y-34743072D01*
X139576859Y-34803256D01*
X139518768Y-34883211D01*
X139440128Y-35037552D01*
X139386597Y-35202302D01*
X139359500Y-35373389D01*
X139020500Y-35373389D01*
X138993402Y-35202299D01*
X138939873Y-35037555D01*
X138861232Y-34883212D01*
X138759414Y-34743072D01*
X138636928Y-34620586D01*
X138496788Y-34518768D01*
X138342445Y-34440127D01*
X138177701Y-34386598D01*
X138177699Y-34386597D01*
X138177698Y-34386597D01*
X138046271Y-34365781D01*
X138006611Y-34359500D01*
X137833389Y-34359500D01*
X137793728Y-34365781D01*
X137662302Y-34386597D01*
X137497552Y-34440128D01*
X137343211Y-34518768D01*
X137263256Y-34576859D01*
X137203072Y-34620586D01*
X137203070Y-34620588D01*
X137203069Y-34620588D01*
X137080588Y-34743069D01*
X137080588Y-34743070D01*
X137080586Y-34743072D01*
X137036859Y-34803256D01*
X136978768Y-34883211D01*
X136900128Y-35037552D01*
X136846597Y-35202302D01*
X136819500Y-35373389D01*
X136480500Y-35373389D01*
X136453402Y-35202299D01*
X136399873Y-35037555D01*
X136321232Y-34883212D01*
X136219414Y-34743072D01*
X136096928Y-34620586D01*
X135956788Y-34518768D01*
X135802445Y-34440127D01*
X135637701Y-34386598D01*
X135637699Y-34386597D01*
X135637698Y-34386597D01*
X135506271Y-34365781D01*
X135466611Y-34359500D01*
X135293389Y-34359500D01*
X135253728Y-34365781D01*
X135122302Y-34386597D01*
X134957552Y-34440128D01*
X134803211Y-34518768D01*
X134723256Y-34576859D01*
X134663072Y-34620586D01*
X134663070Y-34620588D01*
X134663069Y-34620588D01*
X134540588Y-34743069D01*
X134540588Y-34743070D01*
X134540586Y-34743072D01*
X134496859Y-34803256D01*
X134438768Y-34883211D01*
X134360128Y-35037552D01*
X134306597Y-35202302D01*
X134279500Y-35373389D01*
X133940500Y-35373389D01*
X133913402Y-35202299D01*
X133859873Y-35037555D01*
X133781232Y-34883212D01*
X133679414Y-34743072D01*
X133556928Y-34620586D01*
X133416788Y-34518768D01*
X133262445Y-34440127D01*
X133097701Y-34386598D01*
X133097699Y-34386597D01*
X133097698Y-34386597D01*
X132966271Y-34365781D01*
X132926611Y-34359500D01*
X132753389Y-34359500D01*
X132713728Y-34365781D01*
X132582302Y-34386597D01*
X132417552Y-34440128D01*
X132263211Y-34518768D01*
X132183256Y-34576859D01*
X132123072Y-34620586D01*
X132123070Y-34620588D01*
X132123069Y-34620588D01*
X132000588Y-34743069D01*
X132000588Y-34743070D01*
X132000586Y-34743072D01*
X131956859Y-34803256D01*
X131898768Y-34883211D01*
X131820128Y-35037552D01*
X131766597Y-35202302D01*
X131739500Y-35373389D01*
X131400500Y-35373389D01*
X131373402Y-35202299D01*
X131319873Y-35037555D01*
X131241232Y-34883212D01*
X131139414Y-34743072D01*
X131016928Y-34620586D01*
X130876788Y-34518768D01*
X130722445Y-34440127D01*
X130557701Y-34386598D01*
X130557699Y-34386597D01*
X130557698Y-34386597D01*
X130426271Y-34365781D01*
X130386611Y-34359500D01*
X130213389Y-34359500D01*
X130173728Y-34365781D01*
X130042302Y-34386597D01*
X129877552Y-34440128D01*
X129723211Y-34518768D01*
X129643256Y-34576859D01*
X129583072Y-34620586D01*
X129583070Y-34620588D01*
X129583069Y-34620588D01*
X129460588Y-34743069D01*
X129460588Y-34743070D01*
X129460586Y-34743072D01*
X129416859Y-34803256D01*
X129358768Y-34883211D01*
X129280128Y-35037552D01*
X129226597Y-35202302D01*
X129199500Y-35373389D01*
X128860500Y-35373389D01*
X128833402Y-35202299D01*
X128779873Y-35037555D01*
X128701232Y-34883212D01*
X128599414Y-34743072D01*
X128476928Y-34620586D01*
X128336788Y-34518768D01*
X128182445Y-34440127D01*
X128017701Y-34386598D01*
X128017699Y-34386597D01*
X128017698Y-34386597D01*
X127886271Y-34365781D01*
X127846611Y-34359500D01*
X127673389Y-34359500D01*
X127633728Y-34365781D01*
X127502302Y-34386597D01*
X127337552Y-34440128D01*
X127183211Y-34518768D01*
X127103256Y-34576859D01*
X127043072Y-34620586D01*
X127043070Y-34620588D01*
X127043069Y-34620588D01*
X126920588Y-34743069D01*
X126920588Y-34743070D01*
X126920586Y-34743072D01*
X126876859Y-34803256D01*
X126818768Y-34883211D01*
X126740128Y-35037552D01*
X126686597Y-35202302D01*
X126659500Y-35373389D01*
X126320500Y-35373389D01*
X126293402Y-35202299D01*
X126239873Y-35037555D01*
X126161232Y-34883212D01*
X126059414Y-34743072D01*
X125936928Y-34620586D01*
X125796788Y-34518768D01*
X125642445Y-34440127D01*
X125477701Y-34386598D01*
X125477699Y-34386597D01*
X125477698Y-34386597D01*
X125346271Y-34365781D01*
X125306611Y-34359500D01*
X125133389Y-34359500D01*
X125093728Y-34365781D01*
X124962302Y-34386597D01*
X124797552Y-34440128D01*
X124643211Y-34518768D01*
X124563256Y-34576859D01*
X124503072Y-34620586D01*
X124503070Y-34620588D01*
X124503069Y-34620588D01*
X124380588Y-34743069D01*
X124380588Y-34743070D01*
X124380586Y-34743072D01*
X124336859Y-34803256D01*
X124278768Y-34883211D01*
X124200128Y-35037552D01*
X124146597Y-35202302D01*
X124119500Y-35373389D01*
X123780500Y-35373389D01*
X123753402Y-35202299D01*
X123699873Y-35037555D01*
X123621232Y-34883212D01*
X123519414Y-34743072D01*
X123396928Y-34620586D01*
X123256788Y-34518768D01*
X123102445Y-34440127D01*
X122937701Y-34386598D01*
X122937699Y-34386597D01*
X122937698Y-34386597D01*
X122806271Y-34365781D01*
X122766611Y-34359500D01*
X122593389Y-34359500D01*
X122553728Y-34365781D01*
X122422302Y-34386597D01*
X122257552Y-34440128D01*
X122103211Y-34518768D01*
X122023256Y-34576859D01*
X121963072Y-34620586D01*
X121963070Y-34620588D01*
X121963069Y-34620588D01*
X121840588Y-34743069D01*
X121840588Y-34743070D01*
X121840586Y-34743072D01*
X121796859Y-34803256D01*
X121738768Y-34883211D01*
X121660128Y-35037552D01*
X121606597Y-35202302D01*
X121579500Y-35373389D01*
X121240500Y-35373389D01*
X121213402Y-35202299D01*
X121159873Y-35037555D01*
X121081232Y-34883212D01*
X120979414Y-34743072D01*
X120856928Y-34620586D01*
X120716788Y-34518768D01*
X120562445Y-34440127D01*
X120397701Y-34386598D01*
X120397699Y-34386597D01*
X120397698Y-34386597D01*
X120266271Y-34365781D01*
X120226611Y-34359500D01*
X120053389Y-34359500D01*
X120013728Y-34365781D01*
X119882302Y-34386597D01*
X119717552Y-34440128D01*
X119563211Y-34518768D01*
X119483256Y-34576859D01*
X119423072Y-34620586D01*
X119423070Y-34620588D01*
X119423069Y-34620588D01*
X119300588Y-34743069D01*
X119300588Y-34743070D01*
X119300586Y-34743072D01*
X119256859Y-34803256D01*
X119198768Y-34883211D01*
X119120128Y-35037552D01*
X119066597Y-35202302D01*
X119039500Y-35373389D01*
X118700500Y-35373389D01*
X118673402Y-35202299D01*
X118619873Y-35037555D01*
X118541232Y-34883212D01*
X118439414Y-34743072D01*
X118316928Y-34620586D01*
X118176788Y-34518768D01*
X118022445Y-34440127D01*
X117857701Y-34386598D01*
X117857699Y-34386597D01*
X117857698Y-34386597D01*
X117726271Y-34365781D01*
X117686611Y-34359500D01*
X117513389Y-34359500D01*
X117473728Y-34365781D01*
X117342302Y-34386597D01*
X117177552Y-34440128D01*
X117023211Y-34518768D01*
X116943256Y-34576859D01*
X116883072Y-34620586D01*
X116883070Y-34620588D01*
X116883069Y-34620588D01*
X116760588Y-34743069D01*
X116760588Y-34743070D01*
X116760586Y-34743072D01*
X116716859Y-34803256D01*
X116658768Y-34883211D01*
X116580128Y-35037552D01*
X116526597Y-35202302D01*
X116499500Y-35373389D01*
X116160500Y-35373389D01*
X116133402Y-35202299D01*
X116079873Y-35037555D01*
X116001232Y-34883212D01*
X115899414Y-34743072D01*
X115776928Y-34620586D01*
X115636788Y-34518768D01*
X115482445Y-34440127D01*
X115317701Y-34386598D01*
X115317699Y-34386597D01*
X115317698Y-34386597D01*
X115186271Y-34365781D01*
X115146611Y-34359500D01*
X114973389Y-34359500D01*
X114933728Y-34365781D01*
X114802302Y-34386597D01*
X114637552Y-34440128D01*
X114483211Y-34518768D01*
X114403256Y-34576859D01*
X114343072Y-34620586D01*
X114343070Y-34620588D01*
X114343069Y-34620588D01*
X114220588Y-34743069D01*
X114220588Y-34743070D01*
X114220586Y-34743072D01*
X114176859Y-34803256D01*
X114118768Y-34883211D01*
X114040128Y-35037552D01*
X113986597Y-35202302D01*
X113959500Y-35373389D01*
X113620500Y-35373389D01*
X113593402Y-35202299D01*
X113539873Y-35037555D01*
X113461232Y-34883212D01*
X113359414Y-34743072D01*
X113236928Y-34620586D01*
X113096788Y-34518768D01*
X112942445Y-34440127D01*
X112777701Y-34386598D01*
X112777699Y-34386597D01*
X112777698Y-34386597D01*
X112646271Y-34365781D01*
X112606611Y-34359500D01*
X112433389Y-34359500D01*
X112393728Y-34365781D01*
X112262302Y-34386597D01*
X112097552Y-34440128D01*
X111943211Y-34518768D01*
X111863256Y-34576859D01*
X111803072Y-34620586D01*
X111803070Y-34620588D01*
X111803069Y-34620588D01*
X111680588Y-34743069D01*
X111680588Y-34743070D01*
X111680586Y-34743072D01*
X111636859Y-34803256D01*
X111578768Y-34883211D01*
X111500128Y-35037552D01*
X111446597Y-35202302D01*
X111419500Y-35373389D01*
X111080500Y-35373389D01*
X111080500Y-34585326D01*
X111080500Y-34585323D01*
X111080499Y-34585321D01*
X111065967Y-34512264D01*
X111065966Y-34512260D01*
X111010601Y-34429399D01*
X110927740Y-34374034D01*
X110927739Y-34374033D01*
X110927735Y-34374032D01*
X110854677Y-34359500D01*
X110854674Y-34359500D01*
X109105326Y-34359500D01*
X109105323Y-34359500D01*
X109032264Y-34374032D01*
X109032260Y-34374033D01*
X108949399Y-34429399D01*
X108894033Y-34512260D01*
X108894032Y-34512264D01*
X108879500Y-34585321D01*
X101875500Y-34585321D01*
X101875500Y-33624500D01*
X101895185Y-33557461D01*
X101947989Y-33511706D01*
X101999500Y-33500500D01*
X165750500Y-33500500D01*
X165817539Y-33520185D01*
G37*
%TD.AperFunction*%
%TD*%
M02*
