M48
; DRILL file {KiCad 9.0.7} date 2026-02-05T23:33:31-0600
; FORMAT={-:-/ absolute / metric / decimal}
; #@! TF.CreationDate,2026-02-05T23:33:31-06:00
; #@! TF.GenerationSoftware,Kicad,Pcbnew,9.0.7
; #@! TF.FileFunction,MixedPlating,1,2
FMAT,2
METRIC
; #@! TA.AperFunction,Plated,PTH,ViaDrill
T1C0.300
; #@! TA.AperFunction,Plated,PTH,ViaDrill
T2C0.400
; #@! TA.AperFunction,Plated,PTH,ComponentDrill
T3C0.800
; #@! TA.AperFunction,Plated,PTH,ComponentDrill
T4C1.000
; #@! TA.AperFunction,Plated,PTH,ComponentDrill
T5C1.200
; #@! TA.AperFunction,Plated,PTH,ComponentDrill
T6C1.400
; #@! TA.AperFunction,Plated,PTH,ComponentDrill
T7C2.700
%
G90
G05
T1
X114.334Y-70.176
X115.338Y-66.865
X115.97Y-59.111
X116.447Y-64.603
X116.5Y-63.0
X116.505Y-70.893
X117.018Y-65.26
X117.044Y-63.958
X117.085Y-70.265
X117.575Y-52.126
X118.839Y-65.124
X119.5Y-66.0
X120.539Y-55.052
X120.983Y-69.502
X121.499Y-66.431
X121.538Y-54.729
X121.654Y-49.168
X124.324Y-47.842
X124.324Y-50.921
X124.395Y-59.808
X124.842Y-46.528
X126.098Y-46.187
X126.466Y-73.081
X127.319Y-63.106
X127.692Y-55.872
X128.332Y-54.568
X129.513Y-46.487
X130.161Y-54.655
X131.418Y-59.078
X131.462Y-58.221
X131.912Y-53.959
X132.538Y-43.05
X134.436Y-63.787
X134.688Y-60.769
X135.84Y-56.863
X136.406Y-60.369
X137.499Y-71.942
X139.0Y-67.5
X139.0Y-68.5
X139.979Y-67.701
X140.0Y-68.5
X140.309Y-72.702
X140.75Y-58.761
X140.772Y-67.8
X141.0Y-68.5
X141.138Y-72.399
X142.0Y-68.5
X142.832Y-66.884
X143.35Y-61.033
X143.472Y-71.986
X144.476Y-71.773
X144.522Y-73.232
X147.107Y-68.916
X147.995Y-42.391
T2
X123.803Y-67.939
X128.0Y-72.754
X131.45Y-71.888
X150.475Y-66.617
T3
X158.5Y-75.0
X158.5Y-78.5
T4
X105.5Y-42.96
X105.5Y-45.5
X105.5Y-48.04
X105.5Y-50.58
X105.5Y-53.12
X105.5Y-55.66
X109.98Y-35.46
X109.98Y-38.0
X112.52Y-35.46
X112.52Y-38.0
X115.06Y-35.46
X115.06Y-38.0
X117.6Y-35.46
X117.6Y-38.0
X120.14Y-35.46
X120.14Y-38.0
X122.68Y-35.46
X122.68Y-38.0
X125.22Y-35.46
X125.22Y-38.0
X127.76Y-35.46
X127.76Y-38.0
X130.3Y-35.46
X130.3Y-38.0
X132.84Y-35.46
X132.84Y-38.0
X135.38Y-35.46
X135.38Y-38.0
X137.92Y-35.46
X137.92Y-38.0
X140.46Y-35.46
X140.46Y-38.0
X143.0Y-35.46
X143.0Y-38.0
X145.54Y-35.46
X145.54Y-38.0
X148.08Y-35.46
X148.08Y-38.0
X150.62Y-35.46
X150.62Y-38.0
X153.16Y-35.46
X153.16Y-38.0
X155.7Y-35.46
X155.7Y-38.0
X158.24Y-35.46
X158.24Y-38.0
T5
X117.5Y-83.0
X121.0Y-83.0
X124.5Y-83.0
X128.0Y-83.0
X140.5Y-83.0
X144.0Y-83.0
X147.5Y-83.0
X151.0Y-83.0
T6
X154.722Y-62.965
X154.722Y-68.045
T7
X105.1Y-36.52
X105.1Y-85.52
X163.1Y-36.52
X163.1Y-85.52
M30
