%TF.GenerationSoftware,KiCad,Pcbnew,9.0.7*%
%TF.CreationDate,2026-02-05T23:33:27-06:00*%
%TF.ProjectId,dac_amp,6461635f-616d-4702-9e6b-696361645f70,rev?*%
%TF.SameCoordinates,Original*%
%TF.FileFunction,Soldermask,Bot*%
%TF.FilePolarity,Negative*%
%FSLAX46Y46*%
G04 Gerber Fmt 4.6, Leading zero omitted, Abs format (unit mm)*
G04 Created by KiCad (PCBNEW 9.0.7) date 2026-02-05 23:33:27*
%MOMM*%
%LPD*%
G01*
G04 APERTURE LIST*
G04 Aperture macros list*
%AMRoundRect*
0 Rectangle with rounded corners*
0 $1 Rounding radius*
0 $2 $3 $4 $5 $6 $7 $8 $9 X,Y pos of 4 corners*
0 Add a 4 corners polygon primitive as box body*
4,1,4,$2,$3,$4,$5,$6,$7,$8,$9,$2,$3,0*
0 Add four circle primitives for the rounded corners*
1,1,$1+$1,$2,$3*
1,1,$1+$1,$4,$5*
1,1,$1+$1,$6,$7*
1,1,$1+$1,$8,$9*
0 Add four rect primitives between the rounded corners*
20,1,$1+$1,$2,$3,$4,$5,0*
20,1,$1+$1,$4,$5,$6,$7,0*
20,1,$1+$1,$6,$7,$8,$9,0*
20,1,$1+$1,$8,$9,$2,$3,0*%
G04 Aperture macros list end*
%ADD10RoundRect,0.250000X0.250000X0.475000X-0.250000X0.475000X-0.250000X-0.475000X0.250000X-0.475000X0*%
%ADD11RoundRect,0.250000X-0.650000X0.325000X-0.650000X-0.325000X0.650000X-0.325000X0.650000X0.325000X0*%
%ADD12RoundRect,0.250001X-0.949999X-0.949999X0.949999X-0.949999X0.949999X0.949999X-0.949999X0.949999X0*%
%ADD13C,2.400000*%
%ADD14RoundRect,0.250000X-0.475000X0.250000X-0.475000X-0.250000X0.475000X-0.250000X0.475000X0.250000X0*%
%ADD15RoundRect,0.250000X0.475000X-0.250000X0.475000X0.250000X-0.475000X0.250000X-0.475000X-0.250000X0*%
%ADD16RoundRect,0.250000X0.550000X-0.550000X0.550000X0.550000X-0.550000X0.550000X-0.550000X-0.550000X0*%
%ADD17C,1.600000*%
%ADD18RoundRect,0.250000X-0.250000X-0.475000X0.250000X-0.475000X0.250000X0.475000X-0.250000X0.475000X0*%
%ADD19R,1.700000X1.700000*%
%ADD20C,1.700000*%
%ADD21RoundRect,0.250000X0.262500X0.450000X-0.262500X0.450000X-0.262500X-0.450000X0.262500X-0.450000X0*%
%ADD22RoundRect,0.250001X-0.949999X0.949999X-0.949999X-0.949999X0.949999X-0.949999X0.949999X0.949999X0*%
%ADD23C,2.700000*%
%ADD24RoundRect,0.250000X0.325000X0.650000X-0.325000X0.650000X-0.325000X-0.650000X0.325000X-0.650000X0*%
%ADD25RoundRect,0.249999X-1.550001X0.790001X-1.550001X-0.790001X1.550001X-0.790001X1.550001X0.790001X0*%
%ADD26O,3.600000X2.080000*%
%ADD27RoundRect,0.375000X-0.375000X0.625000X-0.375000X-0.625000X0.375000X-0.625000X0.375000X0.625000X0*%
%ADD28RoundRect,0.500000X-1.400000X0.500000X-1.400000X-0.500000X1.400000X-0.500000X1.400000X0.500000X0*%
G04 APERTURE END LIST*
D10*
%TO.C,C9*%
X142662500Y-70875000D03*
X140762500Y-70875000D03*
%TD*%
D11*
%TO.C,C19*%
X124000000Y-63525000D03*
X124000000Y-66475000D03*
%TD*%
D12*
%TO.C,J3*%
X117500000Y-83000000D03*
D13*
X121000000Y-83000000D03*
X124500000Y-83000000D03*
X128000000Y-83000000D03*
%TD*%
D14*
%TO.C,C12*%
X117500000Y-60050000D03*
X117500000Y-61950000D03*
%TD*%
D15*
%TO.C,C6*%
X131350000Y-44900000D03*
X133250000Y-44900000D03*
%TD*%
D16*
%TO.C,C31*%
X158500000Y-78500000D03*
D17*
X158500000Y-75000000D03*
%TD*%
D18*
%TO.C,C32*%
X127550000Y-68500000D03*
X129450000Y-68500000D03*
%TD*%
D15*
%TO.C,C4*%
X131350000Y-50900000D03*
X133250000Y-50900000D03*
%TD*%
D14*
%TO.C,C16*%
X139000000Y-62000000D03*
X139000000Y-63900000D03*
%TD*%
%TO.C,C13*%
X120000000Y-60050000D03*
X120000000Y-61950000D03*
%TD*%
%TO.C,C14*%
X122500000Y-60050000D03*
X122500000Y-61950000D03*
%TD*%
%TO.C,C11*%
X115000000Y-60050000D03*
X115000000Y-61950000D03*
%TD*%
D18*
%TO.C,C7*%
X116550000Y-69000000D03*
X118450000Y-69000000D03*
%TD*%
D19*
%TO.C,J7*%
X109980000Y-35460000D03*
D20*
X109980000Y-38000000D03*
X112520000Y-35460000D03*
X112520000Y-38000000D03*
X115060000Y-35460000D03*
X115060000Y-38000000D03*
X117600000Y-35460000D03*
X117600000Y-38000000D03*
X120140000Y-35460000D03*
X120140000Y-38000000D03*
X122680000Y-35460000D03*
X122680000Y-38000000D03*
X125220000Y-35460000D03*
X125220000Y-38000000D03*
X127760000Y-35460000D03*
X127760000Y-38000000D03*
X130300000Y-35460000D03*
X130300000Y-38000000D03*
X132840000Y-35460000D03*
X132840000Y-38000000D03*
X135380000Y-35460000D03*
X135380000Y-38000000D03*
X137920000Y-35460000D03*
X137920000Y-38000000D03*
X140460000Y-35460000D03*
X140460000Y-38000000D03*
X143000000Y-35460000D03*
X143000000Y-38000000D03*
X145540000Y-35460000D03*
X145540000Y-38000000D03*
X148080000Y-35460000D03*
X148080000Y-38000000D03*
X150620000Y-35460000D03*
X150620000Y-38000000D03*
X153160000Y-35460000D03*
X153160000Y-38000000D03*
X155700000Y-35460000D03*
X155700000Y-38000000D03*
X158240000Y-35460000D03*
X158240000Y-38000000D03*
%TD*%
D15*
%TO.C,C5*%
X131350000Y-47900000D03*
X133250000Y-47900000D03*
%TD*%
D21*
%TO.C,R1*%
X128000000Y-47500000D03*
X126175000Y-47500000D03*
%TD*%
D14*
%TO.C,C17*%
X141000000Y-62050000D03*
X141000000Y-63950000D03*
%TD*%
D10*
%TO.C,C22*%
X141900000Y-66000000D03*
X140000000Y-66000000D03*
%TD*%
D21*
%TO.C,R2*%
X128000000Y-51000000D03*
X126175000Y-51000000D03*
%TD*%
D22*
%TO.C,J4*%
X140500000Y-83000000D03*
D13*
X144000000Y-83000000D03*
X147500000Y-83000000D03*
X151000000Y-83000000D03*
%TD*%
D14*
%TO.C,C18*%
X143000000Y-62100000D03*
X143000000Y-64000000D03*
%TD*%
D18*
%TO.C,C8*%
X116550000Y-66500000D03*
X118450000Y-66500000D03*
%TD*%
D14*
%TO.C,C15*%
X137000000Y-62000000D03*
X137000000Y-63900000D03*
%TD*%
D23*
%TO.C,H1*%
X105100000Y-36520000D03*
%TD*%
%TO.C,H2*%
X163100000Y-36520000D03*
%TD*%
%TO.C,H3*%
X105100000Y-85520000D03*
%TD*%
%TO.C,H4*%
X163100000Y-85520000D03*
%TD*%
D19*
%TO.C,J1*%
X105500000Y-42960000D03*
D20*
X105500000Y-45500000D03*
X105500000Y-48040000D03*
X105500000Y-50580000D03*
X105500000Y-53120000D03*
X105500000Y-55660000D03*
%TD*%
D10*
%TO.C,C10*%
X147450000Y-72500000D03*
X145550000Y-72500000D03*
%TD*%
D18*
%TO.C,C21*%
X118050000Y-64000000D03*
X119950000Y-64000000D03*
%TD*%
D24*
%TO.C,C20*%
X150475000Y-64500000D03*
X147525000Y-64500000D03*
%TD*%
D25*
%TO.C,J2*%
X154722500Y-68045000D03*
D26*
X154722500Y-62965000D03*
%TD*%
D27*
%TO.C,U2*%
X122700000Y-70850000D03*
X125000000Y-70850000D03*
D28*
X125000000Y-77150000D03*
D27*
X127300000Y-70850000D03*
%TD*%
D10*
%TO.C,C1*%
X131450000Y-70500000D03*
X129550000Y-70500000D03*
%TD*%
%TO.C,C3*%
X120450000Y-71500000D03*
X118550000Y-71500000D03*
%TD*%
D18*
%TO.C,C2*%
X128800000Y-42900000D03*
X130700000Y-42900000D03*
%TD*%
M02*
