%TF.GenerationSoftware,KiCad,Pcbnew,9.0.7*%
%TF.CreationDate,2026-02-05T23:33:27-06:00*%
%TF.ProjectId,dac_amp,6461635f-616d-4702-9e6b-696361645f70,rev?*%
%TF.SameCoordinates,Original*%
%TF.FileFunction,Legend,Top*%
%TF.FilePolarity,Positive*%
%FSLAX46Y46*%
G04 Gerber Fmt 4.6, Leading zero omitted, Abs format (unit mm)*
G04 Created by KiCad (PCBNEW 9.0.7) date 2026-02-05 23:33:27*
%MOMM*%
%LPD*%
G01*
G04 APERTURE LIST*
%ADD10C,0.300000*%
%ADD11C,0.150000*%
%ADD12C,0.120000*%
G04 APERTURE END LIST*
D10*
X147054510Y-49800828D02*
X147054510Y-48300828D01*
X147054510Y-48300828D02*
X147411653Y-48300828D01*
X147411653Y-48300828D02*
X147625939Y-48372257D01*
X147625939Y-48372257D02*
X147768796Y-48515114D01*
X147768796Y-48515114D02*
X147840225Y-48657971D01*
X147840225Y-48657971D02*
X147911653Y-48943685D01*
X147911653Y-48943685D02*
X147911653Y-49157971D01*
X147911653Y-49157971D02*
X147840225Y-49443685D01*
X147840225Y-49443685D02*
X147768796Y-49586542D01*
X147768796Y-49586542D02*
X147625939Y-49729400D01*
X147625939Y-49729400D02*
X147411653Y-49800828D01*
X147411653Y-49800828D02*
X147054510Y-49800828D01*
X148483082Y-49372257D02*
X149197368Y-49372257D01*
X148340225Y-49800828D02*
X148840225Y-48300828D01*
X148840225Y-48300828D02*
X149340225Y-49800828D01*
X150697367Y-49657971D02*
X150625939Y-49729400D01*
X150625939Y-49729400D02*
X150411653Y-49800828D01*
X150411653Y-49800828D02*
X150268796Y-49800828D01*
X150268796Y-49800828D02*
X150054510Y-49729400D01*
X150054510Y-49729400D02*
X149911653Y-49586542D01*
X149911653Y-49586542D02*
X149840224Y-49443685D01*
X149840224Y-49443685D02*
X149768796Y-49157971D01*
X149768796Y-49157971D02*
X149768796Y-48943685D01*
X149768796Y-48943685D02*
X149840224Y-48657971D01*
X149840224Y-48657971D02*
X149911653Y-48515114D01*
X149911653Y-48515114D02*
X150054510Y-48372257D01*
X150054510Y-48372257D02*
X150268796Y-48300828D01*
X150268796Y-48300828D02*
X150411653Y-48300828D01*
X150411653Y-48300828D02*
X150625939Y-48372257D01*
X150625939Y-48372257D02*
X150697367Y-48443685D01*
X151340224Y-49229400D02*
X152483082Y-49229400D01*
X153125939Y-49372257D02*
X153840225Y-49372257D01*
X152983082Y-49800828D02*
X153483082Y-48300828D01*
X153483082Y-48300828D02*
X153983082Y-49800828D01*
X154483081Y-49800828D02*
X154483081Y-48300828D01*
X154483081Y-48300828D02*
X154983081Y-49372257D01*
X154983081Y-49372257D02*
X155483081Y-48300828D01*
X155483081Y-48300828D02*
X155483081Y-49800828D01*
X156197367Y-49800828D02*
X156197367Y-48300828D01*
X156197367Y-48300828D02*
X156768796Y-48300828D01*
X156768796Y-48300828D02*
X156911653Y-48372257D01*
X156911653Y-48372257D02*
X156983082Y-48443685D01*
X156983082Y-48443685D02*
X157054510Y-48586542D01*
X157054510Y-48586542D02*
X157054510Y-48800828D01*
X157054510Y-48800828D02*
X156983082Y-48943685D01*
X156983082Y-48943685D02*
X156911653Y-49015114D01*
X156911653Y-49015114D02*
X156768796Y-49086542D01*
X156768796Y-49086542D02*
X156197367Y-49086542D01*
X158697367Y-48800828D02*
X159054510Y-49800828D01*
X159054510Y-49800828D02*
X159411653Y-48800828D01*
X160768796Y-49800828D02*
X159911653Y-49800828D01*
X160340224Y-49800828D02*
X160340224Y-48300828D01*
X160340224Y-48300828D02*
X160197367Y-48515114D01*
X160197367Y-48515114D02*
X160054510Y-48657971D01*
X160054510Y-48657971D02*
X159911653Y-48729400D01*
X161411652Y-49657971D02*
X161483081Y-49729400D01*
X161483081Y-49729400D02*
X161411652Y-49800828D01*
X161411652Y-49800828D02*
X161340224Y-49729400D01*
X161340224Y-49729400D02*
X161411652Y-49657971D01*
X161411652Y-49657971D02*
X161411652Y-49800828D01*
X162411653Y-48300828D02*
X162554510Y-48300828D01*
X162554510Y-48300828D02*
X162697367Y-48372257D01*
X162697367Y-48372257D02*
X162768796Y-48443685D01*
X162768796Y-48443685D02*
X162840224Y-48586542D01*
X162840224Y-48586542D02*
X162911653Y-48872257D01*
X162911653Y-48872257D02*
X162911653Y-49229400D01*
X162911653Y-49229400D02*
X162840224Y-49515114D01*
X162840224Y-49515114D02*
X162768796Y-49657971D01*
X162768796Y-49657971D02*
X162697367Y-49729400D01*
X162697367Y-49729400D02*
X162554510Y-49800828D01*
X162554510Y-49800828D02*
X162411653Y-49800828D01*
X162411653Y-49800828D02*
X162268796Y-49729400D01*
X162268796Y-49729400D02*
X162197367Y-49657971D01*
X162197367Y-49657971D02*
X162125938Y-49515114D01*
X162125938Y-49515114D02*
X162054510Y-49229400D01*
X162054510Y-49229400D02*
X162054510Y-48872257D01*
X162054510Y-48872257D02*
X162125938Y-48586542D01*
X162125938Y-48586542D02*
X162197367Y-48443685D01*
X162197367Y-48443685D02*
X162268796Y-48372257D01*
X162268796Y-48372257D02*
X162411653Y-48300828D01*
D11*
X156166666Y-84504819D02*
X155833333Y-84028628D01*
X155595238Y-84504819D02*
X155595238Y-83504819D01*
X155595238Y-83504819D02*
X155976190Y-83504819D01*
X155976190Y-83504819D02*
X156071428Y-83552438D01*
X156071428Y-83552438D02*
X156119047Y-83600057D01*
X156119047Y-83600057D02*
X156166666Y-83695295D01*
X156166666Y-83695295D02*
X156166666Y-83838152D01*
X156166666Y-83838152D02*
X156119047Y-83933390D01*
X156119047Y-83933390D02*
X156071428Y-83981009D01*
X156071428Y-83981009D02*
X155976190Y-84028628D01*
X155976190Y-84028628D02*
X155595238Y-84028628D01*
X156595238Y-83981009D02*
X156928571Y-83981009D01*
X157071428Y-84504819D02*
X156595238Y-84504819D01*
X156595238Y-84504819D02*
X156595238Y-83504819D01*
X156595238Y-83504819D02*
X157071428Y-83504819D01*
X157833333Y-83981009D02*
X157500000Y-83981009D01*
X157500000Y-84504819D02*
X157500000Y-83504819D01*
X157500000Y-83504819D02*
X157976190Y-83504819D01*
X158500000Y-83504819D02*
X158500000Y-83742914D01*
X158261905Y-83647676D02*
X158500000Y-83742914D01*
X158500000Y-83742914D02*
X158738095Y-83647676D01*
X158357143Y-83933390D02*
X158500000Y-83742914D01*
X158500000Y-83742914D02*
X158642857Y-83933390D01*
X159261905Y-83504819D02*
X159261905Y-83742914D01*
X159023810Y-83647676D02*
X159261905Y-83742914D01*
X159261905Y-83742914D02*
X159500000Y-83647676D01*
X159119048Y-83933390D02*
X159261905Y-83742914D01*
X159261905Y-83742914D02*
X159404762Y-83933390D01*
X162166666Y-40504819D02*
X161833333Y-40028628D01*
X161595238Y-40504819D02*
X161595238Y-39504819D01*
X161595238Y-39504819D02*
X161976190Y-39504819D01*
X161976190Y-39504819D02*
X162071428Y-39552438D01*
X162071428Y-39552438D02*
X162119047Y-39600057D01*
X162119047Y-39600057D02*
X162166666Y-39695295D01*
X162166666Y-39695295D02*
X162166666Y-39838152D01*
X162166666Y-39838152D02*
X162119047Y-39933390D01*
X162119047Y-39933390D02*
X162071428Y-39981009D01*
X162071428Y-39981009D02*
X161976190Y-40028628D01*
X161976190Y-40028628D02*
X161595238Y-40028628D01*
X162595238Y-39981009D02*
X162928571Y-39981009D01*
X163071428Y-40504819D02*
X162595238Y-40504819D01*
X162595238Y-40504819D02*
X162595238Y-39504819D01*
X162595238Y-39504819D02*
X163071428Y-39504819D01*
X163833333Y-39981009D02*
X163500000Y-39981009D01*
X163500000Y-40504819D02*
X163500000Y-39504819D01*
X163500000Y-39504819D02*
X163976190Y-39504819D01*
X164500000Y-39504819D02*
X164500000Y-39742914D01*
X164261905Y-39647676D02*
X164500000Y-39742914D01*
X164500000Y-39742914D02*
X164738095Y-39647676D01*
X164357143Y-39933390D02*
X164500000Y-39742914D01*
X164500000Y-39742914D02*
X164642857Y-39933390D01*
X165261905Y-39504819D02*
X165261905Y-39742914D01*
X165023810Y-39647676D02*
X165261905Y-39742914D01*
X165261905Y-39742914D02*
X165500000Y-39647676D01*
X165119048Y-39933390D02*
X165261905Y-39742914D01*
X165261905Y-39742914D02*
X165404762Y-39933390D01*
X108666666Y-85004819D02*
X108333333Y-84528628D01*
X108095238Y-85004819D02*
X108095238Y-84004819D01*
X108095238Y-84004819D02*
X108476190Y-84004819D01*
X108476190Y-84004819D02*
X108571428Y-84052438D01*
X108571428Y-84052438D02*
X108619047Y-84100057D01*
X108619047Y-84100057D02*
X108666666Y-84195295D01*
X108666666Y-84195295D02*
X108666666Y-84338152D01*
X108666666Y-84338152D02*
X108619047Y-84433390D01*
X108619047Y-84433390D02*
X108571428Y-84481009D01*
X108571428Y-84481009D02*
X108476190Y-84528628D01*
X108476190Y-84528628D02*
X108095238Y-84528628D01*
X109095238Y-84481009D02*
X109428571Y-84481009D01*
X109571428Y-85004819D02*
X109095238Y-85004819D01*
X109095238Y-85004819D02*
X109095238Y-84004819D01*
X109095238Y-84004819D02*
X109571428Y-84004819D01*
X110333333Y-84481009D02*
X110000000Y-84481009D01*
X110000000Y-85004819D02*
X110000000Y-84004819D01*
X110000000Y-84004819D02*
X110476190Y-84004819D01*
X111000000Y-84004819D02*
X111000000Y-84242914D01*
X110761905Y-84147676D02*
X111000000Y-84242914D01*
X111000000Y-84242914D02*
X111238095Y-84147676D01*
X110857143Y-84433390D02*
X111000000Y-84242914D01*
X111000000Y-84242914D02*
X111142857Y-84433390D01*
X111761905Y-84004819D02*
X111761905Y-84242914D01*
X111523810Y-84147676D02*
X111761905Y-84242914D01*
X111761905Y-84242914D02*
X112000000Y-84147676D01*
X111619048Y-84433390D02*
X111761905Y-84242914D01*
X111761905Y-84242914D02*
X111904762Y-84433390D01*
X122416666Y-78234819D02*
X122416666Y-78949104D01*
X122416666Y-78949104D02*
X122369047Y-79091961D01*
X122369047Y-79091961D02*
X122273809Y-79187200D01*
X122273809Y-79187200D02*
X122130952Y-79234819D01*
X122130952Y-79234819D02*
X122035714Y-79234819D01*
X122797619Y-78234819D02*
X123416666Y-78234819D01*
X123416666Y-78234819D02*
X123083333Y-78615771D01*
X123083333Y-78615771D02*
X123226190Y-78615771D01*
X123226190Y-78615771D02*
X123321428Y-78663390D01*
X123321428Y-78663390D02*
X123369047Y-78711009D01*
X123369047Y-78711009D02*
X123416666Y-78806247D01*
X123416666Y-78806247D02*
X123416666Y-79044342D01*
X123416666Y-79044342D02*
X123369047Y-79139580D01*
X123369047Y-79139580D02*
X123321428Y-79187200D01*
X123321428Y-79187200D02*
X123226190Y-79234819D01*
X123226190Y-79234819D02*
X122940476Y-79234819D01*
X122940476Y-79234819D02*
X122845238Y-79187200D01*
X122845238Y-79187200D02*
X122797619Y-79139580D01*
X153609580Y-77392857D02*
X153657200Y-77440476D01*
X153657200Y-77440476D02*
X153704819Y-77583333D01*
X153704819Y-77583333D02*
X153704819Y-77678571D01*
X153704819Y-77678571D02*
X153657200Y-77821428D01*
X153657200Y-77821428D02*
X153561961Y-77916666D01*
X153561961Y-77916666D02*
X153466723Y-77964285D01*
X153466723Y-77964285D02*
X153276247Y-78011904D01*
X153276247Y-78011904D02*
X153133390Y-78011904D01*
X153133390Y-78011904D02*
X152942914Y-77964285D01*
X152942914Y-77964285D02*
X152847676Y-77916666D01*
X152847676Y-77916666D02*
X152752438Y-77821428D01*
X152752438Y-77821428D02*
X152704819Y-77678571D01*
X152704819Y-77678571D02*
X152704819Y-77583333D01*
X152704819Y-77583333D02*
X152752438Y-77440476D01*
X152752438Y-77440476D02*
X152800057Y-77392857D01*
X152704819Y-77059523D02*
X152704819Y-76440476D01*
X152704819Y-76440476D02*
X153085771Y-76773809D01*
X153085771Y-76773809D02*
X153085771Y-76630952D01*
X153085771Y-76630952D02*
X153133390Y-76535714D01*
X153133390Y-76535714D02*
X153181009Y-76488095D01*
X153181009Y-76488095D02*
X153276247Y-76440476D01*
X153276247Y-76440476D02*
X153514342Y-76440476D01*
X153514342Y-76440476D02*
X153609580Y-76488095D01*
X153609580Y-76488095D02*
X153657200Y-76535714D01*
X153657200Y-76535714D02*
X153704819Y-76630952D01*
X153704819Y-76630952D02*
X153704819Y-76916666D01*
X153704819Y-76916666D02*
X153657200Y-77011904D01*
X153657200Y-77011904D02*
X153609580Y-77059523D01*
X153704819Y-75488095D02*
X153704819Y-76059523D01*
X153704819Y-75773809D02*
X152704819Y-75773809D01*
X152704819Y-75773809D02*
X152847676Y-75869047D01*
X152847676Y-75869047D02*
X152942914Y-75964285D01*
X152942914Y-75964285D02*
X152990533Y-76059523D01*
X132392319Y-49761904D02*
X133201842Y-49761904D01*
X133201842Y-49761904D02*
X133297080Y-49714285D01*
X133297080Y-49714285D02*
X133344700Y-49666666D01*
X133344700Y-49666666D02*
X133392319Y-49571428D01*
X133392319Y-49571428D02*
X133392319Y-49380952D01*
X133392319Y-49380952D02*
X133344700Y-49285714D01*
X133344700Y-49285714D02*
X133297080Y-49238095D01*
X133297080Y-49238095D02*
X133201842Y-49190476D01*
X133201842Y-49190476D02*
X132392319Y-49190476D01*
X133392319Y-48190476D02*
X133392319Y-48761904D01*
X133392319Y-48476190D02*
X132392319Y-48476190D01*
X132392319Y-48476190D02*
X132535176Y-48571428D01*
X132535176Y-48571428D02*
X132630414Y-48666666D01*
X132630414Y-48666666D02*
X132678033Y-48761904D01*
X123324819Y-71749404D02*
X124134342Y-71749404D01*
X124134342Y-71749404D02*
X124229580Y-71701785D01*
X124229580Y-71701785D02*
X124277200Y-71654166D01*
X124277200Y-71654166D02*
X124324819Y-71558928D01*
X124324819Y-71558928D02*
X124324819Y-71368452D01*
X124324819Y-71368452D02*
X124277200Y-71273214D01*
X124277200Y-71273214D02*
X124229580Y-71225595D01*
X124229580Y-71225595D02*
X124134342Y-71177976D01*
X124134342Y-71177976D02*
X123324819Y-71177976D01*
X123324819Y-70797023D02*
X123324819Y-70177976D01*
X123324819Y-70177976D02*
X123705771Y-70511309D01*
X123705771Y-70511309D02*
X123705771Y-70368452D01*
X123705771Y-70368452D02*
X123753390Y-70273214D01*
X123753390Y-70273214D02*
X123801009Y-70225595D01*
X123801009Y-70225595D02*
X123896247Y-70177976D01*
X123896247Y-70177976D02*
X124134342Y-70177976D01*
X124134342Y-70177976D02*
X124229580Y-70225595D01*
X124229580Y-70225595D02*
X124277200Y-70273214D01*
X124277200Y-70273214D02*
X124324819Y-70368452D01*
X124324819Y-70368452D02*
X124324819Y-70654166D01*
X124324819Y-70654166D02*
X124277200Y-70749404D01*
X124277200Y-70749404D02*
X124229580Y-70797023D01*
X106876666Y-36184819D02*
X106876666Y-36899104D01*
X106876666Y-36899104D02*
X106829047Y-37041961D01*
X106829047Y-37041961D02*
X106733809Y-37137200D01*
X106733809Y-37137200D02*
X106590952Y-37184819D01*
X106590952Y-37184819D02*
X106495714Y-37184819D01*
X107257619Y-36184819D02*
X107924285Y-36184819D01*
X107924285Y-36184819D02*
X107495714Y-37184819D01*
X144454819Y-67761904D02*
X145264342Y-67761904D01*
X145264342Y-67761904D02*
X145359580Y-67714285D01*
X145359580Y-67714285D02*
X145407200Y-67666666D01*
X145407200Y-67666666D02*
X145454819Y-67571428D01*
X145454819Y-67571428D02*
X145454819Y-67380952D01*
X145454819Y-67380952D02*
X145407200Y-67285714D01*
X145407200Y-67285714D02*
X145359580Y-67238095D01*
X145359580Y-67238095D02*
X145264342Y-67190476D01*
X145264342Y-67190476D02*
X144454819Y-67190476D01*
X144788152Y-66285714D02*
X145454819Y-66285714D01*
X144407200Y-66523809D02*
X145121485Y-66761904D01*
X145121485Y-66761904D02*
X145121485Y-66142857D01*
X145204819Y-79113333D02*
X145919104Y-79113333D01*
X145919104Y-79113333D02*
X146061961Y-79160952D01*
X146061961Y-79160952D02*
X146157200Y-79256190D01*
X146157200Y-79256190D02*
X146204819Y-79399047D01*
X146204819Y-79399047D02*
X146204819Y-79494285D01*
X145538152Y-78208571D02*
X146204819Y-78208571D01*
X145157200Y-78446666D02*
X145871485Y-78684761D01*
X145871485Y-78684761D02*
X145871485Y-78065714D01*
X104338095Y-34954819D02*
X104338095Y-33954819D01*
X104338095Y-34431009D02*
X104909523Y-34431009D01*
X104909523Y-34954819D02*
X104909523Y-33954819D01*
X105909523Y-34954819D02*
X105338095Y-34954819D01*
X105623809Y-34954819D02*
X105623809Y-33954819D01*
X105623809Y-33954819D02*
X105528571Y-34097676D01*
X105528571Y-34097676D02*
X105433333Y-34192914D01*
X105433333Y-34192914D02*
X105338095Y-34240533D01*
X162238095Y-34954819D02*
X162238095Y-33954819D01*
X162238095Y-34431009D02*
X162809523Y-34431009D01*
X162809523Y-34954819D02*
X162809523Y-33954819D01*
X163238095Y-34050057D02*
X163285714Y-34002438D01*
X163285714Y-34002438D02*
X163380952Y-33954819D01*
X163380952Y-33954819D02*
X163619047Y-33954819D01*
X163619047Y-33954819D02*
X163714285Y-34002438D01*
X163714285Y-34002438D02*
X163761904Y-34050057D01*
X163761904Y-34050057D02*
X163809523Y-34145295D01*
X163809523Y-34145295D02*
X163809523Y-34240533D01*
X163809523Y-34240533D02*
X163761904Y-34383390D01*
X163761904Y-34383390D02*
X163190476Y-34954819D01*
X163190476Y-34954819D02*
X163809523Y-34954819D01*
X104338095Y-82774819D02*
X104338095Y-81774819D01*
X104338095Y-82251009D02*
X104909523Y-82251009D01*
X104909523Y-82774819D02*
X104909523Y-81774819D01*
X105290476Y-81774819D02*
X105909523Y-81774819D01*
X105909523Y-81774819D02*
X105576190Y-82155771D01*
X105576190Y-82155771D02*
X105719047Y-82155771D01*
X105719047Y-82155771D02*
X105814285Y-82203390D01*
X105814285Y-82203390D02*
X105861904Y-82251009D01*
X105861904Y-82251009D02*
X105909523Y-82346247D01*
X105909523Y-82346247D02*
X105909523Y-82584342D01*
X105909523Y-82584342D02*
X105861904Y-82679580D01*
X105861904Y-82679580D02*
X105814285Y-82727200D01*
X105814285Y-82727200D02*
X105719047Y-82774819D01*
X105719047Y-82774819D02*
X105433333Y-82774819D01*
X105433333Y-82774819D02*
X105338095Y-82727200D01*
X105338095Y-82727200D02*
X105290476Y-82679580D01*
X162338095Y-82774819D02*
X162338095Y-81774819D01*
X162338095Y-82251009D02*
X162909523Y-82251009D01*
X162909523Y-82774819D02*
X162909523Y-81774819D01*
X163814285Y-82108152D02*
X163814285Y-82774819D01*
X163576190Y-81727200D02*
X163338095Y-82441485D01*
X163338095Y-82441485D02*
X163957142Y-82441485D01*
X105166666Y-40034819D02*
X105166666Y-40749104D01*
X105166666Y-40749104D02*
X105119047Y-40891961D01*
X105119047Y-40891961D02*
X105023809Y-40987200D01*
X105023809Y-40987200D02*
X104880952Y-41034819D01*
X104880952Y-41034819D02*
X104785714Y-41034819D01*
X106166666Y-41034819D02*
X105595238Y-41034819D01*
X105880952Y-41034819D02*
X105880952Y-40034819D01*
X105880952Y-40034819D02*
X105785714Y-40177676D01*
X105785714Y-40177676D02*
X105690476Y-40272914D01*
X105690476Y-40272914D02*
X105595238Y-40320533D01*
X157954819Y-65833333D02*
X158669104Y-65833333D01*
X158669104Y-65833333D02*
X158811961Y-65880952D01*
X158811961Y-65880952D02*
X158907200Y-65976190D01*
X158907200Y-65976190D02*
X158954819Y-66119047D01*
X158954819Y-66119047D02*
X158954819Y-66214285D01*
X158050057Y-65404761D02*
X158002438Y-65357142D01*
X158002438Y-65357142D02*
X157954819Y-65261904D01*
X157954819Y-65261904D02*
X157954819Y-65023809D01*
X157954819Y-65023809D02*
X158002438Y-64928571D01*
X158002438Y-64928571D02*
X158050057Y-64880952D01*
X158050057Y-64880952D02*
X158145295Y-64833333D01*
X158145295Y-64833333D02*
X158240533Y-64833333D01*
X158240533Y-64833333D02*
X158383390Y-64880952D01*
X158383390Y-64880952D02*
X158954819Y-65452380D01*
X158954819Y-65452380D02*
X158954819Y-64833333D01*
X147909580Y-57962857D02*
X147957200Y-58010476D01*
X147957200Y-58010476D02*
X148004819Y-58153333D01*
X148004819Y-58153333D02*
X148004819Y-58248571D01*
X148004819Y-58248571D02*
X147957200Y-58391428D01*
X147957200Y-58391428D02*
X147861961Y-58486666D01*
X147861961Y-58486666D02*
X147766723Y-58534285D01*
X147766723Y-58534285D02*
X147576247Y-58581904D01*
X147576247Y-58581904D02*
X147433390Y-58581904D01*
X147433390Y-58581904D02*
X147242914Y-58534285D01*
X147242914Y-58534285D02*
X147147676Y-58486666D01*
X147147676Y-58486666D02*
X147052438Y-58391428D01*
X147052438Y-58391428D02*
X147004819Y-58248571D01*
X147004819Y-58248571D02*
X147004819Y-58153333D01*
X147004819Y-58153333D02*
X147052438Y-58010476D01*
X147052438Y-58010476D02*
X147100057Y-57962857D01*
X147100057Y-57581904D02*
X147052438Y-57534285D01*
X147052438Y-57534285D02*
X147004819Y-57439047D01*
X147004819Y-57439047D02*
X147004819Y-57200952D01*
X147004819Y-57200952D02*
X147052438Y-57105714D01*
X147052438Y-57105714D02*
X147100057Y-57058095D01*
X147100057Y-57058095D02*
X147195295Y-57010476D01*
X147195295Y-57010476D02*
X147290533Y-57010476D01*
X147290533Y-57010476D02*
X147433390Y-57058095D01*
X147433390Y-57058095D02*
X148004819Y-57629523D01*
X148004819Y-57629523D02*
X148004819Y-57010476D01*
X147004819Y-56677142D02*
X147004819Y-56010476D01*
X147004819Y-56010476D02*
X148004819Y-56439047D01*
X143309580Y-57962857D02*
X143357200Y-58010476D01*
X143357200Y-58010476D02*
X143404819Y-58153333D01*
X143404819Y-58153333D02*
X143404819Y-58248571D01*
X143404819Y-58248571D02*
X143357200Y-58391428D01*
X143357200Y-58391428D02*
X143261961Y-58486666D01*
X143261961Y-58486666D02*
X143166723Y-58534285D01*
X143166723Y-58534285D02*
X142976247Y-58581904D01*
X142976247Y-58581904D02*
X142833390Y-58581904D01*
X142833390Y-58581904D02*
X142642914Y-58534285D01*
X142642914Y-58534285D02*
X142547676Y-58486666D01*
X142547676Y-58486666D02*
X142452438Y-58391428D01*
X142452438Y-58391428D02*
X142404819Y-58248571D01*
X142404819Y-58248571D02*
X142404819Y-58153333D01*
X142404819Y-58153333D02*
X142452438Y-58010476D01*
X142452438Y-58010476D02*
X142500057Y-57962857D01*
X142500057Y-57581904D02*
X142452438Y-57534285D01*
X142452438Y-57534285D02*
X142404819Y-57439047D01*
X142404819Y-57439047D02*
X142404819Y-57200952D01*
X142404819Y-57200952D02*
X142452438Y-57105714D01*
X142452438Y-57105714D02*
X142500057Y-57058095D01*
X142500057Y-57058095D02*
X142595295Y-57010476D01*
X142595295Y-57010476D02*
X142690533Y-57010476D01*
X142690533Y-57010476D02*
X142833390Y-57058095D01*
X142833390Y-57058095D02*
X143404819Y-57629523D01*
X143404819Y-57629523D02*
X143404819Y-57010476D01*
X142833390Y-56439047D02*
X142785771Y-56534285D01*
X142785771Y-56534285D02*
X142738152Y-56581904D01*
X142738152Y-56581904D02*
X142642914Y-56629523D01*
X142642914Y-56629523D02*
X142595295Y-56629523D01*
X142595295Y-56629523D02*
X142500057Y-56581904D01*
X142500057Y-56581904D02*
X142452438Y-56534285D01*
X142452438Y-56534285D02*
X142404819Y-56439047D01*
X142404819Y-56439047D02*
X142404819Y-56248571D01*
X142404819Y-56248571D02*
X142452438Y-56153333D01*
X142452438Y-56153333D02*
X142500057Y-56105714D01*
X142500057Y-56105714D02*
X142595295Y-56058095D01*
X142595295Y-56058095D02*
X142642914Y-56058095D01*
X142642914Y-56058095D02*
X142738152Y-56105714D01*
X142738152Y-56105714D02*
X142785771Y-56153333D01*
X142785771Y-56153333D02*
X142833390Y-56248571D01*
X142833390Y-56248571D02*
X142833390Y-56439047D01*
X142833390Y-56439047D02*
X142881009Y-56534285D01*
X142881009Y-56534285D02*
X142928628Y-56581904D01*
X142928628Y-56581904D02*
X143023866Y-56629523D01*
X143023866Y-56629523D02*
X143214342Y-56629523D01*
X143214342Y-56629523D02*
X143309580Y-56581904D01*
X143309580Y-56581904D02*
X143357200Y-56534285D01*
X143357200Y-56534285D02*
X143404819Y-56439047D01*
X143404819Y-56439047D02*
X143404819Y-56248571D01*
X143404819Y-56248571D02*
X143357200Y-56153333D01*
X143357200Y-56153333D02*
X143309580Y-56105714D01*
X143309580Y-56105714D02*
X143214342Y-56058095D01*
X143214342Y-56058095D02*
X143023866Y-56058095D01*
X143023866Y-56058095D02*
X142928628Y-56105714D01*
X142928628Y-56105714D02*
X142881009Y-56153333D01*
X142881009Y-56153333D02*
X142833390Y-56248571D01*
X116809580Y-59142857D02*
X116857200Y-59190476D01*
X116857200Y-59190476D02*
X116904819Y-59333333D01*
X116904819Y-59333333D02*
X116904819Y-59428571D01*
X116904819Y-59428571D02*
X116857200Y-59571428D01*
X116857200Y-59571428D02*
X116761961Y-59666666D01*
X116761961Y-59666666D02*
X116666723Y-59714285D01*
X116666723Y-59714285D02*
X116476247Y-59761904D01*
X116476247Y-59761904D02*
X116333390Y-59761904D01*
X116333390Y-59761904D02*
X116142914Y-59714285D01*
X116142914Y-59714285D02*
X116047676Y-59666666D01*
X116047676Y-59666666D02*
X115952438Y-59571428D01*
X115952438Y-59571428D02*
X115904819Y-59428571D01*
X115904819Y-59428571D02*
X115904819Y-59333333D01*
X115904819Y-59333333D02*
X115952438Y-59190476D01*
X115952438Y-59190476D02*
X116000057Y-59142857D01*
X116000057Y-58761904D02*
X115952438Y-58714285D01*
X115952438Y-58714285D02*
X115904819Y-58619047D01*
X115904819Y-58619047D02*
X115904819Y-58380952D01*
X115904819Y-58380952D02*
X115952438Y-58285714D01*
X115952438Y-58285714D02*
X116000057Y-58238095D01*
X116000057Y-58238095D02*
X116095295Y-58190476D01*
X116095295Y-58190476D02*
X116190533Y-58190476D01*
X116190533Y-58190476D02*
X116333390Y-58238095D01*
X116333390Y-58238095D02*
X116904819Y-58809523D01*
X116904819Y-58809523D02*
X116904819Y-58190476D01*
X115904819Y-57285714D02*
X115904819Y-57761904D01*
X115904819Y-57761904D02*
X116381009Y-57809523D01*
X116381009Y-57809523D02*
X116333390Y-57761904D01*
X116333390Y-57761904D02*
X116285771Y-57666666D01*
X116285771Y-57666666D02*
X116285771Y-57428571D01*
X116285771Y-57428571D02*
X116333390Y-57333333D01*
X116333390Y-57333333D02*
X116381009Y-57285714D01*
X116381009Y-57285714D02*
X116476247Y-57238095D01*
X116476247Y-57238095D02*
X116714342Y-57238095D01*
X116714342Y-57238095D02*
X116809580Y-57285714D01*
X116809580Y-57285714D02*
X116857200Y-57333333D01*
X116857200Y-57333333D02*
X116904819Y-57428571D01*
X116904819Y-57428571D02*
X116904819Y-57666666D01*
X116904819Y-57666666D02*
X116857200Y-57761904D01*
X116857200Y-57761904D02*
X116809580Y-57809523D01*
X134409580Y-57962857D02*
X134457200Y-58010476D01*
X134457200Y-58010476D02*
X134504819Y-58153333D01*
X134504819Y-58153333D02*
X134504819Y-58248571D01*
X134504819Y-58248571D02*
X134457200Y-58391428D01*
X134457200Y-58391428D02*
X134361961Y-58486666D01*
X134361961Y-58486666D02*
X134266723Y-58534285D01*
X134266723Y-58534285D02*
X134076247Y-58581904D01*
X134076247Y-58581904D02*
X133933390Y-58581904D01*
X133933390Y-58581904D02*
X133742914Y-58534285D01*
X133742914Y-58534285D02*
X133647676Y-58486666D01*
X133647676Y-58486666D02*
X133552438Y-58391428D01*
X133552438Y-58391428D02*
X133504819Y-58248571D01*
X133504819Y-58248571D02*
X133504819Y-58153333D01*
X133504819Y-58153333D02*
X133552438Y-58010476D01*
X133552438Y-58010476D02*
X133600057Y-57962857D01*
X133504819Y-57629523D02*
X133504819Y-57010476D01*
X133504819Y-57010476D02*
X133885771Y-57343809D01*
X133885771Y-57343809D02*
X133885771Y-57200952D01*
X133885771Y-57200952D02*
X133933390Y-57105714D01*
X133933390Y-57105714D02*
X133981009Y-57058095D01*
X133981009Y-57058095D02*
X134076247Y-57010476D01*
X134076247Y-57010476D02*
X134314342Y-57010476D01*
X134314342Y-57010476D02*
X134409580Y-57058095D01*
X134409580Y-57058095D02*
X134457200Y-57105714D01*
X134457200Y-57105714D02*
X134504819Y-57200952D01*
X134504819Y-57200952D02*
X134504819Y-57486666D01*
X134504819Y-57486666D02*
X134457200Y-57581904D01*
X134457200Y-57581904D02*
X134409580Y-57629523D01*
X133504819Y-56391428D02*
X133504819Y-56296190D01*
X133504819Y-56296190D02*
X133552438Y-56200952D01*
X133552438Y-56200952D02*
X133600057Y-56153333D01*
X133600057Y-56153333D02*
X133695295Y-56105714D01*
X133695295Y-56105714D02*
X133885771Y-56058095D01*
X133885771Y-56058095D02*
X134123866Y-56058095D01*
X134123866Y-56058095D02*
X134314342Y-56105714D01*
X134314342Y-56105714D02*
X134409580Y-56153333D01*
X134409580Y-56153333D02*
X134457200Y-56200952D01*
X134457200Y-56200952D02*
X134504819Y-56296190D01*
X134504819Y-56296190D02*
X134504819Y-56391428D01*
X134504819Y-56391428D02*
X134457200Y-56486666D01*
X134457200Y-56486666D02*
X134409580Y-56534285D01*
X134409580Y-56534285D02*
X134314342Y-56581904D01*
X134314342Y-56581904D02*
X134123866Y-56629523D01*
X134123866Y-56629523D02*
X133885771Y-56629523D01*
X133885771Y-56629523D02*
X133695295Y-56581904D01*
X133695295Y-56581904D02*
X133600057Y-56534285D01*
X133600057Y-56534285D02*
X133552438Y-56486666D01*
X133552438Y-56486666D02*
X133504819Y-56391428D01*
X138909580Y-57962857D02*
X138957200Y-58010476D01*
X138957200Y-58010476D02*
X139004819Y-58153333D01*
X139004819Y-58153333D02*
X139004819Y-58248571D01*
X139004819Y-58248571D02*
X138957200Y-58391428D01*
X138957200Y-58391428D02*
X138861961Y-58486666D01*
X138861961Y-58486666D02*
X138766723Y-58534285D01*
X138766723Y-58534285D02*
X138576247Y-58581904D01*
X138576247Y-58581904D02*
X138433390Y-58581904D01*
X138433390Y-58581904D02*
X138242914Y-58534285D01*
X138242914Y-58534285D02*
X138147676Y-58486666D01*
X138147676Y-58486666D02*
X138052438Y-58391428D01*
X138052438Y-58391428D02*
X138004819Y-58248571D01*
X138004819Y-58248571D02*
X138004819Y-58153333D01*
X138004819Y-58153333D02*
X138052438Y-58010476D01*
X138052438Y-58010476D02*
X138100057Y-57962857D01*
X138100057Y-57581904D02*
X138052438Y-57534285D01*
X138052438Y-57534285D02*
X138004819Y-57439047D01*
X138004819Y-57439047D02*
X138004819Y-57200952D01*
X138004819Y-57200952D02*
X138052438Y-57105714D01*
X138052438Y-57105714D02*
X138100057Y-57058095D01*
X138100057Y-57058095D02*
X138195295Y-57010476D01*
X138195295Y-57010476D02*
X138290533Y-57010476D01*
X138290533Y-57010476D02*
X138433390Y-57058095D01*
X138433390Y-57058095D02*
X139004819Y-57629523D01*
X139004819Y-57629523D02*
X139004819Y-57010476D01*
X139004819Y-56534285D02*
X139004819Y-56343809D01*
X139004819Y-56343809D02*
X138957200Y-56248571D01*
X138957200Y-56248571D02*
X138909580Y-56200952D01*
X138909580Y-56200952D02*
X138766723Y-56105714D01*
X138766723Y-56105714D02*
X138576247Y-56058095D01*
X138576247Y-56058095D02*
X138195295Y-56058095D01*
X138195295Y-56058095D02*
X138100057Y-56105714D01*
X138100057Y-56105714D02*
X138052438Y-56153333D01*
X138052438Y-56153333D02*
X138004819Y-56248571D01*
X138004819Y-56248571D02*
X138004819Y-56439047D01*
X138004819Y-56439047D02*
X138052438Y-56534285D01*
X138052438Y-56534285D02*
X138100057Y-56581904D01*
X138100057Y-56581904D02*
X138195295Y-56629523D01*
X138195295Y-56629523D02*
X138433390Y-56629523D01*
X138433390Y-56629523D02*
X138528628Y-56581904D01*
X138528628Y-56581904D02*
X138576247Y-56534285D01*
X138576247Y-56534285D02*
X138623866Y-56439047D01*
X138623866Y-56439047D02*
X138623866Y-56248571D01*
X138623866Y-56248571D02*
X138576247Y-56153333D01*
X138576247Y-56153333D02*
X138528628Y-56105714D01*
X138528628Y-56105714D02*
X138433390Y-56058095D01*
X129409580Y-59322857D02*
X129457200Y-59370476D01*
X129457200Y-59370476D02*
X129504819Y-59513333D01*
X129504819Y-59513333D02*
X129504819Y-59608571D01*
X129504819Y-59608571D02*
X129457200Y-59751428D01*
X129457200Y-59751428D02*
X129361961Y-59846666D01*
X129361961Y-59846666D02*
X129266723Y-59894285D01*
X129266723Y-59894285D02*
X129076247Y-59941904D01*
X129076247Y-59941904D02*
X128933390Y-59941904D01*
X128933390Y-59941904D02*
X128742914Y-59894285D01*
X128742914Y-59894285D02*
X128647676Y-59846666D01*
X128647676Y-59846666D02*
X128552438Y-59751428D01*
X128552438Y-59751428D02*
X128504819Y-59608571D01*
X128504819Y-59608571D02*
X128504819Y-59513333D01*
X128504819Y-59513333D02*
X128552438Y-59370476D01*
X128552438Y-59370476D02*
X128600057Y-59322857D01*
X128600057Y-58941904D02*
X128552438Y-58894285D01*
X128552438Y-58894285D02*
X128504819Y-58799047D01*
X128504819Y-58799047D02*
X128504819Y-58560952D01*
X128504819Y-58560952D02*
X128552438Y-58465714D01*
X128552438Y-58465714D02*
X128600057Y-58418095D01*
X128600057Y-58418095D02*
X128695295Y-58370476D01*
X128695295Y-58370476D02*
X128790533Y-58370476D01*
X128790533Y-58370476D02*
X128933390Y-58418095D01*
X128933390Y-58418095D02*
X129504819Y-58989523D01*
X129504819Y-58989523D02*
X129504819Y-58370476D01*
X128504819Y-58037142D02*
X128504819Y-57418095D01*
X128504819Y-57418095D02*
X128885771Y-57751428D01*
X128885771Y-57751428D02*
X128885771Y-57608571D01*
X128885771Y-57608571D02*
X128933390Y-57513333D01*
X128933390Y-57513333D02*
X128981009Y-57465714D01*
X128981009Y-57465714D02*
X129076247Y-57418095D01*
X129076247Y-57418095D02*
X129314342Y-57418095D01*
X129314342Y-57418095D02*
X129409580Y-57465714D01*
X129409580Y-57465714D02*
X129457200Y-57513333D01*
X129457200Y-57513333D02*
X129504819Y-57608571D01*
X129504819Y-57608571D02*
X129504819Y-57894285D01*
X129504819Y-57894285D02*
X129457200Y-57989523D01*
X129457200Y-57989523D02*
X129409580Y-58037142D01*
X129759580Y-63142857D02*
X129807200Y-63190476D01*
X129807200Y-63190476D02*
X129854819Y-63333333D01*
X129854819Y-63333333D02*
X129854819Y-63428571D01*
X129854819Y-63428571D02*
X129807200Y-63571428D01*
X129807200Y-63571428D02*
X129711961Y-63666666D01*
X129711961Y-63666666D02*
X129616723Y-63714285D01*
X129616723Y-63714285D02*
X129426247Y-63761904D01*
X129426247Y-63761904D02*
X129283390Y-63761904D01*
X129283390Y-63761904D02*
X129092914Y-63714285D01*
X129092914Y-63714285D02*
X128997676Y-63666666D01*
X128997676Y-63666666D02*
X128902438Y-63571428D01*
X128902438Y-63571428D02*
X128854819Y-63428571D01*
X128854819Y-63428571D02*
X128854819Y-63333333D01*
X128854819Y-63333333D02*
X128902438Y-63190476D01*
X128902438Y-63190476D02*
X128950057Y-63142857D01*
X128950057Y-62761904D02*
X128902438Y-62714285D01*
X128902438Y-62714285D02*
X128854819Y-62619047D01*
X128854819Y-62619047D02*
X128854819Y-62380952D01*
X128854819Y-62380952D02*
X128902438Y-62285714D01*
X128902438Y-62285714D02*
X128950057Y-62238095D01*
X128950057Y-62238095D02*
X129045295Y-62190476D01*
X129045295Y-62190476D02*
X129140533Y-62190476D01*
X129140533Y-62190476D02*
X129283390Y-62238095D01*
X129283390Y-62238095D02*
X129854819Y-62809523D01*
X129854819Y-62809523D02*
X129854819Y-62190476D01*
X128854819Y-61333333D02*
X128854819Y-61523809D01*
X128854819Y-61523809D02*
X128902438Y-61619047D01*
X128902438Y-61619047D02*
X128950057Y-61666666D01*
X128950057Y-61666666D02*
X129092914Y-61761904D01*
X129092914Y-61761904D02*
X129283390Y-61809523D01*
X129283390Y-61809523D02*
X129664342Y-61809523D01*
X129664342Y-61809523D02*
X129759580Y-61761904D01*
X129759580Y-61761904D02*
X129807200Y-61714285D01*
X129807200Y-61714285D02*
X129854819Y-61619047D01*
X129854819Y-61619047D02*
X129854819Y-61428571D01*
X129854819Y-61428571D02*
X129807200Y-61333333D01*
X129807200Y-61333333D02*
X129759580Y-61285714D01*
X129759580Y-61285714D02*
X129664342Y-61238095D01*
X129664342Y-61238095D02*
X129426247Y-61238095D01*
X129426247Y-61238095D02*
X129331009Y-61285714D01*
X129331009Y-61285714D02*
X129283390Y-61333333D01*
X129283390Y-61333333D02*
X129235771Y-61428571D01*
X129235771Y-61428571D02*
X129235771Y-61619047D01*
X129235771Y-61619047D02*
X129283390Y-61714285D01*
X129283390Y-61714285D02*
X129331009Y-61761904D01*
X129331009Y-61761904D02*
X129426247Y-61809523D01*
X123409580Y-59322857D02*
X123457200Y-59370476D01*
X123457200Y-59370476D02*
X123504819Y-59513333D01*
X123504819Y-59513333D02*
X123504819Y-59608571D01*
X123504819Y-59608571D02*
X123457200Y-59751428D01*
X123457200Y-59751428D02*
X123361961Y-59846666D01*
X123361961Y-59846666D02*
X123266723Y-59894285D01*
X123266723Y-59894285D02*
X123076247Y-59941904D01*
X123076247Y-59941904D02*
X122933390Y-59941904D01*
X122933390Y-59941904D02*
X122742914Y-59894285D01*
X122742914Y-59894285D02*
X122647676Y-59846666D01*
X122647676Y-59846666D02*
X122552438Y-59751428D01*
X122552438Y-59751428D02*
X122504819Y-59608571D01*
X122504819Y-59608571D02*
X122504819Y-59513333D01*
X122504819Y-59513333D02*
X122552438Y-59370476D01*
X122552438Y-59370476D02*
X122600057Y-59322857D01*
X122600057Y-58941904D02*
X122552438Y-58894285D01*
X122552438Y-58894285D02*
X122504819Y-58799047D01*
X122504819Y-58799047D02*
X122504819Y-58560952D01*
X122504819Y-58560952D02*
X122552438Y-58465714D01*
X122552438Y-58465714D02*
X122600057Y-58418095D01*
X122600057Y-58418095D02*
X122695295Y-58370476D01*
X122695295Y-58370476D02*
X122790533Y-58370476D01*
X122790533Y-58370476D02*
X122933390Y-58418095D01*
X122933390Y-58418095D02*
X123504819Y-58989523D01*
X123504819Y-58989523D02*
X123504819Y-58370476D01*
X122838152Y-57513333D02*
X123504819Y-57513333D01*
X122457200Y-57751428D02*
X123171485Y-57989523D01*
X123171485Y-57989523D02*
X123171485Y-57370476D01*
D12*
%TO.C,J3*%
X115630000Y-79780000D02*
X129870000Y-79780000D01*
X115630000Y-86000000D02*
X129870000Y-86000000D01*
X115630000Y-87100000D02*
X129870000Y-87100000D01*
X115630000Y-87620000D02*
X115630000Y-79780000D01*
X117200000Y-87620000D02*
X115630000Y-87620000D01*
X129870000Y-79780000D02*
X129870000Y-87620000D01*
X129870000Y-87620000D02*
X117800000Y-87620000D01*
X117940000Y-88230000D02*
X117060000Y-88230000D01*
X117500000Y-87620000D01*
X117940000Y-88230000D01*
G36*
X117940000Y-88230000D02*
G01*
X117060000Y-88230000D01*
X117500000Y-87620000D01*
X117940000Y-88230000D01*
G37*
%TO.C,C31*%
X154420000Y-76710000D02*
X162580000Y-76710000D01*
X154420000Y-76750000D02*
X162580000Y-76750000D01*
X154421000Y-76670000D02*
X162579000Y-76670000D01*
X154422000Y-76630000D02*
X162578000Y-76630000D01*
X154423000Y-76590000D02*
X162577000Y-76590000D01*
X154425000Y-76550000D02*
X162575000Y-76550000D01*
X154427000Y-76510000D02*
X162573000Y-76510000D01*
X154430000Y-76470000D02*
X162570000Y-76470000D01*
X154432000Y-76430000D02*
X162568000Y-76430000D01*
X154436000Y-76390000D02*
X162564000Y-76390000D01*
X154439000Y-76350000D02*
X162561000Y-76350000D01*
X154444000Y-76310000D02*
X162556000Y-76310000D01*
X154448000Y-76270000D02*
X162552000Y-76270000D01*
X154453000Y-76230000D02*
X162547000Y-76230000D01*
X154458000Y-76190000D02*
X162542000Y-76190000D01*
X154464000Y-76150000D02*
X162536000Y-76150000D01*
X154470000Y-76110000D02*
X162530000Y-76110000D01*
X154477000Y-76070000D02*
X162523000Y-76070000D01*
X154483000Y-76030000D02*
X157460000Y-76030000D01*
X154491000Y-75990000D02*
X157460000Y-75990000D01*
X154498000Y-75950000D02*
X157460000Y-75950000D01*
X154507000Y-75910000D02*
X157460000Y-75910000D01*
X154515000Y-75870000D02*
X157460000Y-75870000D01*
X154524000Y-75830000D02*
X157460000Y-75830000D01*
X154533000Y-75790000D02*
X157460000Y-75790000D01*
X154543000Y-75750000D02*
X157460000Y-75750000D01*
X154553000Y-75710000D02*
X157460000Y-75710000D01*
X154564000Y-75670000D02*
X157460000Y-75670000D01*
X154575000Y-75630000D02*
X157460000Y-75630000D01*
X154587000Y-75590000D02*
X157460000Y-75590000D01*
X154599000Y-75550000D02*
X157460000Y-75550000D01*
X154611000Y-75510000D02*
X157460000Y-75510000D01*
X154624000Y-75470000D02*
X157460000Y-75470000D01*
X154637000Y-75430000D02*
X157460000Y-75430000D01*
X154651000Y-75390000D02*
X157460000Y-75390000D01*
X154665000Y-75350000D02*
X157460000Y-75350000D01*
X154680000Y-75310000D02*
X157460000Y-75310000D01*
X154695000Y-75270000D02*
X157460000Y-75270000D01*
X154711000Y-75230000D02*
X157460000Y-75230000D01*
X154727000Y-75190000D02*
X157460000Y-75190000D01*
X154743000Y-75150000D02*
X157460000Y-75150000D01*
X154760000Y-75110000D02*
X157460000Y-75110000D01*
X154778000Y-75070000D02*
X157460000Y-75070000D01*
X154796000Y-75030000D02*
X157460000Y-75030000D01*
X154815000Y-74990000D02*
X157460000Y-74990000D01*
X154834000Y-74950000D02*
X157460000Y-74950000D01*
X154854000Y-74910000D02*
X157460000Y-74910000D01*
X154874000Y-74870000D02*
X157460000Y-74870000D01*
X154895000Y-74830000D02*
X157460000Y-74830000D01*
X154916000Y-74790000D02*
X157460000Y-74790000D01*
X154938000Y-74750000D02*
X157460000Y-74750000D01*
X154961000Y-74710000D02*
X157460000Y-74710000D01*
X154984000Y-74670000D02*
X157460000Y-74670000D01*
X155007000Y-74630000D02*
X157460000Y-74630000D01*
X155032000Y-74590000D02*
X157460000Y-74590000D01*
X155057000Y-74550000D02*
X157460000Y-74550000D01*
X155082000Y-74510000D02*
X157460000Y-74510000D01*
X155108000Y-74470000D02*
X157460000Y-74470000D01*
X155135000Y-74430000D02*
X157460000Y-74430000D01*
X155163000Y-74390000D02*
X157460000Y-74390000D01*
X155191000Y-74350000D02*
X157460000Y-74350000D01*
X155220000Y-74310000D02*
X157460000Y-74310000D01*
X155250000Y-74270000D02*
X157460000Y-74270000D01*
X155281000Y-74230000D02*
X157460000Y-74230000D01*
X155312000Y-74190000D02*
X157460000Y-74190000D01*
X155344000Y-74150000D02*
X157460000Y-74150000D01*
X155377000Y-74110000D02*
X157460000Y-74110000D01*
X155411000Y-74070000D02*
X157460000Y-74070000D01*
X155445000Y-74030000D02*
X157460000Y-74030000D01*
X155481000Y-73990000D02*
X157460000Y-73990000D01*
X155518000Y-73950000D02*
X161482000Y-73950000D01*
X155555000Y-73910000D02*
X161445000Y-73910000D01*
X155594000Y-73870000D02*
X161406000Y-73870000D01*
X155633000Y-73830000D02*
X161367000Y-73830000D01*
X155674000Y-73790000D02*
X161326000Y-73790000D01*
X155716000Y-73750000D02*
X161284000Y-73750000D01*
X155759000Y-73710000D02*
X161241000Y-73710000D01*
X155785000Y-80759698D02*
X156585000Y-80759698D01*
X155804000Y-73670000D02*
X161196000Y-73670000D01*
X155849000Y-73630000D02*
X161151000Y-73630000D01*
X155896000Y-73590000D02*
X161104000Y-73590000D01*
X155945000Y-73550000D02*
X161055000Y-73550000D01*
X155995000Y-73510000D02*
X161005000Y-73510000D01*
X156047000Y-73470000D02*
X160953000Y-73470000D01*
X156100000Y-73430000D02*
X160900000Y-73430000D01*
X156156000Y-73390000D02*
X160844000Y-73390000D01*
X156185000Y-81159698D02*
X156185000Y-80359698D01*
X156213000Y-73350000D02*
X160787000Y-73350000D01*
X156273000Y-73310000D02*
X160727000Y-73310000D01*
X156335000Y-73270000D02*
X160665000Y-73270000D01*
X156399000Y-73230000D02*
X160601000Y-73230000D01*
X156466000Y-73190000D02*
X160534000Y-73190000D01*
X156536000Y-73150000D02*
X160464000Y-73150000D01*
X156610000Y-73110000D02*
X160390000Y-73110000D01*
X156687000Y-73070000D02*
X160313000Y-73070000D01*
X156769000Y-73030000D02*
X160231000Y-73030000D01*
X156856000Y-72990000D02*
X160144000Y-72990000D01*
X156948000Y-72950000D02*
X160052000Y-72950000D01*
X157047000Y-72910000D02*
X159953000Y-72910000D01*
X157154000Y-72870000D02*
X159846000Y-72870000D01*
X157272000Y-72830000D02*
X159728000Y-72830000D01*
X157403000Y-72790000D02*
X159597000Y-72790000D01*
X157553000Y-72750000D02*
X159447000Y-72750000D01*
X157732000Y-72710000D02*
X159268000Y-72710000D01*
X157967000Y-72670000D02*
X159033000Y-72670000D01*
X159540000Y-73990000D02*
X161519000Y-73990000D01*
X159540000Y-74030000D02*
X161555000Y-74030000D01*
X159540000Y-74070000D02*
X161589000Y-74070000D01*
X159540000Y-74110000D02*
X161623000Y-74110000D01*
X159540000Y-74150000D02*
X161656000Y-74150000D01*
X159540000Y-74190000D02*
X161688000Y-74190000D01*
X159540000Y-74230000D02*
X161719000Y-74230000D01*
X159540000Y-74270000D02*
X161750000Y-74270000D01*
X159540000Y-74310000D02*
X161780000Y-74310000D01*
X159540000Y-74350000D02*
X161809000Y-74350000D01*
X159540000Y-74390000D02*
X161837000Y-74390000D01*
X159540000Y-74430000D02*
X161865000Y-74430000D01*
X159540000Y-74470000D02*
X161892000Y-74470000D01*
X159540000Y-74510000D02*
X161918000Y-74510000D01*
X159540000Y-74550000D02*
X161943000Y-74550000D01*
X159540000Y-74590000D02*
X161968000Y-74590000D01*
X159540000Y-74630000D02*
X161993000Y-74630000D01*
X159540000Y-74670000D02*
X162016000Y-74670000D01*
X159540000Y-74710000D02*
X162039000Y-74710000D01*
X159540000Y-74750000D02*
X162062000Y-74750000D01*
X159540000Y-74790000D02*
X162084000Y-74790000D01*
X159540000Y-74830000D02*
X162105000Y-74830000D01*
X159540000Y-74870000D02*
X162126000Y-74870000D01*
X159540000Y-74910000D02*
X162146000Y-74910000D01*
X159540000Y-74950000D02*
X162166000Y-74950000D01*
X159540000Y-74990000D02*
X162185000Y-74990000D01*
X159540000Y-75030000D02*
X162204000Y-75030000D01*
X159540000Y-75070000D02*
X162222000Y-75070000D01*
X159540000Y-75110000D02*
X162240000Y-75110000D01*
X159540000Y-75150000D02*
X162257000Y-75150000D01*
X159540000Y-75190000D02*
X162273000Y-75190000D01*
X159540000Y-75230000D02*
X162289000Y-75230000D01*
X159540000Y-75270000D02*
X162305000Y-75270000D01*
X159540000Y-75310000D02*
X162320000Y-75310000D01*
X159540000Y-75350000D02*
X162335000Y-75350000D01*
X159540000Y-75390000D02*
X162349000Y-75390000D01*
X159540000Y-75430000D02*
X162363000Y-75430000D01*
X159540000Y-75470000D02*
X162376000Y-75470000D01*
X159540000Y-75510000D02*
X162389000Y-75510000D01*
X159540000Y-75550000D02*
X162401000Y-75550000D01*
X159540000Y-75590000D02*
X162413000Y-75590000D01*
X159540000Y-75630000D02*
X162425000Y-75630000D01*
X159540000Y-75670000D02*
X162436000Y-75670000D01*
X159540000Y-75710000D02*
X162447000Y-75710000D01*
X159540000Y-75750000D02*
X162457000Y-75750000D01*
X159540000Y-75790000D02*
X162467000Y-75790000D01*
X159540000Y-75830000D02*
X162476000Y-75830000D01*
X159540000Y-75870000D02*
X162485000Y-75870000D01*
X159540000Y-75910000D02*
X162493000Y-75910000D01*
X159540000Y-75950000D02*
X162502000Y-75950000D01*
X159540000Y-75990000D02*
X162509000Y-75990000D01*
X159540000Y-76030000D02*
X162517000Y-76030000D01*
X162620000Y-76750000D02*
G75*
G02*
X154380000Y-76750000I-4120000J0D01*
G01*
X154380000Y-76750000D02*
G75*
G02*
X162620000Y-76750000I4120000J0D01*
G01*
%TO.C,U1*%
X123477500Y-45390000D02*
X123752500Y-45390000D01*
X123477500Y-45665000D02*
X123477500Y-45390000D01*
X123477500Y-52610000D02*
X123477500Y-52335000D01*
X123752500Y-52610000D02*
X123477500Y-52610000D01*
X130422500Y-45390000D02*
X130697500Y-45390000D01*
X130697500Y-45390000D02*
X130697500Y-45665000D01*
X130697500Y-52335000D02*
X130697500Y-52610000D01*
X130697500Y-52610000D02*
X130422500Y-52610000D01*
X130897500Y-45090000D02*
X130427500Y-44750000D01*
X130897500Y-44410000D01*
X130897500Y-45090000D01*
G36*
X130897500Y-45090000D02*
G01*
X130427500Y-44750000D01*
X130897500Y-44410000D01*
X130897500Y-45090000D01*
G37*
%TO.C,U3*%
X112390000Y-61340000D02*
X112665000Y-61340000D01*
X112390000Y-67660000D02*
X112390000Y-61340000D01*
X112665000Y-67660000D02*
X112390000Y-67660000D01*
X123335000Y-61340000D02*
X123610000Y-61340000D01*
X123610000Y-61340000D02*
X123610000Y-67660000D01*
X123610000Y-67660000D02*
X123335000Y-67660000D01*
X123810000Y-61040000D02*
X123340000Y-60700000D01*
X123810000Y-60360000D01*
X123810000Y-61040000D01*
G36*
X123810000Y-61040000D02*
G01*
X123340000Y-60700000D01*
X123810000Y-60360000D01*
X123810000Y-61040000D01*
G37*
%TO.C,J7*%
X108650000Y-34130000D02*
X109980000Y-34130000D01*
X108650000Y-35460000D02*
X108650000Y-34130000D01*
X108650000Y-36730000D02*
X111250000Y-36730000D01*
X108650000Y-39330000D02*
X108650000Y-36730000D01*
X108650000Y-39330000D02*
X159570000Y-39330000D01*
X111250000Y-34130000D02*
X159570000Y-34130000D01*
X111250000Y-36730000D02*
X111250000Y-34130000D01*
X159570000Y-39330000D02*
X159570000Y-34130000D01*
%TO.C,U4*%
X134815000Y-63552500D02*
X135090000Y-63552500D01*
X134815000Y-69872500D02*
X134815000Y-63552500D01*
X135090000Y-69872500D02*
X134815000Y-69872500D01*
X145760000Y-63552500D02*
X146035000Y-63552500D01*
X146035000Y-63552500D02*
X146035000Y-69872500D01*
X146035000Y-69872500D02*
X145760000Y-69872500D01*
X146235000Y-63252500D02*
X145765000Y-62912500D01*
X146235000Y-62572500D01*
X146235000Y-63252500D01*
G36*
X146235000Y-63252500D02*
G01*
X145765000Y-62912500D01*
X146235000Y-62572500D01*
X146235000Y-63252500D01*
G37*
%TO.C,J4*%
X138630000Y-79780000D02*
X152870000Y-79780000D01*
X138630000Y-86000000D02*
X152870000Y-86000000D01*
X138630000Y-87100000D02*
X152870000Y-87100000D01*
X138630000Y-87620000D02*
X138630000Y-79780000D01*
X140200000Y-87620000D02*
X138630000Y-87620000D01*
X152870000Y-79780000D02*
X152870000Y-87620000D01*
X152870000Y-87620000D02*
X140800000Y-87620000D01*
X140940000Y-88230000D02*
X140060000Y-88230000D01*
X140500000Y-87620000D01*
X140940000Y-88230000D01*
G36*
X140940000Y-88230000D02*
G01*
X140060000Y-88230000D01*
X140500000Y-87620000D01*
X140940000Y-88230000D01*
G37*
%TO.C,J1*%
X104120000Y-41580000D02*
X105500000Y-41580000D01*
X104120000Y-42960000D02*
X104120000Y-41580000D01*
X104120000Y-44230000D02*
X104120000Y-57040000D01*
X104120000Y-44230000D02*
X106880000Y-44230000D01*
X104120000Y-57040000D02*
X106880000Y-57040000D01*
X106880000Y-44230000D02*
X106880000Y-57040000D01*
%TO.C,J2*%
X151812500Y-67745000D02*
X152412500Y-68045000D01*
X151812500Y-68345000D02*
X151812500Y-67745000D01*
X152412500Y-68045000D02*
X151812500Y-68345000D01*
X163332500Y-62215000D02*
X163332500Y-63715000D01*
X163332500Y-63715000D02*
X164832500Y-63965000D01*
X163332500Y-67295000D02*
X163332500Y-68795000D01*
X163332500Y-68795000D02*
X164832500Y-69045000D01*
X164832500Y-61965000D02*
X163332500Y-62215000D01*
X164832500Y-63965000D02*
X164832500Y-61965000D01*
X164832500Y-67045000D02*
X163332500Y-67295000D01*
X164832500Y-69045000D02*
X164832500Y-67045000D01*
X152612500Y-71695000D02*
X164832500Y-71695000D01*
X164832500Y-59315000D01*
X152612500Y-59315000D01*
X152612500Y-71695000D01*
X161532500Y-71695000D02*
X163332500Y-71695000D01*
X163332500Y-59315000D01*
X161532500Y-59315000D01*
X161532500Y-71695000D01*
%TO.C,C27*%
X147288748Y-58265000D02*
X147811252Y-58265000D01*
X147288748Y-59735000D02*
X147811252Y-59735000D01*
%TO.C,C28*%
X142688748Y-58265000D02*
X143211252Y-58265000D01*
X142688748Y-59735000D02*
X143211252Y-59735000D01*
%TO.C,C25*%
X116711252Y-56265000D02*
X116188748Y-56265000D01*
X116711252Y-57735000D02*
X116188748Y-57735000D01*
%TO.C,C30*%
X133788748Y-58265000D02*
X134311252Y-58265000D01*
X133788748Y-59735000D02*
X134311252Y-59735000D01*
%TO.C,C29*%
X138288748Y-58265000D02*
X138811252Y-58265000D01*
X138288748Y-59735000D02*
X138811252Y-59735000D01*
%TO.C,C23*%
X129311252Y-56265000D02*
X128788748Y-56265000D01*
X129311252Y-57735000D02*
X128788748Y-57735000D01*
%TO.C,C26*%
X129211252Y-60265000D02*
X128688748Y-60265000D01*
X129211252Y-61735000D02*
X128688748Y-61735000D01*
%TO.C,C24*%
X123311252Y-56265000D02*
X122788748Y-56265000D01*
X123311252Y-57735000D02*
X122788748Y-57735000D01*
%TD*%
M02*
