%TF.GenerationSoftware,KiCad,Pcbnew,9.0.7*%
%TF.CreationDate,2026-02-04T14:07:26-06:00*%
%TF.ProjectId,can-hat,63616e2d-6861-4742-9e6b-696361645f70,rev?*%
%TF.SameCoordinates,Original*%
%TF.FileFunction,Legend,Bot*%
%TF.FilePolarity,Positive*%
%FSLAX46Y46*%
G04 Gerber Fmt 4.6, Leading zero omitted, Abs format (unit mm)*
G04 Created by KiCad (PCBNEW 9.0.7) date 2026-02-04 14:07:26*
%MOMM*%
%LPD*%
G01*
G04 APERTURE LIST*
%ADD10C,0.150000*%
%ADD11C,0.120000*%
G04 APERTURE END LIST*
D10*
X148518333Y-74249580D02*
X148470714Y-74297200D01*
X148470714Y-74297200D02*
X148327857Y-74344819D01*
X148327857Y-74344819D02*
X148232619Y-74344819D01*
X148232619Y-74344819D02*
X148089762Y-74297200D01*
X148089762Y-74297200D02*
X147994524Y-74201961D01*
X147994524Y-74201961D02*
X147946905Y-74106723D01*
X147946905Y-74106723D02*
X147899286Y-73916247D01*
X147899286Y-73916247D02*
X147899286Y-73773390D01*
X147899286Y-73773390D02*
X147946905Y-73582914D01*
X147946905Y-73582914D02*
X147994524Y-73487676D01*
X147994524Y-73487676D02*
X148089762Y-73392438D01*
X148089762Y-73392438D02*
X148232619Y-73344819D01*
X148232619Y-73344819D02*
X148327857Y-73344819D01*
X148327857Y-73344819D02*
X148470714Y-73392438D01*
X148470714Y-73392438D02*
X148518333Y-73440057D01*
X149375476Y-73344819D02*
X149185000Y-73344819D01*
X149185000Y-73344819D02*
X149089762Y-73392438D01*
X149089762Y-73392438D02*
X149042143Y-73440057D01*
X149042143Y-73440057D02*
X148946905Y-73582914D01*
X148946905Y-73582914D02*
X148899286Y-73773390D01*
X148899286Y-73773390D02*
X148899286Y-74154342D01*
X148899286Y-74154342D02*
X148946905Y-74249580D01*
X148946905Y-74249580D02*
X148994524Y-74297200D01*
X148994524Y-74297200D02*
X149089762Y-74344819D01*
X149089762Y-74344819D02*
X149280238Y-74344819D01*
X149280238Y-74344819D02*
X149375476Y-74297200D01*
X149375476Y-74297200D02*
X149423095Y-74249580D01*
X149423095Y-74249580D02*
X149470714Y-74154342D01*
X149470714Y-74154342D02*
X149470714Y-73916247D01*
X149470714Y-73916247D02*
X149423095Y-73821009D01*
X149423095Y-73821009D02*
X149375476Y-73773390D01*
X149375476Y-73773390D02*
X149280238Y-73725771D01*
X149280238Y-73725771D02*
X149089762Y-73725771D01*
X149089762Y-73725771D02*
X148994524Y-73773390D01*
X148994524Y-73773390D02*
X148946905Y-73821009D01*
X148946905Y-73821009D02*
X148899286Y-73916247D01*
X144518333Y-74249580D02*
X144470714Y-74297200D01*
X144470714Y-74297200D02*
X144327857Y-74344819D01*
X144327857Y-74344819D02*
X144232619Y-74344819D01*
X144232619Y-74344819D02*
X144089762Y-74297200D01*
X144089762Y-74297200D02*
X143994524Y-74201961D01*
X143994524Y-74201961D02*
X143946905Y-74106723D01*
X143946905Y-74106723D02*
X143899286Y-73916247D01*
X143899286Y-73916247D02*
X143899286Y-73773390D01*
X143899286Y-73773390D02*
X143946905Y-73582914D01*
X143946905Y-73582914D02*
X143994524Y-73487676D01*
X143994524Y-73487676D02*
X144089762Y-73392438D01*
X144089762Y-73392438D02*
X144232619Y-73344819D01*
X144232619Y-73344819D02*
X144327857Y-73344819D01*
X144327857Y-73344819D02*
X144470714Y-73392438D01*
X144470714Y-73392438D02*
X144518333Y-73440057D01*
X145423095Y-73344819D02*
X144946905Y-73344819D01*
X144946905Y-73344819D02*
X144899286Y-73821009D01*
X144899286Y-73821009D02*
X144946905Y-73773390D01*
X144946905Y-73773390D02*
X145042143Y-73725771D01*
X145042143Y-73725771D02*
X145280238Y-73725771D01*
X145280238Y-73725771D02*
X145375476Y-73773390D01*
X145375476Y-73773390D02*
X145423095Y-73821009D01*
X145423095Y-73821009D02*
X145470714Y-73916247D01*
X145470714Y-73916247D02*
X145470714Y-74154342D01*
X145470714Y-74154342D02*
X145423095Y-74249580D01*
X145423095Y-74249580D02*
X145375476Y-74297200D01*
X145375476Y-74297200D02*
X145280238Y-74344819D01*
X145280238Y-74344819D02*
X145042143Y-74344819D01*
X145042143Y-74344819D02*
X144946905Y-74297200D01*
X144946905Y-74297200D02*
X144899286Y-74249580D01*
X156518333Y-49374819D02*
X156185000Y-48898628D01*
X155946905Y-49374819D02*
X155946905Y-48374819D01*
X155946905Y-48374819D02*
X156327857Y-48374819D01*
X156327857Y-48374819D02*
X156423095Y-48422438D01*
X156423095Y-48422438D02*
X156470714Y-48470057D01*
X156470714Y-48470057D02*
X156518333Y-48565295D01*
X156518333Y-48565295D02*
X156518333Y-48708152D01*
X156518333Y-48708152D02*
X156470714Y-48803390D01*
X156470714Y-48803390D02*
X156423095Y-48851009D01*
X156423095Y-48851009D02*
X156327857Y-48898628D01*
X156327857Y-48898628D02*
X155946905Y-48898628D01*
X156899286Y-48470057D02*
X156946905Y-48422438D01*
X156946905Y-48422438D02*
X157042143Y-48374819D01*
X157042143Y-48374819D02*
X157280238Y-48374819D01*
X157280238Y-48374819D02*
X157375476Y-48422438D01*
X157375476Y-48422438D02*
X157423095Y-48470057D01*
X157423095Y-48470057D02*
X157470714Y-48565295D01*
X157470714Y-48565295D02*
X157470714Y-48660533D01*
X157470714Y-48660533D02*
X157423095Y-48803390D01*
X157423095Y-48803390D02*
X156851667Y-49374819D01*
X156851667Y-49374819D02*
X157470714Y-49374819D01*
X141333333Y-47509580D02*
X141285714Y-47557200D01*
X141285714Y-47557200D02*
X141142857Y-47604819D01*
X141142857Y-47604819D02*
X141047619Y-47604819D01*
X141047619Y-47604819D02*
X140904762Y-47557200D01*
X140904762Y-47557200D02*
X140809524Y-47461961D01*
X140809524Y-47461961D02*
X140761905Y-47366723D01*
X140761905Y-47366723D02*
X140714286Y-47176247D01*
X140714286Y-47176247D02*
X140714286Y-47033390D01*
X140714286Y-47033390D02*
X140761905Y-46842914D01*
X140761905Y-46842914D02*
X140809524Y-46747676D01*
X140809524Y-46747676D02*
X140904762Y-46652438D01*
X140904762Y-46652438D02*
X141047619Y-46604819D01*
X141047619Y-46604819D02*
X141142857Y-46604819D01*
X141142857Y-46604819D02*
X141285714Y-46652438D01*
X141285714Y-46652438D02*
X141333333Y-46700057D01*
X142190476Y-46938152D02*
X142190476Y-47604819D01*
X141952381Y-46557200D02*
X141714286Y-47271485D01*
X141714286Y-47271485D02*
X142333333Y-47271485D01*
X161518333Y-57679580D02*
X161470714Y-57727200D01*
X161470714Y-57727200D02*
X161327857Y-57774819D01*
X161327857Y-57774819D02*
X161232619Y-57774819D01*
X161232619Y-57774819D02*
X161089762Y-57727200D01*
X161089762Y-57727200D02*
X160994524Y-57631961D01*
X160994524Y-57631961D02*
X160946905Y-57536723D01*
X160946905Y-57536723D02*
X160899286Y-57346247D01*
X160899286Y-57346247D02*
X160899286Y-57203390D01*
X160899286Y-57203390D02*
X160946905Y-57012914D01*
X160946905Y-57012914D02*
X160994524Y-56917676D01*
X160994524Y-56917676D02*
X161089762Y-56822438D01*
X161089762Y-56822438D02*
X161232619Y-56774819D01*
X161232619Y-56774819D02*
X161327857Y-56774819D01*
X161327857Y-56774819D02*
X161470714Y-56822438D01*
X161470714Y-56822438D02*
X161518333Y-56870057D01*
X162089762Y-57203390D02*
X161994524Y-57155771D01*
X161994524Y-57155771D02*
X161946905Y-57108152D01*
X161946905Y-57108152D02*
X161899286Y-57012914D01*
X161899286Y-57012914D02*
X161899286Y-56965295D01*
X161899286Y-56965295D02*
X161946905Y-56870057D01*
X161946905Y-56870057D02*
X161994524Y-56822438D01*
X161994524Y-56822438D02*
X162089762Y-56774819D01*
X162089762Y-56774819D02*
X162280238Y-56774819D01*
X162280238Y-56774819D02*
X162375476Y-56822438D01*
X162375476Y-56822438D02*
X162423095Y-56870057D01*
X162423095Y-56870057D02*
X162470714Y-56965295D01*
X162470714Y-56965295D02*
X162470714Y-57012914D01*
X162470714Y-57012914D02*
X162423095Y-57108152D01*
X162423095Y-57108152D02*
X162375476Y-57155771D01*
X162375476Y-57155771D02*
X162280238Y-57203390D01*
X162280238Y-57203390D02*
X162089762Y-57203390D01*
X162089762Y-57203390D02*
X161994524Y-57251009D01*
X161994524Y-57251009D02*
X161946905Y-57298628D01*
X161946905Y-57298628D02*
X161899286Y-57393866D01*
X161899286Y-57393866D02*
X161899286Y-57584342D01*
X161899286Y-57584342D02*
X161946905Y-57679580D01*
X161946905Y-57679580D02*
X161994524Y-57727200D01*
X161994524Y-57727200D02*
X162089762Y-57774819D01*
X162089762Y-57774819D02*
X162280238Y-57774819D01*
X162280238Y-57774819D02*
X162375476Y-57727200D01*
X162375476Y-57727200D02*
X162423095Y-57679580D01*
X162423095Y-57679580D02*
X162470714Y-57584342D01*
X162470714Y-57584342D02*
X162470714Y-57393866D01*
X162470714Y-57393866D02*
X162423095Y-57298628D01*
X162423095Y-57298628D02*
X162375476Y-57251009D01*
X162375476Y-57251009D02*
X162280238Y-57203390D01*
X135395833Y-58904819D02*
X134919643Y-58904819D01*
X134919643Y-58904819D02*
X134919643Y-57904819D01*
X136252976Y-58904819D02*
X135681548Y-58904819D01*
X135967262Y-58904819D02*
X135967262Y-57904819D01*
X135967262Y-57904819D02*
X135872024Y-58047676D01*
X135872024Y-58047676D02*
X135776786Y-58142914D01*
X135776786Y-58142914D02*
X135681548Y-58190533D01*
X135395833Y-63904819D02*
X134919643Y-63904819D01*
X134919643Y-63904819D02*
X134919643Y-62904819D01*
X135681548Y-63000057D02*
X135729167Y-62952438D01*
X135729167Y-62952438D02*
X135824405Y-62904819D01*
X135824405Y-62904819D02*
X136062500Y-62904819D01*
X136062500Y-62904819D02*
X136157738Y-62952438D01*
X136157738Y-62952438D02*
X136205357Y-63000057D01*
X136205357Y-63000057D02*
X136252976Y-63095295D01*
X136252976Y-63095295D02*
X136252976Y-63190533D01*
X136252976Y-63190533D02*
X136205357Y-63333390D01*
X136205357Y-63333390D02*
X135633929Y-63904819D01*
X135633929Y-63904819D02*
X136252976Y-63904819D01*
X167518333Y-55249580D02*
X167470714Y-55297200D01*
X167470714Y-55297200D02*
X167327857Y-55344819D01*
X167327857Y-55344819D02*
X167232619Y-55344819D01*
X167232619Y-55344819D02*
X167089762Y-55297200D01*
X167089762Y-55297200D02*
X166994524Y-55201961D01*
X166994524Y-55201961D02*
X166946905Y-55106723D01*
X166946905Y-55106723D02*
X166899286Y-54916247D01*
X166899286Y-54916247D02*
X166899286Y-54773390D01*
X166899286Y-54773390D02*
X166946905Y-54582914D01*
X166946905Y-54582914D02*
X166994524Y-54487676D01*
X166994524Y-54487676D02*
X167089762Y-54392438D01*
X167089762Y-54392438D02*
X167232619Y-54344819D01*
X167232619Y-54344819D02*
X167327857Y-54344819D01*
X167327857Y-54344819D02*
X167470714Y-54392438D01*
X167470714Y-54392438D02*
X167518333Y-54440057D01*
X167994524Y-55344819D02*
X168185000Y-55344819D01*
X168185000Y-55344819D02*
X168280238Y-55297200D01*
X168280238Y-55297200D02*
X168327857Y-55249580D01*
X168327857Y-55249580D02*
X168423095Y-55106723D01*
X168423095Y-55106723D02*
X168470714Y-54916247D01*
X168470714Y-54916247D02*
X168470714Y-54535295D01*
X168470714Y-54535295D02*
X168423095Y-54440057D01*
X168423095Y-54440057D02*
X168375476Y-54392438D01*
X168375476Y-54392438D02*
X168280238Y-54344819D01*
X168280238Y-54344819D02*
X168089762Y-54344819D01*
X168089762Y-54344819D02*
X167994524Y-54392438D01*
X167994524Y-54392438D02*
X167946905Y-54440057D01*
X167946905Y-54440057D02*
X167899286Y-54535295D01*
X167899286Y-54535295D02*
X167899286Y-54773390D01*
X167899286Y-54773390D02*
X167946905Y-54868628D01*
X167946905Y-54868628D02*
X167994524Y-54916247D01*
X167994524Y-54916247D02*
X168089762Y-54963866D01*
X168089762Y-54963866D02*
X168280238Y-54963866D01*
X168280238Y-54963866D02*
X168375476Y-54916247D01*
X168375476Y-54916247D02*
X168423095Y-54868628D01*
X168423095Y-54868628D02*
X168470714Y-54773390D01*
X162518333Y-49374819D02*
X162185000Y-48898628D01*
X161946905Y-49374819D02*
X161946905Y-48374819D01*
X161946905Y-48374819D02*
X162327857Y-48374819D01*
X162327857Y-48374819D02*
X162423095Y-48422438D01*
X162423095Y-48422438D02*
X162470714Y-48470057D01*
X162470714Y-48470057D02*
X162518333Y-48565295D01*
X162518333Y-48565295D02*
X162518333Y-48708152D01*
X162518333Y-48708152D02*
X162470714Y-48803390D01*
X162470714Y-48803390D02*
X162423095Y-48851009D01*
X162423095Y-48851009D02*
X162327857Y-48898628D01*
X162327857Y-48898628D02*
X161946905Y-48898628D01*
X162851667Y-48374819D02*
X163470714Y-48374819D01*
X163470714Y-48374819D02*
X163137381Y-48755771D01*
X163137381Y-48755771D02*
X163280238Y-48755771D01*
X163280238Y-48755771D02*
X163375476Y-48803390D01*
X163375476Y-48803390D02*
X163423095Y-48851009D01*
X163423095Y-48851009D02*
X163470714Y-48946247D01*
X163470714Y-48946247D02*
X163470714Y-49184342D01*
X163470714Y-49184342D02*
X163423095Y-49279580D01*
X163423095Y-49279580D02*
X163375476Y-49327200D01*
X163375476Y-49327200D02*
X163280238Y-49374819D01*
X163280238Y-49374819D02*
X162994524Y-49374819D01*
X162994524Y-49374819D02*
X162899286Y-49327200D01*
X162899286Y-49327200D02*
X162851667Y-49279580D01*
X124308333Y-47679580D02*
X124260714Y-47727200D01*
X124260714Y-47727200D02*
X124117857Y-47774819D01*
X124117857Y-47774819D02*
X124022619Y-47774819D01*
X124022619Y-47774819D02*
X123879762Y-47727200D01*
X123879762Y-47727200D02*
X123784524Y-47631961D01*
X123784524Y-47631961D02*
X123736905Y-47536723D01*
X123736905Y-47536723D02*
X123689286Y-47346247D01*
X123689286Y-47346247D02*
X123689286Y-47203390D01*
X123689286Y-47203390D02*
X123736905Y-47012914D01*
X123736905Y-47012914D02*
X123784524Y-46917676D01*
X123784524Y-46917676D02*
X123879762Y-46822438D01*
X123879762Y-46822438D02*
X124022619Y-46774819D01*
X124022619Y-46774819D02*
X124117857Y-46774819D01*
X124117857Y-46774819D02*
X124260714Y-46822438D01*
X124260714Y-46822438D02*
X124308333Y-46870057D01*
X125260714Y-47774819D02*
X124689286Y-47774819D01*
X124975000Y-47774819D02*
X124975000Y-46774819D01*
X124975000Y-46774819D02*
X124879762Y-46917676D01*
X124879762Y-46917676D02*
X124784524Y-47012914D01*
X124784524Y-47012914D02*
X124689286Y-47060533D01*
X167042142Y-66249580D02*
X166994523Y-66297200D01*
X166994523Y-66297200D02*
X166851666Y-66344819D01*
X166851666Y-66344819D02*
X166756428Y-66344819D01*
X166756428Y-66344819D02*
X166613571Y-66297200D01*
X166613571Y-66297200D02*
X166518333Y-66201961D01*
X166518333Y-66201961D02*
X166470714Y-66106723D01*
X166470714Y-66106723D02*
X166423095Y-65916247D01*
X166423095Y-65916247D02*
X166423095Y-65773390D01*
X166423095Y-65773390D02*
X166470714Y-65582914D01*
X166470714Y-65582914D02*
X166518333Y-65487676D01*
X166518333Y-65487676D02*
X166613571Y-65392438D01*
X166613571Y-65392438D02*
X166756428Y-65344819D01*
X166756428Y-65344819D02*
X166851666Y-65344819D01*
X166851666Y-65344819D02*
X166994523Y-65392438D01*
X166994523Y-65392438D02*
X167042142Y-65440057D01*
X167994523Y-66344819D02*
X167423095Y-66344819D01*
X167708809Y-66344819D02*
X167708809Y-65344819D01*
X167708809Y-65344819D02*
X167613571Y-65487676D01*
X167613571Y-65487676D02*
X167518333Y-65582914D01*
X167518333Y-65582914D02*
X167423095Y-65630533D01*
X168946904Y-66344819D02*
X168375476Y-66344819D01*
X168661190Y-66344819D02*
X168661190Y-65344819D01*
X168661190Y-65344819D02*
X168565952Y-65487676D01*
X168565952Y-65487676D02*
X168470714Y-65582914D01*
X168470714Y-65582914D02*
X168375476Y-65630533D01*
X161042142Y-66249580D02*
X160994523Y-66297200D01*
X160994523Y-66297200D02*
X160851666Y-66344819D01*
X160851666Y-66344819D02*
X160756428Y-66344819D01*
X160756428Y-66344819D02*
X160613571Y-66297200D01*
X160613571Y-66297200D02*
X160518333Y-66201961D01*
X160518333Y-66201961D02*
X160470714Y-66106723D01*
X160470714Y-66106723D02*
X160423095Y-65916247D01*
X160423095Y-65916247D02*
X160423095Y-65773390D01*
X160423095Y-65773390D02*
X160470714Y-65582914D01*
X160470714Y-65582914D02*
X160518333Y-65487676D01*
X160518333Y-65487676D02*
X160613571Y-65392438D01*
X160613571Y-65392438D02*
X160756428Y-65344819D01*
X160756428Y-65344819D02*
X160851666Y-65344819D01*
X160851666Y-65344819D02*
X160994523Y-65392438D01*
X160994523Y-65392438D02*
X161042142Y-65440057D01*
X161994523Y-66344819D02*
X161423095Y-66344819D01*
X161708809Y-66344819D02*
X161708809Y-65344819D01*
X161708809Y-65344819D02*
X161613571Y-65487676D01*
X161613571Y-65487676D02*
X161518333Y-65582914D01*
X161518333Y-65582914D02*
X161423095Y-65630533D01*
X162613571Y-65344819D02*
X162708809Y-65344819D01*
X162708809Y-65344819D02*
X162804047Y-65392438D01*
X162804047Y-65392438D02*
X162851666Y-65440057D01*
X162851666Y-65440057D02*
X162899285Y-65535295D01*
X162899285Y-65535295D02*
X162946904Y-65725771D01*
X162946904Y-65725771D02*
X162946904Y-65963866D01*
X162946904Y-65963866D02*
X162899285Y-66154342D01*
X162899285Y-66154342D02*
X162851666Y-66249580D01*
X162851666Y-66249580D02*
X162804047Y-66297200D01*
X162804047Y-66297200D02*
X162708809Y-66344819D01*
X162708809Y-66344819D02*
X162613571Y-66344819D01*
X162613571Y-66344819D02*
X162518333Y-66297200D01*
X162518333Y-66297200D02*
X162470714Y-66249580D01*
X162470714Y-66249580D02*
X162423095Y-66154342D01*
X162423095Y-66154342D02*
X162375476Y-65963866D01*
X162375476Y-65963866D02*
X162375476Y-65725771D01*
X162375476Y-65725771D02*
X162423095Y-65535295D01*
X162423095Y-65535295D02*
X162470714Y-65440057D01*
X162470714Y-65440057D02*
X162518333Y-65392438D01*
X162518333Y-65392438D02*
X162613571Y-65344819D01*
X130308333Y-47509580D02*
X130260714Y-47557200D01*
X130260714Y-47557200D02*
X130117857Y-47604819D01*
X130117857Y-47604819D02*
X130022619Y-47604819D01*
X130022619Y-47604819D02*
X129879762Y-47557200D01*
X129879762Y-47557200D02*
X129784524Y-47461961D01*
X129784524Y-47461961D02*
X129736905Y-47366723D01*
X129736905Y-47366723D02*
X129689286Y-47176247D01*
X129689286Y-47176247D02*
X129689286Y-47033390D01*
X129689286Y-47033390D02*
X129736905Y-46842914D01*
X129736905Y-46842914D02*
X129784524Y-46747676D01*
X129784524Y-46747676D02*
X129879762Y-46652438D01*
X129879762Y-46652438D02*
X130022619Y-46604819D01*
X130022619Y-46604819D02*
X130117857Y-46604819D01*
X130117857Y-46604819D02*
X130260714Y-46652438D01*
X130260714Y-46652438D02*
X130308333Y-46700057D01*
X130641667Y-46604819D02*
X131260714Y-46604819D01*
X131260714Y-46604819D02*
X130927381Y-46985771D01*
X130927381Y-46985771D02*
X131070238Y-46985771D01*
X131070238Y-46985771D02*
X131165476Y-47033390D01*
X131165476Y-47033390D02*
X131213095Y-47081009D01*
X131213095Y-47081009D02*
X131260714Y-47176247D01*
X131260714Y-47176247D02*
X131260714Y-47414342D01*
X131260714Y-47414342D02*
X131213095Y-47509580D01*
X131213095Y-47509580D02*
X131165476Y-47557200D01*
X131165476Y-47557200D02*
X131070238Y-47604819D01*
X131070238Y-47604819D02*
X130784524Y-47604819D01*
X130784524Y-47604819D02*
X130689286Y-47557200D01*
X130689286Y-47557200D02*
X130641667Y-47509580D01*
X168518333Y-49374819D02*
X168185000Y-48898628D01*
X167946905Y-49374819D02*
X167946905Y-48374819D01*
X167946905Y-48374819D02*
X168327857Y-48374819D01*
X168327857Y-48374819D02*
X168423095Y-48422438D01*
X168423095Y-48422438D02*
X168470714Y-48470057D01*
X168470714Y-48470057D02*
X168518333Y-48565295D01*
X168518333Y-48565295D02*
X168518333Y-48708152D01*
X168518333Y-48708152D02*
X168470714Y-48803390D01*
X168470714Y-48803390D02*
X168423095Y-48851009D01*
X168423095Y-48851009D02*
X168327857Y-48898628D01*
X168327857Y-48898628D02*
X167946905Y-48898628D01*
X169375476Y-48374819D02*
X169185000Y-48374819D01*
X169185000Y-48374819D02*
X169089762Y-48422438D01*
X169089762Y-48422438D02*
X169042143Y-48470057D01*
X169042143Y-48470057D02*
X168946905Y-48612914D01*
X168946905Y-48612914D02*
X168899286Y-48803390D01*
X168899286Y-48803390D02*
X168899286Y-49184342D01*
X168899286Y-49184342D02*
X168946905Y-49279580D01*
X168946905Y-49279580D02*
X168994524Y-49327200D01*
X168994524Y-49327200D02*
X169089762Y-49374819D01*
X169089762Y-49374819D02*
X169280238Y-49374819D01*
X169280238Y-49374819D02*
X169375476Y-49327200D01*
X169375476Y-49327200D02*
X169423095Y-49279580D01*
X169423095Y-49279580D02*
X169470714Y-49184342D01*
X169470714Y-49184342D02*
X169470714Y-48946247D01*
X169470714Y-48946247D02*
X169423095Y-48851009D01*
X169423095Y-48851009D02*
X169375476Y-48803390D01*
X169375476Y-48803390D02*
X169280238Y-48755771D01*
X169280238Y-48755771D02*
X169089762Y-48755771D01*
X169089762Y-48755771D02*
X168994524Y-48803390D01*
X168994524Y-48803390D02*
X168946905Y-48851009D01*
X168946905Y-48851009D02*
X168899286Y-48946247D01*
X148833333Y-47679580D02*
X148785714Y-47727200D01*
X148785714Y-47727200D02*
X148642857Y-47774819D01*
X148642857Y-47774819D02*
X148547619Y-47774819D01*
X148547619Y-47774819D02*
X148404762Y-47727200D01*
X148404762Y-47727200D02*
X148309524Y-47631961D01*
X148309524Y-47631961D02*
X148261905Y-47536723D01*
X148261905Y-47536723D02*
X148214286Y-47346247D01*
X148214286Y-47346247D02*
X148214286Y-47203390D01*
X148214286Y-47203390D02*
X148261905Y-47012914D01*
X148261905Y-47012914D02*
X148309524Y-46917676D01*
X148309524Y-46917676D02*
X148404762Y-46822438D01*
X148404762Y-46822438D02*
X148547619Y-46774819D01*
X148547619Y-46774819D02*
X148642857Y-46774819D01*
X148642857Y-46774819D02*
X148785714Y-46822438D01*
X148785714Y-46822438D02*
X148833333Y-46870057D01*
X149166667Y-46774819D02*
X149833333Y-46774819D01*
X149833333Y-46774819D02*
X149404762Y-47774819D01*
D11*
%TO.C,C6*%
X148423748Y-74835000D02*
X148946252Y-74835000D01*
X148423748Y-76305000D02*
X148946252Y-76305000D01*
%TO.C,C5*%
X144423748Y-74835000D02*
X144946252Y-74835000D01*
X144423748Y-76305000D02*
X144946252Y-76305000D01*
%TO.C,R2*%
X156457936Y-49835000D02*
X156912064Y-49835000D01*
X156457936Y-51305000D02*
X156912064Y-51305000D01*
%TO.C,C4*%
X140788748Y-48090000D02*
X142211252Y-48090000D01*
X140788748Y-49910000D02*
X142211252Y-49910000D01*
%TO.C,C8*%
X161423748Y-58265000D02*
X161946252Y-58265000D01*
X161423748Y-59735000D02*
X161946252Y-59735000D01*
%TO.C,L1*%
X135162878Y-59440000D02*
X135962122Y-59440000D01*
X135162878Y-60560000D02*
X135962122Y-60560000D01*
%TO.C,L2*%
X135162878Y-64440000D02*
X135962122Y-64440000D01*
X135162878Y-65560000D02*
X135962122Y-65560000D01*
%TO.C,C9*%
X167423748Y-55835000D02*
X167946252Y-55835000D01*
X167423748Y-57305000D02*
X167946252Y-57305000D01*
%TO.C,R3*%
X162457936Y-49835000D02*
X162912064Y-49835000D01*
X162457936Y-51305000D02*
X162912064Y-51305000D01*
%TO.C,C1*%
X124213748Y-48265000D02*
X124736252Y-48265000D01*
X124213748Y-49735000D02*
X124736252Y-49735000D01*
%TO.C,C11*%
X167423748Y-66835000D02*
X167946252Y-66835000D01*
X167423748Y-68305000D02*
X167946252Y-68305000D01*
%TO.C,C10*%
X161423748Y-66835000D02*
X161946252Y-66835000D01*
X161423748Y-68305000D02*
X161946252Y-68305000D01*
%TO.C,C3*%
X129763748Y-48090000D02*
X131186252Y-48090000D01*
X129763748Y-49910000D02*
X131186252Y-49910000D01*
%TO.C,R6*%
X168457936Y-49835000D02*
X168912064Y-49835000D01*
X168457936Y-51305000D02*
X168912064Y-51305000D01*
%TO.C,C7*%
X148738748Y-48265000D02*
X149261252Y-48265000D01*
X148738748Y-49735000D02*
X149261252Y-49735000D01*
%TD*%
M02*
