%TF.GenerationSoftware,KiCad,Pcbnew,9.0.7*%
%TF.CreationDate,2026-02-04T14:07:26-06:00*%
%TF.ProjectId,can-hat,63616e2d-6861-4742-9e6b-696361645f70,rev?*%
%TF.SameCoordinates,Original*%
%TF.FileFunction,Soldermask,Top*%
%TF.FilePolarity,Negative*%
%FSLAX46Y46*%
G04 Gerber Fmt 4.6, Leading zero omitted, Abs format (unit mm)*
G04 Created by KiCad (PCBNEW 9.0.7) date 2026-02-04 14:07:26*
%MOMM*%
%LPD*%
G01*
G04 APERTURE LIST*
G04 Aperture macros list*
%AMRoundRect*
0 Rectangle with rounded corners*
0 $1 Rounding radius*
0 $2 $3 $4 $5 $6 $7 $8 $9 X,Y pos of 4 corners*
0 Add a 4 corners polygon primitive as box body*
4,1,4,$2,$3,$4,$5,$6,$7,$8,$9,$2,$3,0*
0 Add four circle primitives for the rounded corners*
1,1,$1+$1,$2,$3*
1,1,$1+$1,$4,$5*
1,1,$1+$1,$6,$7*
1,1,$1+$1,$8,$9*
0 Add four rect primitives between the rounded corners*
20,1,$1+$1,$2,$3,$4,$5,0*
20,1,$1+$1,$4,$5,$6,$7,0*
20,1,$1+$1,$6,$7,$8,$9,0*
20,1,$1+$1,$8,$9,$2,$3,0*%
G04 Aperture macros list end*
%ADD10RoundRect,0.150000X-0.825000X-0.150000X0.825000X-0.150000X0.825000X0.150000X-0.825000X0.150000X0*%
%ADD11RoundRect,0.243750X-0.243750X-0.456250X0.243750X-0.456250X0.243750X0.456250X-0.243750X0.456250X0*%
%ADD12RoundRect,0.150000X-0.875000X-0.150000X0.875000X-0.150000X0.875000X0.150000X-0.875000X0.150000X0*%
%ADD13R,1.700000X1.700000*%
%ADD14C,1.700000*%
%ADD15RoundRect,0.375000X-0.625000X-0.375000X0.625000X-0.375000X0.625000X0.375000X-0.625000X0.375000X0*%
%ADD16RoundRect,0.500000X-0.500000X-1.400000X0.500000X-1.400000X0.500000X1.400000X-0.500000X1.400000X0*%
%ADD17RoundRect,0.250000X-1.050000X-1.050000X1.050000X-1.050000X1.050000X1.050000X-1.050000X1.050000X0*%
%ADD18C,2.600000*%
%ADD19C,2.700000*%
%ADD20C,1.500000*%
G04 APERTURE END LIST*
D10*
%TO.C,U3*%
X158500000Y-48500000D03*
X158500000Y-49770000D03*
X158500000Y-51040000D03*
X158500000Y-52310000D03*
X163450000Y-52310000D03*
X163450000Y-51040000D03*
X163450000Y-49770000D03*
X163450000Y-48500000D03*
%TD*%
D11*
%TO.C,LED2*%
X172125000Y-49500000D03*
X174000000Y-49500000D03*
%TD*%
D12*
%TO.C,U2*%
X140200000Y-47500000D03*
X140200000Y-48770000D03*
X140200000Y-50040000D03*
X140200000Y-51310000D03*
X140200000Y-52580000D03*
X140200000Y-53850000D03*
X140200000Y-55120000D03*
X140200000Y-56390000D03*
X140200000Y-57660000D03*
X149500000Y-57660000D03*
X149500000Y-56390000D03*
X149500000Y-55120000D03*
X149500000Y-53850000D03*
X149500000Y-52580000D03*
X149500000Y-51310000D03*
X149500000Y-50040000D03*
X149500000Y-48770000D03*
X149500000Y-47500000D03*
%TD*%
D13*
%TO.C,J2*%
X175040000Y-77700000D03*
D14*
X172500000Y-77700000D03*
X175040000Y-75160000D03*
X172500000Y-75160000D03*
X175040000Y-72620000D03*
X172500000Y-72620000D03*
X175040000Y-70080000D03*
X172500000Y-70080000D03*
X175040000Y-67540000D03*
X172500000Y-67540000D03*
X175040000Y-65000000D03*
X172500000Y-65000000D03*
X175040000Y-62460000D03*
X172500000Y-62460000D03*
X175040000Y-59920000D03*
X172500000Y-59920000D03*
%TD*%
D15*
%TO.C,U1*%
X124850000Y-49200000D03*
X124850000Y-51500000D03*
D16*
X131150000Y-51500000D03*
D15*
X124850000Y-53800000D03*
%TD*%
D11*
%TO.C,LED3*%
X172125000Y-54500000D03*
X174000000Y-54500000D03*
%TD*%
D17*
%TO.C,J3*%
X159685000Y-78570000D03*
D18*
X164765000Y-78570000D03*
%TD*%
D19*
%TO.C,H1*%
X118185000Y-36070000D03*
%TD*%
%TO.C,H2*%
X176185000Y-36070000D03*
%TD*%
%TO.C,H3*%
X118185000Y-85070000D03*
%TD*%
%TO.C,H4*%
X176185000Y-85070000D03*
%TD*%
D11*
%TO.C,LED1*%
X172125000Y-44430000D03*
X174000000Y-44430000D03*
%TD*%
D20*
%TO.C,Y1*%
X144060000Y-68000000D03*
X148940000Y-68000000D03*
%TD*%
D13*
%TO.C,J1*%
X123020000Y-35000000D03*
D14*
X123020000Y-37540000D03*
X125560000Y-35000000D03*
X125560000Y-37540000D03*
X128100000Y-35000000D03*
X128100000Y-37540000D03*
X130640000Y-35000000D03*
X130640000Y-37540000D03*
X133180000Y-35000000D03*
X133180000Y-37540000D03*
X135720000Y-35000000D03*
X135720000Y-37540000D03*
X138260000Y-35000000D03*
X138260000Y-37540000D03*
X140800000Y-35000000D03*
X140800000Y-37540000D03*
X143340000Y-35000000D03*
X143340000Y-37540000D03*
X145880000Y-35000000D03*
X145880000Y-37540000D03*
X148420000Y-35000000D03*
X148420000Y-37540000D03*
X150960000Y-35000000D03*
X150960000Y-37540000D03*
X153500000Y-35000000D03*
X153500000Y-37540000D03*
X156040000Y-35000000D03*
X156040000Y-37540000D03*
X158580000Y-35000000D03*
X158580000Y-37540000D03*
X161120000Y-35000000D03*
X161120000Y-37540000D03*
X163660000Y-35000000D03*
X163660000Y-37540000D03*
X166200000Y-35000000D03*
X166200000Y-37540000D03*
X168740000Y-35000000D03*
X168740000Y-37540000D03*
X171280000Y-35000000D03*
X171280000Y-37540000D03*
%TD*%
M02*
