M48
; DRILL file {KiCad 9.0.7} date 2026-02-04T14:07:30-0600
; FORMAT={-:-/ absolute / metric / decimal}
; #@! TF.CreationDate,2026-02-04T14:07:30-06:00
; #@! TF.GenerationSoftware,Kicad,Pcbnew,9.0.7
; #@! TF.FileFunction,MixedPlating,1,2
FMAT,2
METRIC
; #@! TA.AperFunction,Plated,PTH,ViaDrill
T1C0.300
; #@! TA.AperFunction,Plated,PTH,ComponentDrill
T2C0.800
; #@! TA.AperFunction,Plated,PTH,ComponentDrill
T3C1.000
; #@! TA.AperFunction,Plated,PTH,ComponentDrill
T4C1.300
; #@! TA.AperFunction,Plated,PTH,ComponentDrill
T5C2.700
%
G90
G05
T1
X127.432Y-48.738
X127.922Y-52.388
X133.928Y-48.738
X135.716Y-53.393
X137.104Y-54.734
X142.739Y-57.612
X142.74Y-54.724
X145.588Y-48.738
X146.309Y-49.861
X147.38Y-51.339
X147.591Y-71.197
X147.954Y-52.531
X149.565Y-66.128
X150.0Y-40.5
X150.96Y-50.706
X151.364Y-54.802
X152.859Y-53.293
X154.363Y-72.634
X160.35Y-50.117
X160.367Y-51.673
X160.931Y-48.5
X162.496Y-54.897
X166.113Y-51.84
X169.413Y-45.78
T2
X144.06Y-68.0
X148.94Y-68.0
T3
X123.02Y-35.0
X123.02Y-37.54
X125.56Y-35.0
X125.56Y-37.54
X128.1Y-35.0
X128.1Y-37.54
X130.64Y-35.0
X130.64Y-37.54
X133.18Y-35.0
X133.18Y-37.54
X135.72Y-35.0
X135.72Y-37.54
X138.26Y-35.0
X138.26Y-37.54
X140.8Y-35.0
X140.8Y-37.54
X143.34Y-35.0
X143.34Y-37.54
X145.88Y-35.0
X145.88Y-37.54
X148.42Y-35.0
X148.42Y-37.54
X150.96Y-35.0
X150.96Y-37.54
X153.5Y-35.0
X153.5Y-37.54
X156.04Y-35.0
X156.04Y-37.54
X158.58Y-35.0
X158.58Y-37.54
X161.12Y-35.0
X161.12Y-37.54
X163.66Y-35.0
X163.66Y-37.54
X166.2Y-35.0
X166.2Y-37.54
X168.74Y-35.0
X168.74Y-37.54
X171.28Y-35.0
X171.28Y-37.54
X172.5Y-59.92
X172.5Y-62.46
X172.5Y-65.0
X172.5Y-67.54
X172.5Y-70.08
X172.5Y-72.62
X172.5Y-75.16
X172.5Y-77.7
X175.04Y-59.92
X175.04Y-62.46
X175.04Y-65.0
X175.04Y-67.54
X175.04Y-70.08
X175.04Y-72.62
X175.04Y-75.16
X175.04Y-77.7
T4
X159.685Y-78.57
X164.765Y-78.57
T5
X118.185Y-36.07
X118.185Y-85.07
X176.185Y-36.07
X176.185Y-85.07
M30
